# File exported by Houdini 20.5.584 (www.sidefx.com)
# 40 points
# 144 vertices
# 34 primitives
# Bounds: [-0.0433333367, 0, -0.0433333367] to [0.0433333367, 0.100033633, 0.0433333367]
g 
v 0.0295833256 0.100033633 0
v 0.0209185686 0.100033633 -0.0209185686
v -1.29312827e-09 0.100033633 -0.0295833256
v -0.0209185686 0.100033633 -0.0209185686
v -0.0295833256 0.100033633 2.58625654e-09
v -0.0209185667 0.100033633 0.0209185742
v 3.52777613e-10 0.100033633 0.0295833256
v 0.020918576 0.100033633 0.0209185649
v 0.0295833256 0.0823868662 0
v 0.0209185686 0.0823868662 -0.0209185686
v -1.29312827e-09 0.0823868662 -0.0295833256
v -0.0209185686 0.0823868662 -0.0209185686
v -0.0295833256 0.0823868662 2.58625654e-09
v -0.0209185667 0.0823868662 0.0209185742
v 3.52777613e-10 0.0823868662 0.0295833256
v 0.020918576 0.0823868662 0.0209185649
v 0.0374999978 0.0755219758 0
v 0.0265165009 0.0755219758 -0.0265165009
v -1.63917691e-09 0.0755219758 -0.0374999978
v -0.0265165009 0.0755219758 -0.0265165009
v -0.0374999978 0.0755219758 3.27835381e-09
v -0.0265164971 0.0755219758 0.0265165064
v 4.47182985e-10 0.0755219758 0.0374999978
v 0.0265165102 0.0755219758 0.0265164953
v 0.0433333367 0.0125839002 0
v 0.0306412932 0.0125839002 -0.0306412932
v -1.89416016e-09 0.0125839002 -0.0433333367
v -0.0306412932 0.0125839002 -0.0306412932
v -0.0433333367 0.0125839002 3.78832032e-09
v -0.0306412894 0.0125839002 0.0306413006
v 5.16744814e-10 0.0125839002 0.0433333367
v 0.0306413043 0.0125839002 0.0306412857
v 0.0387499966 0 0
v 0.0274003819 0 -0.0274003819
v -1.69381609e-09 0 -0.0387499966
v -0.0274003819 0 -0.0274003819
v -0.0387499966 0 3.38763217e-09
v -0.02740038 0 0.0274003893
v 4.62089061e-10 0 0.0387499966
v 0.027400393 0 0.0274003763
vt 0.412598759 0.826661289 0
vt 0.320977867 0.864611924 0
vt 0.229356915 0.826661289 0
vt 0.19140625 0.735040367 0
vt 0.22935684 0.643419445 0
vt 0.320977777 0.60546875 0
vt 0.412598729 0.643419385 0
vt 0.450549394 0.735040367 0
vt 0.610150218 0.873620749 0
vt 0.490139723 0.823910773 0
vt 0.440429688 0.703900158 0
vt 0.490139753 0.583889604 0
vt 0.610150278 0.534179688 0
vt 0.730160773 0.583889723 0
vt 0.779870749 0.703900218 0
vt 0.730160713 0.823910773 0
vt 0.189975888 0.944451332 0
vt 0.121158928 0.970421433 0
vt 0.0806230605 0.878753781 0
vt 0.155796602 0.856049478 0
vt 0.0564671196 0.773370802 0
vt 0.134995386 0.762542009 0
vt 0.0511814691 0.665332854 0
vt 0.12965773 0.666989684 0
vt 0.065729402 0.565990865 0
vt 0.138927773 0.572905302 0
vt 0.849207461 0.287147075 0
vt 0.92122817 0.272205889 0
vt 0.947000563 0.369066149 0
vt 0.869209111 0.379791826 0
vt 0.954457581 0.476924628 0
vt 0.875201046 0.475397378 0
vt 0.942861199 0.584468484 0
vt 0.865599453 0.570616007 0
vt 0.913026631 0.680334806 0
vt 0.841796875 0.662110507 0
vt 0.0897158235 0.999833524 0
vt 0.0379377343 0.894051373 0
vt 0.0114001324 0.779601514 0
vt 0.005859375 0.662108839 0
vt 0.0274254791 0.545898438 0
vt 0.956866384 0.248046875 0
vt 0.99154681 0.360599577 0
vt 0.999945164 0.477785259 0
vt 0.987128913 0.594708264 0
vt 0.947736025 0.706144929 0
vt 0.592648685 0.538937151 0
vt 0.318754077 0.579233646 0
vt 0.302698821 0.434860796 0
vt 0.578754723 0.41399911 0
vt 0.296875 0.289714724 0
vt 0.573714912 0.288391888 0
vt 0.301311582 0.144519672 0
vt 0.577554226 0.162742361 0
vt 0.315986425 0 0
vt 0.590253651 0.0376773514 0
vt 0 0.0394189283 0
vt 0.274022281 0 0
vt 0.289614946 0.144423559 0
vt 0.013493658 0.164400816 0
vt 0.29497385 0.289587468 0
vt 0.0181311332 0.290023446 0
vt 0.290072173 0.434767693 0
vt 0.0138893351 0.415660113 0
vt 0.274934471 0.579239488 0
vt 0.000789441867 0.540683806 0
vt 0.775316656 0.556277573 0
vt 0.724408746 0.527137399 0
vt 0.773619473 0.406921297 0
vt 0.830348015 0.421842307 0
vt 0.789924979 0.278050274 0
vt 0.848582089 0.277728379 0
vt 0.772206485 0.149365813 0
vt 0.828767896 0.13382329 0
vt 0.721679688 0.0296968855 0
vt 0.772264779 0 0
vt 0.667893171 0 0
vt 0.718708932 0.0293004904 0
vt 0.669119477 0.149360836 0
vt 0.612438202 0.134261072 0
vt 0.652407885 0.278179735 0
vt 0.59375 0.278316647 0
vt 0.669720531 0.40691936 0
vt 0.613110304 0.42228353 0
vt 0.719869673 0.526746929 0
vt 0.669191241 0.556284308 0
vn 0.548985124 0.630262494 0.548984945
vn 0.776382089 0.630262375 -9.56624859e-08
vn 0.548985064 0.630262554 -0.548985064
vn -4.7831243e-08 0.630262375 -0.776382089
vn -0.548985064 0.630262554 -0.548985004
vn -0.776382089 0.630262375 1.59437477e-08
vn -0.548985004 0.630262554 0.548985124
vn 1.11606234e-07 0.630262494 0.776382089
vn 0.654669404 -0.755915463 -1.17813968e-07
vn 0.462921172 -0.755915403 0.462921023
vn 1.17813968e-07 -0.755915403 0.654669404
vn -0.462921023 -0.755915463 0.462921172
vn -0.654669344 -0.755915463 2.61808832e-08
vn -0.462921143 -0.755915523 -0.462921083
vn 1.30904416e-08 -0.755915403 -0.654669344
vn 0.462921023 -0.755915403 -0.462921083
vn 0.776382089 0.630262375 -9.56624859e-08
vn 0.888364851 0.459138095 -1.30874469e-07
vn 0.628168881 0.459138036 -0.628168881
vn 0.548985064 0.630262554 -0.548985064
vn 0.548985064 0.630262554 -0.548985064
vn 0.628168881 0.459138036 -0.628168881
vn -3.02018002e-08 0.459138125 -0.888364851
vn -4.7831243e-08 0.630262375 -0.776382089
vn -4.7831243e-08 0.630262375 -0.776382089
vn -3.02018002e-08 0.459138125 -0.888364851
vn -0.628168941 0.459138036 -0.628168881
vn -0.548985064 0.630262554 -0.548985004
vn -0.548985064 0.630262554 -0.548985004
vn -0.628168941 0.459138036 -0.628168881
vn -0.888364851 0.459138095 -1.0067267e-08
vn -0.776382089 0.630262375 1.59437477e-08
vn -0.776382089 0.630262375 1.59437477e-08
vn -0.888364851 0.459138095 -1.0067267e-08
vn -0.628168762 0.459138006 0.628168941
vn -0.548985004 0.630262554 0.548985124
vn -0.548985004 0.630262554 0.548985124
vn -0.628168762 0.459138006 0.628168941
vn 1.15773574e-07 0.459138125 0.888364851
vn 1.11606234e-07 0.630262494 0.776382089
vn 1.11606234e-07 0.630262494 0.776382089
vn 1.15773574e-07 0.459138125 0.888364851
vn 0.628168941 0.459138006 0.628168821
vn 0.548985124 0.630262494 0.548984945
vn 0.548985124 0.630262494 0.548984945
vn 0.628168941 0.459138006 0.628168821
vn 0.888364851 0.459138095 -1.30874469e-07
vn 0.776382089 0.630262375 -9.56624859e-08
vn 0.888364851 0.459138095 -1.30874469e-07
vn 0.905937314 0.423411816 -8.26681159e-08
vn 0.640594423 0.423411846 -0.640594423
vn 0.628168881 0.459138036 -0.628168881
vn 0.628168881 0.459138036 -0.628168881
vn 0.640594423 0.423411846 -0.640594423
vn -5.90486593e-08 0.423411906 -0.905937314
vn -3.02018002e-08 0.459138125 -0.888364851
vn -3.02018002e-08 0.459138125 -0.888364851
vn -5.90486593e-08 0.423411906 -0.905937314
vn -0.640594363 0.423411876 -0.640594363
vn -0.628168941 0.459138036 -0.628168881
vn -0.628168941 0.459138036 -0.628168881
vn -0.640594363 0.423411876 -0.640594363
vn -0.905937314 0.423411846 8.2668123e-08
vn -0.888364851 0.459138095 -1.0067267e-08
vn -0.888364851 0.459138095 -1.0067267e-08
vn -0.905937314 0.423411846 8.2668123e-08
vn -0.640594363 0.423411876 0.640594482
vn -0.628168762 0.459138006 0.628168941
vn -0.628168762 0.459138006 0.628168941
vn -0.640594363 0.423411876 0.640594482
vn 8.2668123e-08 0.423411906 0.905937314
vn 1.15773574e-07 0.459138125 0.888364851
vn 1.15773574e-07 0.459138125 0.888364851
vn 8.2668123e-08 0.423411906 0.905937314
vn 0.640594542 0.423411846 0.640594304
vn 0.628168941 0.459138006 0.628168821
vn 0.628168941 0.459138006 0.628168821
vn 0.640594542 0.423411846 0.640594304
vn 0.905937314 0.423411816 -8.26681159e-08
vn 0.888364851 0.459138095 -1.30874469e-07
vn 0.905937314 0.423411816 -8.26681159e-08
vn 0.992556453 -0.121785179 -9.95658169e-08
vn 0.701843381 -0.121785216 -0.701843441
vn 0.640594423 0.423411846 -0.640594423
vn 0.640594423 0.423411846 -0.640594423
vn 0.701843381 -0.121785216 -0.701843441
vn -2.21257377e-08 -0.121785171 -0.992556453
vn -5.90486593e-08 0.423411906 -0.905937314
vn -5.90486593e-08 0.423411906 -0.905937314
vn -2.21257377e-08 -0.121785171 -0.992556453
vn -0.701843441 -0.121785216 -0.701843381
vn -0.640594363 0.423411876 -0.640594363
vn -0.640594363 0.423411876 -0.640594363
vn -0.701843441 -0.121785216 -0.701843381
vn -0.992556453 -0.121785164 4.42514718e-08
vn -0.905937314 0.423411846 8.2668123e-08
vn -0.905937314 0.423411846 8.2668123e-08
vn -0.992556453 -0.121785164 4.42514718e-08
vn -0.701843321 -0.121785149 0.701843441
vn -0.640594363 0.423411876 0.640594482
vn -0.640594363 0.423411876 0.640594482
vn -0.701843321 -0.121785149 0.701843441
vn 1.10628676e-07 -0.121785186 0.992556453
vn 8.2668123e-08 0.423411906 0.905937314
vn 8.2668123e-08 0.423411906 0.905937314
vn 1.10628676e-07 -0.121785186 0.992556453
vn 0.7018435 -0.121785186 0.701843321
vn 0.640594542 0.423411846 0.640594304
vn 0.640594542 0.423411846 0.640594304
vn 0.7018435 -0.121785186 0.701843321
vn 0.992556453 -0.121785179 -9.95658169e-08
vn 0.905937314 0.423411816 -8.26681159e-08
vn 0.992556453 -0.121785179 -9.95658169e-08
vn 0.654669404 -0.755915463 -1.17813968e-07
vn 0.462921023 -0.755915403 -0.462921083
vn 0.701843381 -0.121785216 -0.701843441
vn 0.701843381 -0.121785216 -0.701843441
vn 0.462921023 -0.755915403 -0.462921083
vn 1.30904416e-08 -0.755915403 -0.654669344
vn -2.21257377e-08 -0.121785171 -0.992556453
vn -2.21257377e-08 -0.121785171 -0.992556453
vn 1.30904416e-08 -0.755915403 -0.654669344
vn -0.462921143 -0.755915523 -0.462921083
vn -0.701843441 -0.121785216 -0.701843381
vn -0.701843441 -0.121785216 -0.701843381
vn -0.462921143 -0.755915523 -0.462921083
vn -0.654669344 -0.755915463 2.61808832e-08
vn -0.992556453 -0.121785164 4.42514718e-08
vn -0.992556453 -0.121785164 4.42514718e-08
vn -0.654669344 -0.755915463 2.61808832e-08
vn -0.462921023 -0.755915463 0.462921172
vn -0.701843321 -0.121785149 0.701843441
vn -0.701843321 -0.121785149 0.701843441
vn -0.462921023 -0.755915463 0.462921172
vn 1.17813968e-07 -0.755915403 0.654669404
vn 1.10628676e-07 -0.121785186 0.992556453
vn 1.10628676e-07 -0.121785186 0.992556453
vn 1.17813968e-07 -0.755915403 0.654669404
vn 0.462921172 -0.755915403 0.462921023
vn 0.7018435 -0.121785186 0.701843321
vn 0.7018435 -0.121785186 0.701843321
vn 0.462921172 -0.755915403 0.462921023
vn 0.654669404 -0.755915463 -1.17813968e-07
vn 0.992556453 -0.121785179 -9.95658169e-08
g 
f 8/1/1 1/2/2 2/3/3 3/4/4 4/5/5 5/6/6 6/7/7 7/8/8
f 33/9/9 40/10/10 39/11/11 38/12/12 37/13/13 36/14/14 35/15/15 34/16/16
f 1/17/17 9/18/18 10/19/19 2/20/20
f 2/20/21 10/19/22 11/21/23 3/22/24
f 3/22/25 11/21/26 12/23/27 4/24/28
f 4/24/29 12/23/30 13/25/31 5/26/32
f 5/27/33 13/28/34 14/29/35 6/30/36
f 6/30/37 14/29/38 15/31/39 7/32/40
f 7/32/41 15/31/42 16/33/43 8/34/44
f 8/34/45 16/33/46 9/35/47 1/36/48
f 9/18/49 17/37/50 18/38/51 10/19/52
f 10/19/53 18/38/54 19/39/55 11/21/56
f 11/21/57 19/39/58 20/40/59 12/23/60
f 12/23/61 20/40/62 21/41/63 13/25/64
f 13/28/65 21/42/66 22/43/67 14/29/68
f 14/29/69 22/43/70 23/44/71 15/31/72
f 15/31/73 23/44/74 24/45/75 16/33/76
f 16/33/77 24/45/78 17/46/79 9/35/80
f 17/47/81 25/48/82 26/49/83 18/50/84
f 18/50/85 26/49/86 27/51/87 19/52/88
f 19/52/89 27/51/90 28/53/91 20/54/92
f 20/54/93 28/53/94 29/55/95 21/56/96
f 21/57/97 29/58/98 30/59/99 22/60/100
f 22/60/101 30/59/102 31/61/103 23/62/104
f 23/62/105 31/61/106 32/63/107 24/64/108
f 24/64/109 32/63/110 25/65/111 17/66/112
f 25/67/113 33/68/114 34/69/115 26/70/116
f 26/70/117 34/69/118 35/71/119 27/72/120
f 27/72/121 35/71/122 36/73/123 28/74/124
f 28/74/125 36/73/126 37/75/127 29/76/128
f 29/77/129 37/78/130 38/79/131 30/80/132
f 30/80/133 38/79/134 39/81/135 31/82/136
f 31/82/137 39/81/138 40/83/139 32/84/140
f 32/84/141 40/83/142 33/85/143 25/86/144
