# File exported by Houdini 20.5.584 (www.sidefx.com)
# 98 points
# 384 vertices
# 96 primitives
# Bounds: [2.98023224e-08, 0.00262226909, -1] to [6, 3.21320415, 1]
g 
v 2.98023224e-08 0.00262226909 -1
v 6 0.00262226909 -1
v 6 0.00262226909 1
v 2.98023224e-08 0.00262226909 1
v 2.98023224e-08 3.21320415 -1
v 6 3.21320415 -1
v 6 3.21320415 1
v 2.98023224e-08 3.21320415 1
v 3 1.60791314 -1
v 6 1.60791314 0
v 3 1.60791314 1
v 2.98023224e-08 1.60791314 0
v 3 0.00262226909 0
v 3 3.21320415 0
v 6 1.60791326 -1
v 3 3.21320415 -1
v 2.98023224e-08 1.60791326 -1
v 3 0.00262226909 -1
v 6 1.60791326 1
v 6 3.21320415 0
v 6 0.00262226909 0
v 2.98023224e-08 1.60791326 1
v 3 3.21320415 1
v 3 0.00262226909 1
v 2.98023224e-08 3.21320415 0
v 2.98023224e-08 0.00262226909 0
v 4.5 0.805267751 -1
v 4.5 2.4105587 -1
v 1.5 2.4105587 -1
v 1.5 0.805267751 -1
v 6 0.805267751 0.5
v 6 2.4105587 0.5
v 6 2.4105587 -0.5
v 6 0.805267751 -0.5
v 1.5 0.805267751 1
v 1.5 2.4105587 1
v 4.5 2.4105587 1
v 4.5 0.805267751 1
v 2.98023224e-08 0.805267751 -0.5
v 2.98023224e-08 2.4105587 -0.5
v 2.98023224e-08 2.4105587 0.5
v 2.98023224e-08 0.805267751 0.5
v 4.5 0.00262226909 0.5
v 4.5 0.00262226909 -0.5
v 1.5 0.00262226909 -0.5
v 1.5 0.00262226909 0.5
v 4.5 3.21320415 -0.5
v 4.5 3.21320415 0.5
v 1.5 3.21320415 0.5
v 1.5 3.21320415 -0.5
v 4.5 1.60791326 -1
v 3 2.4105587 -1
v 1.5 1.60791326 -1
v 3 0.805267692 -1
v 6 1.60791326 0.5
v 6 2.4105587 0
v 6 1.60791326 -0.5
v 6 0.805267692 0
v 1.5 1.60791326 1
v 3 2.4105587 1
v 4.5 1.60791326 1
v 3 0.805267692 1
v 2.98023224e-08 1.60791326 -0.5
v 2.98023224e-08 2.4105587 0
v 2.98023224e-08 1.60791326 0.5
v 2.98023224e-08 0.805267692 0
v 4.5 0.00262226909 0
v 3 0.00262226909 -0.5
v 1.5 0.00262226909 0
v 3 0.00262226909 0.5
v 4.5 3.21320415 0
v 3 3.21320415 0.5
v 1.5 3.21320415 0
v 3 3.21320415 -0.5
v 6 0.805267751 -1
v 6 2.4105587 -1
v 4.5 3.21320415 -1
v 1.5 3.21320415 -1
v 2.98023224e-08 2.4105587 -1
v 2.98023224e-08 0.805267751 -1
v 1.5 0.00262226909 -1
v 4.5 0.00262226909 -1
v 6 0.805267751 1
v 6 2.4105587 1
v 6 3.21320415 0.5
v 6 3.21320415 -0.5
v 6 0.00262226909 -0.5
v 6 0.00262226909 0.5
v 2.98023224e-08 0.805267751 1
v 2.98023224e-08 2.4105587 1
v 1.5 3.21320415 1
v 4.5 3.21320415 1
v 4.5 0.00262226909 1
v 1.5 0.00262226909 1
v 2.98023224e-08 3.21320415 -0.5
v 2.98023224e-08 3.21320415 0.5
v 2.98023224e-08 0.00262226909 0.5
v 2.98023224e-08 0.00262226909 -0.5
vt 0.37500006 0.200661331 0
vt 0.28125006 0.200661331 0
vt 0.28125003 0.150496006 0
vt 0.37500006 0.150496006 0
vt 0.28125006 0.100330666 0
vt 0.37500006 0.100330666 0
vt 0.18750003 0.150496006 0
vt 0.18750003 0.100330666 0
vt 0.18750003 0.200661331 0
vt 0.28125003 0.0501653329 0
vt 0.37500006 0.0501653329 0
vt 0.28125006 1.38777878e-17 0
vt 0.37500006 0 0
vt 0.18750003 0.0501653329 0
vt 0.18750003 2.77555756e-17 0
vt 0.0937500149 0.100330666 0
vt 0.0937500149 0.0501653329 0
vt 0.0937500149 4.16333634e-17 0
vt 0 0.0501653329 0
vt 0 5.55111512e-17 0
vt 0 0.100330666 0
vt 0.0937500149 0.200661331 0
vt 0.0937500149 0.150496006 0
vt 0 0.150496006 0
vt 0 0.200661331 0
vt 0.954567611 0 0
vt 0.954567611 0.03125 0
vt 0.904402316 0.03125 0
vt 0.904402256 3.07174162e-18 0
vt 0.85423696 0.03125 0
vt 0.85423696 6.14348323e-18 0
vt 0.904402256 0.0625 0
vt 0.85423696 0.0625 0
vt 0.954567611 0.0625 0
vt 0.804071665 0.03125 0
vt 0.804071605 9.21522464e-18 0
vt 0.75390625 0.03125 0
vt 0.75390625 1.22869665e-17 0
vt 0.804071605 0.0625 0
vt 0.75390625 0.0625 0
vt 0.85423696 0.09375 0
vt 0.804071665 0.09375 0
vt 0.75390625 0.09375 0
vt 0.804071605 0.125 0
vt 0.75390625 0.125 0
vt 0.85423696 0.125 0
vt 0.954567611 0.09375 0
vt 0.904402316 0.09375 0
vt 0.904402256 0.125 0
vt 0.954567611 0.125 0
vt 0.751953125 0.200661361 0
vt 0.658203125 0.200661361 0
vt 0.658203125 0.150496021 0
vt 0.751953125 0.150496021 0
vt 0.658203125 0.100330681 0
vt 0.751953125 0.100330681 0
vt 0.564453125 0.150496021 0
vt 0.564453125 0.100330681 0
vt 0.564453125 0.200661361 0
vt 0.658203125 0.0501653403 0
vt 0.751953125 0.0501653403 0
vt 0.658203125 1.38777878e-17 0
vt 0.751953125 0 0
vt 0.564453125 0.0501653403 0
vt 0.564453125 2.77555756e-17 0
vt 0.470703125 0.100330681 0
vt 0.470703125 0.0501653403 0
vt 0.470703125 4.16333634e-17 0
vt 0.376953125 0.0501653403 0
vt 0.376953125 5.55111512e-17 0
vt 0.376953125 0.100330681 0
vt 0.470703125 0.200661361 0
vt 0.470703125 0.150496021 0
vt 0.376953125 0.150496021 0
vt 0.376953125 0.200661361 0
vt 0.954567552 0.125976562 0
vt 0.954567552 0.157226562 0
vt 0.904402256 0.157226562 0
vt 0.904402256 0.125976562 0
vt 0.854236841 0.157226562 0
vt 0.854236901 0.125976562 0
vt 0.904402196 0.188476562 0
vt 0.854236841 0.188476562 0
vt 0.954567552 0.188476562 0
vt 0.804071546 0.157226562 0
vt 0.804071546 0.125976562 0
vt 0.75390625 0.157226562 0
vt 0.75390625 0.125976562 0
vt 0.804071546 0.188476562 0
vt 0.75390625 0.188476562 0
vt 0.854236841 0.219726562 0
vt 0.804071546 0.219726562 0
vt 0.75390625 0.219726562 0
vt 0.804071546 0.250976562 0
vt 0.75390625 0.250976562 0
vt 0.854236901 0.250976562 0
vt 0.954567552 0.219726562 0
vt 0.904402256 0.219726562 0
vt 0.904402256 0.250976562 0
vt 0.954567552 0.250976562 0
vt 0.375 0.327148438 0
vt 0.28125 0.327148438 0
vt 0.28125 0.295898438 0
vt 0.375 0.295898438 0
vt 0.28125 0.264648438 0
vt 0.375 0.264648438 0
vt 0.1875 0.295898438 0
vt 0.1875 0.264648438 0
vt 0.1875 0.327148438 0
vt 0.28125 0.233398438 0
vt 0.375 0.233398438 0
vt 0.28125 0.202148438 0
vt 0.375 0.202148438 0
vt 0.1875 0.233398438 0
vt 0.1875 0.202148438 0
vt 0.09375 0.264648438 0
vt 0.09375 0.233398438 0
vt 0.09375 0.202148438 0
vt 0 0.233398438 0
vt 0 0.202148438 0
vt 0 0.264648438 0
vt 0.09375 0.327148438 0
vt 0.09375 0.295898438 0
vt 0 0.295898438 0
vt 0 0.327148438 0
vt 0.751953125 0.327148438 0
vt 0.658203125 0.327148438 0
vt 0.658203125 0.295898438 0
vt 0.751953125 0.295898438 0
vt 0.658203125 0.264648438 0
vt 0.751953125 0.264648438 0
vt 0.564453125 0.295898438 0
vt 0.564453125 0.264648438 0
vt 0.564453125 0.327148438 0
vt 0.658203125 0.233398438 0
vt 0.751953125 0.233398438 0
vt 0.658203125 0.202148438 0
vt 0.751953125 0.202148438 0
vt 0.564453125 0.233398438 0
vt 0.564453125 0.202148438 0
vt 0.470703125 0.264648438 0
vt 0.470703125 0.233398438 0
vt 0.470703125 0.202148438 0
vt 0.376953125 0.233398438 0
vt 0.376953125 0.202148438 0
vt 0.376953125 0.264648438 0
vt 0.470703125 0.327148438 0
vt 0.470703125 0.295898438 0
vt 0.376953125 0.295898438 0
vt 0.376953125 0.327148438 0
g 
usemtl /obj/serverrack_lp/texel_density1/uvquickshade1/shop_definition/texture_material
f 2/1 82/2 27/3 75/4
f 75/4 27/3 51/5 15/6
f 27/3 54/7 9/8 51/5
f 82/2 18/9 54/7 27/3
f 15/6 51/5 28/10 76/11
f 76/11 28/10 77/12 6/13
f 28/10 52/14 16/15 77/12
f 51/5 9/8 52/14 28/10
f 9/8 53/16 29/17 52/14
f 52/14 29/17 78/18 16/15
f 29/17 79/19 5/20 78/18
f 53/16 17/21 79/19 29/17
f 18/9 81/22 30/23 54/7
f 54/7 30/23 53/16 9/8
f 30/23 80/24 17/21 53/16
f 81/22 1/25 80/24 30/23
f 3/26 88/27 31/28 83/29
f 83/29 31/28 55/30 19/31
f 31/28 58/32 10/33 55/30
f 88/27 21/34 58/32 31/28
f 19/31 55/30 32/35 84/36
f 84/36 32/35 85/37 7/38
f 32/35 56/39 20/40 85/37
f 55/30 10/33 56/39 32/35
f 10/33 57/41 33/42 56/39
f 56/39 33/42 86/43 20/40
f 33/42 76/44 6/45 86/43
f 57/41 15/46 76/44 33/42
f 21/34 87/47 34/48 58/32
f 58/32 34/48 57/41 10/33
f 34/48 75/49 15/46 57/41
f 87/47 2/50 75/49 34/48
f 4/51 94/52 35/53 89/54
f 89/54 35/53 59/55 22/56
f 35/53 62/57 11/58 59/55
f 94/52 24/59 62/57 35/53
f 22/56 59/55 36/60 90/61
f 90/61 36/60 91/62 8/63
f 36/60 60/64 23/65 91/62
f 59/55 11/58 60/64 36/60
f 11/58 61/66 37/67 60/64
f 60/64 37/67 92/68 23/65
f 37/67 84/69 7/70 92/68
f 61/66 19/71 84/69 37/67
f 24/59 93/72 38/73 62/57
f 62/57 38/73 61/66 11/58
f 38/73 83/74 19/71 61/66
f 93/72 3/75 83/74 38/73
f 1/76 98/77 39/78 80/79
f 80/79 39/78 63/80 17/81
f 39/78 66/82 12/83 63/80
f 98/77 26/84 66/82 39/78
f 17/81 63/80 40/85 79/86
f 79/86 40/85 95/87 5/88
f 40/85 64/89 25/90 95/87
f 63/80 12/83 64/89 40/85
f 12/83 65/91 41/92 64/89
f 64/89 41/92 96/93 25/90
f 41/92 90/94 8/95 96/93
f 65/91 22/96 90/94 41/92
f 26/84 97/97 42/98 66/82
f 66/82 42/98 65/91 12/83
f 42/98 89/99 22/96 65/91
f 97/97 4/100 89/99 42/98
f 3/101 93/102 43/103 88/104
f 88/104 43/103 67/105 21/106
f 43/103 70/107 13/108 67/105
f 93/102 24/109 70/107 43/103
f 21/106 67/105 44/110 87/111
f 87/111 44/110 82/112 2/113
f 44/110 68/114 18/115 82/112
f 67/105 13/108 68/114 44/110
f 13/108 69/116 45/117 68/114
f 68/114 45/117 81/118 18/115
f 45/117 98/119 1/120 81/118
f 69/116 26/121 98/119 45/117
f 24/109 94/122 46/123 70/107
f 70/107 46/123 69/116 13/108
f 46/123 97/124 26/121 69/116
f 94/122 4/125 97/124 46/123
f 6/126 77/127 47/128 86/129
f 86/129 47/128 71/130 20/131
f 47/128 74/132 14/133 71/130
f 77/127 16/134 74/132 47/128
f 20/131 71/130 48/135 85/136
f 85/136 48/135 92/137 7/138
f 48/135 72/139 23/140 92/137
f 71/130 14/133 72/139 48/135
f 14/133 73/141 49/142 72/139
f 72/139 49/142 91/143 23/140
f 49/142 96/144 8/145 91/143
f 73/141 25/146 96/144 49/142
f 16/134 78/147 50/148 74/132
f 74/132 50/148 73/141 14/133
f 50/148 95/149 25/146 73/141
f 78/147 5/150 95/149 50/148
