# File exported by Houdini 20.5.584 (www.sidefx.com)
# 280 points
# 1112 vertices
# 278 primitives
# Bounds: [-1.25538952e-06, -2, -1.78817203e-07] to [2.00000119, 5.0999999, 15.000001]
g 
v 0 0 0
v 1 0 0
v 0 0 1
v 0 0 2
v 1 0 2
v 0 0 3
v 1 0 3
v 0 0 4
v 1 0 4
v 0 0 5
v 1 0 5
v 0 0 6
v 0 0 7
v 1 0 7
v 0 0 8
v 1 0 8
v 0 0 9
v 1 0 9
v 0 0 10
v 1 0 10
v 0 0 11
v 0 0 12
v 1 0 12
v 0 0 13
v 1 0 13
v 0 0 14
v 1 0 14
v 0 0 15
v 1 0 15
v 2 0 0
v 2 0 1
v 2 0 2
v 2 0 3
v 2 0 4
v 2 0 5
v 2 0 6
v 2 0 7
v 2 0 8
v 2 0 9
v 2 0 10
v 2 0 11
v 2 0 12
v 2 0 13
v 2 0 14
v 2 0 15
v 0 2 0
v 1 2 0
v 0 2 1
v 0 2 2
v 0 2 3
v 0 2 4
v 0 2 5
v 0 2 6
v 0 2 7
v 0 2 8
v 0 2 9
v 0 2 10
v 0 2 11
v 0 2 12
v 0 2 13
v 0 2 14
v 1 2 15
v 0 2 15
v 2 2 0
v 2 2 1
v 2 2 2
v 2 2 3
v 2 2 4
v 2 2 5
v 2 2 6
v 2 2 7
v 2 2 8
v 2 2 9
v 2 2 10
v 2 2 11
v 2 2 12
v 2 2 13
v 2 2 14
v 2 2 15
v 2.98012708e-08 1 1.78810751e-07
v 1 1 -3.22408853e-12
v 2 1 -1.78817203e-07
v 2 1 0.999999821
v 2 1 1.99999976
v 2 1 2.99999976
v 2 1 4
v 2 1 5
v 2 1 6
v 2 1 7
v 2 1 8
v 2 1 9
v 2 1 10
v 2 1 11
v 2 1 12
v 2 1 13
v 2 1 14
v 2 1 15
v 1 1 15
v 2.98021234e-08 1 15
v -2.98025782e-08 1 14
v 2.98020097e-08 1 13
v -2.98026919e-08 1 12
v 2.98017397e-08 1 11
v -2.98029619e-08 1 10
v 2.98016261e-08 1 9
v -2.98030365e-08 1 8
v 2.98015514e-08 1 7
v 2.98014555e-08 1 6
v 2.98013987e-08 1 5
v 2.98013418e-08 1 4
v 2.98014413e-08 1 3.00000024
v 2.98013845e-08 1 2.00000024
v 2.98013276e-08 1 1.00000012
v 0 5.0999999 0
v 1 5.0999999 0
v 1 5.0999999 1
v 0 5.0999999 1
v 1 5.0999999 2
v 0 5.0999999 2
v 1 5.0999999 3
v 0 5.0999999 3
v 1 5.0999999 4
v 0 5.0999999 4
v 1 5.0999999 5
v 0 5.0999999 5
v 1 5.0999999 6
v 0 5.0999999 6
v 1 5.0999999 7
v 0 5.0999999 7
v 1 5.0999999 8
v 0 5.0999999 8
v 1 5.0999999 9
v 0 5.0999999 9
v 1 5.0999999 10
v 0 5.0999999 10
v 1 5.0999999 11
v 0 5.0999999 11
v 1 5.0999999 12
v 0 5.0999999 12
v 1 5.0999999 13
v 0 5.0999999 13
v 1 5.0999999 14
v 0 5.0999999 14
v 1 5.0999999 15
v 0 5.0999999 15
v 2 5.0999999 0
v 2 5.0999999 1
v 2 5.0999999 2
v 2 5.0999999 3
v 2 5.0999999 4
v 2 5.0999999 5
v 2 5.0999999 6
v 2 5.0999999 7
v 2 5.0999999 8
v 2 5.0999999 9
v 2 5.0999999 10
v 2 5.0999999 11
v 2 5.0999999 12
v 2 5.0999999 13
v 2 5.0999999 14
v 2 5.0999999 15
v 8.94054892e-08 3.0333333 6.55647909e-07
v 1 3.0333333 -3.22408918e-12
v 2 3.0333333 2.98019899e-07
v 2 3.0333333 1.00000024
v 2 3.0333333 2.00000024
v 2 3.0333333 3.00000024
v 2 3.0333333 4.00000048
v 2 3.0333333 5.00000048
v 2 3.0333333 6.00000048
v 2 3.0333333 7.00000048
v 2 3.0333333 8.00000095
v 2 3.0333333 9.00000095
v 2 3.0333333 10.000001
v 2 3.0333333 11.000001
v 2 3.0333333 12
v 2 3.0333333 13
v 2 3.0333333 14
v 1.99999988 3.0333333 15
v 1 3.0333333 15
v 2.98025498e-08 3.0333333 15.000001
v -2.98022087e-08 3.0333333 14.000001
v 2.98023224e-08 3.0333333 13.000001
v -2.98024361e-08 3.0333333 12.000001
v 2.98019387e-08 3.0333333 11
v -2.98028198e-08 3.0333333 10
v 2.98017113e-08 3.0333333 9
v -2.98030081e-08 3.0333333 8.00000095
v 2.9801523e-08 3.0333333 7.00000048
v 8.9406015e-08 3.0333333 6.00000048
v 2.98012566e-08 3.0333333 5.00000048
v -2.98036582e-08 3.0333333 4
v 2.98011855e-08 3.0333333 3.00000072
v 2.98010718e-08 3.0333333 2.00000072
v 2.98009581e-08 3.0333333 1.0000006
v 1.55341183e-06 4.0666666 9.452325e-07
v 1.00000143 4.0666666 4.76834856e-07
v 2.00000119 4.0666666 9.62111585e-07
v 2.00000119 4.0666666 1.00000095
v 2.00000095 4.0666666 2.00000095
v 2.00000072 4.0666666 3.00000095
v 2.00000048 4.0666666 4.00000095
v 2.00000048 4.0666666 5.00000095
v 2.00000024 4.0666666 6.00000095
v 2 4.0666666 7.00000048
v 1.99999976 4.0666666 8.00000095
v 1.99999964 4.0666666 9.00000095
v 1.9999994 4.0666666 10.000001
v 1.99999928 4.0666666 11.000001
v 1.99999905 4.0666666 12
v 1.99999893 4.0666666 13
v 1.99999869 4.0666666 14
v 1.99999845 4.0666666 15
v 0.999998569 4.0666666 15
v -1.25538952e-06 4.0666666 15
v -1.1277408e-06 4.0666666 14
v -8.80882737e-07 4.0666666 13
v -7.53233962e-07 4.0666666 12
v -5.06375955e-07 4.0666666 11
v -3.78727179e-07 4.0666666 10
v -1.31869086e-07 4.0666666 9
v -4.22027302e-09 4.0666666 8
v 1.83033166e-07 4.0666666 7.00000048
v 4.29891202e-07 4.0666666 6.00000048
v 5.57539977e-07 4.0666666 5.00000048
v 6.85188638e-07 4.0666666 4
v 9.32046987e-07 4.0666666 3.00000095
v 1.11930035e-06 4.0666666 2.00000095
v 1.30655383e-06 4.0666666 1.00000095
v 0 -2 0
v 0 -2 1
v 1 -2 1
v 1 -2 0
v 0 -2 2
v 1 -2 2
v 2 -2 1
v 2 -2 0
v 2 -2 2
v 0 -2 5
v 0 -2 6
v 1 -2 6
v 1 -2 5
v 0 -2 7
v 1 -2 7
v 2 -2 6
v 2 -2 5
v 2 -2 7
v 0 -2 10
v 0 -2 11
v 1 -2 11
v 1 -2 10
v 0 -2 12
v 1 -2 12
v 2 -2 11
v 2 -2 10
v 2 -2 12
v 0 -1 0
v 0 -1 1
v 0 -1 2
v 1 -1 2
v 2 -1 2
v 2 -1 1
v 2 -1 0
v 1 -1 0
v 0 -1 5
v 0 -1 6
v 0 -1 7
v 1 -1 7
v 2 -1 7
v 2 -1 6
v 2 -1 5
v 1 -1 5
v 0 -1 10
v 0 -1 11
v 0 -1 12
v 1 -1 12
v 2 -1 12
v 2 -1 11
v 2 -1 10
v 1 -1 10
g 
f 4 5 7 6
f 6 7 9 8
f 8 9 11 10
f 13 14 16 15
f 15 16 18 17
f 17 18 20 19
f 22 23 25 24
f 24 25 27 26
f 26 27 29 28
f 5 32 33 7
f 7 33 34 9
f 9 34 35 11
f 14 37 38 16
f 16 38 39 18
f 18 39 40 20
f 23 42 43 25
f 25 43 44 27
f 27 44 45 29
f 1 80 81 2
f 2 81 82 30
f 30 82 83 31
f 31 83 84 32
f 32 84 85 33
f 33 85 86 34
f 34 86 87 35
f 35 87 88 36
f 36 88 89 37
f 37 89 90 38
f 38 90 91 39
f 39 91 92 40
f 40 92 93 41
f 41 93 94 42
f 42 94 95 43
f 43 95 96 44
f 44 96 97 45
f 45 97 98 29
f 29 98 99 28
f 28 99 100 26
f 26 100 101 24
f 24 101 102 22
f 22 102 103 21
f 21 103 104 19
f 19 104 105 17
f 17 105 106 15
f 15 106 107 13
f 13 107 108 12
f 12 108 109 10
f 10 109 110 8
f 8 110 111 6
f 6 111 112 4
f 4 112 113 3
f 3 113 80 1
f 80 46 47 81
f 81 47 64 82
f 82 64 65 83
f 83 65 66 84
f 84 66 67 85
f 85 67 68 86
f 86 68 69 87
f 87 69 70 88
f 88 70 71 89
f 89 71 72 90
f 90 72 73 91
f 91 73 74 92
f 92 74 75 93
f 93 75 76 94
f 94 76 77 95
f 95 77 78 96
f 96 78 79 97
f 97 79 62 98
f 98 62 63 99
f 99 63 61 100
f 100 61 60 101
f 101 60 59 102
f 102 59 58 103
f 103 58 57 104
f 104 57 56 105
f 105 56 55 106
f 106 55 54 107
f 107 54 53 108
f 108 53 52 109
f 109 52 51 110
f 110 51 50 111
f 111 50 49 112
f 112 49 48 113
f 113 48 46 80
f 114 117 116 115
f 117 119 118 116
f 119 121 120 118
f 121 123 122 120
f 123 125 124 122
f 125 127 126 124
f 127 129 128 126
f 129 131 130 128
f 131 133 132 130
f 133 135 134 132
f 135 137 136 134
f 137 139 138 136
f 139 141 140 138
f 141 143 142 140
f 143 145 144 142
f 115 116 147 146
f 116 118 148 147
f 118 120 149 148
f 120 122 150 149
f 122 124 151 150
f 124 126 152 151
f 126 128 153 152
f 128 130 154 153
f 130 132 155 154
f 132 134 156 155
f 134 136 157 156
f 136 138 158 157
f 138 140 159 158
f 140 142 160 159
f 142 144 161 160
f 46 162 163 47
f 47 163 164 64
f 64 164 165 65
f 65 165 166 66
f 66 166 167 67
f 67 167 168 68
f 68 168 169 69
f 69 169 170 70
f 70 170 171 71
f 71 171 172 72
f 72 172 173 73
f 73 173 174 74
f 74 174 175 75
f 75 175 176 76
f 76 176 177 77
f 77 177 178 78
f 78 178 179 79
f 79 179 180 62
f 62 180 181 63
f 63 181 182 61
f 61 182 183 60
f 60 183 184 59
f 59 184 185 58
f 58 185 186 57
f 57 186 187 56
f 56 187 188 55
f 55 188 189 54
f 54 189 190 53
f 53 190 191 52
f 52 191 192 51
f 51 192 193 50
f 50 193 194 49
f 49 194 195 48
f 48 195 162 46
f 162 196 197 163
f 163 197 198 164
f 164 198 199 165
f 165 199 200 166
f 166 200 201 167
f 167 201 202 168
f 168 202 203 169
f 169 203 204 170
f 170 204 205 171
f 171 205 206 172
f 172 206 207 173
f 173 207 208 174
f 174 208 209 175
f 175 209 210 176
f 176 210 211 177
f 177 211 212 178
f 178 212 213 179
f 179 213 214 180
f 180 214 215 181
f 181 215 216 182
f 182 216 217 183
f 183 217 218 184
f 184 218 219 185
f 185 219 220 186
f 186 220 221 187
f 187 221 222 188
f 188 222 223 189
f 189 223 224 190
f 190 224 225 191
f 191 225 226 192
f 192 226 227 193
f 193 227 228 194
f 194 228 229 195
f 195 229 196 162
f 196 114 115 197
f 197 115 146 198
f 198 146 147 199
f 199 147 148 200
f 200 148 149 201
f 201 149 150 202
f 202 150 151 203
f 203 151 152 204
f 204 152 153 205
f 205 153 154 206
f 206 154 155 207
f 207 155 156 208
f 208 156 157 209
f 209 157 158 210
f 210 158 159 211
f 211 159 160 212
f 212 160 161 213
f 213 161 144 214
f 214 144 145 215
f 215 145 143 216
f 216 143 141 217
f 217 141 139 218
f 218 139 137 219
f 219 137 135 220
f 220 135 133 221
f 221 133 131 222
f 222 131 129 223
f 223 129 127 224
f 224 127 125 225
f 225 125 123 226
f 226 123 121 227
f 227 121 119 228
f 228 119 117 229
f 229 117 114 196
f 230 233 232 231
f 231 232 235 234
f 233 237 236 232
f 232 236 238 235
f 239 242 241 240
f 240 241 244 243
f 242 246 245 241
f 241 245 247 244
f 248 251 250 249
f 249 250 253 252
f 251 255 254 250
f 250 254 256 253
f 1 257 258 3
f 3 258 259 4
f 4 259 260 5
f 5 260 261 32
f 32 261 262 31
f 31 262 263 30
f 30 263 264 2
f 2 264 257 1
f 257 230 231 258
f 258 231 234 259
f 259 234 235 260
f 260 235 238 261
f 261 238 236 262
f 262 236 237 263
f 263 237 233 264
f 264 233 230 257
f 10 265 266 12
f 12 266 267 13
f 13 267 268 14
f 14 268 269 37
f 37 269 270 36
f 36 270 271 35
f 35 271 272 11
f 11 272 265 10
f 265 239 240 266
f 266 240 243 267
f 267 243 244 268
f 268 244 247 269
f 269 247 245 270
f 270 245 246 271
f 271 246 242 272
f 272 242 239 265
f 19 273 274 21
f 21 274 275 22
f 22 275 276 23
f 23 276 277 42
f 42 277 278 41
f 41 278 279 40
f 40 279 280 20
f 20 280 273 19
f 273 248 249 274
f 274 249 252 275
f 275 252 253 276
f 276 253 256 277
f 277 256 254 278
f 278 254 255 279
f 279 255 251 280
f 280 251 248 273
