# File exported by Houdini 20.5.584 (www.sidefx.com)
# 582 points
# 2320 vertices
# 580 primitives
# Bounds: [0, 0, -11] to [30, 5, 1.00000024]
g 
v 0 0 -1
v 1 0 -1
v 0 0 0
v 1 0 0
v 2 0 -1
v 2 0 0
v 3 0 -1
v 3 0 0
v 4 0 -1
v 4 0 0
v 5 0 -1
v 5 0 0
v 6 0 -1
v 6 0 0
v 7 0 -1
v 7 0 0
v 8 0 -1
v 8 0 0
v 9 0 -1
v 9 0 0
v 10 0 -1
v 10 0 0
v 11 0 -1
v 11 0 0
v 12 0 -1
v 12 0 0
v 13 0 -1
v 13 0 0
v 14 0 -1
v 14 0 0
v 15 0 -1
v 15 0 0
v 16 0 -1
v 16 0 0
v 17 0 -1
v 17 0 0
v 18 0 -1
v 18 0 0
v 19 0 -1
v 19 0 0
v 20 0 -1
v 20 0 0
v 21 0 -1
v 21 0 0
v 22 0 -1
v 22 0 0
v 23 0 -1
v 23 0 0
v 24 0 -1
v 24 0 0
v 25 0 -1
v 25 0 0
v 26 0 -1
v 26 0 0
v 27 0 -1
v 27 0 0
v 28 0 -1
v 28 0 0
v 29 0 -1
v 29 0 0
v 30 0 -1
v 30 0 0
v 0 0 1
v 1 0 1
v 2 0 1
v 3 0 1
v 4 0 1
v 5 0 1
v 6 0 1
v 7 0 1
v 8 0 1
v 9 0 1
v 10 0 1
v 11 0 1
v 12 0 1
v 13 0 1
v 14 0 1
v 15 0 1
v 16 0 1
v 17 0 1
v 18 0 1
v 19 0 1
v 20 0 1
v 21 0 1
v 22 0 1
v 23 0 1
v 24 0 1
v 25 0 1
v 26 0 1
v 27 0 1
v 28 0 1
v 29 0 1
v 30 0 1
v 14 0 -2
v 15 0 -2
v 16 0 -2
v 14 0 -3
v 15 0 -3
v 16 0 -3
v 14 0 -4
v 15 0 -4
v 16 0 -4
v 14 0 -5
v 15 0 -5
v 16 0 -5
v 14 0 -6
v 15 0 -6
v 16 0 -6
v 14 0 -7
v 15 0 -7
v 16 0 -7
v 14 0 -8
v 15 0 -8
v 16 0 -8
v 14 0 -9
v 15 0 -9
v 16 0 -9
v 14 0 -10
v 15 0 -10
v 16 0 -10
v 14 0 -11
v 15 0 -11
v 16 0 -11
v 0 5 -1
v 1 5 -1
v 1 5 0
v 0 5 0
v 2 5 -1
v 2 5 0
v 3 5 -1
v 3 5 0
v 4 5 -1
v 4 5 0
v 5 5 -1
v 5 5 0
v 6 5 -1
v 6 5 0
v 7 5 -1
v 7 5 0
v 8 5 -1
v 8 5 0
v 9 5 -1
v 9 5 0
v 10 5 -1
v 10 5 0
v 11 5 -1
v 11 5 0
v 12 5 -1
v 12 5 0
v 13 5 -1
v 13 5 0
v 14 5 -1
v 14 5 0
v 15 5 -1
v 15 5 0
v 16 5 -1
v 16 5 0
v 17 5 -1
v 17 5 0
v 18 5 -1
v 18 5 0
v 19 5 -1
v 19 5 0
v 20 5 -1
v 20 5 0
v 21 5 -1
v 21 5 0
v 22 5 -1
v 22 5 0
v 23 5 -1
v 23 5 0
v 24 5 -1
v 24 5 0
v 25 5 -1
v 25 5 0
v 26 5 -1
v 26 5 0
v 27 5 -1
v 27 5 0
v 28 5 -1
v 28 5 0
v 29 5 -1
v 29 5 0
v 30 5 -1
v 30 5 0
v 1 5 1
v 0 5 1
v 2 5 1
v 3 5 1
v 4 5 1
v 5 5 1
v 6 5 1
v 7 5 1
v 8 5 1
v 9 5 1
v 10 5 1
v 11 5 1
v 12 5 1
v 13 5 1
v 14 5 1
v 15 5 1
v 16 5 1
v 17 5 1
v 18 5 1
v 19 5 1
v 20 5 1
v 21 5 1
v 22 5 1
v 23 5 1
v 24 5 1
v 25 5 1
v 26 5 1
v 27 5 1
v 28 5 1
v 29 5 1
v 30 5 1
v 14 5 -2
v 15 5 -2
v 16 5 -2
v 14 5 -3
v 15 5 -3
v 16 5 -3
v 14 5 -4
v 15 5 -4
v 16 5 -4
v 14 5 -5
v 15 5 -5
v 16 5 -5
v 14 5 -6
v 15 5 -6
v 16 5 -6
v 14 5 -7
v 15 5 -7
v 16 5 -7
v 14 5 -8
v 15 5 -8
v 16 5 -8
v 14 5 -9
v 15 5 -9
v 16 5 -9
v 14 5 -10
v 15 5 -10
v 16 5 -10
v 14 5 -11
v 15 5 -11
v 16 5 -11
v 6.33296935e-08 1 -1
v 1.00000012 1 -1
v 2 1 -1
v 3 1 -1
v 4 1 -1
v 5 1 -1
v 6 1 -1
v 7 1 -1
v 8 1 -1
v 9 1 -1
v 10 1 -1
v 11 1 -1
v 12 1 -1
v 13 1 -1
v 14 1 -1
v 14 1 -2
v 14 1 -2.99999976
v 14 1 -4
v 14 1 -5
v 14 1 -6
v 14 1 -7
v 14 1 -8
v 14 1 -9
v 14 1 -10
v 14 1 -11
v 15 1 -11
v 16 1 -11
v 16 1 -10
v 16 1 -9
v 16 1 -8
v 16 1 -7
v 16 1 -6
v 16 1 -4.99999952
v 16 1 -4
v 16 1 -3
v 16 1 -2
v 16 1 -1
v 17 1 -1
v 18 1 -1
v 19 1 -1
v 20 1 -1
v 21 1 -1
v 22 1 -1
v 23 1 -1
v 24 1 -1
v 25 1 -1
v 26 1 -1
v 27 1 -1
v 28 1 -1
v 29 1 -1
v 30 1 -1
v 30 1 7.4505806e-09
v 30 1 1
v 29 1 1.00000012
v 28 1 1.00000024
v 27 1 0.999999881
v 26 1 1
v 25 1 0.99999994
v 24 1 1
v 23 1 0.99999994
v 22 1 1.00000012
v 21 1 0.999999702
v 20 1 0.999999821
v 19 1 1
v 18 1 1.00000012
v 17 1 1
v 16 1 1.00000012
v 15 1 1
v 14 1 0.999999881
v 13 1 1
v 12 1 0.999999881
v 11 1 1
v 10 1 0.99999994
v 9 1 1
v 8 1 0.99999994
v 7.00000048 1 1
v 6.00000048 1 0.99999994
v 5.00000048 1 1.00000012
v 4.00000048 1 0.99999994
v 3.00000024 1 1.00000012
v 2.00000024 1 1
v 1.00000036 1 1.00000012
v 3.16649448e-07 1 1
v 1.89989564e-07 1 -7.4505806e-09
v 6.33296935e-08 2 -1
v 1.00000012 2 -1
v 2 2 -0.99999994
v 3 2 -1
v 4 2 -1
v 5 2 -1
v 6 2 -1
v 7 2 -1
v 8 2 -1
v 9 2 -1
v 10 2 -1
v 11 2 -1
v 12 2 -1
v 13 2 -1
v 14 2 -1
v 14 2 -2
v 14 2 -3
v 14 2 -4
v 14 2 -5
v 14 2 -6
v 14 2 -7
v 14 2 -8
v 14 2 -9
v 14 2 -10
v 14 2 -11
v 15 2 -11
v 16 2 -11
v 16 2 -10
v 16 2 -9
v 16 2 -8
v 16 2 -7
v 16 2 -6
v 16 2 -5
v 16 2 -4
v 16 2 -3
v 16 2 -2
v 16 2 -1
v 17 2 -1
v 18 2 -1
v 19 2 -1
v 20 2 -1
v 21 2 -1
v 22 2 -1
v 23 2 -1
v 24 2 -1
v 25 2 -1
v 26 2 -1
v 27 2 -1
v 28 2 -1
v 29 2 -1
v 30 2 -1
v 30 2 7.4505806e-09
v 30 2 1
v 29 2 0.999999881
v 28 2 1
v 27 2 0.999999881
v 26 2 1
v 25 2 0.99999994
v 24 2 1
v 23 2 0.99999994
v 22 2 1.00000012
v 21 2 0.99999994
v 20 2 1.00000012
v 19 2 1
v 18 2 1.00000012
v 17 2 1
v 16 2 1.00000012
v 15 2 1
v 14 2 0.999999881
v 13 2 1
v 12 2 0.999999881
v 11 2 1
v 10 2 0.99999994
v 9 2 1
v 8 2 0.99999994
v 7.00000048 2 1
v 6.00000048 2 0.99999994
v 5.00000048 2 1.00000012
v 4.00000048 2 0.99999994
v 3.00000024 2 1.00000012
v 2.00000024 2 1
v 1.00000036 2 1.00000012
v 3.16649448e-07 2 1
v 1.89989564e-07 2 -7.4505806e-09
v 6.33296935e-08 3 -1
v 1.00000012 3 -1
v 2 3 -0.99999994
v 3 3 -1
v 4 3 -1
v 5 3 -1
v 6 3 -1
v 7 3 -1
v 8 3 -1
v 9 3 -1
v 10 3 -1
v 11 3 -1
v 12 3 -1
v 13 3 -1
v 14 3 -1
v 14 3 -2
v 14 3 -3
v 14 3 -4
v 14 3 -5
v 14 3 -6
v 14 3 -7
v 14 3 -8
v 14 3 -9
v 14 3 -10
v 14 3 -11
v 15 3 -11
v 16 3 -11
v 16 3 -10
v 16 3 -9
v 16 3 -8
v 16 3 -7
v 16 3 -6
v 16 3 -5
v 16 3 -4
v 16 3 -3
v 16 3 -2
v 16 3 -1
v 17 3 -1
v 18 3 -1
v 19 3 -1
v 20 3 -1
v 21 3 -1
v 22 3 -1
v 23 3 -1
v 24 3 -1
v 25 3 -1
v 26 3 -1
v 27 3 -1
v 28 3 -1
v 29 3 -1
v 30 3 -1
v 30 3 7.4505806e-09
v 30 3 1
v 29 3 0.999999881
v 28 3 1
v 27 3 0.999999881
v 26 3 1
v 25 3 0.99999994
v 24 3 1
v 23 3 0.99999994
v 22 3 1.00000012
v 21 3 0.99999994
v 20 3 1.00000012
v 19 3 1
v 18 3 1.00000012
v 17 3 1
v 16 3 1.00000012
v 15 3 1
v 14 3 0.999999881
v 13 3 1
v 12 3 0.999999881
v 11 3 1
v 10 3 0.99999994
v 9 3 1
v 8 3 0.99999994
v 7.00000048 3 1
v 6.00000048 3 0.99999994
v 5.00000048 3 1.00000012
v 4.00000048 3 0.99999994
v 3.00000024 3 1.00000012
v 2.00000024 3 1
v 1.00000036 3 1.00000012
v 3.16649448e-07 3 1
v 1.89989564e-07 3 -7.4505806e-09
v 6.33296935e-08 4 -1
v 1.00000012 4 -1
v 2 4 -1
v 3 4 -1
v 4 4 -1
v 5 4 -1
v 6 4 -1
v 7 4 -1
v 8 4 -1
v 9 4 -1
v 10 4 -1
v 11 4 -1
v 12 4 -1
v 13 4 -1
v 14 4 -1
v 14 4 -2
v 14 4 -2.99999976
v 14 4 -4
v 14 4 -5
v 14 4 -6
v 14 4 -7
v 14 4 -8
v 14 4 -9
v 14 4 -10
v 14 4 -11
v 15 4 -11
v 16 4 -11
v 16 4 -10
v 16 4 -9
v 16 4 -8
v 16 4 -7
v 16 4 -6
v 16 4 -4.99999952
v 16 4 -4
v 16 4 -3
v 16 4 -2
v 16 4 -1
v 17 4 -1
v 18 4 -1
v 19 4 -1
v 20 4 -1
v 21 4 -1
v 22 4 -1
v 23 4 -1
v 24 4 -1
v 25 4 -1
v 26 4 -1
v 27 4 -1
v 28 4 -1
v 29 4 -1
v 30 4 -1
v 30 4 7.4505806e-09
v 30 4 1
v 29 4 1.00000012
v 28 4 1.00000024
v 27 4 0.999999881
v 26 4 1
v 25 4 0.99999994
v 24 4 1
v 23 4 0.99999994
v 22 4 1.00000012
v 21 4 0.999999702
v 20 4 0.999999821
v 19 4 1
v 18 4 1.00000012
v 17 4 1
v 16 4 1.00000012
v 15 4 1
v 14 4 0.999999881
v 13 4 1
v 12 4 0.999999881
v 11 4 1
v 10 4 0.99999994
v 9 4 1
v 8 4 0.99999994
v 7.00000048 4 1
v 6.00000048 4 0.99999994
v 5.00000048 4 1.00000012
v 4.00000048 4 0.99999994
v 3.00000024 4 1.00000012
v 2.00000024 4 1
v 1.00000036 4 1.00000012
v 3.16649448e-07 4 1
v 1.89989564e-07 4 -7.4505806e-09
g 
f 1 2 4 3
f 2 5 6 4
f 5 7 8 6
f 7 9 10 8
f 9 11 12 10
f 11 13 14 12
f 13 15 16 14
f 15 17 18 16
f 17 19 20 18
f 19 21 22 20
f 21 23 24 22
f 23 25 26 24
f 25 27 28 26
f 27 29 30 28
f 29 31 32 30
f 31 33 34 32
f 33 35 36 34
f 35 37 38 36
f 37 39 40 38
f 39 41 42 40
f 41 43 44 42
f 43 45 46 44
f 45 47 48 46
f 47 49 50 48
f 49 51 52 50
f 51 53 54 52
f 53 55 56 54
f 55 57 58 56
f 57 59 60 58
f 59 61 62 60
f 3 4 64 63
f 4 6 65 64
f 6 8 66 65
f 8 10 67 66
f 10 12 68 67
f 12 14 69 68
f 14 16 70 69
f 16 18 71 70
f 18 20 72 71
f 20 22 73 72
f 22 24 74 73
f 24 26 75 74
f 26 28 76 75
f 28 30 77 76
f 30 32 78 77
f 32 34 79 78
f 34 36 80 79
f 36 38 81 80
f 38 40 82 81
f 40 42 83 82
f 42 44 84 83
f 44 46 85 84
f 46 48 86 85
f 48 50 87 86
f 50 52 88 87
f 52 54 89 88
f 54 56 90 89
f 56 58 91 90
f 58 60 92 91
f 60 62 93 92
f 94 95 31 29
f 95 96 33 31
f 97 98 95 94
f 98 99 96 95
f 100 101 98 97
f 101 102 99 98
f 103 104 101 100
f 104 105 102 101
f 106 107 104 103
f 107 108 105 104
f 109 110 107 106
f 110 111 108 107
f 112 113 110 109
f 113 114 111 110
f 115 116 113 112
f 116 117 114 113
f 118 119 116 115
f 119 120 117 116
f 121 122 119 118
f 122 123 120 119
f 124 127 126 125
f 125 126 129 128
f 128 129 131 130
f 130 131 133 132
f 132 133 135 134
f 134 135 137 136
f 136 137 139 138
f 138 139 141 140
f 140 141 143 142
f 142 143 145 144
f 144 145 147 146
f 146 147 149 148
f 148 149 151 150
f 150 151 153 152
f 152 153 155 154
f 154 155 157 156
f 156 157 159 158
f 158 159 161 160
f 160 161 163 162
f 162 163 165 164
f 164 165 167 166
f 166 167 169 168
f 168 169 171 170
f 170 171 173 172
f 172 173 175 174
f 174 175 177 176
f 176 177 179 178
f 178 179 181 180
f 180 181 183 182
f 182 183 185 184
f 127 187 186 126
f 126 186 188 129
f 129 188 189 131
f 131 189 190 133
f 133 190 191 135
f 135 191 192 137
f 137 192 193 139
f 139 193 194 141
f 141 194 195 143
f 143 195 196 145
f 145 196 197 147
f 147 197 198 149
f 149 198 199 151
f 151 199 200 153
f 153 200 201 155
f 155 201 202 157
f 157 202 203 159
f 159 203 204 161
f 161 204 205 163
f 163 205 206 165
f 165 206 207 167
f 167 207 208 169
f 169 208 209 171
f 171 209 210 173
f 173 210 211 175
f 175 211 212 177
f 177 212 213 179
f 179 213 214 181
f 181 214 215 183
f 183 215 216 185
f 217 152 154 218
f 218 154 156 219
f 220 217 218 221
f 221 218 219 222
f 223 220 221 224
f 224 221 222 225
f 226 223 224 227
f 227 224 225 228
f 229 226 227 230
f 230 227 228 231
f 232 229 230 233
f 233 230 231 234
f 235 232 233 236
f 236 233 234 237
f 238 235 236 239
f 239 236 237 240
f 241 238 239 242
f 242 239 240 243
f 244 241 242 245
f 245 242 243 246
f 1 247 248 2
f 2 248 249 5
f 5 249 250 7
f 7 250 251 9
f 9 251 252 11
f 11 252 253 13
f 13 253 254 15
f 15 254 255 17
f 17 255 256 19
f 19 256 257 21
f 21 257 258 23
f 23 258 259 25
f 25 259 260 27
f 27 260 261 29
f 29 261 262 94
f 94 262 263 97
f 97 263 264 100
f 100 264 265 103
f 103 265 266 106
f 106 266 267 109
f 109 267 268 112
f 112 268 269 115
f 115 269 270 118
f 118 270 271 121
f 121 271 272 122
f 122 272 273 123
f 123 273 274 120
f 120 274 275 117
f 117 275 276 114
f 114 276 277 111
f 111 277 278 108
f 108 278 279 105
f 105 279 280 102
f 102 280 281 99
f 99 281 282 96
f 96 282 283 33
f 33 283 284 35
f 35 284 285 37
f 37 285 286 39
f 39 286 287 41
f 41 287 288 43
f 43 288 289 45
f 45 289 290 47
f 47 290 291 49
f 49 291 292 51
f 51 292 293 53
f 53 293 294 55
f 55 294 295 57
f 57 295 296 59
f 59 296 297 61
f 61 297 298 62
f 62 298 299 93
f 93 299 300 92
f 92 300 301 91
f 91 301 302 90
f 90 302 303 89
f 89 303 304 88
f 88 304 305 87
f 87 305 306 86
f 86 306 307 85
f 85 307 308 84
f 84 308 309 83
f 83 309 310 82
f 82 310 311 81
f 81 311 312 80
f 80 312 313 79
f 79 313 314 78
f 78 314 315 77
f 77 315 316 76
f 76 316 317 75
f 75 317 318 74
f 74 318 319 73
f 73 319 320 72
f 72 320 321 71
f 71 321 322 70
f 70 322 323 69
f 69 323 324 68
f 68 324 325 67
f 67 325 326 66
f 66 326 327 65
f 65 327 328 64
f 64 328 329 63
f 63 329 330 3
f 3 330 247 1
f 247 331 332 248
f 248 332 333 249
f 249 333 334 250
f 250 334 335 251
f 251 335 336 252
f 252 336 337 253
f 253 337 338 254
f 254 338 339 255
f 255 339 340 256
f 256 340 341 257
f 257 341 342 258
f 258 342 343 259
f 259 343 344 260
f 260 344 345 261
f 261 345 346 262
f 262 346 347 263
f 263 347 348 264
f 264 348 349 265
f 265 349 350 266
f 266 350 351 267
f 267 351 352 268
f 268 352 353 269
f 269 353 354 270
f 270 354 355 271
f 271 355 356 272
f 272 356 357 273
f 273 357 358 274
f 274 358 359 275
f 275 359 360 276
f 276 360 361 277
f 277 361 362 278
f 278 362 363 279
f 279 363 364 280
f 280 364 365 281
f 281 365 366 282
f 282 366 367 283
f 283 367 368 284
f 284 368 369 285
f 285 369 370 286
f 286 370 371 287
f 287 371 372 288
f 288 372 373 289
f 289 373 374 290
f 290 374 375 291
f 291 375 376 292
f 292 376 377 293
f 293 377 378 294
f 294 378 379 295
f 295 379 380 296
f 296 380 381 297
f 297 381 382 298
f 298 382 383 299
f 299 383 384 300
f 300 384 385 301
f 301 385 386 302
f 302 386 387 303
f 303 387 388 304
f 304 388 389 305
f 305 389 390 306
f 306 390 391 307
f 307 391 392 308
f 308 392 393 309
f 309 393 394 310
f 310 394 395 311
f 311 395 396 312
f 312 396 397 313
f 313 397 398 314
f 314 398 399 315
f 315 399 400 316
f 316 400 401 317
f 317 401 402 318
f 318 402 403 319
f 319 403 404 320
f 320 404 405 321
f 321 405 406 322
f 322 406 407 323
f 323 407 408 324
f 324 408 409 325
f 325 409 410 326
f 326 410 411 327
f 327 411 412 328
f 328 412 413 329
f 329 413 414 330
f 330 414 331 247
f 331 415 416 332
f 332 416 417 333
f 333 417 418 334
f 334 418 419 335
f 335 419 420 336
f 336 420 421 337
f 337 421 422 338
f 338 422 423 339
f 339 423 424 340
f 340 424 425 341
f 341 425 426 342
f 342 426 427 343
f 343 427 428 344
f 344 428 429 345
f 345 429 430 346
f 346 430 431 347
f 347 431 432 348
f 348 432 433 349
f 349 433 434 350
f 350 434 435 351
f 351 435 436 352
f 352 436 437 353
f 353 437 438 354
f 354 438 439 355
f 355 439 440 356
f 356 440 441 357
f 357 441 442 358
f 358 442 443 359
f 359 443 444 360
f 360 444 445 361
f 361 445 446 362
f 362 446 447 363
f 363 447 448 364
f 364 448 449 365
f 365 449 450 366
f 366 450 451 367
f 367 451 452 368
f 368 452 453 369
f 369 453 454 370
f 370 454 455 371
f 371 455 456 372
f 372 456 457 373
f 373 457 458 374
f 374 458 459 375
f 375 459 460 376
f 376 460 461 377
f 377 461 462 378
f 378 462 463 379
f 379 463 464 380
f 380 464 465 381
f 381 465 466 382
f 382 466 467 383
f 383 467 468 384
f 384 468 469 385
f 385 469 470 386
f 386 470 471 387
f 387 471 472 388
f 388 472 473 389
f 389 473 474 390
f 390 474 475 391
f 391 475 476 392
f 392 476 477 393
f 393 477 478 394
f 394 478 479 395
f 395 479 480 396
f 396 480 481 397
f 397 481 482 398
f 398 482 483 399
f 399 483 484 400
f 400 484 485 401
f 401 485 486 402
f 402 486 487 403
f 403 487 488 404
f 404 488 489 405
f 405 489 490 406
f 406 490 491 407
f 407 491 492 408
f 408 492 493 409
f 409 493 494 410
f 410 494 495 411
f 411 495 496 412
f 412 496 497 413
f 413 497 498 414
f 414 498 415 331
f 415 499 500 416
f 416 500 501 417
f 417 501 502 418
f 418 502 503 419
f 419 503 504 420
f 420 504 505 421
f 421 505 506 422
f 422 506 507 423
f 423 507 508 424
f 424 508 509 425
f 425 509 510 426
f 426 510 511 427
f 427 511 512 428
f 428 512 513 429
f 429 513 514 430
f 430 514 515 431
f 431 515 516 432
f 432 516 517 433
f 433 517 518 434
f 434 518 519 435
f 435 519 520 436
f 436 520 521 437
f 437 521 522 438
f 438 522 523 439
f 439 523 524 440
f 440 524 525 441
f 441 525 526 442
f 442 526 527 443
f 443 527 528 444
f 444 528 529 445
f 445 529 530 446
f 446 530 531 447
f 447 531 532 448
f 448 532 533 449
f 449 533 534 450
f 450 534 535 451
f 451 535 536 452
f 452 536 537 453
f 453 537 538 454
f 454 538 539 455
f 455 539 540 456
f 456 540 541 457
f 457 541 542 458
f 458 542 543 459
f 459 543 544 460
f 460 544 545 461
f 461 545 546 462
f 462 546 547 463
f 463 547 548 464
f 464 548 549 465
f 465 549 550 466
f 466 550 551 467
f 467 551 552 468
f 468 552 553 469
f 469 553 554 470
f 470 554 555 471
f 471 555 556 472
f 472 556 557 473
f 473 557 558 474
f 474 558 559 475
f 475 559 560 476
f 476 560 561 477
f 477 561 562 478
f 478 562 563 479
f 479 563 564 480
f 480 564 565 481
f 481 565 566 482
f 482 566 567 483
f 483 567 568 484
f 484 568 569 485
f 485 569 570 486
f 486 570 571 487
f 487 571 572 488
f 488 572 573 489
f 489 573 574 490
f 490 574 575 491
f 491 575 576 492
f 492 576 577 493
f 493 577 578 494
f 494 578 579 495
f 495 579 580 496
f 496 580 581 497
f 497 581 582 498
f 498 582 499 415
f 499 124 125 500
f 500 125 128 501
f 501 128 130 502
f 502 130 132 503
f 503 132 134 504
f 504 134 136 505
f 505 136 138 506
f 506 138 140 507
f 507 140 142 508
f 508 142 144 509
f 509 144 146 510
f 510 146 148 511
f 511 148 150 512
f 512 150 152 513
f 513 152 217 514
f 514 217 220 515
f 515 220 223 516
f 516 223 226 517
f 517 226 229 518
f 518 229 232 519
f 519 232 235 520
f 520 235 238 521
f 521 238 241 522
f 522 241 244 523
f 523 244 245 524
f 524 245 246 525
f 525 246 243 526
f 526 243 240 527
f 527 240 237 528
f 528 237 234 529
f 529 234 231 530
f 530 231 228 531
f 531 228 225 532
f 532 225 222 533
f 533 222 219 534
f 534 219 156 535
f 535 156 158 536
f 536 158 160 537
f 537 160 162 538
f 538 162 164 539
f 539 164 166 540
f 540 166 168 541
f 541 168 170 542
f 542 170 172 543
f 543 172 174 544
f 544 174 176 545
f 545 176 178 546
f 546 178 180 547
f 547 180 182 548
f 548 182 184 549
f 549 184 185 550
f 550 185 216 551
f 551 216 215 552
f 552 215 214 553
f 553 214 213 554
f 554 213 212 555
f 555 212 211 556
f 556 211 210 557
f 557 210 209 558
f 558 209 208 559
f 559 208 207 560
f 560 207 206 561
f 561 206 205 562
f 562 205 204 563
f 563 204 203 564
f 564 203 202 565
f 565 202 201 566
f 566 201 200 567
f 567 200 199 568
f 568 199 198 569
f 569 198 197 570
f 570 197 196 571
f 571 196 195 572
f 572 195 194 573
f 573 194 193 574
f 574 193 192 575
f 575 192 191 576
f 576 191 190 577
f 577 190 189 578
f 578 189 188 579
f 579 188 186 580
f 580 186 187 581
f 581 187 127 582
f 582 127 124 499
