# File exported by Houdini 20.5.584 (www.sidefx.com)
# 930 points
# 3480 vertices
# 870 primitives
# Bounds: [0, 0, -29] to [30, 0, 0]
g 
v 0 0 -1
v 1 0 -1
v 0 0 0
v 1 0 0
v 2 0 -1
v 2 0 0
v 3 0 -1
v 3 0 0
v 4 0 -1
v 4 0 0
v 5 0 -1
v 5 0 0
v 6 0 -1
v 6 0 0
v 7 0 -1
v 7 0 0
v 8 0 -1
v 8 0 0
v 9 0 -1
v 9 0 0
v 10 0 -1
v 10 0 0
v 11 0 -1
v 11 0 0
v 12 0 -1
v 12 0 0
v 13 0 -1
v 13 0 0
v 14 0 -1
v 14 0 0
v 15 0 -1
v 15 0 0
v 16 0 -1
v 16 0 0
v 17 0 -1
v 17 0 0
v 18 0 -1
v 18 0 0
v 19 0 -1
v 19 0 0
v 20 0 -1
v 20 0 0
v 21 0 -1
v 21 0 0
v 22 0 -1
v 22 0 0
v 23 0 -1
v 23 0 0
v 24 0 -1
v 24 0 0
v 25 0 -1
v 25 0 0
v 26 0 -1
v 26 0 0
v 27 0 -1
v 27 0 0
v 28 0 -1
v 28 0 0
v 29 0 -1
v 29 0 0
v 30 0 -1
v 30 0 0
v 0 0 -2
v 1 0 -2
v 2 0 -2
v 3 0 -2
v 4 0 -2
v 5 0 -2
v 6 0 -2
v 7 0 -2
v 8 0 -2
v 9 0 -2
v 10 0 -2
v 11 0 -2
v 12 0 -2
v 13 0 -2
v 14 0 -2
v 15 0 -2
v 16 0 -2
v 17 0 -2
v 18 0 -2
v 19 0 -2
v 20 0 -2
v 21 0 -2
v 22 0 -2
v 23 0 -2
v 24 0 -2
v 25 0 -2
v 26 0 -2
v 27 0 -2
v 28 0 -2
v 29 0 -2
v 30 0 -2
v 0 0 -3
v 1 0 -3
v 2 0 -3
v 3 0 -3
v 4 0 -3
v 5 0 -3
v 6 0 -3
v 7 0 -3
v 8 0 -3
v 9 0 -3
v 10 0 -3
v 11 0 -3
v 12 0 -3
v 13 0 -3
v 14 0 -3
v 15 0 -3
v 16 0 -3
v 17 0 -3
v 18 0 -3
v 19 0 -3
v 20 0 -3
v 21 0 -3
v 22 0 -3
v 23 0 -3
v 24 0 -3
v 25 0 -3
v 26 0 -3
v 27 0 -3
v 28 0 -3
v 29 0 -3
v 30 0 -3
v 0 0 -4
v 1 0 -4
v 2 0 -4
v 3 0 -4
v 4 0 -4
v 5 0 -4
v 6 0 -4
v 7 0 -4
v 8 0 -4
v 9 0 -4
v 10 0 -4
v 11 0 -4
v 12 0 -4
v 13 0 -4
v 14 0 -4
v 15 0 -4
v 16 0 -4
v 17 0 -4
v 18 0 -4
v 19 0 -4
v 20 0 -4
v 21 0 -4
v 22 0 -4
v 23 0 -4
v 24 0 -4
v 25 0 -4
v 26 0 -4
v 27 0 -4
v 28 0 -4
v 29 0 -4
v 30 0 -4
v 0 0 -5
v 1 0 -5
v 2 0 -5
v 3 0 -5
v 4 0 -5
v 5 0 -5
v 6 0 -5
v 7 0 -5
v 8 0 -5
v 9 0 -5
v 10 0 -5
v 11 0 -5
v 12 0 -5
v 13 0 -5
v 14 0 -5
v 15 0 -5
v 16 0 -5
v 17 0 -5
v 18 0 -5
v 19 0 -5
v 20 0 -5
v 21 0 -5
v 22 0 -5
v 23 0 -5
v 24 0 -5
v 25 0 -5
v 26 0 -5
v 27 0 -5
v 28 0 -5
v 29 0 -5
v 30 0 -5
v 0 0 -6
v 1 0 -6
v 2 0 -6
v 3 0 -6
v 4 0 -6
v 5 0 -6
v 6 0 -6
v 7 0 -6
v 8 0 -6
v 9 0 -6
v 10 0 -6
v 11 0 -6
v 12 0 -6
v 13 0 -6
v 14 0 -6
v 15 0 -6
v 16 0 -6
v 17 0 -6
v 18 0 -6
v 19 0 -6
v 20 0 -6
v 21 0 -6
v 22 0 -6
v 23 0 -6
v 24 0 -6
v 25 0 -6
v 26 0 -6
v 27 0 -6
v 28 0 -6
v 29 0 -6
v 30 0 -6
v 0 0 -7
v 1 0 -7
v 2 0 -7
v 3 0 -7
v 4 0 -7
v 5 0 -7
v 6 0 -7
v 7 0 -7
v 8 0 -7
v 9 0 -7
v 10 0 -7
v 11 0 -7
v 12 0 -7
v 13 0 -7
v 14 0 -7
v 15 0 -7
v 16 0 -7
v 17 0 -7
v 18 0 -7
v 19 0 -7
v 20 0 -7
v 21 0 -7
v 22 0 -7
v 23 0 -7
v 24 0 -7
v 25 0 -7
v 26 0 -7
v 27 0 -7
v 28 0 -7
v 29 0 -7
v 30 0 -7
v 0 0 -8
v 1 0 -8
v 2 0 -8
v 3 0 -8
v 4 0 -8
v 5 0 -8
v 6 0 -8
v 7 0 -8
v 8 0 -8
v 9 0 -8
v 10 0 -8
v 11 0 -8
v 12 0 -8
v 13 0 -8
v 14 0 -8
v 15 0 -8
v 16 0 -8
v 17 0 -8
v 18 0 -8
v 19 0 -8
v 20 0 -8
v 21 0 -8
v 22 0 -8
v 23 0 -8
v 24 0 -8
v 25 0 -8
v 26 0 -8
v 27 0 -8
v 28 0 -8
v 29 0 -8
v 30 0 -8
v 0 0 -9
v 1 0 -9
v 2 0 -9
v 3 0 -9
v 4 0 -9
v 5 0 -9
v 6 0 -9
v 7 0 -9
v 8 0 -9
v 9 0 -9
v 10 0 -9
v 11 0 -9
v 12 0 -9
v 13 0 -9
v 14 0 -9
v 15 0 -9
v 16 0 -9
v 17 0 -9
v 18 0 -9
v 19 0 -9
v 20 0 -9
v 21 0 -9
v 22 0 -9
v 23 0 -9
v 24 0 -9
v 25 0 -9
v 26 0 -9
v 27 0 -9
v 28 0 -9
v 29 0 -9
v 30 0 -9
v 0 0 -10
v 1 0 -10
v 2 0 -10
v 3 0 -10
v 4 0 -10
v 5 0 -10
v 6 0 -10
v 7 0 -10
v 8 0 -10
v 9 0 -10
v 10 0 -10
v 11 0 -10
v 12 0 -10
v 13 0 -10
v 14 0 -10
v 15 0 -10
v 16 0 -10
v 17 0 -10
v 18 0 -10
v 19 0 -10
v 20 0 -10
v 21 0 -10
v 22 0 -10
v 23 0 -10
v 24 0 -10
v 25 0 -10
v 26 0 -10
v 27 0 -10
v 28 0 -10
v 29 0 -10
v 30 0 -10
v 0 0 -11
v 1 0 -11
v 2 0 -11
v 3 0 -11
v 4 0 -11
v 5 0 -11
v 6 0 -11
v 7 0 -11
v 8 0 -11
v 9 0 -11
v 10 0 -11
v 11 0 -11
v 12 0 -11
v 13 0 -11
v 14 0 -11
v 15 0 -11
v 16 0 -11
v 17 0 -11
v 18 0 -11
v 19 0 -11
v 20 0 -11
v 21 0 -11
v 22 0 -11
v 23 0 -11
v 24 0 -11
v 25 0 -11
v 26 0 -11
v 27 0 -11
v 28 0 -11
v 29 0 -11
v 30 0 -11
v 0 0 -12
v 1 0 -12
v 2 0 -12
v 3 0 -12
v 4 0 -12
v 5 0 -12
v 6 0 -12
v 7 0 -12
v 8 0 -12
v 9 0 -12
v 10 0 -12
v 11 0 -12
v 12 0 -12
v 13 0 -12
v 14 0 -12
v 15 0 -12
v 16 0 -12
v 17 0 -12
v 18 0 -12
v 19 0 -12
v 20 0 -12
v 21 0 -12
v 22 0 -12
v 23 0 -12
v 24 0 -12
v 25 0 -12
v 26 0 -12
v 27 0 -12
v 28 0 -12
v 29 0 -12
v 30 0 -12
v 0 0 -13
v 1 0 -13
v 2 0 -13
v 3 0 -13
v 4 0 -13
v 5 0 -13
v 6 0 -13
v 7 0 -13
v 8 0 -13
v 9 0 -13
v 10 0 -13
v 11 0 -13
v 12 0 -13
v 13 0 -13
v 14 0 -13
v 15 0 -13
v 16 0 -13
v 17 0 -13
v 18 0 -13
v 19 0 -13
v 20 0 -13
v 21 0 -13
v 22 0 -13
v 23 0 -13
v 24 0 -13
v 25 0 -13
v 26 0 -13
v 27 0 -13
v 28 0 -13
v 29 0 -13
v 30 0 -13
v 0 0 -14
v 1 0 -14
v 2 0 -14
v 3 0 -14
v 4 0 -14
v 5 0 -14
v 6 0 -14
v 7 0 -14
v 8 0 -14
v 9 0 -14
v 10 0 -14
v 11 0 -14
v 12 0 -14
v 13 0 -14
v 14 0 -14
v 15 0 -14
v 16 0 -14
v 17 0 -14
v 18 0 -14
v 19 0 -14
v 20 0 -14
v 21 0 -14
v 22 0 -14
v 23 0 -14
v 24 0 -14
v 25 0 -14
v 26 0 -14
v 27 0 -14
v 28 0 -14
v 29 0 -14
v 30 0 -14
v 0 0 -15
v 1 0 -15
v 2 0 -15
v 3 0 -15
v 4 0 -15
v 5 0 -15
v 6 0 -15
v 7 0 -15
v 8 0 -15
v 9 0 -15
v 10 0 -15
v 11 0 -15
v 12 0 -15
v 13 0 -15
v 14 0 -15
v 15 0 -15
v 16 0 -15
v 17 0 -15
v 18 0 -15
v 19 0 -15
v 20 0 -15
v 21 0 -15
v 22 0 -15
v 23 0 -15
v 24 0 -15
v 25 0 -15
v 26 0 -15
v 27 0 -15
v 28 0 -15
v 29 0 -15
v 30 0 -15
v 0 0 -16
v 1 0 -16
v 2 0 -16
v 3 0 -16
v 4 0 -16
v 5 0 -16
v 6 0 -16
v 7 0 -16
v 8 0 -16
v 9 0 -16
v 10 0 -16
v 11 0 -16
v 12 0 -16
v 13 0 -16
v 14 0 -16
v 15 0 -16
v 16 0 -16
v 17 0 -16
v 18 0 -16
v 19 0 -16
v 20 0 -16
v 21 0 -16
v 22 0 -16
v 23 0 -16
v 24 0 -16
v 25 0 -16
v 26 0 -16
v 27 0 -16
v 28 0 -16
v 29 0 -16
v 30 0 -16
v 0 0 -17
v 1 0 -17
v 2 0 -17
v 3 0 -17
v 4 0 -17
v 5 0 -17
v 6 0 -17
v 7 0 -17
v 8 0 -17
v 9 0 -17
v 10 0 -17
v 11 0 -17
v 12 0 -17
v 13 0 -17
v 14 0 -17
v 15 0 -17
v 16 0 -17
v 17 0 -17
v 18 0 -17
v 19 0 -17
v 20 0 -17
v 21 0 -17
v 22 0 -17
v 23 0 -17
v 24 0 -17
v 25 0 -17
v 26 0 -17
v 27 0 -17
v 28 0 -17
v 29 0 -17
v 30 0 -17
v 0 0 -18
v 1 0 -18
v 2 0 -18
v 3 0 -18
v 4 0 -18
v 5 0 -18
v 6 0 -18
v 7 0 -18
v 8 0 -18
v 9 0 -18
v 10 0 -18
v 11 0 -18
v 12 0 -18
v 13 0 -18
v 14 0 -18
v 15 0 -18
v 16 0 -18
v 17 0 -18
v 18 0 -18
v 19 0 -18
v 20 0 -18
v 21 0 -18
v 22 0 -18
v 23 0 -18
v 24 0 -18
v 25 0 -18
v 26 0 -18
v 27 0 -18
v 28 0 -18
v 29 0 -18
v 30 0 -18
v 0 0 -19
v 1 0 -19
v 2 0 -19
v 3 0 -19
v 4 0 -19
v 5 0 -19
v 6 0 -19
v 7 0 -19
v 8 0 -19
v 9 0 -19
v 10 0 -19
v 11 0 -19
v 12 0 -19
v 13 0 -19
v 14 0 -19
v 15 0 -19
v 16 0 -19
v 17 0 -19
v 18 0 -19
v 19 0 -19
v 20 0 -19
v 21 0 -19
v 22 0 -19
v 23 0 -19
v 24 0 -19
v 25 0 -19
v 26 0 -19
v 27 0 -19
v 28 0 -19
v 29 0 -19
v 30 0 -19
v 0 0 -20
v 1 0 -20
v 2 0 -20
v 3 0 -20
v 4 0 -20
v 5 0 -20
v 6 0 -20
v 7 0 -20
v 8 0 -20
v 9 0 -20
v 10 0 -20
v 11 0 -20
v 12 0 -20
v 13 0 -20
v 14 0 -20
v 15 0 -20
v 16 0 -20
v 17 0 -20
v 18 0 -20
v 19 0 -20
v 20 0 -20
v 21 0 -20
v 22 0 -20
v 23 0 -20
v 24 0 -20
v 25 0 -20
v 26 0 -20
v 27 0 -20
v 28 0 -20
v 29 0 -20
v 30 0 -20
v 0 0 -21
v 1 0 -21
v 2 0 -21
v 3 0 -21
v 4 0 -21
v 5 0 -21
v 6 0 -21
v 7 0 -21
v 8 0 -21
v 9 0 -21
v 10 0 -21
v 11 0 -21
v 12 0 -21
v 13 0 -21
v 14 0 -21
v 15 0 -21
v 16 0 -21
v 17 0 -21
v 18 0 -21
v 19 0 -21
v 20 0 -21
v 21 0 -21
v 22 0 -21
v 23 0 -21
v 24 0 -21
v 25 0 -21
v 26 0 -21
v 27 0 -21
v 28 0 -21
v 29 0 -21
v 30 0 -21
v 0 0 -22
v 1 0 -22
v 2 0 -22
v 3 0 -22
v 4 0 -22
v 5 0 -22
v 6 0 -22
v 7 0 -22
v 8 0 -22
v 9 0 -22
v 10 0 -22
v 11 0 -22
v 12 0 -22
v 13 0 -22
v 14 0 -22
v 15 0 -22
v 16 0 -22
v 17 0 -22
v 18 0 -22
v 19 0 -22
v 20 0 -22
v 21 0 -22
v 22 0 -22
v 23 0 -22
v 24 0 -22
v 25 0 -22
v 26 0 -22
v 27 0 -22
v 28 0 -22
v 29 0 -22
v 30 0 -22
v 0 0 -23
v 1 0 -23
v 2 0 -23
v 3 0 -23
v 4 0 -23
v 5 0 -23
v 6 0 -23
v 7 0 -23
v 8 0 -23
v 9 0 -23
v 10 0 -23
v 11 0 -23
v 12 0 -23
v 13 0 -23
v 14 0 -23
v 15 0 -23
v 16 0 -23
v 17 0 -23
v 18 0 -23
v 19 0 -23
v 20 0 -23
v 21 0 -23
v 22 0 -23
v 23 0 -23
v 24 0 -23
v 25 0 -23
v 26 0 -23
v 27 0 -23
v 28 0 -23
v 29 0 -23
v 30 0 -23
v 0 0 -24
v 1 0 -24
v 2 0 -24
v 3 0 -24
v 4 0 -24
v 5 0 -24
v 6 0 -24
v 7 0 -24
v 8 0 -24
v 9 0 -24
v 10 0 -24
v 11 0 -24
v 12 0 -24
v 13 0 -24
v 14 0 -24
v 15 0 -24
v 16 0 -24
v 17 0 -24
v 18 0 -24
v 19 0 -24
v 20 0 -24
v 21 0 -24
v 22 0 -24
v 23 0 -24
v 24 0 -24
v 25 0 -24
v 26 0 -24
v 27 0 -24
v 28 0 -24
v 29 0 -24
v 30 0 -24
v 0 0 -25
v 1 0 -25
v 2 0 -25
v 3 0 -25
v 4 0 -25
v 5 0 -25
v 6 0 -25
v 7 0 -25
v 8 0 -25
v 9 0 -25
v 10 0 -25
v 11 0 -25
v 12 0 -25
v 13 0 -25
v 14 0 -25
v 15 0 -25
v 16 0 -25
v 17 0 -25
v 18 0 -25
v 19 0 -25
v 20 0 -25
v 21 0 -25
v 22 0 -25
v 23 0 -25
v 24 0 -25
v 25 0 -25
v 26 0 -25
v 27 0 -25
v 28 0 -25
v 29 0 -25
v 30 0 -25
v 0 0 -26
v 1 0 -26
v 2 0 -26
v 3 0 -26
v 4 0 -26
v 5 0 -26
v 6 0 -26
v 7 0 -26
v 8 0 -26
v 9 0 -26
v 10 0 -26
v 11 0 -26
v 12 0 -26
v 13 0 -26
v 14 0 -26
v 15 0 -26
v 16 0 -26
v 17 0 -26
v 18 0 -26
v 19 0 -26
v 20 0 -26
v 21 0 -26
v 22 0 -26
v 23 0 -26
v 24 0 -26
v 25 0 -26
v 26 0 -26
v 27 0 -26
v 28 0 -26
v 29 0 -26
v 30 0 -26
v 0 0 -27
v 1 0 -27
v 2 0 -27
v 3 0 -27
v 4 0 -27
v 5 0 -27
v 6 0 -27
v 7 0 -27
v 8 0 -27
v 9 0 -27
v 10 0 -27
v 11 0 -27
v 12 0 -27
v 13 0 -27
v 14 0 -27
v 15 0 -27
v 16 0 -27
v 17 0 -27
v 18 0 -27
v 19 0 -27
v 20 0 -27
v 21 0 -27
v 22 0 -27
v 23 0 -27
v 24 0 -27
v 25 0 -27
v 26 0 -27
v 27 0 -27
v 28 0 -27
v 29 0 -27
v 30 0 -27
v 0 0 -28
v 1 0 -28
v 2 0 -28
v 3 0 -28
v 4 0 -28
v 5 0 -28
v 6 0 -28
v 7 0 -28
v 8 0 -28
v 9 0 -28
v 10 0 -28
v 11 0 -28
v 12 0 -28
v 13 0 -28
v 14 0 -28
v 15 0 -28
v 16 0 -28
v 17 0 -28
v 18 0 -28
v 19 0 -28
v 20 0 -28
v 21 0 -28
v 22 0 -28
v 23 0 -28
v 24 0 -28
v 25 0 -28
v 26 0 -28
v 27 0 -28
v 28 0 -28
v 29 0 -28
v 30 0 -28
v 0 0 -29
v 1 0 -29
v 2 0 -29
v 3 0 -29
v 4 0 -29
v 5 0 -29
v 6 0 -29
v 7 0 -29
v 8 0 -29
v 9 0 -29
v 10 0 -29
v 11 0 -29
v 12 0 -29
v 13 0 -29
v 14 0 -29
v 15 0 -29
v 16 0 -29
v 17 0 -29
v 18 0 -29
v 19 0 -29
v 20 0 -29
v 21 0 -29
v 22 0 -29
v 23 0 -29
v 24 0 -29
v 25 0 -29
v 26 0 -29
v 27 0 -29
v 28 0 -29
v 29 0 -29
v 30 0 -29
vt 0.999978721 0.933313429 0
vt 0.999978781 0.966646135 0
vt 0.966646135 0.966646075 0
vt 0.966646194 0.933313549 0
vt 0.933313549 0.966646135 0
vt 0.933313429 0.933313489 0
vt 0.899980903 0.966646135 0
vt 0.899980903 0.933313489 0
vt 0.866648257 0.966646135 0
vt 0.866648316 0.933313429 0
vt 0.83331567 0.966646075 0
vt 0.83331567 0.933313549 0
vt 0.799983025 0.966646075 0
vt 0.799982965 0.933313489 0
vt 0.766650438 0.966646135 0
vt 0.766650379 0.933313489 0
vt 0.733317792 0.966646135 0
vt 0.733317792 0.933313549 0
vt 0.699985147 0.966646194 0
vt 0.699985087 0.933313429 0
vt 0.666652501 0.966646135 0
vt 0.66665256 0.933313489 0
vt 0.633319914 0.966646135 0
vt 0.633319914 0.933313489 0
vt 0.599987328 0.966646075 0
vt 0.599987328 0.933313549 0
vt 0.566654742 0.966646075 0
vt 0.566654682 0.933313489 0
vt 0.533322096 0.966646194 0
vt 0.533322036 0.933313489 0
vt 0.49998945 0.966646135 0
vt 0.49998942 0.933313549 0
vt 0.466656804 0.966646135 0
vt 0.466656804 0.933313489 0
vt 0.433324188 0.966646075 0
vt 0.433324188 0.933313549 0
vt 0.399991572 0.966646194 0
vt 0.399991572 0.933313489 0
vt 0.366658956 0.966646194 0
vt 0.366658956 0.933313549 0
vt 0.33332634 0.966646135 0
vt 0.33332631 0.933313608 0
vt 0.299993694 0.966646135 0
vt 0.299993694 0.933313549 0
vt 0.266661108 0.966646075 0
vt 0.266661078 0.933313549 0
vt 0.233328432 0.966646194 0
vt 0.233328462 0.933313549 0
vt 0.199995846 0.966646135 0
vt 0.199995846 0.933313549 0
vt 0.166663259 0.966646135 0
vt 0.166663215 0.933313489 0
vt 0.133330569 0.966646194 0
vt 0.133330598 0.933313608 0
vt 0.0999979749 0.966646135 0
vt 0.0999979377 0.933313549 0
vt 0.0666653812 0.966646194 0
vt 0.0666653439 0.933313549 0
vt 0.0333327241 0.966646135 0
vt 0.0333327204 0.933313549 0
vt 6.74134597e-08 0.966646194 0
vt 9.4707751e-08 0.933313489 0
vt 0.999978781 0.899980843 0
vt 0.966646075 0.899980903 0
vt 0.933313429 0.899980903 0
vt 0.899980903 0.899980843 0
vt 0.866648197 0.899980843 0
vt 0.833315611 0.899980903 0
vt 0.799983025 0.899980903 0
vt 0.766650438 0.899980843 0
vt 0.733317792 0.899980843 0
vt 0.699985147 0.899980783 0
vt 0.66665256 0.899980903 0
vt 0.633319974 0.899980903 0
vt 0.599987328 0.899980843 0
vt 0.566654682 0.899980962 0
vt 0.533322036 0.899980903 0
vt 0.49998945 0.899980903 0
vt 0.466656804 0.899980843 0
vt 0.433324218 0.899980843 0
vt 0.399991572 0.899980903 0
vt 0.366658926 0.899980903 0
vt 0.33332634 0.899980903 0
vt 0.299993724 0.899980903 0
vt 0.266661078 0.899980903 0
vt 0.233328447 0.899980843 0
vt 0.199995801 0.899980903 0
vt 0.166663185 0.899980962 0
vt 0.133330584 0.899980903 0
vt 0.0999979004 0.899980962 0
vt 0.0666653067 0.899980962 0
vt 0.0333327465 0.899980962 0
vt 9.02134616e-08 0.899980962 0
vt 0.999978721 0.866648257 0
vt 0.966646075 0.866648197 0
vt 0.933313489 0.866648257 0
vt 0.899980843 0.866648197 0
vt 0.866648257 0.866648257 0
vt 0.83331567 0.866648257 0
vt 0.799982965 0.866648197 0
vt 0.766650379 0.866648257 0
vt 0.733317792 0.866648257 0
vt 0.699985147 0.866648257 0
vt 0.66665256 0.866648257 0
vt 0.633319914 0.866648257 0
vt 0.599987268 0.866648316 0
vt 0.566654682 0.866648257 0
vt 0.533322036 0.866648257 0
vt 0.49998945 0.866648257 0
vt 0.466656834 0.866648257 0
vt 0.433324188 0.866648197 0
vt 0.399991572 0.866648316 0
vt 0.366658926 0.866648316 0
vt 0.33332631 0.866648257 0
vt 0.299993694 0.866648257 0
vt 0.266661078 0.866648316 0
vt 0.233328447 0.866648316 0
vt 0.199995831 0.866648257 0
vt 0.166663215 0.866648257 0
vt 0.133330584 0.866648376 0
vt 0.0999979302 0.866648316 0
vt 0.0666653067 0.866648316 0
vt 0.0333327092 0.866648257 0
vt 8.57192362e-08 0.866648316 0
vt 0.999978781 0.833315551 0
vt 0.966646135 0.83331567 0
vt 0.933313489 0.833315611 0
vt 0.899980903 0.833315611 0
vt 0.866648257 0.83331567 0
vt 0.833315611 0.83331567 0
vt 0.799983025 0.83331567 0
vt 0.766650438 0.833315611 0
vt 0.733317733 0.83331573 0
vt 0.699985147 0.83331567 0
vt 0.66665256 0.83331567 0
vt 0.633319855 0.833315611 0
vt 0.599987268 0.83331567 0
vt 0.566654682 0.83331567 0
vt 0.533322036 0.833315611 0
vt 0.49998942 0.83331567 0
vt 0.466656804 0.833315611 0
vt 0.433324188 0.83331567 0
vt 0.399991572 0.833315611 0
vt 0.366658926 0.83331567 0
vt 0.33332634 0.83331567 0
vt 0.299993694 0.83331567 0
vt 0.266661048 0.83331567 0
vt 0.233328432 0.83331567 0
vt 0.199995831 0.83331567 0
vt 0.166663229 0.83331567 0
vt 0.133330584 0.83331567 0
vt 0.0999979526 0.83331573 0
vt 0.0666652992 0.83331567 0
vt 0.0333327055 0.83331567 0
vt 1.1301352e-07 0.833315611 0
vt 0.999978781 0.799982965 0
vt 0.966646135 0.799983025 0
vt 0.933313549 0.799983084 0
vt 0.899980843 0.799983025 0
vt 0.866648257 0.799983025 0
vt 0.83331567 0.799983025 0
vt 0.799983025 0.799983025 0
vt 0.766650379 0.799982965 0
vt 0.733317792 0.799982965 0
vt 0.699985147 0.799982965 0
vt 0.66665256 0.799983025 0
vt 0.633319914 0.799983025 0
vt 0.599987268 0.799982965 0
vt 0.566654682 0.799983084 0
vt 0.533322096 0.799983025 0
vt 0.49998942 0.799983025 0
vt 0.466656774 0.799983025 0
vt 0.433324188 0.799983084 0
vt 0.399991572 0.799983084 0
vt 0.366658926 0.799983025 0
vt 0.33332628 0.799983025 0
vt 0.299993694 0.799983025 0
vt 0.266661048 0.799983025 0
vt 0.233328462 0.799983025 0
vt 0.199995831 0.799983025 0
vt 0.1666632 0.799983084 0
vt 0.133330539 0.799983025 0
vt 0.0999979526 0.799983025 0
vt 0.066665329 0.799983025 0
vt 0.0333326682 0.799983084 0
vt 7.67307711e-08 0.799983084 0
vt 0.999978721 0.766650438 0
vt 0.966646194 0.766650379 0
vt 0.933313489 0.766650379 0
vt 0.899980783 0.766650319 0
vt 0.866648197 0.766650379 0
vt 0.83331567 0.766650379 0
vt 0.799983084 0.766650379 0
vt 0.766650379 0.766650379 0
vt 0.733317733 0.766650379 0
vt 0.699985147 0.766650379 0
vt 0.66665256 0.766650438 0
vt 0.633319855 0.766650379 0
vt 0.599987268 0.766650438 0
vt 0.566654682 0.766650379 0
vt 0.533322036 0.766650438 0
vt 0.49998942 0.766650379 0
vt 0.466656774 0.766650438 0
vt 0.433324158 0.766650438 0
vt 0.399991572 0.766650438 0
vt 0.366658926 0.766650438 0
vt 0.33332631 0.766650379 0
vt 0.299993694 0.766650379 0
vt 0.266661078 0.766650438 0
vt 0.233328432 0.766650438 0
vt 0.199995786 0.766650438 0
vt 0.16666317 0.766650379 0
vt 0.133330569 0.766650498 0
vt 0.0999979451 0.766650438 0
vt 0.0666653514 0.766650438 0
vt 0.033332698 0.766650379 0
vt 7.22364888e-08 0.766650498 0
vt 0.999978781 0.733317792 0
vt 0.966646075 0.733317792 0
vt 0.933313549 0.733317733 0
vt 0.899980843 0.733317733 0
vt 0.866648197 0.733317792 0
vt 0.83331567 0.733317792 0
vt 0.799982965 0.733317733 0
vt 0.766650379 0.733317792 0
vt 0.733317792 0.733317792 0
vt 0.699985147 0.733317792 0
vt 0.666652501 0.733317733 0
vt 0.633319914 0.733317733 0
vt 0.599987268 0.733317733 0
vt 0.566654682 0.733317792 0
vt 0.533322036 0.733317733 0
vt 0.49998942 0.733317792 0
vt 0.466656804 0.733317733 0
vt 0.433324188 0.733317792 0
vt 0.399991572 0.733317733 0
vt 0.366658926 0.733317792 0
vt 0.33332634 0.733317792 0
vt 0.299993694 0.733317792 0
vt 0.266661108 0.733317792 0
vt 0.233328462 0.733317792 0
vt 0.199995786 0.733317792 0
vt 0.166663185 0.733317792 0
vt 0.133330569 0.733317792 0
vt 0.0999979377 0.733317852 0
vt 0.0666653141 0.733317792 0
vt 0.0333327241 0.733317852 0
vt 3.5953839e-08 0.733317792 0
vt 0.999978721 0.699985147 0
vt 0.966646135 0.699985147 0
vt 0.933313489 0.699985147 0
vt 0.899980843 0.699985147 0
vt 0.866648257 0.699985147 0
vt 0.833315611 0.699985147 0
vt 0.799982965 0.699985147 0
vt 0.766650438 0.699985206 0
vt 0.733317733 0.699985147 0
vt 0.699985147 0.699985206 0
vt 0.66665256 0.699985147 0
vt 0.633319855 0.699985206 0
vt 0.599987268 0.699985147 0
vt 0.566654682 0.699985147 0
vt 0.533322036 0.699985147 0
vt 0.49998942 0.699985147 0
vt 0.466656804 0.699985147 0
vt 0.433324188 0.699985147 0
vt 0.399991572 0.699985147 0
vt 0.366658926 0.699985147 0
vt 0.33332628 0.699985147 0
vt 0.299993694 0.699985147 0
vt 0.266661048 0.699985147 0
vt 0.233328417 0.699985147 0
vt 0.199995816 0.699985147 0
vt 0.166663155 0.699985206 0
vt 0.133330569 0.699985147 0
vt 0.0999979675 0.699985147 0
vt 0.0666653141 0.699985206 0
vt 0.0333326869 0.699985206 0
vt 6.32480734e-08 0.699985206 0
vt 0.999978721 0.666652501 0
vt 0.966646135 0.666652501 0
vt 0.933313489 0.666652501 0
vt 0.899980903 0.666652501 0
vt 0.866648257 0.666652501 0
vt 0.83331567 0.666652501 0
vt 0.799983025 0.666652501 0
vt 0.766650379 0.666652501 0
vt 0.733317792 0.666652501 0
vt 0.699985147 0.666652501 0
vt 0.666652501 0.66665256 0
vt 0.633319914 0.666652501 0
vt 0.599987328 0.66665256 0
vt 0.566654623 0.666652501 0
vt 0.533322036 0.66665256 0
vt 0.49998942 0.666652501 0
vt 0.466656804 0.66665256 0
vt 0.433324188 0.66665256 0
vt 0.399991542 0.66665256 0
vt 0.366658926 0.66665256 0
vt 0.33332631 0.66665256 0
vt 0.299993694 0.66665256 0
vt 0.266661048 0.66665262 0
vt 0.233328447 0.66665256 0
vt 0.199995801 0.66665262 0
vt 0.166663185 0.66665256 0
vt 0.133330554 0.66665256 0
vt 0.0999979302 0.66665256 0
vt 0.0666653365 0.666652501 0
vt 0.0333326831 0.66665256 0
vt 9.05423363e-08 0.66665256 0
vt 0.999978721 0.633319914 0
vt 0.966646016 0.633319914 0
vt 0.933313549 0.633319914 0
vt 0.899980903 0.633319914 0
vt 0.866648316 0.633319974 0
vt 0.833315611 0.633319914 0
vt 0.799983025 0.633319914 0
vt 0.766650438 0.633319914 0
vt 0.733317733 0.633319855 0
vt 0.699985147 0.633319914 0
vt 0.66665256 0.633319855 0
vt 0.633319914 0.633319914 0
vt 0.599987268 0.633319914 0
vt 0.566654682 0.633319914 0
vt 0.533322036 0.633319914 0
vt 0.49998942 0.633319914 0
vt 0.466656804 0.633319855 0
vt 0.433324188 0.633319914 0
vt 0.399991542 0.633319914 0
vt 0.366658926 0.633319914 0
vt 0.33332628 0.633319914 0
vt 0.299993694 0.633319914 0
vt 0.266661048 0.633319914 0
vt 0.233328432 0.633319914 0
vt 0.199995831 0.633319914 0
vt 0.16666314 0.633319974 0
vt 0.133330554 0.633319914 0
vt 0.099997893 0.633319974 0
vt 0.0666653365 0.633319914 0
vt 0.0333326459 0.633319974 0
vt 5.42596119e-08 0.633319914 0
vt 0.999978662 0.599987268 0
vt 0.966646075 0.599987268 0
vt 0.933313489 0.599987268 0
vt 0.899980962 0.599987268 0
vt 0.866648257 0.599987268 0
vt 0.833315611 0.599987268 0
vt 0.799982965 0.599987268 0
vt 0.766650379 0.599987328 0
vt 0.733317733 0.599987268 0
vt 0.699985147 0.599987328 0
vt 0.666652501 0.599987268 0
vt 0.633319914 0.599987328 0
vt 0.599987328 0.599987268 0
vt 0.566654623 0.599987328 0
vt 0.533322036 0.599987328 0
vt 0.49998942 0.599987268 0
vt 0.466656804 0.599987328 0
vt 0.433324158 0.599987268 0
vt 0.399991542 0.599987268 0
vt 0.366658926 0.599987268 0
vt 0.33332631 0.599987328 0
vt 0.299993694 0.599987268 0
vt 0.266661048 0.599987328 0
vt 0.233328447 0.599987268 0
vt 0.199995801 0.599987328 0
vt 0.16666317 0.599987268 0
vt 0.133330554 0.599987328 0
vt 0.0999979228 0.599987328 0
vt 0.0666652992 0.599987328 0
vt 0.0333326757 0.599987328 0
vt 4.97653794e-08 0.599987328 0
vt 0.999978721 0.566654623 0
vt 0.966646075 0.566654682 0
vt 0.933313549 0.566654682 0
vt 0.899980843 0.566654623 0
vt 0.866648257 0.566654682 0
vt 0.833315611 0.566654623 0
vt 0.799982965 0.566654682 0
vt 0.766650438 0.566654623 0
vt 0.733317733 0.566654682 0
vt 0.699985147 0.566654623 0
vt 0.66665256 0.566654682 0
vt 0.633319855 0.566654623 0
vt 0.599987268 0.566654682 0
vt 0.566654682 0.566654623 0
vt 0.533322096 0.566654682 0
vt 0.49998942 0.566654682 0
vt 0.466656804 0.566654682 0
vt 0.433324188 0.566654682 0
vt 0.399991542 0.566654682 0
vt 0.366658926 0.566654682 0
vt 0.33332631 0.566654623 0
vt 0.299993694 0.566654682 0
vt 0.266661048 0.566654682 0
vt 0.233328417 0.566654682 0
vt 0.199995831 0.566654682 0
vt 0.16666317 0.566654682 0
vt 0.133330539 0.566654682 0
vt 0.0999979153 0.566654682 0
vt 0.0666652918 0.566654742 0
vt 0.0333326682 0.566654682 0
vt 7.70596458e-08 0.566654682 0
vt 0.999978721 0.533322036 0
vt 0.966646135 0.533322036 0
vt 0.933313489 0.533322096 0
vt 0.899980843 0.533322036 0
vt 0.866648257 0.533322096 0
vt 0.833315611 0.533322036 0
vt 0.799983025 0.533322036 0
vt 0.766650379 0.533322036 0
vt 0.733317733 0.533322036 0
vt 0.699985206 0.533322036 0
vt 0.666652501 0.533322096 0
vt 0.633319914 0.533322036 0
vt 0.599987328 0.533322036 0
vt 0.566654623 0.533322036 0
vt 0.533322036 0.533322036 0
vt 0.49998942 0.533322036 0
vt 0.466656804 0.533322036 0
vt 0.433324188 0.533322096 0
vt 0.399991542 0.533322036 0
vt 0.366658956 0.533322096 0
vt 0.33332631 0.533322036 0
vt 0.299993664 0.533322036 0
vt 0.266661078 0.533322036 0
vt 0.233328447 0.533321977 0
vt 0.199995816 0.533322036 0
vt 0.16666317 0.533322096 0
vt 0.133330569 0.533322036 0
vt 0.0999979451 0.533322036 0
vt 0.0666653216 0.533322036 0
vt 0.0333326645 0.533322036 0
vt 4.07769178e-08 0.533322036 0
vt 0.999978781 0.49998948 0
vt 0.966646135 0.49998945 0
vt 0.933313549 0.49998942 0
vt 0.899980903 0.49998942 0
vt 0.866648257 0.49998942 0
vt 0.83331567 0.49998942 0
vt 0.799983025 0.49998942 0
vt 0.766650379 0.49998942 0
vt 0.733317792 0.49998945 0
vt 0.699985147 0.49998942 0
vt 0.666652501 0.49998942 0
vt 0.633319914 0.49998942 0
vt 0.599987268 0.49998942 0
vt 0.566654682 0.49998942 0
vt 0.533322036 0.49998942 0
vt 0.49998939 0.49998945 0
vt 0.466656804 0.49998945 0
vt 0.433324158 0.49998945 0
vt 0.399991542 0.49998945 0
vt 0.366658926 0.49998942 0
vt 0.33332631 0.49998939 0
vt 0.299993664 0.49998939 0
vt 0.266661048 0.49998939 0
vt 0.233328402 0.49998942 0
vt 0.199995816 0.49998942 0
vt 0.166663185 0.49998942 0
vt 0.133330539 0.49998942 0
vt 0.0999979451 0.49998942 0
vt 0.0666653514 0.49998942 0
vt 0.0333326943 0.49998948 0
vt 3.62826853e-08 0.49998945 0
vt 0.999978781 0.466656804 0
vt 0.966646135 0.466656804 0
vt 0.933313489 0.466656774 0
vt 0.899980783 0.466656804 0
vt 0.866648257 0.466656804 0
vt 0.83331567 0.466656804 0
vt 0.799983025 0.466656804 0
vt 0.766650438 0.466656804 0
vt 0.733317792 0.466656804 0
vt 0.699985206 0.466656804 0
vt 0.66665256 0.466656834 0
vt 0.633319914 0.466656804 0
vt 0.599987328 0.466656774 0
vt 0.566654623 0.466656774 0
vt 0.533322036 0.466656804 0
vt 0.49998942 0.466656804 0
vt 0.466656804 0.466656804 0
vt 0.433324158 0.466656804 0
vt 0.399991572 0.466656804 0
vt 0.366658926 0.466656804 0
vt 0.33332631 0.466656804 0
vt 0.299993664 0.466656804 0
vt 0.266661078 0.466656804 0
vt 0.233328432 0.466656804 0
vt 0.199995786 0.466656804 0
vt 0.166663185 0.466656804 0
vt 0.133330524 0.466656804 0
vt 0.0999979079 0.466656804 0
vt 0.0666653141 0.466656804 0
vt 0.0333326571 0.466656804 0
vt 0 0.466656804 0
vt 0.999978721 0.433324158 0
vt 0.966646135 0.433324158 0
vt 0.933313429 0.433324188 0
vt 0.899980843 0.433324188 0
vt 0.866648257 0.433324158 0
vt 0.833315551 0.433324188 0
vt 0.799982965 0.433324188 0
vt 0.766650379 0.433324188 0
vt 0.733317733 0.433324158 0
vt 0.699985147 0.433324188 0
vt 0.666652501 0.433324188 0
vt 0.633319914 0.433324188 0
vt 0.599987268 0.433324188 0
vt 0.566654682 0.433324188 0
vt 0.533322036 0.433324158 0
vt 0.49998942 0.433324158 0
vt 0.466656804 0.433324158 0
vt 0.433324158 0.433324158 0
vt 0.399991542 0.433324158 0
vt 0.366658926 0.433324188 0
vt 0.33332631 0.433324188 0
vt 0.299993664 0.433324188 0
vt 0.266661048 0.433324188 0
vt 0.233328432 0.433324158 0
vt 0.199995801 0.433324188 0
vt 0.166663185 0.433324158 0
vt 0.133330524 0.433324188 0
vt 0.0999979302 0.433324158 0
vt 0.0666652769 0.433324158 0
vt 0.0333326831 0.433324158 0
vt 2.72942628e-08 0.433324158 0
vt 0.999978721 0.399991572 0
vt 0.966646075 0.399991572 0
vt 0.933313489 0.399991572 0
vt 0.899980843 0.399991572 0
vt 0.866648257 0.399991572 0
vt 0.833315611 0.399991542 0
vt 0.799982965 0.399991572 0
vt 0.766650438 0.399991542 0
vt 0.733317792 0.399991542 0
vt 0.699985147 0.399991572 0
vt 0.66665256 0.399991542 0
vt 0.633319914 0.399991542 0
vt 0.599987268 0.399991542 0
vt 0.566654682 0.399991542 0
vt 0.533322036 0.399991572 0
vt 0.49998942 0.399991572 0
vt 0.466656804 0.399991572 0
vt 0.433324188 0.399991572 0
vt 0.399991572 0.399991572 0
vt 0.366658926 0.399991572 0
vt 0.33332631 0.399991542 0
vt 0.299993694 0.399991572 0
vt 0.266661078 0.399991542 0
vt 0.233328432 0.399991542 0
vt 0.199995801 0.399991542 0
vt 0.166663185 0.399991572 0
vt 0.133330554 0.399991542 0
vt 0.099997893 0.399991542 0
vt 0.0666652694 0.399991572 0
vt 0.0333326794 0.399991542 0
vt 5.45884866e-08 0.399991542 0
vt 0.999978781 0.366658956 0
vt 0.966646075 0.366658926 0
vt 0.933313489 0.366658926 0
vt 0.899980903 0.366658926 0
vt 0.866648257 0.366658926 0
vt 0.833315611 0.366658926 0
vt 0.799983025 0.366658926 0
vt 0.766650379 0.366658926 0
vt 0.733317792 0.366658926 0
vt 0.699985147 0.366658956 0
vt 0.666652501 0.366658956 0
vt 0.633319914 0.366658956 0
vt 0.599987328 0.366658926 0
vt 0.566654682 0.366658926 0
vt 0.533322036 0.366658926 0
vt 0.49998942 0.366658926 0
vt 0.466656804 0.366658956 0
vt 0.433324158 0.366658926 0
vt 0.399991572 0.366658926 0
vt 0.366658926 0.366658896 0
vt 0.33332631 0.366658926 0
vt 0.299993664 0.366658926 0
vt 0.266661048 0.366658896 0
vt 0.233328417 0.366658926 0
vt 0.199995801 0.366658926 0
vt 0.1666632 0.366658926 0
vt 0.133330584 0.366658896 0
vt 0.0999979228 0.366658926 0
vt 0.0666652992 0.366658926 0
vt 0.0333326422 0.366658926 0
vt 5.00942541e-08 0.366658896 0
vt 0.999978662 0.33332634 0
vt 0.966646075 0.33332634 0
vt 0.933313489 0.33332631 0
vt 0.899980903 0.33332628 0
vt 0.866648257 0.33332634 0
vt 0.83331567 0.33332634 0
vt 0.799983025 0.33332634 0
vt 0.766650438 0.33332631 0
vt 0.733317733 0.33332631 0
vt 0.699985147 0.33332631 0
vt 0.66665256 0.33332631 0
vt 0.633319855 0.33332631 0
vt 0.599987268 0.33332631 0
vt 0.566654682 0.33332631 0
vt 0.533322036 0.33332628 0
vt 0.49998942 0.33332631 0
vt 0.466656804 0.33332631 0
vt 0.433324158 0.33332631 0
vt 0.399991542 0.33332631 0
vt 0.366658926 0.33332631 0
vt 0.33332628 0.33332628 0
vt 0.299993694 0.33332631 0
vt 0.266661048 0.33332628 0
vt 0.233328417 0.33332631 0
vt 0.199995831 0.33332628 0
vt 0.16666317 0.33332631 0
vt 0.133330569 0.33332631 0
vt 0.0999979228 0.33332631 0
vt 0.066665329 0.33332631 0
vt 0.033332672 0.33332631 0
vt 4.56000109e-08 0.33332631 0
vt 0.999978662 0.299993694 0
vt 0.966646135 0.299993724 0
vt 0.933313489 0.299993694 0
vt 0.899980783 0.299993694 0
vt 0.866648257 0.299993694 0
vt 0.83331567 0.299993694 0
vt 0.799983025 0.299993694 0
vt 0.766650379 0.299993694 0
vt 0.733317792 0.299993694 0
vt 0.699985206 0.299993724 0
vt 0.666652501 0.299993694 0
vt 0.633319914 0.299993694 0
vt 0.599987328 0.299993694 0
vt 0.566654682 0.299993694 0
vt 0.533322036 0.299993694 0
vt 0.49998942 0.299993694 0
vt 0.466656774 0.299993664 0
vt 0.433324188 0.299993664 0
vt 0.399991542 0.299993664 0
vt 0.366658926 0.299993664 0
vt 0.33332631 0.299993694 0
vt 0.299993694 0.299993694 0
vt 0.266661048 0.299993694 0
vt 0.233328417 0.299993694 0
vt 0.199995786 0.299993664 0
vt 0.1666632 0.299993694 0
vt 0.133330598 0.299993664 0
vt 0.0999978855 0.299993664 0
vt 0.0666652918 0.299993664 0
vt 0.0333326645 0.299993664 0
vt 7.28942453e-08 0.299993664 0
vt 0.999978721 0.266661108 0
vt 0.966646135 0.266661078 0
vt 0.933313489 0.266661078 0
vt 0.899980843 0.266661078 0
vt 0.866648257 0.266661078 0
vt 0.833315611 0.266661078 0
vt 0.799983025 0.266661078 0
vt 0.766650379 0.266661078 0
vt 0.733317733 0.266661078 0
vt 0.699985147 0.266661078 0
vt 0.666652501 0.266661078 0
vt 0.633319914 0.266661078 0
vt 0.599987268 0.266661048 0
vt 0.566654682 0.266661048 0
vt 0.533322096 0.266661048 0
vt 0.49998942 0.266661078 0
vt 0.466656804 0.266661078 0
vt 0.433324188 0.266661048 0
vt 0.399991572 0.266661048 0
vt 0.366658926 0.266661078 0
vt 0.33332631 0.266661048 0
vt 0.299993724 0.266661048 0
vt 0.266661048 0.266661048 0
vt 0.233328402 0.266661048 0
vt 0.199995816 0.266661048 0
vt 0.166663155 0.266661048 0
vt 0.133330569 0.266661048 0
vt 0.0999979079 0.266661048 0
vt 0.0666652843 0.266661048 0
vt 0.0333326943 0.266661048 0
vt 3.66115742e-08 0.266661018 0
vt 0.999978721 0.233328462 0
vt 0.966646135 0.233328477 0
vt 0.933313489 0.233328462 0
vt 0.899980843 0.233328477 0
vt 0.866648257 0.233328491 0
vt 0.833315611 0.233328462 0
vt 0.799982965 0.233328462 0
vt 0.766650379 0.233328462 0
vt 0.733317792 0.233328462 0
vt 0.699985206 0.233328462 0
vt 0.666652501 0.233328447 0
vt 0.633319914 0.233328462 0
vt 0.599987328 0.233328462 0
vt 0.566654623 0.233328447 0
vt 0.533322036 0.233328447 0
vt 0.49998945 0.233328447 0
vt 0.466656804 0.233328432 0
vt 0.433324188 0.233328417 0
vt 0.399991572 0.233328417 0
vt 0.366658956 0.233328432 0
vt 0.33332631 0.233328447 0
vt 0.299993694 0.233328432 0
vt 0.266661048 0.233328402 0
vt 0.233328432 0.233328447 0
vt 0.199995816 0.233328432 0
vt 0.166663185 0.233328402 0
vt 0.133330569 0.233328402 0
vt 0.0999979377 0.233328417 0
vt 0.0666653141 0.233328432 0
vt 0.0333326571 0.233328402 0
vt 6.39057944e-08 0.233328417 0
vt 0.999978781 0.199995846 0
vt 0.966646075 0.199995816 0
vt 0.933313489 0.199995846 0
vt 0.899980903 0.199995831 0
vt 0.866648257 0.19999586 0
vt 0.83331567 0.199995831 0
vt 0.799983025 0.199995875 0
vt 0.766650379 0.199995846 0
vt 0.733317792 0.199995846 0
vt 0.699985147 0.199995816 0
vt 0.666652501 0.199995831 0
vt 0.633319974 0.19999586 0
vt 0.599987268 0.199995831 0
vt 0.566654682 0.199995846 0
vt 0.533322096 0.199995846 0
vt 0.49998942 0.199995816 0
vt 0.466656804 0.199995816 0
vt 0.433324188 0.199995786 0
vt 0.399991542 0.199995801 0
vt 0.366658956 0.199995801 0
vt 0.33332631 0.199995771 0
vt 0.299993694 0.199995816 0
vt 0.266661048 0.199995816 0
vt 0.233328462 0.199995786 0
vt 0.199995801 0.199995786 0
vt 0.166663185 0.199995771 0
vt 0.133330554 0.199995801 0
vt 0.0999979675 0.199995801 0
vt 0.0666652769 0.199995816 0
vt 0.0333326831 0.199995786 0
vt 5.94115406e-08 0.199995816 0
vt 0.999978781 0.166663185 0
vt 0.966646075 0.166663229 0
vt 0.933313429 0.166663229 0
vt 0.899980843 0.166663229 0
vt 0.866648316 0.1666632 0
vt 0.83331567 0.166663244 0
vt 0.799983025 0.166663244 0
vt 0.766650438 0.166663244 0
vt 0.733317792 0.166663229 0
vt 0.699985147 0.166663229 0
vt 0.66665256 0.166663229 0
vt 0.633319914 0.1666632 0
vt 0.599987268 0.166663215 0
vt 0.566654623 0.166663185 0
vt 0.533322036 0.166663185 0
vt 0.49998945 0.166663185 0
vt 0.466656804 0.16666317 0
vt 0.433324218 0.1666632 0
vt 0.399991572 0.16666317 0
vt 0.366658926 0.166663185 0
vt 0.33332631 0.166663185 0
vt 0.299993664 0.166663155 0
vt 0.266661078 0.166663185 0
vt 0.233328462 0.1666632 0
vt 0.199995771 0.16666317 0
vt 0.166663215 0.16666317 0
vt 0.133330584 0.166663215 0
vt 0.0999979302 0.166663185 0
vt 0.0666653067 0.166663185 0
vt 0.0333326794 0.166663155 0
vt 8.67058034e-08 0.16666317 0
vt 0.999978721 0.133330598 0
vt 0.966646135 0.133330628 0
vt 0.933313429 0.133330628 0
vt 0.899980903 0.133330643 0
vt 0.866648257 0.133330613 0
vt 0.83331567 0.133330584 0
vt 0.799983025 0.133330584 0
vt 0.766650379 0.133330598 0
vt 0.733317852 0.133330598 0
vt 0.699985206 0.133330569 0
vt 0.66665256 0.133330613 0
vt 0.633319974 0.133330584 0
vt 0.599987268 0.133330584 0
vt 0.566654682 0.133330584 0
vt 0.533322096 0.133330569 0
vt 0.49998942 0.133330569 0
vt 0.466656804 0.133330569 0
vt 0.433324188 0.133330569 0
vt 0.399991572 0.133330584 0
vt 0.366658926 0.133330554 0
vt 0.33332634 0.133330554 0
vt 0.299993694 0.133330569 0
vt 0.266661078 0.133330598 0
vt 0.233328417 0.133330539 0
vt 0.199995801 0.133330539 0
vt 0.1666632 0.133330554 0
vt 0.133330554 0.133330524 0
vt 0.0999979526 0.133330494 0
vt 0.066665329 0.133330524 0
vt 0.0333326422 0.133330509 0
vt 5.04231004e-08 0.133330539 0
vt 0.999978721 0.0999980047 0
vt 0.966646075 0.0999980047 0
vt 0.933313489 0.0999979824 0
vt 0.899980903 0.0999979824 0
vt 0.866648197 0.0999979898 0
vt 0.833315611 0.0999979898 0
vt 0.799983025 0.0999979973 0
vt 0.766650438 0.0999979675 0
vt 0.733317792 0.0999979749 0
vt 0.699985147 0.0999979824 0
vt 0.66665256 0.0999979824 0
vt 0.633319914 0.0999979898 0
vt 0.599987268 0.09999796 0
vt 0.566654682 0.0999979675 0
vt 0.533322036 0.0999979675 0
vt 0.49998945 0.0999979451 0
vt 0.466656804 0.0999979824 0
vt 0.433324188 0.0999979526 0
vt 0.399991572 0.0999979526 0
vt 0.366658926 0.0999979302 0
vt 0.33332634 0.0999979302 0
vt 0.299993694 0.0999979377 0
vt 0.266661078 0.0999979079 0
vt 0.233328447 0.0999979153 0
vt 0.199995831 0.0999979228 0
vt 0.16666317 0.099997893 0
vt 0.133330569 0.099997893 0
vt 0.0999979824 0.0999979302 0
vt 0.066665329 0.0999979079 0
vt 0.033332672 0.0999979079 0
vt 4.59288962e-08 0.0999978855 0
vt 0.999978721 0.0666653439 0
vt 0.966646135 0.0666653812 0
vt 0.933313489 0.0666653514 0
vt 0.899980962 0.0666653588 0
vt 0.866648257 0.0666653961 0
vt 0.833315611 0.0666653663 0
vt 0.799983084 0.0666654035 0
vt 0.766650379 0.0666653737 0
vt 0.733317792 0.0666653812 0
vt 0.699985206 0.0666653514 0
vt 0.66665256 0.066665329 0
vt 0.633319914 0.0666653663 0
vt 0.599987328 0.0666653365 0
vt 0.566654682 0.0666653439 0
vt 0.533322096 0.0666653141 0
vt 0.49998942 0.0666653514 0
vt 0.466656834 0.0666653216 0
vt 0.433324188 0.066665329 0
vt 0.399991602 0.066665329 0
vt 0.366658926 0.0666653067 0
vt 0.33332634 0.0666652769 0
vt 0.299993694 0.0666652471 0
vt 0.266661078 0.0666652843 0
vt 0.233328477 0.0666652918 0
vt 0.199995816 0.066665262 0
vt 0.1666632 0.0666652992 0
vt 0.133330569 0.0666653365 0
vt 0.0999979451 0.0666653067 0
vt 0.0666653216 0.0666652843 0
vt 0.0333326347 0.0666652843 0
vt 7.32231342e-08 0.0666652545 0
vt 0.999978721 0.0333327539 0
vt 0.966646135 0.0333327241 0
vt 0.933313549 0.0333327614 0
vt 0.899980903 0.0333327986 0
vt 0.866648257 0.0333327726 0
vt 0.83331567 0.0333327763 0
vt 0.799983025 0.0333327465 0
vt 0.766650379 0.0333327837 0
vt 0.733317852 0.0333327577 0
vt 0.699985147 0.0333327614 0
vt 0.66665256 0.0333327353 0
vt 0.633319974 0.0333327055 0
vt 0.599987268 0.0333327129 0
vt 0.566654682 0.0333326831 0
vt 0.533322096 0.0333326906 0
vt 0.49998945 0.0333327241 0
vt 0.466656834 0.033332698 0
vt 0.433324218 0.0333327353 0
vt 0.399991602 0.0333327055 0
vt 0.366658956 0.0333326794 0
vt 0.33332634 0.0333326533 0
vt 0.299993694 0.0333326571 0
vt 0.266661108 0.0333326943 0
vt 0.233328447 0.0333326645 0
vt 0.199995846 0.033332672 0
vt 0.166663229 0.0333327055 0
vt 0.133330569 0.0333326794 0
vt 0.0999979749 0.0333326533 0
vt 0.0666652843 0.0333326235 0
vt 0.0333326608 0.0333326608 0
vt 1.0051734e-07 0.0333326645 0
vt 0.999978721 1.2846921e-07 0
vt 0.966646135 1.6475191e-07 0
vt 0.933313549 1.69246192e-07 0
vt 0.899980843 1.41951901e-07 0
vt 0.866648316 1.78234657e-07 0
vt 0.83331567 1.50940423e-07 0
vt 0.799983025 1.23646188e-07 0
vt 0.766650379 9.63519184e-08 0
vt 0.733317792 1.32634639e-07 0
vt 0.699985206 1.05340412e-07 0
vt 0.66665256 1.09834666e-07 0
vt 0.633319914 8.2540403e-08 0
vt 0.599987328 5.52461685e-08 0
vt 0.566654742 9.15288965e-08 0
vt 0.533322036 6.42346336e-08 0
vt 0.49998945 1.0051734e-07 0
vt 0.466656834 1.05011573e-07 0
vt 0.433324218 4.5928882e-08 0
vt 0.399991602 5.04231146e-08 0
vt 0.366658956 8.67058176e-08 0
vt 0.33332634 5.94115654e-08 0
vt 0.299993694 6.39057944e-08 0
vt 0.266661078 3.66115742e-08 0
vt 0.233328462 7.28942737e-08 0
vt 0.199995875 4.56000606e-08 0
vt 0.166663185 1.83057729e-08 0
vt 0.133330598 5.45884973e-08 0
vt 0.0999979675 2.72942628e-08 0
vt 0.0666653141 0 0
vt 0.0333326906 3.62826995e-08 0
vt 6.42346691e-08 8.98846331e-09 0
g entrance
usemtl /obj/server/texel_density6/uvquickshade1/shop_definition/texture_material
f 1/1 3/2 4/3 2/4
f 2/4 4/3 6/5 5/6
f 5/6 6/5 8/7 7/8
f 7/8 8/7 10/9 9/10
f 9/10 10/9 12/11 11/12
f 11/12 12/11 14/13 13/14
f 13/14 14/13 16/15 15/16
f 15/16 16/15 18/17 17/18
f 17/18 18/17 20/19 19/20
f 19/20 20/19 22/21 21/22
f 21/22 22/21 24/23 23/24
f 23/24 24/23 26/25 25/26
f 25/26 26/25 28/27 27/28
f 27/28 28/27 30/29 29/30
f 29/30 30/29 32/31 31/32
f 31/32 32/31 34/33 33/34
f 33/34 34/33 36/35 35/36
f 35/36 36/35 38/37 37/38
f 37/38 38/37 40/39 39/40
f 39/40 40/39 42/41 41/42
f 41/42 42/41 44/43 43/44
f 43/44 44/43 46/45 45/46
f 45/46 46/45 48/47 47/48
f 47/48 48/47 50/49 49/50
f 49/50 50/49 52/51 51/52
f 51/52 52/51 54/53 53/54
f 53/54 54/53 56/55 55/56
f 55/56 56/55 58/57 57/58
f 57/58 58/57 60/59 59/60
f 59/60 60/59 62/61 61/62
f 63/63 1/1 2/4 64/64
f 64/64 2/4 5/6 65/65
f 65/65 5/6 7/8 66/66
f 66/66 7/8 9/10 67/67
f 67/67 9/10 11/12 68/68
f 68/68 11/12 13/14 69/69
f 69/69 13/14 15/16 70/70
f 70/70 15/16 17/18 71/71
f 71/71 17/18 19/20 72/72
f 72/72 19/20 21/22 73/73
f 73/73 21/22 23/24 74/74
f 74/74 23/24 25/26 75/75
f 75/75 25/26 27/28 76/76
f 76/76 27/28 29/30 77/77
f 77/77 29/30 31/32 78/78
f 78/78 31/32 33/34 79/79
f 79/79 33/34 35/36 80/80
f 80/80 35/36 37/38 81/81
f 81/81 37/38 39/40 82/82
f 82/82 39/40 41/42 83/83
f 83/83 41/42 43/44 84/84
f 84/84 43/44 45/46 85/85
f 85/85 45/46 47/48 86/86
f 86/86 47/48 49/50 87/87
f 87/87 49/50 51/52 88/88
f 88/88 51/52 53/54 89/89
f 89/89 53/54 55/56 90/90
f 90/90 55/56 57/58 91/91
f 91/91 57/58 59/60 92/92
f 92/92 59/60 61/62 93/93
f 94/94 63/63 64/64 95/95
f 95/95 64/64 65/65 96/96
f 96/96 65/65 66/66 97/97
f 97/97 66/66 67/67 98/98
f 98/98 67/67 68/68 99/99
f 99/99 68/68 69/69 100/100
f 100/100 69/69 70/70 101/101
f 101/101 70/70 71/71 102/102
f 102/102 71/71 72/72 103/103
f 103/103 72/72 73/73 104/104
f 104/104 73/73 74/74 105/105
f 105/105 74/74 75/75 106/106
f 106/106 75/75 76/76 107/107
f 107/107 76/76 77/77 108/108
f 108/108 77/77 78/78 109/109
f 109/109 78/78 79/79 110/110
f 110/110 79/79 80/80 111/111
f 111/111 80/80 81/81 112/112
f 112/112 81/81 82/82 113/113
f 113/113 82/82 83/83 114/114
f 114/114 83/83 84/84 115/115
f 115/115 84/84 85/85 116/116
f 116/116 85/85 86/86 117/117
f 117/117 86/86 87/87 118/118
f 118/118 87/87 88/88 119/119
f 119/119 88/88 89/89 120/120
f 120/120 89/89 90/90 121/121
f 121/121 90/90 91/91 122/122
f 122/122 91/91 92/92 123/123
f 123/123 92/92 93/93 124/124
f 125/125 94/94 95/95 126/126
f 126/126 95/95 96/96 127/127
f 127/127 96/96 97/97 128/128
f 128/128 97/97 98/98 129/129
f 129/129 98/98 99/99 130/130
f 130/130 99/99 100/100 131/131
f 131/131 100/100 101/101 132/132
f 132/132 101/101 102/102 133/133
f 133/133 102/102 103/103 134/134
f 134/134 103/103 104/104 135/135
f 135/135 104/104 105/105 136/136
f 136/136 105/105 106/106 137/137
f 137/137 106/106 107/107 138/138
f 138/138 107/107 108/108 139/139
f 139/139 108/108 109/109 140/140
f 140/140 109/109 110/110 141/141
f 141/141 110/110 111/111 142/142
f 142/142 111/111 112/112 143/143
f 143/143 112/112 113/113 144/144
f 144/144 113/113 114/114 145/145
f 145/145 114/114 115/115 146/146
f 146/146 115/115 116/116 147/147
f 147/147 116/116 117/117 148/148
f 148/148 117/117 118/118 149/149
f 149/149 118/118 119/119 150/150
f 150/150 119/119 120/120 151/151
f 151/151 120/120 121/121 152/152
f 152/152 121/121 122/122 153/153
f 153/153 122/122 123/123 154/154
f 154/154 123/123 124/124 155/155
f 156/156 125/125 126/126 157/157
f 157/157 126/126 127/127 158/158
f 158/158 127/127 128/128 159/159
f 159/159 128/128 129/129 160/160
f 160/160 129/129 130/130 161/161
f 161/161 130/130 131/131 162/162
f 162/162 131/131 132/132 163/163
f 163/163 132/132 133/133 164/164
f 164/164 133/133 134/134 165/165
f 165/165 134/134 135/135 166/166
f 166/166 135/135 136/136 167/167
f 167/167 136/136 137/137 168/168
f 168/168 137/137 138/138 169/169
f 169/169 138/138 139/139 170/170
f 170/170 139/139 140/140 171/171
f 171/171 140/140 141/141 172/172
f 172/172 141/141 142/142 173/173
f 173/173 142/142 143/143 174/174
f 174/174 143/143 144/144 175/175
f 175/175 144/144 145/145 176/176
f 176/176 145/145 146/146 177/177
f 177/177 146/146 147/147 178/178
f 178/178 147/147 148/148 179/179
f 179/179 148/148 149/149 180/180
f 180/180 149/149 150/150 181/181
f 181/181 150/150 151/151 182/182
f 182/182 151/151 152/152 183/183
f 183/183 152/152 153/153 184/184
f 184/184 153/153 154/154 185/185
f 185/185 154/154 155/155 186/186
f 187/187 156/156 157/157 188/188
f 188/188 157/157 158/158 189/189
f 189/189 158/158 159/159 190/190
f 190/190 159/159 160/160 191/191
f 191/191 160/160 161/161 192/192
f 192/192 161/161 162/162 193/193
f 193/193 162/162 163/163 194/194
f 194/194 163/163 164/164 195/195
f 195/195 164/164 165/165 196/196
f 196/196 165/165 166/166 197/197
f 197/197 166/166 167/167 198/198
f 198/198 167/167 168/168 199/199
f 199/199 168/168 169/169 200/200
f 200/200 169/169 170/170 201/201
f 201/201 170/170 171/171 202/202
f 202/202 171/171 172/172 203/203
f 203/203 172/172 173/173 204/204
f 204/204 173/173 174/174 205/205
f 205/205 174/174 175/175 206/206
f 206/206 175/175 176/176 207/207
f 207/207 176/176 177/177 208/208
f 208/208 177/177 178/178 209/209
f 209/209 178/178 179/179 210/210
f 210/210 179/179 180/180 211/211
f 211/211 180/180 181/181 212/212
f 212/212 181/181 182/182 213/213
f 213/213 182/182 183/183 214/214
f 214/214 183/183 184/184 215/215
f 215/215 184/184 185/185 216/216
f 216/216 185/185 186/186 217/217
f 218/218 187/187 188/188 219/219
f 219/219 188/188 189/189 220/220
f 220/220 189/189 190/190 221/221
f 221/221 190/190 191/191 222/222
f 222/222 191/191 192/192 223/223
f 223/223 192/192 193/193 224/224
f 224/224 193/193 194/194 225/225
f 225/225 194/194 195/195 226/226
f 226/226 195/195 196/196 227/227
f 227/227 196/196 197/197 228/228
f 228/228 197/197 198/198 229/229
f 229/229 198/198 199/199 230/230
f 230/230 199/199 200/200 231/231
f 231/231 200/200 201/201 232/232
f 232/232 201/201 202/202 233/233
f 233/233 202/202 203/203 234/234
f 234/234 203/203 204/204 235/235
f 235/235 204/204 205/205 236/236
f 236/236 205/205 206/206 237/237
f 237/237 206/206 207/207 238/238
f 238/238 207/207 208/208 239/239
f 239/239 208/208 209/209 240/240
f 240/240 209/209 210/210 241/241
f 241/241 210/210 211/211 242/242
f 242/242 211/211 212/212 243/243
f 243/243 212/212 213/213 244/244
f 244/244 213/213 214/214 245/245
f 245/245 214/214 215/215 246/246
f 246/246 215/215 216/216 247/247
f 247/247 216/216 217/217 248/248
f 249/249 218/218 219/219 250/250
f 250/250 219/219 220/220 251/251
f 251/251 220/220 221/221 252/252
f 252/252 221/221 222/222 253/253
f 253/253 222/222 223/223 254/254
f 254/254 223/223 224/224 255/255
f 255/255 224/224 225/225 256/256
f 256/256 225/225 226/226 257/257
f 257/257 226/226 227/227 258/258
f 258/258 227/227 228/228 259/259
f 259/259 228/228 229/229 260/260
f 260/260 229/229 230/230 261/261
f 261/261 230/230 231/231 262/262
f 262/262 231/231 232/232 263/263
f 263/263 232/232 233/233 264/264
f 264/264 233/233 234/234 265/265
f 265/265 234/234 235/235 266/266
f 266/266 235/235 236/236 267/267
f 267/267 236/236 237/237 268/268
f 268/268 237/237 238/238 269/269
f 269/269 238/238 239/239 270/270
f 270/270 239/239 240/240 271/271
f 271/271 240/240 241/241 272/272
f 272/272 241/241 242/242 273/273
f 273/273 242/242 243/243 274/274
f 274/274 243/243 244/244 275/275
f 275/275 244/244 245/245 276/276
f 276/276 245/245 246/246 277/277
f 277/277 246/246 247/247 278/278
f 278/278 247/247 248/248 279/279
g glas
usemtl /obj/server/texel_density6/uvquickshade1/shop_definition/texture_material
f 280/280 249/249 250/250 281/281
f 281/281 250/250 251/251 282/282
f 282/282 251/251 252/252 283/283
f 283/283 252/252 253/253 284/284
f 284/284 253/253 254/254 285/285
f 285/285 254/254 255/255 286/286
f 286/286 255/255 256/256 287/287
f 287/287 256/256 257/257 288/288
f 288/288 257/257 258/258 289/289
f 289/289 258/258 259/259 290/290
f 290/290 259/259 260/260 291/291
f 291/291 260/260 261/261 292/292
f 292/292 261/261 262/262 293/293
f 293/293 262/262 263/263 294/294
f 294/294 263/263 264/264 295/295
f 295/295 264/264 265/265 296/296
f 296/296 265/265 266/266 297/297
f 297/297 266/266 267/267 298/298
f 298/298 267/267 268/268 299/299
f 299/299 268/268 269/269 300/300
f 300/300 269/269 270/270 301/301
f 301/301 270/270 271/271 302/302
f 302/302 271/271 272/272 303/303
f 303/303 272/272 273/273 304/304
f 304/304 273/273 274/274 305/305
f 305/305 274/274 275/275 306/306
f 306/306 275/275 276/276 307/307
f 307/307 276/276 277/277 308/308
f 308/308 277/277 278/278 309/309
f 309/309 278/278 279/279 310/310
g serverfloor
usemtl /obj/server/texel_density6/uvquickshade1/shop_definition/texture_material
f 311/311 280/280 281/281 312/312
f 312/312 281/281 282/282 313/313
f 313/313 282/282 283/283 314/314
f 314/314 283/283 284/284 315/315
f 315/315 284/284 285/285 316/316
f 316/316 285/285 286/286 317/317
f 317/317 286/286 287/287 318/318
f 318/318 287/287 288/288 319/319
f 319/319 288/288 289/289 320/320
f 320/320 289/289 290/290 321/321
f 321/321 290/290 291/291 322/322
f 322/322 291/291 292/292 323/323
f 323/323 292/292 293/293 324/324
f 324/324 293/293 294/294 325/325
f 325/325 294/294 295/295 326/326
f 326/326 295/295 296/296 327/327
f 327/327 296/296 297/297 328/328
f 328/328 297/297 298/298 329/329
f 329/329 298/298 299/299 330/330
f 330/330 299/299 300/300 331/331
f 331/331 300/300 301/301 332/332
f 332/332 301/301 302/302 333/333
f 333/333 302/302 303/303 334/334
f 334/334 303/303 304/304 335/335
f 335/335 304/304 305/305 336/336
f 336/336 305/305 306/306 337/337
f 337/337 306/306 307/307 338/338
f 338/338 307/307 308/308 339/339
f 339/339 308/308 309/309 340/340
f 340/340 309/309 310/310 341/341
f 342/342 311/311 312/312 343/343
f 343/343 312/312 313/313 344/344
f 344/344 313/313 314/314 345/345
f 345/345 314/314 315/315 346/346
f 346/346 315/315 316/316 347/347
f 347/347 316/316 317/317 348/348
f 348/348 317/317 318/318 349/349
f 349/349 318/318 319/319 350/350
f 350/350 319/319 320/320 351/351
f 351/351 320/320 321/321 352/352
f 352/352 321/321 322/322 353/353
f 353/353 322/322 323/323 354/354
f 354/354 323/323 324/324 355/355
f 355/355 324/324 325/325 356/356
f 356/356 325/325 326/326 357/357
f 357/357 326/326 327/327 358/358
f 358/358 327/327 328/328 359/359
f 359/359 328/328 329/329 360/360
f 360/360 329/329 330/330 361/361
f 361/361 330/330 331/331 362/362
f 362/362 331/331 332/332 363/363
f 363/363 332/332 333/333 364/364
f 364/364 333/333 334/334 365/365
f 365/365 334/334 335/335 366/366
f 366/366 335/335 336/336 367/367
f 367/367 336/336 337/337 368/368
f 368/368 337/337 338/338 369/369
f 369/369 338/338 339/339 370/370
f 370/370 339/339 340/340 371/371
f 371/371 340/340 341/341 372/372
f 373/373 342/342 343/343 374/374
f 374/374 343/343 344/344 375/375
f 375/375 344/344 345/345 376/376
f 376/376 345/345 346/346 377/377
f 377/377 346/346 347/347 378/378
f 378/378 347/347 348/348 379/379
f 379/379 348/348 349/349 380/380
f 380/380 349/349 350/350 381/381
f 381/381 350/350 351/351 382/382
f 382/382 351/351 352/352 383/383
f 383/383 352/352 353/353 384/384
f 384/384 353/353 354/354 385/385
f 385/385 354/354 355/355 386/386
f 386/386 355/355 356/356 387/387
f 387/387 356/356 357/357 388/388
f 388/388 357/357 358/358 389/389
f 389/389 358/358 359/359 390/390
f 390/390 359/359 360/360 391/391
f 391/391 360/360 361/361 392/392
f 392/392 361/361 362/362 393/393
f 393/393 362/362 363/363 394/394
f 394/394 363/363 364/364 395/395
f 395/395 364/364 365/365 396/396
f 396/396 365/365 366/366 397/397
f 397/397 366/366 367/367 398/398
f 398/398 367/367 368/368 399/399
f 399/399 368/368 369/369 400/400
f 400/400 369/369 370/370 401/401
f 401/401 370/370 371/371 402/402
f 402/402 371/371 372/372 403/403
f 404/404 373/373 374/374 405/405
f 405/405 374/374 375/375 406/406
f 406/406 375/375 376/376 407/407
f 407/407 376/376 377/377 408/408
f 408/408 377/377 378/378 409/409
f 409/409 378/378 379/379 410/410
f 410/410 379/379 380/380 411/411
f 411/411 380/380 381/381 412/412
f 412/412 381/381 382/382 413/413
f 413/413 382/382 383/383 414/414
f 414/414 383/383 384/384 415/415
f 415/415 384/384 385/385 416/416
f 416/416 385/385 386/386 417/417
f 417/417 386/386 387/387 418/418
f 418/418 387/387 388/388 419/419
f 419/419 388/388 389/389 420/420
f 420/420 389/389 390/390 421/421
f 421/421 390/390 391/391 422/422
f 422/422 391/391 392/392 423/423
f 423/423 392/392 393/393 424/424
f 424/424 393/393 394/394 425/425
f 425/425 394/394 395/395 426/426
f 426/426 395/395 396/396 427/427
f 427/427 396/396 397/397 428/428
f 428/428 397/397 398/398 429/429
f 429/429 398/398 399/399 430/430
f 430/430 399/399 400/400 431/431
f 431/431 400/400 401/401 432/432
f 432/432 401/401 402/402 433/433
f 433/433 402/402 403/403 434/434
f 435/435 404/404 405/405 436/436
f 436/436 405/405 406/406 437/437
f 437/437 406/406 407/407 438/438
f 438/438 407/407 408/408 439/439
f 439/439 408/408 409/409 440/440
f 440/440 409/409 410/410 441/441
f 441/441 410/410 411/411 442/442
f 442/442 411/411 412/412 443/443
f 443/443 412/412 413/413 444/444
f 444/444 413/413 414/414 445/445
f 445/445 414/414 415/415 446/446
f 446/446 415/415 416/416 447/447
f 447/447 416/416 417/417 448/448
f 448/448 417/417 418/418 449/449
f 449/449 418/418 419/419 450/450
f 450/450 419/419 420/420 451/451
f 451/451 420/420 421/421 452/452
f 452/452 421/421 422/422 453/453
f 453/453 422/422 423/423 454/454
f 454/454 423/423 424/424 455/455
f 455/455 424/424 425/425 456/456
f 456/456 425/425 426/426 457/457
f 457/457 426/426 427/427 458/458
f 458/458 427/427 428/428 459/459
f 459/459 428/428 429/429 460/460
f 460/460 429/429 430/430 461/461
f 461/461 430/430 431/431 462/462
f 462/462 431/431 432/432 463/463
f 463/463 432/432 433/433 464/464
f 464/464 433/433 434/434 465/465
f 466/466 435/435 436/436 467/467
f 467/467 436/436 437/437 468/468
f 468/468 437/437 438/438 469/469
f 469/469 438/438 439/439 470/470
f 470/470 439/439 440/440 471/471
f 471/471 440/440 441/441 472/472
f 472/472 441/441 442/442 473/473
f 473/473 442/442 443/443 474/474
f 474/474 443/443 444/444 475/475
f 475/475 444/444 445/445 476/476
f 476/476 445/445 446/446 477/477
f 477/477 446/446 447/447 478/478
f 478/478 447/447 448/448 479/479
f 479/479 448/448 449/449 480/480
f 480/480 449/449 450/450 481/481
f 481/481 450/450 451/451 482/482
f 482/482 451/451 452/452 483/483
f 483/483 452/452 453/453 484/484
f 484/484 453/453 454/454 485/485
f 485/485 454/454 455/455 486/486
f 486/486 455/455 456/456 487/487
f 487/487 456/456 457/457 488/488
f 488/488 457/457 458/458 489/489
f 489/489 458/458 459/459 490/490
f 490/490 459/459 460/460 491/491
f 491/491 460/460 461/461 492/492
f 492/492 461/461 462/462 493/493
f 493/493 462/462 463/463 494/494
f 494/494 463/463 464/464 495/495
f 495/495 464/464 465/465 496/496
f 497/497 466/466 467/467 498/498
f 498/498 467/467 468/468 499/499
f 499/499 468/468 469/469 500/500
f 500/500 469/469 470/470 501/501
f 501/501 470/470 471/471 502/502
f 502/502 471/471 472/472 503/503
f 503/503 472/472 473/473 504/504
f 504/504 473/473 474/474 505/505
f 505/505 474/474 475/475 506/506
f 506/506 475/475 476/476 507/507
f 507/507 476/476 477/477 508/508
f 508/508 477/477 478/478 509/509
f 509/509 478/478 479/479 510/510
f 510/510 479/479 480/480 511/511
f 511/511 480/480 481/481 512/512
f 512/512 481/481 482/482 513/513
f 513/513 482/482 483/483 514/514
f 514/514 483/483 484/484 515/515
f 515/515 484/484 485/485 516/516
f 516/516 485/485 486/486 517/517
f 517/517 486/486 487/487 518/518
f 518/518 487/487 488/488 519/519
f 519/519 488/488 489/489 520/520
f 520/520 489/489 490/490 521/521
f 521/521 490/490 491/491 522/522
f 522/522 491/491 492/492 523/523
f 523/523 492/492 493/493 524/524
f 524/524 493/493 494/494 525/525
f 525/525 494/494 495/495 526/526
f 526/526 495/495 496/496 527/527
f 528/528 497/497 498/498 529/529
f 529/529 498/498 499/499 530/530
f 530/530 499/499 500/500 531/531
f 531/531 500/500 501/501 532/532
f 532/532 501/501 502/502 533/533
f 533/533 502/502 503/503 534/534
f 534/534 503/503 504/504 535/535
f 535/535 504/504 505/505 536/536
f 536/536 505/505 506/506 537/537
f 537/537 506/506 507/507 538/538
f 538/538 507/507 508/508 539/539
f 539/539 508/508 509/509 540/540
f 540/540 509/509 510/510 541/541
f 541/541 510/510 511/511 542/542
f 542/542 511/511 512/512 543/543
f 543/543 512/512 513/513 544/544
f 544/544 513/513 514/514 545/545
f 545/545 514/514 515/515 546/546
f 546/546 515/515 516/516 547/547
f 547/547 516/516 517/517 548/548
f 548/548 517/517 518/518 549/549
f 549/549 518/518 519/519 550/550
f 550/550 519/519 520/520 551/551
f 551/551 520/520 521/521 552/552
f 552/552 521/521 522/522 553/553
f 553/553 522/522 523/523 554/554
f 554/554 523/523 524/524 555/555
f 555/555 524/524 525/525 556/556
f 556/556 525/525 526/526 557/557
f 557/557 526/526 527/527 558/558
f 559/559 528/528 529/529 560/560
f 560/560 529/529 530/530 561/561
f 561/561 530/530 531/531 562/562
f 562/562 531/531 532/532 563/563
f 563/563 532/532 533/533 564/564
f 564/564 533/533 534/534 565/565
f 565/565 534/534 535/535 566/566
f 566/566 535/535 536/536 567/567
f 567/567 536/536 537/537 568/568
f 568/568 537/537 538/538 569/569
f 569/569 538/538 539/539 570/570
f 570/570 539/539 540/540 571/571
f 571/571 540/540 541/541 572/572
f 572/572 541/541 542/542 573/573
f 573/573 542/542 543/543 574/574
f 574/574 543/543 544/544 575/575
f 575/575 544/544 545/545 576/576
f 576/576 545/545 546/546 577/577
f 577/577 546/546 547/547 578/578
f 578/578 547/547 548/548 579/579
f 579/579 548/548 549/549 580/580
f 580/580 549/549 550/550 581/581
f 581/581 550/550 551/551 582/582
f 582/582 551/551 552/552 583/583
f 583/583 552/552 553/553 584/584
f 584/584 553/553 554/554 585/585
f 585/585 554/554 555/555 586/586
f 586/586 555/555 556/556 587/587
f 587/587 556/556 557/557 588/588
f 588/588 557/557 558/558 589/589
f 590/590 559/559 560/560 591/591
f 591/591 560/560 561/561 592/592
f 592/592 561/561 562/562 593/593
f 593/593 562/562 563/563 594/594
f 594/594 563/563 564/564 595/595
f 595/595 564/564 565/565 596/596
f 596/596 565/565 566/566 597/597
f 597/597 566/566 567/567 598/598
f 598/598 567/567 568/568 599/599
f 599/599 568/568 569/569 600/600
f 600/600 569/569 570/570 601/601
f 601/601 570/570 571/571 602/602
f 602/602 571/571 572/572 603/603
f 603/603 572/572 573/573 604/604
f 604/604 573/573 574/574 605/605
f 605/605 574/574 575/575 606/606
f 606/606 575/575 576/576 607/607
f 607/607 576/576 577/577 608/608
f 608/608 577/577 578/578 609/609
f 609/609 578/578 579/579 610/610
f 610/610 579/579 580/580 611/611
f 611/611 580/580 581/581 612/612
f 612/612 581/581 582/582 613/613
f 613/613 582/582 583/583 614/614
f 614/614 583/583 584/584 615/615
f 615/615 584/584 585/585 616/616
f 616/616 585/585 586/586 617/617
f 617/617 586/586 587/587 618/618
f 618/618 587/587 588/588 619/619
f 619/619 588/588 589/589 620/620
f 621/621 590/590 591/591 622/622
f 622/622 591/591 592/592 623/623
f 623/623 592/592 593/593 624/624
f 624/624 593/593 594/594 625/625
f 625/625 594/594 595/595 626/626
f 626/626 595/595 596/596 627/627
f 627/627 596/596 597/597 628/628
f 628/628 597/597 598/598 629/629
f 629/629 598/598 599/599 630/630
f 630/630 599/599 600/600 631/631
f 631/631 600/600 601/601 632/632
f 632/632 601/601 602/602 633/633
f 633/633 602/602 603/603 634/634
f 634/634 603/603 604/604 635/635
f 635/635 604/604 605/605 636/636
f 636/636 605/605 606/606 637/637
f 637/637 606/606 607/607 638/638
f 638/638 607/607 608/608 639/639
f 639/639 608/608 609/609 640/640
f 640/640 609/609 610/610 641/641
f 641/641 610/610 611/611 642/642
f 642/642 611/611 612/612 643/643
f 643/643 612/612 613/613 644/644
f 644/644 613/613 614/614 645/645
f 645/645 614/614 615/615 646/646
f 646/646 615/615 616/616 647/647
f 647/647 616/616 617/617 648/648
f 648/648 617/617 618/618 649/649
f 649/649 618/618 619/619 650/650
f 650/650 619/619 620/620 651/651
f 652/652 621/621 622/622 653/653
f 653/653 622/622 623/623 654/654
f 654/654 623/623 624/624 655/655
f 655/655 624/624 625/625 656/656
f 656/656 625/625 626/626 657/657
f 657/657 626/626 627/627 658/658
f 658/658 627/627 628/628 659/659
f 659/659 628/628 629/629 660/660
f 660/660 629/629 630/630 661/661
f 661/661 630/630 631/631 662/662
f 662/662 631/631 632/632 663/663
f 663/663 632/632 633/633 664/664
f 664/664 633/633 634/634 665/665
f 665/665 634/634 635/635 666/666
f 666/666 635/635 636/636 667/667
f 667/667 636/636 637/637 668/668
f 668/668 637/637 638/638 669/669
f 669/669 638/638 639/639 670/670
f 670/670 639/639 640/640 671/671
f 671/671 640/640 641/641 672/672
f 672/672 641/641 642/642 673/673
f 673/673 642/642 643/643 674/674
f 674/674 643/643 644/644 675/675
f 675/675 644/644 645/645 676/676
f 676/676 645/645 646/646 677/677
f 677/677 646/646 647/647 678/678
f 678/678 647/647 648/648 679/679
f 679/679 648/648 649/649 680/680
f 680/680 649/649 650/650 681/681
f 681/681 650/650 651/651 682/682
f 683/683 652/652 653/653 684/684
f 684/684 653/653 654/654 685/685
f 685/685 654/654 655/655 686/686
f 686/686 655/655 656/656 687/687
f 687/687 656/656 657/657 688/688
f 688/688 657/657 658/658 689/689
f 689/689 658/658 659/659 690/690
f 690/690 659/659 660/660 691/691
f 691/691 660/660 661/661 692/692
f 692/692 661/661 662/662 693/693
f 693/693 662/662 663/663 694/694
f 694/694 663/663 664/664 695/695
f 695/695 664/664 665/665 696/696
f 696/696 665/665 666/666 697/697
f 697/697 666/666 667/667 698/698
f 698/698 667/667 668/668 699/699
f 699/699 668/668 669/669 700/700
f 700/700 669/669 670/670 701/701
f 701/701 670/670 671/671 702/702
f 702/702 671/671 672/672 703/703
f 703/703 672/672 673/673 704/704
f 704/704 673/673 674/674 705/705
f 705/705 674/674 675/675 706/706
f 706/706 675/675 676/676 707/707
f 707/707 676/676 677/677 708/708
f 708/708 677/677 678/678 709/709
f 709/709 678/678 679/679 710/710
f 710/710 679/679 680/680 711/711
f 711/711 680/680 681/681 712/712
f 712/712 681/681 682/682 713/713
f 714/714 683/683 684/684 715/715
f 715/715 684/684 685/685 716/716
f 716/716 685/685 686/686 717/717
f 717/717 686/686 687/687 718/718
f 718/718 687/687 688/688 719/719
f 719/719 688/688 689/689 720/720
f 720/720 689/689 690/690 721/721
f 721/721 690/690 691/691 722/722
f 722/722 691/691 692/692 723/723
f 723/723 692/692 693/693 724/724
f 724/724 693/693 694/694 725/725
f 725/725 694/694 695/695 726/726
f 726/726 695/695 696/696 727/727
f 727/727 696/696 697/697 728/728
f 728/728 697/697 698/698 729/729
f 729/729 698/698 699/699 730/730
f 730/730 699/699 700/700 731/731
f 731/731 700/700 701/701 732/732
f 732/732 701/701 702/702 733/733
f 733/733 702/702 703/703 734/734
f 734/734 703/703 704/704 735/735
f 735/735 704/704 705/705 736/736
f 736/736 705/705 706/706 737/737
f 737/737 706/706 707/707 738/738
f 738/738 707/707 708/708 739/739
f 739/739 708/708 709/709 740/740
f 740/740 709/709 710/710 741/741
f 741/741 710/710 711/711 742/742
f 742/742 711/711 712/712 743/743
f 743/743 712/712 713/713 744/744
f 745/745 714/714 715/715 746/746
f 746/746 715/715 716/716 747/747
f 747/747 716/716 717/717 748/748
f 748/748 717/717 718/718 749/749
f 749/749 718/718 719/719 750/750
f 750/750 719/719 720/720 751/751
f 751/751 720/720 721/721 752/752
f 752/752 721/721 722/722 753/753
f 753/753 722/722 723/723 754/754
f 754/754 723/723 724/724 755/755
f 755/755 724/724 725/725 756/756
f 756/756 725/725 726/726 757/757
f 757/757 726/726 727/727 758/758
f 758/758 727/727 728/728 759/759
f 759/759 728/728 729/729 760/760
f 760/760 729/729 730/730 761/761
f 761/761 730/730 731/731 762/762
f 762/762 731/731 732/732 763/763
f 763/763 732/732 733/733 764/764
f 764/764 733/733 734/734 765/765
f 765/765 734/734 735/735 766/766
f 766/766 735/735 736/736 767/767
f 767/767 736/736 737/737 768/768
f 768/768 737/737 738/738 769/769
f 769/769 738/738 739/739 770/770
f 770/770 739/739 740/740 771/771
f 771/771 740/740 741/741 772/772
f 772/772 741/741 742/742 773/773
f 773/773 742/742 743/743 774/774
f 774/774 743/743 744/744 775/775
f 776/776 745/745 746/746 777/777
f 777/777 746/746 747/747 778/778
f 778/778 747/747 748/748 779/779
f 779/779 748/748 749/749 780/780
f 780/780 749/749 750/750 781/781
f 781/781 750/750 751/751 782/782
f 782/782 751/751 752/752 783/783
f 783/783 752/752 753/753 784/784
f 784/784 753/753 754/754 785/785
f 785/785 754/754 755/755 786/786
f 786/786 755/755 756/756 787/787
f 787/787 756/756 757/757 788/788
f 788/788 757/757 758/758 789/789
f 789/789 758/758 759/759 790/790
f 790/790 759/759 760/760 791/791
f 791/791 760/760 761/761 792/792
f 792/792 761/761 762/762 793/793
f 793/793 762/762 763/763 794/794
f 794/794 763/763 764/764 795/795
f 795/795 764/764 765/765 796/796
f 796/796 765/765 766/766 797/797
f 797/797 766/766 767/767 798/798
f 798/798 767/767 768/768 799/799
f 799/799 768/768 769/769 800/800
f 800/800 769/769 770/770 801/801
f 801/801 770/770 771/771 802/802
f 802/802 771/771 772/772 803/803
f 803/803 772/772 773/773 804/804
f 804/804 773/773 774/774 805/805
f 805/805 774/774 775/775 806/806
f 807/807 776/776 777/777 808/808
f 808/808 777/777 778/778 809/809
f 809/809 778/778 779/779 810/810
f 810/810 779/779 780/780 811/811
f 811/811 780/780 781/781 812/812
f 812/812 781/781 782/782 813/813
f 813/813 782/782 783/783 814/814
f 814/814 783/783 784/784 815/815
f 815/815 784/784 785/785 816/816
f 816/816 785/785 786/786 817/817
f 817/817 786/786 787/787 818/818
f 818/818 787/787 788/788 819/819
f 819/819 788/788 789/789 820/820
f 820/820 789/789 790/790 821/821
f 821/821 790/790 791/791 822/822
f 822/822 791/791 792/792 823/823
f 823/823 792/792 793/793 824/824
f 824/824 793/793 794/794 825/825
f 825/825 794/794 795/795 826/826
f 826/826 795/795 796/796 827/827
f 827/827 796/796 797/797 828/828
f 828/828 797/797 798/798 829/829
f 829/829 798/798 799/799 830/830
f 830/830 799/799 800/800 831/831
f 831/831 800/800 801/801 832/832
f 832/832 801/801 802/802 833/833
f 833/833 802/802 803/803 834/834
f 834/834 803/803 804/804 835/835
f 835/835 804/804 805/805 836/836
f 836/836 805/805 806/806 837/837
f 838/838 807/807 808/808 839/839
f 839/839 808/808 809/809 840/840
f 840/840 809/809 810/810 841/841
f 841/841 810/810 811/811 842/842
f 842/842 811/811 812/812 843/843
f 843/843 812/812 813/813 844/844
f 844/844 813/813 814/814 845/845
f 845/845 814/814 815/815 846/846
f 846/846 815/815 816/816 847/847
f 847/847 816/816 817/817 848/848
f 848/848 817/817 818/818 849/849
f 849/849 818/818 819/819 850/850
f 850/850 819/819 820/820 851/851
f 851/851 820/820 821/821 852/852
f 852/852 821/821 822/822 853/853
f 853/853 822/822 823/823 854/854
f 854/854 823/823 824/824 855/855
f 855/855 824/824 825/825 856/856
f 856/856 825/825 826/826 857/857
f 857/857 826/826 827/827 858/858
f 858/858 827/827 828/828 859/859
f 859/859 828/828 829/829 860/860
f 860/860 829/829 830/830 861/861
f 861/861 830/830 831/831 862/862
f 862/862 831/831 832/832 863/863
f 863/863 832/832 833/833 864/864
f 864/864 833/833 834/834 865/865
f 865/865 834/834 835/835 866/866
f 866/866 835/835 836/836 867/867
f 867/867 836/836 837/837 868/868
f 869/869 838/838 839/839 870/870
f 870/870 839/839 840/840 871/871
f 871/871 840/840 841/841 872/872
f 872/872 841/841 842/842 873/873
f 873/873 842/842 843/843 874/874
f 874/874 843/843 844/844 875/875
f 875/875 844/844 845/845 876/876
f 876/876 845/845 846/846 877/877
f 877/877 846/846 847/847 878/878
f 878/878 847/847 848/848 879/879
f 879/879 848/848 849/849 880/880
f 880/880 849/849 850/850 881/881
f 881/881 850/850 851/851 882/882
f 882/882 851/851 852/852 883/883
f 883/883 852/852 853/853 884/884
f 884/884 853/853 854/854 885/885
f 885/885 854/854 855/855 886/886
f 886/886 855/855 856/856 887/887
f 887/887 856/856 857/857 888/888
f 888/888 857/857 858/858 889/889
f 889/889 858/858 859/859 890/890
f 890/890 859/859 860/860 891/891
f 891/891 860/860 861/861 892/892
f 892/892 861/861 862/862 893/893
f 893/893 862/862 863/863 894/894
f 894/894 863/863 864/864 895/895
f 895/895 864/864 865/865 896/896
f 896/896 865/865 866/866 897/897
f 897/897 866/866 867/867 898/898
f 898/898 867/867 868/868 899/899
f 900/900 869/869 870/870 901/901
f 901/901 870/870 871/871 902/902
f 902/902 871/871 872/872 903/903
f 903/903 872/872 873/873 904/904
f 904/904 873/873 874/874 905/905
f 905/905 874/874 875/875 906/906
f 906/906 875/875 876/876 907/907
f 907/907 876/876 877/877 908/908
f 908/908 877/877 878/878 909/909
f 909/909 878/878 879/879 910/910
f 910/910 879/879 880/880 911/911
f 911/911 880/880 881/881 912/912
f 912/912 881/881 882/882 913/913
f 913/913 882/882 883/883 914/914
f 914/914 883/883 884/884 915/915
f 915/915 884/884 885/885 916/916
f 916/916 885/885 886/886 917/917
f 917/917 886/886 887/887 918/918
f 918/918 887/887 888/888 919/919
f 919/919 888/888 889/889 920/920
f 920/920 889/889 890/890 921/921
f 921/921 890/890 891/891 922/922
f 922/922 891/891 892/892 923/923
f 923/923 892/892 893/893 924/924
f 924/924 893/893 894/894 925/925
f 925/925 894/894 895/895 926/926
f 926/926 895/895 896/896 927/927
f 927/927 896/896 897/897 928/928
f 928/928 897/897 898/898 929/929
f 929/929 898/898 899/899 930/930
