# File exported by Houdini 20.5.584 (www.sidefx.com)
# 55 points
# 160 vertices
# 40 primitives
# Bounds: [-10, 0, -6] to [0, 0, -2]
g 
v -10 0 -3
v -9 0 -3
v -10 0 -2
v -9 0 -2
v -8 0 -3
v -8 0 -2
v -7 0 -3
v -7 0 -2
v -6 0 -3
v -6 0 -2
v -5 0 -3
v -5 0 -2
v -4 0 -3
v -4 0 -2
v -3 0 -3
v -3 0 -2
v -2 0 -3
v -2 0 -2
v -1 0 -3
v -1 0 -2
v 0 0 -3
v 0 0 -2
v -10 0 -4
v -9 0 -4
v -8 0 -4
v -7 0 -4
v -6 0 -4
v -5 0 -4
v -4 0 -4
v -3 0 -4
v -2 0 -4
v -1 0 -4
v 0 0 -4
v -10 0 -5
v -9 0 -5
v -8 0 -5
v -7 0 -5
v -6 0 -5
v -5 0 -5
v -4 0 -5
v -3 0 -5
v -2 0 -5
v -1 0 -5
v 0 0 -5
v -10 0 -6
v -9 0 -6
v -8 0 -6
v -7 0 -6
v -6 0 -6
v -5 0 -6
v -4 0 -6
v -3 0 -6
v -2 0 -6
v -1 0 -6
v 0 0 -6
vt 0.999979317 0.299993694 0
vt 0.999979377 0.399991572 0
vt 0.899981439 0.399991602 0
vt 0.899981439 0.299993694 0
vt 0.799983621 0.399991602 0
vt 0.799983621 0.299993694 0
vt 0.699985564 0.399991602 0
vt 0.699985743 0.299993694 0
vt 0.599987686 0.399991602 0
vt 0.599987686 0.299993694 0
vt 0.499989778 0.399991602 0
vt 0.499989748 0.299993694 0
vt 0.399991751 0.399991602 0
vt 0.3999919 0.299993694 0
vt 0.299993992 0.399991602 0
vt 0.299993843 0.299993694 0
vt 0.19999595 0.399991602 0
vt 0.199996099 0.299993724 0
vt 0.0999979004 0.399991602 0
vt 0.0999980494 0.299993724 0
vt 1.99228708e-07 0.399991602 0
vt 5.21585664e-09 0.299993724 0
vt 0.999979317 0.199995786 0
vt 0.899981439 0.199995801 0
vt 0.799983561 0.199995801 0
vt 0.699985743 0.199995801 0
vt 0.599987686 0.199995801 0
vt 0.499989748 0.199995801 0
vt 0.399991721 0.199995801 0
vt 0.299993992 0.199995816 0
vt 0.19999595 0.199995816 0
vt 0.0999979004 0.199995816 0
vt 1.55731868e-07 0.199995816 0
vt 0.999979317 0.099997893 0
vt 0.899981439 0.0999979004 0
vt 0.799983561 0.0999979004 0
vt 0.699985743 0.0999979004 0
vt 0.599987626 0.0999979079 0
vt 0.499989897 0.0999979079 0
vt 0.39999187 0.0999979153 0
vt 0.299993813 0.0999979153 0
vt 0.199996084 0.0999979153 0
vt 0.099998042 0.0999979228 0
vt 0 0.0999979228 0
vt 0.999979496 0 0
vt 0.899981439 2.60793231e-09 0
vt 0.799983561 5.21585974e-09 0
vt 0.699985683 7.82378873e-09 0
vt 0.599987626 1.04317213e-08 0
vt 0.499989748 1.30396485e-08 0
vt 0.399991691 1.5647581e-08 0
vt 0.299993992 1.82555038e-08 0
vt 0.19999592 2.08634372e-08 0
vt 0.099997893 2.34713688e-08 0
vt 1.50516001e-07 2.60792934e-08 0
g 
f 1/1 3/2 4/3 2/4
f 2/4 4/3 6/5 5/6
f 5/6 6/5 8/7 7/8
f 7/8 8/7 10/9 9/10
f 9/10 10/9 12/11 11/12
f 11/12 12/11 14/13 13/14
f 13/14 14/13 16/15 15/16
f 15/16 16/15 18/17 17/18
f 17/18 18/17 20/19 19/20
f 19/20 20/19 22/21 21/22
f 23/23 1/1 2/4 24/24
f 24/24 2/4 5/6 25/25
f 25/25 5/6 7/8 26/26
f 26/26 7/8 9/10 27/27
f 27/27 9/10 11/12 28/28
f 28/28 11/12 13/14 29/29
f 29/29 13/14 15/16 30/30
f 30/30 15/16 17/18 31/31
f 31/31 17/18 19/20 32/32
f 32/32 19/20 21/22 33/33
f 34/34 23/23 24/24 35/35
f 35/35 24/24 25/25 36/36
f 36/36 25/25 26/26 37/37
f 37/37 26/26 27/27 38/38
f 38/38 27/27 28/28 39/39
f 39/39 28/28 29/29 40/40
f 40/40 29/29 30/30 41/41
f 41/41 30/30 31/31 42/42
f 42/42 31/31 32/32 43/43
f 43/43 32/32 33/33 44/44
f 45/45 34/34 35/35 46/46
f 46/46 35/35 36/36 47/47
f 47/47 36/36 37/37 48/48
f 48/48 37/37 38/38 49/49
f 49/49 38/38 39/39 50/50
f 50/50 39/39 40/40 51/51
f 51/51 40/40 41/41 52/52
f 52/52 41/41 42/42 53/53
f 53/53 42/42 43/43 54/54
f 54/54 43/43 44/44 55/55
