# File exported by Houdini 20.5.584 (www.sidefx.com)
# 457 points
# 1792 vertices
# 448 primitives
# Bounds: [11.999999, 6, -34] to [30, 10, -21]
g 
v 30 10 -21
v 30 10 -22
v 30 10 -23
v 30 10 -24
v 30 10 -25
v 30 6 -21
v 30 6 -22
v 30 6 -23
v 30 6 -24
v 30 6 -25
v 30 7 -21
v 30 7 -25
v 30 8 -21
v 30 8 -25
v 30 9 -21
v 30 9 -25
v 12 6 -21
v 12 6 -22
v 12 7 -22
v 12 7 -21
v 12 6 -23
v 12 7 -23
v 12 6 -24
v 12 7 -24
v 12 6 -25
v 12 7 -25
v 12 8 -22
v 12 8 -21
v 12 8 -23
v 12 8 -24
v 12 8 -25
v 12 9 -22
v 12 9 -21
v 12 9 -23
v 12 9 -24
v 12 9 -25
v 12 10 -22
v 12 10 -21
v 12 10 -23
v 12 10 -24
v 12 10 -25
v 29 6 -21
v 29 6 -22
v 29 6 -23
v 29 6 -24
v 29 6 -25
v 29 7 -25
v 29 8 -25
v 29 9 -25
v 29 10 -25
v 29 10 -24
v 29 10 -23
v 29 10 -22
v 29 10 -21
v 29 9 -21
v 29 8 -21
v 29 7 -21
v 28 6 -21
v 28 6 -22
v 28 6 -23
v 28 6 -24
v 28 6 -25
v 28 7 -25
v 28 8 -25
v 28 9 -25
v 28 10 -25
v 28 10 -24
v 28 10 -23
v 28 10 -22
v 28 10 -21
v 28 9 -21
v 28 8 -21
v 28 7 -21
v 27 6 -21
v 27 6 -22
v 27 6 -23
v 27 6.00000048 -24
v 27 6.00000048 -25
v 27 7.00000048 -25
v 27 8 -25
v 27 9 -25
v 27 10 -25
v 27 10 -24
v 27 10 -23
v 27 10 -22
v 27 9.99999905 -21
v 27 9 -21
v 27 7.99999952 -21
v 27 6.99999952 -21
v 26 6 -21
v 26 6 -22
v 26 6 -23
v 26 6 -24
v 26 6 -25
v 26 7 -25
v 26 8 -25
v 26 9 -25
v 26 10 -25
v 26 10 -24
v 26 10 -23
v 26 10 -22
v 26 10 -21
v 26 9 -21
v 26 8 -21
v 26 7 -21
v 25 6 -21
v 25 6 -22
v 25 6 -23
v 25 6 -24
v 25 6 -25
v 25 7 -25
v 25 8 -25
v 25 9 -25
v 25 10 -25
v 25 10 -24
v 25 10 -23
v 25 10 -22
v 25 10 -21
v 25 9 -21
v 25 8 -21
v 25 7 -21
v 24 6 -21
v 24 6 -22
v 24 6 -23
v 24 6 -24
v 24 6 -25
v 24 7 -25
v 24 8 -25
v 24 9 -25
v 24 10 -25
v 24 10 -24
v 24 10 -23
v 24 10 -22
v 24 10 -21
v 24 9 -21
v 24 8 -21
v 24 7 -21
v 23 6 -21
v 23 6 -22
v 23 6 -23
v 23 6.00000048 -24
v 23 6.00000048 -25
v 23 7.00000048 -25
v 23 8 -25
v 23 9 -25
v 23 10 -25
v 23 10 -24
v 23 10 -23
v 23 10 -22
v 23 9.99999905 -21
v 23 8.99999905 -21
v 23 7.99999952 -21
v 23 6.99999952 -21
v 22 6 -21
v 22 6 -22
v 22 6 -23
v 22 6.00000048 -24
v 22 6.00000048 -25
v 22 7.00000048 -25
v 22 8 -25
v 22 9 -25
v 22 10 -25
v 22 10 -24
v 22 10 -23
v 22 10 -22
v 22 9.99999905 -21
v 22 8.99999905 -21
v 22 7.99999952 -21
v 22 6.99999952 -21
v 21 6 -21
v 21 6 -22
v 21 6 -23
v 21 6 -24
v 21 6 -25
v 21 7 -25
v 21 8 -25
v 21 9 -25
v 21 10 -25
v 21 10 -24
v 21 10 -23
v 21 10 -22
v 21 10 -21
v 21 9 -21
v 21 8 -21
v 21 7 -21
v 20 6 -21
v 20 6 -22
v 20 6 -23
v 20 6.00000048 -24
v 20 6.00000048 -25
v 20 7.00000048 -25
v 20 8 -25
v 20 9 -25
v 20 10 -25
v 20 10 -24
v 20 10 -23
v 20 10 -22
v 20 9.99999905 -21
v 20 8.99999905 -21
v 20 7.99999952 -21
v 20 6.99999952 -21
v 19 6 -21
v 19 6 -22
v 19 6 -23
v 19 6 -24
v 19 6 -25
v 19 7 -25
v 19 8 -25
v 19 9 -25
v 19 10 -25
v 19 10 -24
v 19 10 -23
v 19 10 -22
v 19 10 -21
v 19 9 -21
v 19 8 -21
v 19 7 -21
v 18 6 -21
v 18 6 -22
v 18 6 -23
v 18 6 -24
v 18 6.00000048 -25
v 18 7.00000048 -25
v 18 8 -25
v 18 9 -25
v 18 10 -25
v 18 10 -24
v 18 10 -23
v 18 10 -22
v 18 9.99999905 -21
v 18 8.99999905 -21
v 18 7.99999952 -21
v 18 6.99999952 -21
v 17 6 -21
v 17 6 -22
v 17 6 -23
v 17 6 -24
v 17 6 -25
v 17 7 -25
v 17 8 -25
v 17 9 -25
v 17 10 -25
v 17 10 -24
v 17 10 -23
v 17 10 -22
v 17 10 -21
v 17 9 -21
v 17 8 -21
v 17 7 -21
v 16 6 -21
v 16 6 -22
v 16 6 -23
v 16 6.00000048 -24
v 16 6.00000048 -25
v 16 7.00000048 -25
v 16 8 -25
v 16 9 -25
v 16 10 -25
v 16 10 -24
v 16 10 -23
v 16 10 -22
v 16 9.99999905 -21
v 16 9 -21
v 16 7.99999952 -21
v 16 6.99999952 -21
v 15 6 -21
v 15 6 -22
v 15 6 -23
v 15 6 -24
v 15 6 -25
v 15 10 -25
v 15 10 -24
v 15 10 -23
v 15 10 -22
v 15 10 -21
v 15 9 -21
v 15 8 -21
v 15 7 -21
v 14 6 -21
v 14 6 -22
v 14 6 -23
v 14 6 -24
v 14 6 -25
v 14 10 -25
v 14 10 -24
v 14 10 -23
v 14 10 -22
v 14 10 -21
v 14 9 -21
v 14 8 -21
v 14 7 -21
v 13 6 -21
v 13 6 -22
v 13 6 -23
v 13 6.00000048 -24
v 13 6.00000048 -25
v 13 10 -25
v 13 10 -24
v 13 10 -23
v 13 10 -22
v 13 9.99999905 -21
v 13 9 -21
v 13 7.99999952 -21
v 13 6.99999952 -21
v 16 6.00000048 -34
v 16 7.00000048 -34
v 15 7 -34
v 15 6 -34
v 16 8 -34
v 15 8 -34
v 16 9 -34
v 15 9 -34
v 16 10 -34
v 15 10 -34
v 14 7 -34
v 14 6 -34
v 14 8 -34
v 14 9 -34
v 14 10 -34
v 13 7.00000048 -34
v 13 6.00000048 -34
v 13 8 -34
v 13 9 -34
v 13 10 -34
v 12 7 -34
v 12 6 -34
v 12 8 -34
v 12 9 -34
v 12 10 -34
v 16 6.00000048 -26
v 16 7.00000048 -26
v 16 8 -26
v 16 9 -26
v 16 10 -26
v 15.000001 10 -26
v 14.000001 10 -26
v 13.000001 10 -26
v 12.000001 10 -26
v 12.000001 9 -26
v 12.000001 8 -26
v 12.000001 7 -26
v 12.000001 6 -26
v 13.000001 6.00000048 -26
v 14.000001 6 -26
v 15.000001 6 -26
v 16 6.00000048 -27
v 16 7.00000048 -27
v 16 8 -27
v 16 9 -27
v 16 10 -27
v 15 10 -27
v 14 10 -27
v 12.999999 10 -27
v 11.999999 10 -27
v 11.999999 9 -27
v 11.999999 8 -27
v 12 7 -27
v 11.999999 6 -27
v 13 6.00000048 -27
v 14 6 -27
v 14.999999 6 -27
v 16 6.00000048 -28
v 16 7.00000048 -28
v 16 8 -28
v 16 9 -28
v 16 10 -28
v 15 10 -28
v 14 10 -28
v 13 10 -28
v 12 10 -28
v 12 9 -28
v 12 8 -28
v 12 7 -28
v 12 6 -28
v 13 6.00000048 -28
v 14 6 -28
v 15 6 -28
v 16 6.00000095 -29
v 16 7.00000095 -29
v 16 8 -29
v 16 9 -29
v 15.999999 10 -29
v 15 10 -29
v 14 10 -29
v 13 10 -29
v 12 9.99999905 -29
v 12 9 -29
v 12 7.99999952 -29
v 12.000001 6.99999952 -29
v 12.000001 6 -29
v 13.000001 6.00000048 -29
v 14.000001 6 -29
v 15 6 -29
v 16 6.00000095 -30
v 16 7.00000095 -30
v 16 8 -30
v 16 9 -30
v 15.999999 10 -30
v 14.999999 10 -30
v 13.999999 10 -30
v 13 10 -30
v 12 9.99999905 -30
v 12 9 -30
v 12 7.99999952 -30
v 12.000001 6.99999952 -30
v 12 6 -30
v 13 6.00000048 -30
v 14 6 -30
v 15 6 -30
v 16 6.00000095 -31.0000019
v 16 7.00000095 -31.0000019
v 16 8 -31.0000019
v 15.999999 9 -31.0000019
v 15.999999 10 -31.0000019
v 14.999999 10 -31.0000019
v 13.999999 10 -31.0000019
v 12.999999 10 -31.0000019
v 12 9.99999905 -31.0000019
v 12 9 -31.0000019
v 12 7.99999952 -31.0000019
v 12 6.99999952 -31.0000019
v 12 6 -31.0000019
v 13 6.00000048 -31.0000019
v 14 6 -31.0000019
v 15 6.00000048 -31.0000019
v 16 6.00000095 -32
v 16 7.00000095 -32
v 16 8 -32
v 16 9 -32
v 16 10 -32
v 15 10 -32
v 14 10 -32
v 13 10 -32
v 12 9.99999905 -32
v 12 9 -32
v 12.000001 7.99999952 -32
v 12.000001 6.99999952 -32
v 12.000001 6 -32
v 13.000001 6.00000048 -32
v 14.000001 6 -32
v 15.000001 6.00000048 -32
v 15.999999 6.00000048 -33
v 15.999999 7.00000048 -33
v 15.999999 8 -33
v 15.999999 9 -33
v 15.999999 10 -33
v 14.999999 10 -33
v 13.999999 10 -33
v 12.999999 10 -33
v 11.999999 10 -33
v 11.999999 9 -33
v 11.999999 8 -33
v 11.999999 7 -33
v 11.999999 6 -33
v 12.999999 6.00000048 -33
v 13.999999 6 -33
v 14.999999 6 -33
g 
f 17 20 19 18
f 18 19 22 21
f 21 22 24 23
f 23 24 26 25
f 20 28 27 19
f 19 27 29 22
f 22 29 30 24
f 24 30 31 26
f 28 33 32 27
f 27 32 34 29
f 29 34 35 30
f 30 35 36 31
f 33 38 37 32
f 32 37 39 34
f 34 39 40 35
f 35 40 41 36
f 6 42 43 7
f 7 43 44 8
f 8 44 45 9
f 9 45 46 10
f 10 46 47 12
f 12 47 48 14
f 14 48 49 16
f 16 49 50 5
f 5 50 51 4
f 4 51 52 3
f 3 52 53 2
f 2 53 54 1
f 1 54 55 15
f 15 55 56 13
f 13 56 57 11
f 11 57 42 6
f 42 58 59 43
f 43 59 60 44
f 44 60 61 45
f 45 61 62 46
f 46 62 63 47
f 47 63 64 48
f 48 64 65 49
f 49 65 66 50
f 50 66 67 51
f 51 67 68 52
f 52 68 69 53
f 53 69 70 54
f 54 70 71 55
f 55 71 72 56
f 56 72 73 57
f 57 73 58 42
f 58 74 75 59
f 59 75 76 60
f 60 76 77 61
f 61 77 78 62
f 62 78 79 63
f 63 79 80 64
f 64 80 81 65
f 65 81 82 66
f 66 82 83 67
f 67 83 84 68
f 68 84 85 69
f 69 85 86 70
f 70 86 87 71
f 71 87 88 72
f 72 88 89 73
f 73 89 74 58
f 74 90 91 75
f 75 91 92 76
f 76 92 93 77
f 77 93 94 78
f 78 94 95 79
f 79 95 96 80
f 80 96 97 81
f 81 97 98 82
f 82 98 99 83
f 83 99 100 84
f 84 100 101 85
f 85 101 102 86
f 86 102 103 87
f 87 103 104 88
f 88 104 105 89
f 89 105 90 74
f 90 106 107 91
f 91 107 108 92
f 92 108 109 93
f 93 109 110 94
f 94 110 111 95
f 95 111 112 96
f 96 112 113 97
f 97 113 114 98
f 98 114 115 99
f 99 115 116 100
f 100 116 117 101
f 101 117 118 102
f 102 118 119 103
f 103 119 120 104
f 104 120 121 105
f 105 121 106 90
f 106 122 123 107
f 107 123 124 108
f 108 124 125 109
f 109 125 126 110
f 110 126 127 111
f 111 127 128 112
f 112 128 129 113
f 113 129 130 114
f 114 130 131 115
f 115 131 132 116
f 116 132 133 117
f 117 133 134 118
f 118 134 135 119
f 119 135 136 120
f 120 136 137 121
f 121 137 122 106
f 122 138 139 123
f 123 139 140 124
f 124 140 141 125
f 125 141 142 126
f 126 142 143 127
f 127 143 144 128
f 128 144 145 129
f 129 145 146 130
f 130 146 147 131
f 131 147 148 132
f 132 148 149 133
f 133 149 150 134
f 134 150 151 135
f 135 151 152 136
f 136 152 153 137
f 137 153 138 122
f 138 154 155 139
f 139 155 156 140
f 140 156 157 141
f 141 157 158 142
f 142 158 159 143
f 143 159 160 144
f 144 160 161 145
f 145 161 162 146
f 146 162 163 147
f 147 163 164 148
f 148 164 165 149
f 149 165 166 150
f 150 166 167 151
f 151 167 168 152
f 152 168 169 153
f 153 169 154 138
f 154 170 171 155
f 155 171 172 156
f 156 172 173 157
f 157 173 174 158
f 158 174 175 159
f 159 175 176 160
f 160 176 177 161
f 161 177 178 162
f 162 178 179 163
f 163 179 180 164
f 164 180 181 165
f 165 181 182 166
f 166 182 183 167
f 167 183 184 168
f 168 184 185 169
f 169 185 170 154
f 170 186 187 171
f 171 187 188 172
f 172 188 189 173
f 173 189 190 174
f 174 190 191 175
f 175 191 192 176
f 176 192 193 177
f 177 193 194 178
f 178 194 195 179
f 179 195 196 180
f 180 196 197 181
f 181 197 198 182
f 182 198 199 183
f 183 199 200 184
f 184 200 201 185
f 185 201 186 170
f 186 202 203 187
f 187 203 204 188
f 188 204 205 189
f 189 205 206 190
f 190 206 207 191
f 191 207 208 192
f 192 208 209 193
f 193 209 210 194
f 194 210 211 195
f 195 211 212 196
f 196 212 213 197
f 197 213 214 198
f 198 214 215 199
f 199 215 216 200
f 200 216 217 201
f 201 217 202 186
f 202 218 219 203
f 203 219 220 204
f 204 220 221 205
f 205 221 222 206
f 206 222 223 207
f 207 223 224 208
f 208 224 225 209
f 209 225 226 210
f 210 226 227 211
f 211 227 228 212
f 212 228 229 213
f 213 229 230 214
f 214 230 231 215
f 215 231 232 216
f 216 232 233 217
f 217 233 218 202
f 218 234 235 219
f 219 235 236 220
f 220 236 237 221
f 221 237 238 222
f 222 238 239 223
f 223 239 240 224
f 224 240 241 225
f 225 241 242 226
f 226 242 243 227
f 227 243 244 228
f 228 244 245 229
f 229 245 246 230
f 230 246 247 231
f 231 247 248 232
f 232 248 249 233
f 233 249 234 218
f 234 250 251 235
f 235 251 252 236
f 236 252 253 237
f 237 253 254 238
f 238 254 255 239
f 239 255 256 240
f 240 256 257 241
f 241 257 258 242
f 242 258 259 243
f 243 259 260 244
f 244 260 261 245
f 245 261 262 246
f 246 262 263 247
f 247 263 264 248
f 248 264 265 249
f 249 265 250 234
f 250 266 267 251
f 251 267 268 252
f 252 268 269 253
f 253 269 270 254
f 258 271 272 259
f 259 272 273 260
f 260 273 274 261
f 261 274 275 262
f 262 275 276 263
f 263 276 277 264
f 264 277 278 265
f 265 278 266 250
f 266 279 280 267
f 267 280 281 268
f 268 281 282 269
f 269 282 283 270
f 271 284 285 272
f 272 285 286 273
f 273 286 287 274
f 274 287 288 275
f 275 288 289 276
f 276 289 290 277
f 277 290 291 278
f 278 291 279 266
f 279 292 293 280
f 280 293 294 281
f 281 294 295 282
f 282 295 296 283
f 284 297 298 285
f 285 298 299 286
f 286 299 300 287
f 287 300 301 288
f 288 301 302 289
f 289 302 303 290
f 290 303 304 291
f 291 304 292 279
f 292 17 18 293
f 293 18 21 294
f 294 21 23 295
f 295 23 25 296
f 297 41 40 298
f 298 40 39 299
f 299 39 37 300
f 300 37 38 301
f 301 38 33 302
f 302 33 28 303
f 303 28 20 304
f 304 20 17 292
f 305 308 307 306
f 306 307 310 309
f 309 310 312 311
f 311 312 314 313
f 308 316 315 307
f 307 315 317 310
f 310 317 318 312
f 312 318 319 314
f 316 321 320 315
f 315 320 322 317
f 317 322 323 318
f 318 323 324 319
f 321 326 325 320
f 320 325 327 322
f 322 327 328 323
f 323 328 329 324
f 254 330 331 255
f 255 331 332 256
f 256 332 333 257
f 257 333 334 258
f 258 334 335 271
f 271 335 336 284
f 284 336 337 297
f 297 337 338 41
f 41 338 339 36
f 36 339 340 31
f 31 340 341 26
f 26 341 342 25
f 25 342 343 296
f 296 343 344 283
f 283 344 345 270
f 270 345 330 254
f 330 346 347 331
f 331 347 348 332
f 332 348 349 333
f 333 349 350 334
f 334 350 351 335
f 335 351 352 336
f 336 352 353 337
f 337 353 354 338
f 338 354 355 339
f 339 355 356 340
f 340 356 357 341
f 341 357 358 342
f 342 358 359 343
f 343 359 360 344
f 344 360 361 345
f 345 361 346 330
f 346 362 363 347
f 347 363 364 348
f 348 364 365 349
f 349 365 366 350
f 350 366 367 351
f 351 367 368 352
f 352 368 369 353
f 353 369 370 354
f 354 370 371 355
f 355 371 372 356
f 356 372 373 357
f 357 373 374 358
f 358 374 375 359
f 359 375 376 360
f 360 376 377 361
f 361 377 362 346
f 362 378 379 363
f 363 379 380 364
f 364 380 381 365
f 365 381 382 366
f 366 382 383 367
f 367 383 384 368
f 368 384 385 369
f 369 385 386 370
f 370 386 387 371
f 371 387 388 372
f 372 388 389 373
f 373 389 390 374
f 374 390 391 375
f 375 391 392 376
f 376 392 393 377
f 377 393 378 362
f 378 394 395 379
f 379 395 396 380
f 380 396 397 381
f 381 397 398 382
f 382 398 399 383
f 383 399 400 384
f 384 400 401 385
f 385 401 402 386
f 386 402 403 387
f 387 403 404 388
f 388 404 405 389
f 389 405 406 390
f 390 406 407 391
f 391 407 408 392
f 392 408 409 393
f 393 409 394 378
f 394 410 411 395
f 395 411 412 396
f 396 412 413 397
f 397 413 414 398
f 398 414 415 399
f 399 415 416 400
f 400 416 417 401
f 401 417 418 402
f 402 418 419 403
f 403 419 420 404
f 404 420 421 405
f 405 421 422 406
f 406 422 423 407
f 407 423 424 408
f 408 424 425 409
f 409 425 410 394
f 410 426 427 411
f 411 427 428 412
f 412 428 429 413
f 413 429 430 414
f 414 430 431 415
f 415 431 432 416
f 416 432 433 417
f 417 433 434 418
f 418 434 435 419
f 419 435 436 420
f 420 436 437 421
f 421 437 438 422
f 422 438 439 423
f 423 439 440 424
f 424 440 441 425
f 425 441 426 410
f 426 442 443 427
f 427 443 444 428
f 428 444 445 429
f 429 445 446 430
f 430 446 447 431
f 431 447 448 432
f 432 448 449 433
f 433 449 450 434
f 434 450 451 435
f 435 451 452 436
f 436 452 453 437
f 437 453 454 438
f 438 454 455 439
f 439 455 456 440
f 440 456 457 441
f 441 457 442 426
f 442 305 306 443
f 443 306 309 444
f 444 309 311 445
f 445 311 313 446
f 446 313 314 447
f 447 314 319 448
f 448 319 324 449
f 449 324 329 450
f 450 329 328 451
f 451 328 327 452
f 452 327 325 453
f 453 325 326 454
f 454 326 321 455
f 455 321 316 456
f 456 316 308 457
f 457 308 305 442
