# File exported by Houdini 20.5.584 (www.sidefx.com)
# 930 points
# 3480 vertices
# 870 primitives
# Bounds: [0, 10, -29] to [30, 10, 0]
g 
v 0 10 -1
v 1 10 -1
v 1 10 0
v 0 10 0
v 2 10 -1
v 2 10 0
v 3 10 -1
v 3 10 0
v 4 10 -1
v 4 10 0
v 5 10 -1
v 5 10 0
v 6 10 -1
v 6 10 0
v 7 10 -1
v 7 10 0
v 8 10 -1
v 8 10 0
v 9 10 -1
v 9 10 0
v 10 10 -1
v 10 10 0
v 11 10 -1
v 11 10 0
v 12 10 -1
v 12 10 0
v 13 10 -1
v 13 10 0
v 14 10 -1
v 14 10 0
v 15 10 -1
v 15 10 0
v 16 10 -1
v 16 10 0
v 17 10 -1
v 17 10 0
v 18 10 -1
v 18 10 0
v 19 10 -1
v 19 10 0
v 20 10 -1
v 20 10 0
v 21 10 -1
v 21 10 0
v 22 10 -1
v 22 10 0
v 23 10 -1
v 23 10 0
v 24 10 -1
v 24 10 0
v 25 10 -1
v 25 10 0
v 26 10 -1
v 26 10 0
v 27 10 -1
v 27 10 0
v 28 10 -1
v 28 10 0
v 29 10 -1
v 29 10 0
v 30 10 -1
v 30 10 0
v 0 10 -2
v 1 10 -2
v 2 10 -2
v 3 10 -2
v 4 10 -2
v 5 10 -2
v 6 10 -2
v 7 10 -2
v 8 10 -2
v 9 10 -2
v 10 10 -2
v 11 10 -2
v 12 10 -2
v 13 10 -2
v 14 10 -2
v 15 10 -2
v 16 10 -2
v 17 10 -2
v 18 10 -2
v 19 10 -2
v 20 10 -2
v 21 10 -2
v 22 10 -2
v 23 10 -2
v 24 10 -2
v 25 10 -2
v 26 10 -2
v 27 10 -2
v 28 10 -2
v 29 10 -2
v 30 10 -2
v 0 10 -3
v 1 10 -3
v 2 10 -3
v 3 10 -3
v 4 10 -3
v 5 10 -3
v 6 10 -3
v 7 10 -3
v 8 10 -3
v 9 10 -3
v 10 10 -3
v 11 10 -3
v 12 10 -3
v 13 10 -3
v 14 10 -3
v 15 10 -3
v 16 10 -3
v 17 10 -3
v 18 10 -3
v 19 10 -3
v 20 10 -3
v 21 10 -3
v 22 10 -3
v 23 10 -3
v 24 10 -3
v 25 10 -3
v 26 10 -3
v 27 10 -3
v 28 10 -3
v 29 10 -3
v 30 10 -3
v 0 10 -4
v 1 10 -4
v 2 10 -4
v 3 10 -4
v 4 10 -4
v 5 10 -4
v 6 10 -4
v 7 10 -4
v 8 10 -4
v 9 10 -4
v 10 10 -4
v 11 10 -4
v 12 10 -4
v 13 10 -4
v 14 10 -4
v 15 10 -4
v 16 10 -4
v 17 10 -4
v 18 10 -4
v 19 10 -4
v 20 10 -4
v 21 10 -4
v 22 10 -4
v 23 10 -4
v 24 10 -4
v 25 10 -4
v 26 10 -4
v 27 10 -4
v 28 10 -4
v 29 10 -4
v 30 10 -4
v 0 10 -5
v 1 10 -5
v 2 10 -5
v 3 10 -5
v 4 10 -5
v 5 10 -5
v 6 10 -5
v 7 10 -5
v 8 10 -5
v 9 10 -5
v 10 10 -5
v 11 10 -5
v 12 10 -5
v 13 10 -5
v 14 10 -5
v 15 10 -5
v 16 10 -5
v 17 10 -5
v 18 10 -5
v 19 10 -5
v 20 10 -5
v 21 10 -5
v 22 10 -5
v 23 10 -5
v 24 10 -5
v 25 10 -5
v 26 10 -5
v 27 10 -5
v 28 10 -5
v 29 10 -5
v 30 10 -5
v 0 10 -6
v 1 10 -6
v 2 10 -6
v 3 10 -6
v 4 10 -6
v 5 10 -6
v 6 10 -6
v 7 10 -6
v 8 10 -6
v 9 10 -6
v 10 10 -6
v 11 10 -6
v 12 10 -6
v 13 10 -6
v 14 10 -6
v 15 10 -6
v 16 10 -6
v 17 10 -6
v 18 10 -6
v 19 10 -6
v 20 10 -6
v 21 10 -6
v 22 10 -6
v 23 10 -6
v 24 10 -6
v 25 10 -6
v 26 10 -6
v 27 10 -6
v 28 10 -6
v 29 10 -6
v 30 10 -6
v 0 10 -7
v 1 10 -7
v 2 10 -7
v 3 10 -7
v 4 10 -7
v 5 10 -7
v 6 10 -7
v 7 10 -7
v 8 10 -7
v 9 10 -7
v 10 10 -7
v 11 10 -7
v 12 10 -7
v 13 10 -7
v 14 10 -7
v 15 10 -7
v 16 10 -7
v 17 10 -7
v 18 10 -7
v 19 10 -7
v 20 10 -7
v 21 10 -7
v 22 10 -7
v 23 10 -7
v 24 10 -7
v 25 10 -7
v 26 10 -7
v 27 10 -7
v 28 10 -7
v 29 10 -7
v 30 10 -7
v 0 10 -8
v 1 10 -8
v 2 10 -8
v 3 10 -8
v 4 10 -8
v 5 10 -8
v 6 10 -8
v 7 10 -8
v 8 10 -8
v 9 10 -8
v 10 10 -8
v 11 10 -8
v 12 10 -8
v 13 10 -8
v 14 10 -8
v 15 10 -8
v 16 10 -8
v 17 10 -8
v 18 10 -8
v 19 10 -8
v 20 10 -8
v 21 10 -8
v 22 10 -8
v 23 10 -8
v 24 10 -8
v 25 10 -8
v 26 10 -8
v 27 10 -8
v 28 10 -8
v 29 10 -8
v 30 10 -8
v 0 10 -9
v 1 10 -9
v 2 10 -9
v 3 10 -9
v 4 10 -9
v 5 10 -9
v 6 10 -9
v 7 10 -9
v 8 10 -9
v 9 10 -9
v 10 10 -9
v 11 10 -9
v 12 10 -9
v 13 10 -9
v 14 10 -9
v 15 10 -9
v 16 10 -9
v 17 10 -9
v 18 10 -9
v 19 10 -9
v 20 10 -9
v 21 10 -9
v 22 10 -9
v 23 10 -9
v 24 10 -9
v 25 10 -9
v 26 10 -9
v 27 10 -9
v 28 10 -9
v 29 10 -9
v 30 10 -9
v 0 10 -10
v 1 10 -10
v 2 10 -10
v 3 10 -10
v 4 10 -10
v 5 10 -10
v 6 10 -10
v 7 10 -10
v 8 10 -10
v 9 10 -10
v 10 10 -10
v 11 10 -10
v 12 10 -10
v 13 10 -10
v 14 10 -10
v 15 10 -10
v 16 10 -10
v 17 10 -10
v 18 10 -10
v 19 10 -10
v 20 10 -10
v 21 10 -10
v 22 10 -10
v 23 10 -10
v 24 10 -10
v 25 10 -10
v 26 10 -10
v 27 10 -10
v 28 10 -10
v 29 10 -10
v 30 10 -10
v 0 10 -11
v 1 10 -11
v 2 10 -11
v 3 10 -11
v 4 10 -11
v 5 10 -11
v 6 10 -11
v 7 10 -11
v 8 10 -11
v 9 10 -11
v 10 10 -11
v 11 10 -11
v 12 10 -11
v 13 10 -11
v 14 10 -11
v 15 10 -11
v 16 10 -11
v 17 10 -11
v 18 10 -11
v 19 10 -11
v 20 10 -11
v 21 10 -11
v 22 10 -11
v 23 10 -11
v 24 10 -11
v 25 10 -11
v 26 10 -11
v 27 10 -11
v 28 10 -11
v 29 10 -11
v 30 10 -11
v 0 10 -12
v 1 10 -12
v 2 10 -12
v 3 10 -12
v 4 10 -12
v 5 10 -12
v 6 10 -12
v 7 10 -12
v 8 10 -12
v 9 10 -12
v 10 10 -12
v 11 10 -12
v 12 10 -12
v 13 10 -12
v 14 10 -12
v 15 10 -12
v 16 10 -12
v 17 10 -12
v 18 10 -12
v 19 10 -12
v 20 10 -12
v 21 10 -12
v 22 10 -12
v 23 10 -12
v 24 10 -12
v 25 10 -12
v 26 10 -12
v 27 10 -12
v 28 10 -12
v 29 10 -12
v 30 10 -12
v 0 10 -13
v 1 10 -13
v 2 10 -13
v 3 10 -13
v 4 10 -13
v 5 10 -13
v 6 10 -13
v 7 10 -13
v 8 10 -13
v 9 10 -13
v 10 10 -13
v 11 10 -13
v 12 10 -13
v 13 10 -13
v 14 10 -13
v 15 10 -13
v 16 10 -13
v 17 10 -13
v 18 10 -13
v 19 10 -13
v 20 10 -13
v 21 10 -13
v 22 10 -13
v 23 10 -13
v 24 10 -13
v 25 10 -13
v 26 10 -13
v 27 10 -13
v 28 10 -13
v 29 10 -13
v 30 10 -13
v 0 10 -14
v 1 10 -14
v 2 10 -14
v 3 10 -14
v 4 10 -14
v 5 10 -14
v 6 10 -14
v 7 10 -14
v 8 10 -14
v 9 10 -14
v 10 10 -14
v 11 10 -14
v 12 10 -14
v 13 10 -14
v 14 10 -14
v 15 10 -14
v 16 10 -14
v 17 10 -14
v 18 10 -14
v 19 10 -14
v 20 10 -14
v 21 10 -14
v 22 10 -14
v 23 10 -14
v 24 10 -14
v 25 10 -14
v 26 10 -14
v 27 10 -14
v 28 10 -14
v 29 10 -14
v 30 10 -14
v 0 10 -15
v 1 10 -15
v 2 10 -15
v 3 10 -15
v 4 10 -15
v 5 10 -15
v 6 10 -15
v 7 10 -15
v 8 10 -15
v 9 10 -15
v 10 10 -15
v 11 10 -15
v 12 10 -15
v 13 10 -15
v 14 10 -15
v 15 10 -15
v 16 10 -15
v 17 10 -15
v 18 10 -15
v 19 10 -15
v 20 10 -15
v 21 10 -15
v 22 10 -15
v 23 10 -15
v 24 10 -15
v 25 10 -15
v 26 10 -15
v 27 10 -15
v 28 10 -15
v 29 10 -15
v 30 10 -15
v 0 10 -16
v 1 10 -16
v 2 10 -16
v 3 10 -16
v 4 10 -16
v 5 10 -16
v 6 10 -16
v 7 10 -16
v 8 10 -16
v 9 10 -16
v 10 10 -16
v 11 10 -16
v 12 10 -16
v 13 10 -16
v 14 10 -16
v 15 10 -16
v 16 10 -16
v 17 10 -16
v 18 10 -16
v 19 10 -16
v 20 10 -16
v 21 10 -16
v 22 10 -16
v 23 10 -16
v 24 10 -16
v 25 10 -16
v 26 10 -16
v 27 10 -16
v 28 10 -16
v 29 10 -16
v 30 10 -16
v 0 10 -17
v 1 10 -17
v 2 10 -17
v 3 10 -17
v 4 10 -17
v 5 10 -17
v 6 10 -17
v 7 10 -17
v 8 10 -17
v 9 10 -17
v 10 10 -17
v 11 10 -17
v 12 10 -17
v 13 10 -17
v 14 10 -17
v 15 10 -17
v 16 10 -17
v 17 10 -17
v 18 10 -17
v 19 10 -17
v 20 10 -17
v 21 10 -17
v 22 10 -17
v 23 10 -17
v 24 10 -17
v 25 10 -17
v 26 10 -17
v 27 10 -17
v 28 10 -17
v 29 10 -17
v 30 10 -17
v 0 10 -18
v 1 10 -18
v 2 10 -18
v 3 10 -18
v 4 10 -18
v 5 10 -18
v 6 10 -18
v 7 10 -18
v 8 10 -18
v 9 10 -18
v 10 10 -18
v 11 10 -18
v 12 10 -18
v 13 10 -18
v 14 10 -18
v 15 10 -18
v 16 10 -18
v 17 10 -18
v 18 10 -18
v 19 10 -18
v 20 10 -18
v 21 10 -18
v 22 10 -18
v 23 10 -18
v 24 10 -18
v 25 10 -18
v 26 10 -18
v 27 10 -18
v 28 10 -18
v 29 10 -18
v 30 10 -18
v 0 10 -19
v 1 10 -19
v 2 10 -19
v 3 10 -19
v 4 10 -19
v 5 10 -19
v 6 10 -19
v 7 10 -19
v 8 10 -19
v 9 10 -19
v 10 10 -19
v 11 10 -19
v 12 10 -19
v 13 10 -19
v 14 10 -19
v 15 10 -19
v 16 10 -19
v 17 10 -19
v 18 10 -19
v 19 10 -19
v 20 10 -19
v 21 10 -19
v 22 10 -19
v 23 10 -19
v 24 10 -19
v 25 10 -19
v 26 10 -19
v 27 10 -19
v 28 10 -19
v 29 10 -19
v 30 10 -19
v 0 10 -20
v 1 10 -20
v 2 10 -20
v 3 10 -20
v 4 10 -20
v 5 10 -20
v 6 10 -20
v 7 10 -20
v 8 10 -20
v 9 10 -20
v 10 10 -20
v 11 10 -20
v 12 10 -20
v 13 10 -20
v 14 10 -20
v 15 10 -20
v 16 10 -20
v 17 10 -20
v 18 10 -20
v 19 10 -20
v 20 10 -20
v 21 10 -20
v 22 10 -20
v 23 10 -20
v 24 10 -20
v 25 10 -20
v 26 10 -20
v 27 10 -20
v 28 10 -20
v 29 10 -20
v 30 10 -20
v 0 10 -21
v 1 10 -21
v 2 10 -21
v 3 10 -21
v 4 10 -21
v 5 10 -21
v 6 10 -21
v 7 10 -21
v 8 10 -21
v 9 10 -21
v 10 10 -21
v 11 10 -21
v 12 10 -21
v 13 10 -21
v 14 10 -21
v 15 10 -21
v 16 10 -21
v 17 10 -21
v 18 10 -21
v 19 10 -21
v 20 10 -21
v 21 10 -21
v 22 10 -21
v 23 10 -21
v 24 10 -21
v 25 10 -21
v 26 10 -21
v 27 10 -21
v 28 10 -21
v 29 10 -21
v 30 10 -21
v 0 10 -22
v 1 10 -22
v 2 10 -22
v 3 10 -22
v 4 10 -22
v 5 10 -22
v 6 10 -22
v 7 10 -22
v 8 10 -22
v 9 10 -22
v 10 10 -22
v 11 10 -22
v 12 10 -22
v 13 10 -22
v 14 10 -22
v 15 10 -22
v 16 10 -22
v 17 10 -22
v 18 10 -22
v 19 10 -22
v 20 10 -22
v 21 10 -22
v 22 10 -22
v 23 10 -22
v 24 10 -22
v 25 10 -22
v 26 10 -22
v 27 10 -22
v 28 10 -22
v 29 10 -22
v 30 10 -22
v 0 10 -23
v 1 10 -23
v 2 10 -23
v 3 10 -23
v 4 10 -23
v 5 10 -23
v 6 10 -23
v 7 10 -23
v 8 10 -23
v 9 10 -23
v 10 10 -23
v 11 10 -23
v 12 10 -23
v 13 10 -23
v 14 10 -23
v 15 10 -23
v 16 10 -23
v 17 10 -23
v 18 10 -23
v 19 10 -23
v 20 10 -23
v 21 10 -23
v 22 10 -23
v 23 10 -23
v 24 10 -23
v 25 10 -23
v 26 10 -23
v 27 10 -23
v 28 10 -23
v 29 10 -23
v 30 10 -23
v 0 10 -24
v 1 10 -24
v 2 10 -24
v 3 10 -24
v 4 10 -24
v 5 10 -24
v 6 10 -24
v 7 10 -24
v 8 10 -24
v 9 10 -24
v 10 10 -24
v 11 10 -24
v 12 10 -24
v 13 10 -24
v 14 10 -24
v 15 10 -24
v 16 10 -24
v 17 10 -24
v 18 10 -24
v 19 10 -24
v 20 10 -24
v 21 10 -24
v 22 10 -24
v 23 10 -24
v 24 10 -24
v 25 10 -24
v 26 10 -24
v 27 10 -24
v 28 10 -24
v 29 10 -24
v 30 10 -24
v 0 10 -25
v 1 10 -25
v 2 10 -25
v 3 10 -25
v 4 10 -25
v 5 10 -25
v 6 10 -25
v 7 10 -25
v 8 10 -25
v 9 10 -25
v 10 10 -25
v 11 10 -25
v 12 10 -25
v 13 10 -25
v 14 10 -25
v 15 10 -25
v 16 10 -25
v 17 10 -25
v 18 10 -25
v 19 10 -25
v 20 10 -25
v 21 10 -25
v 22 10 -25
v 23 10 -25
v 24 10 -25
v 25 10 -25
v 26 10 -25
v 27 10 -25
v 28 10 -25
v 29 10 -25
v 30 10 -25
v 0 10 -26
v 1 10 -26
v 2 10 -26
v 3 10 -26
v 4 10 -26
v 5 10 -26
v 6 10 -26
v 7 10 -26
v 8 10 -26
v 9 10 -26
v 10 10 -26
v 11 10 -26
v 12 10 -26
v 13 10 -26
v 14 10 -26
v 15 10 -26
v 16 10 -26
v 17 10 -26
v 18 10 -26
v 19 10 -26
v 20 10 -26
v 21 10 -26
v 22 10 -26
v 23 10 -26
v 24 10 -26
v 25 10 -26
v 26 10 -26
v 27 10 -26
v 28 10 -26
v 29 10 -26
v 30 10 -26
v 0 10 -27
v 1 10 -27
v 2 10 -27
v 3 10 -27
v 4 10 -27
v 5 10 -27
v 6 10 -27
v 7 10 -27
v 8 10 -27
v 9 10 -27
v 10 10 -27
v 11 10 -27
v 12 10 -27
v 13 10 -27
v 14 10 -27
v 15 10 -27
v 16 10 -27
v 17 10 -27
v 18 10 -27
v 19 10 -27
v 20 10 -27
v 21 10 -27
v 22 10 -27
v 23 10 -27
v 24 10 -27
v 25 10 -27
v 26 10 -27
v 27 10 -27
v 28 10 -27
v 29 10 -27
v 30 10 -27
v 0 10 -28
v 1 10 -28
v 2 10 -28
v 3 10 -28
v 4 10 -28
v 5 10 -28
v 6 10 -28
v 7 10 -28
v 8 10 -28
v 9 10 -28
v 10 10 -28
v 11 10 -28
v 12 10 -28
v 13 10 -28
v 14 10 -28
v 15 10 -28
v 16 10 -28
v 17 10 -28
v 18 10 -28
v 19 10 -28
v 20 10 -28
v 21 10 -28
v 22 10 -28
v 23 10 -28
v 24 10 -28
v 25 10 -28
v 26 10 -28
v 27 10 -28
v 28 10 -28
v 29 10 -28
v 30 10 -28
v 0 10 -29
v 1 10 -29
v 2 10 -29
v 3 10 -29
v 4 10 -29
v 5 10 -29
v 6 10 -29
v 7 10 -29
v 8 10 -29
v 9 10 -29
v 10 10 -29
v 11 10 -29
v 12 10 -29
v 13 10 -29
v 14 10 -29
v 15 10 -29
v 16 10 -29
v 17 10 -29
v 18 10 -29
v 19 10 -29
v 20 10 -29
v 21 10 -29
v 22 10 -29
v 23 10 -29
v 24 10 -29
v 25 10 -29
v 26 10 -29
v 27 10 -29
v 28 10 -29
v 29 10 -29
v 30 10 -29
vt 0.999974966 0.0333331265 0
vt 0.966642678 0.03333297 0
vt 0.966642499 2.66728279e-07 0
vt 0.999975085 4.24796212e-07 0
vt 0.933310032 0.0333328098 0
vt 0.933309913 8.62776858e-07 0
vt 0.899977505 0.0333334096 0
vt 0.899977684 7.04710658e-07 0
vt 0.866645217 0.0333324969 0
vt 0.866645038 5.46642752e-07 0
vt 0.833312571 0.0333330929 0
vt 0.833312392 1.14269108e-06 0
vt 0.799979985 0.0333329365 0
vt 0.799980164 2.30508306e-07 0
vt 0.766647696 0.0333327763 0
vt 0.766647577 8.26556914e-07 0
vt 0.73331511 0.0333326198 0
vt 0.733314931 6.68489008e-07 0
vt 0.699982464 0.0333332121 0
vt 0.699982643 5.10422467e-07 0
vt 0.666650176 0.0333330557 0
vt 0.666650057 3.52354562e-07 0
vt 0.633317649 0.0333328992 0
vt 0.633317411 9.48402999e-07 0
vt 0.599985063 0.0333334915 0
vt 0.599985182 3.6220424e-08 0
vt 0.566652715 0.0333325826 0
vt 0.566652596 6.32268836e-07 0
vt 0.533320129 0.0333331749 0
vt 0.53332001 1.22831761e-06 0
vt 0.499987543 0.0333330184 0
vt 0.499987692 3.16134418e-07 0
vt 0.466655225 0.0333328582 0
vt 0.466655076 9.12183168e-07 0
vt 0.433322608 0.0333327018 0
vt 0.433322787 0 0
vt 0.399990022 0.0333333015 0
vt 0.399990171 5.96048778e-07 0
vt 0.366657734 0.0333331414 0
vt 0.366657615 4.37980987e-07 0
vt 0.333325148 0.0333329849 0
vt 0.333325297 2.79914474e-07 0
vt 0.299992561 0.0333335772 0
vt 0.29999271 1.21846568e-07 0
vt 0.266660243 0.0333326682 0
vt 0.266660124 7.17895261e-07 0
vt 0.233327672 0.0333332643 0
vt 0.233327791 5.59828607e-07 0
vt 0.199995071 0.0333331041 0
vt 0.199995205 4.01760758e-07 0
vt 0.166662768 0.0333329476 0
vt 0.166662648 9.97809252e-07 0
vt 0.133330151 0.0333327875 0
vt 0.133330345 8.56265387e-08 0
vt 0.0999975502 0.0333333872 0
vt 0.0999977589 6.81674919e-07 0
vt 0.0666653216 0.033333227 0
vt 0.0666651502 5.23607014e-07 0
vt 0.0333327129 0.0333330706 0
vt 0.0333328247 3.65540387e-07 0
vt 1.03509542e-07 0.0333336666 0
vt 2.61581505e-07 2.07472652e-07 0
vt 0.999975085 0.0666650757 0
vt 0.966642499 0.0666656718 0
vt 0.933309972 0.0666655153 0
vt 0.899977565 0.0666653588 0
vt 0.866645038 0.0666651949 0
vt 0.833312452 0.066665791 0
vt 0.799980164 0.0666656345 0
vt 0.766647518 0.0666654781 0
vt 0.733314931 0.0666660815 0
vt 0.699982643 0.0666651577 0
vt 0.666649997 0.0666657612 0
vt 0.633317471 0.0666656047 0
vt 0.599985182 0.0666654482 0
vt 0.566652596 0.0666652918 0
vt 0.533320248 0.0666651279 0
vt 0.499987662 0.0666657239 0
vt 0.466655076 0.0666655675 0
vt 0.433322787 0.066665411 0
vt 0.399990201 0.0666652471 0
vt 0.366657585 0.0666658431 0
vt 0.333325297 0.0666649342 0
vt 0.29999271 0.0666655302 0
vt 0.266660094 0.0666653737 0
vt 0.233327806 0.0666652098 0
vt 0.199995205 0.0666658059 0
vt 0.166662648 0.0666656494 0
vt 0.133330345 0.066665493 0
vt 0.0999977216 0.0666653365 0
vt 0.066665113 0.0666659251 0
vt 0.0333328396 0.0666650161 0
vt 2.75370695e-07 0.0666656122 0
vt 0.999974906 0.0999977738 0
vt 0.966642618 0.0999976173 0
vt 0.933310032 0.0999982208 0
vt 0.899977446 0.0999980643 0
vt 0.866645157 0.0999979079 0
vt 0.833312571 0.099997744 0
vt 0.799979985 0.09999834 0
vt 0.766647696 0.099997431 0
vt 0.733315051 0.0999980271 0
vt 0.699982524 0.0999978706 0
vt 0.666650176 0.0999977067 0
vt 0.633317649 0.0999983028 0
vt 0.599985003 0.0999981463 0
vt 0.566652715 0.0999979898 0
vt 0.533320129 0.0999978259 0
vt 0.499987543 0.099998422 0
vt 0.466655195 0.099997513 0
vt 0.433322638 0.099998109 0
vt 0.399990022 0.0999979526 0
vt 0.366657734 0.0999977887 0
vt 0.333325118 0.0999983847 0
vt 0.299992561 0.0999982283 0
vt 0.266660243 0.0999980718 0
vt 0.233327642 0.0999979153 0
vt 0.199995056 0.0999985114 0
vt 0.166662753 0.099997595 0
vt 0.133330151 0.0999981984 0
vt 0.0999975652 0.099998042 0
vt 0.0666652918 0.0999978781 0
vt 0.0333326794 0.0999984741 0
vt 4.00099566e-07 0.0999975652 0
vt 0.999975085 0.133330479 0
vt 0.966642499 0.133330315 0
vt 0.933309853 0.133330926 0
vt 0.899977565 0.133330002 0
vt 0.866645038 0.133330598 0
vt 0.833312392 0.133330449 0
vt 0.799980104 0.133330286 0
vt 0.766647518 0.133330896 0
vt 0.733314931 0.133330733 0
vt 0.699982584 0.133330569 0
vt 0.666650057 0.13333042 0
vt 0.633317471 0.133331001 0
vt 0.599985182 0.133330107 0
vt 0.566652536 0.133330688 0
vt 0.533320248 0.133330524 0
vt 0.499987692 0.133330375 0
vt 0.466655076 0.133330971 0
vt 0.433322787 0.133330047 0
vt 0.399990171 0.133330658 0
vt 0.366657585 0.133330494 0
vt 0.333325297 0.133330345 0
vt 0.29999271 0.133330181 0
vt 0.266660094 0.133330777 0
vt 0.233327806 0.133329868 0
vt 0.19999519 0.133330464 0
vt 0.166662619 0.13333106 0
vt 0.133330315 0.133330151 0
vt 0.099997744 0.133330733 0
vt 0.0666651353 0.133330584 0
vt 0.0333328061 0.13333042 0
vt 2.42031177e-07 0.133330271 0
vt 0.999974906 0.166663185 0
vt 0.966642618 0.166663021 0
vt 0.933310032 0.166662872 0
vt 0.899977446 0.166663468 0
vt 0.866645157 0.166662544 0
vt 0.833312571 0.166663155 0
vt 0.799979985 0.166662991 0
vt 0.766647637 0.166662842 0
vt 0.733315051 0.166662678 0
vt 0.699982524 0.166663259 0
vt 0.666650176 0.16666311 0
vt 0.63331759 0.166662946 0
vt 0.599985003 0.166663557 0
vt 0.566652715 0.166662633 0
vt 0.533320069 0.166663229 0
vt 0.499987513 0.16666308 0
vt 0.466655225 0.166662917 0
vt 0.433322608 0.166662768 0
vt 0.399990052 0.166663364 0
vt 0.366657734 0.1666632 0
vt 0.333325148 0.166663051 0
vt 0.299992561 0.166663632 0
vt 0.266660273 0.166662738 0
vt 0.233327642 0.166663319 0
vt 0.199995056 0.166663155 0
vt 0.166662753 0.166663006 0
vt 0.133330151 0.166662842 0
vt 0.099997811 0.166662678 0
vt 0.0666652992 0.166662529 0
vt 0.0333326906 0.166663125 0
vt 3.6675641e-07 0.166662976 0
vt 0.999975085 0.19999513 0
vt 0.966642439 0.199995726 0
vt 0.933309913 0.199995577 0
vt 0.899977624 0.199995413 0
vt 0.866644979 0.199995264 0
vt 0.833312392 0.19999586 0
vt 0.799980104 0.199995697 0
vt 0.766647518 0.199995548 0
vt 0.733314872 0.199996129 0
vt 0.699982584 0.19999522 0
vt 0.666650057 0.199995816 0
vt 0.633317769 0.199994907 0
vt 0.599985123 0.199995503 0
vt 0.566652536 0.199995339 0
vt 0.533320248 0.199995175 0
vt 0.499987662 0.199995786 0
vt 0.466655046 0.199995622 0
vt 0.433322757 0.199995473 0
vt 0.399990171 0.199995309 0
vt 0.366657585 0.19999589 0
vt 0.333325267 0.199994996 0
vt 0.29999271 0.199995577 0
vt 0.266660094 0.199995428 0
vt 0.233327776 0.199995264 0
vt 0.19999519 0.1999951 0
vt 0.166662619 0.199995711 0
vt 0.133330315 0.199995548 0
vt 0.0999977067 0.199995399 0
vt 0.0666650981 0.199995995 0
vt 0.0333328173 0.199995071 0
vt 2.55820311e-07 0.199995682 0
vt 0.999974906 0.233327836 0
vt 0.966642678 0.233327672 0
vt 0.933310032 0.233328283 0
vt 0.899977446 0.233328119 0
vt 0.866645157 0.23332797 0
vt 0.833312571 0.233327806 0
vt 0.799979925 0.233328387 0
vt 0.766647637 0.233327493 0
vt 0.73331511 0.233328074 0
vt 0.699982464 0.233327925 0
vt 0.666650176 0.233327761 0
vt 0.63331759 0.233328357 0
vt 0.599985003 0.233328208 0
vt 0.566652656 0.233328044 0
vt 0.533320069 0.233327895 0
vt 0.499987513 0.233328491 0
vt 0.466655195 0.233327568 0
vt 0.433322608 0.233328179 0
vt 0.399990022 0.233328015 0
vt 0.366657734 0.233327851 0
vt 0.333325118 0.233327702 0
vt 0.299992532 0.233328283 0
vt 0.266660243 0.233328134 0
vt 0.233327627 0.23332797 0
vt 0.199995041 0.233328566 0
vt 0.166662753 0.233327657 0
vt 0.133330137 0.233328253 0
vt 0.0999978334 0.233327344 0
vt 0.0666652694 0.23332794 0
vt 0.0333326608 0.233327776 0
vt 3.8054921e-07 0.233327627 0
vt 0.999975026 0.266660541 0
vt 0.966642499 0.266660362 0
vt 0.933309913 0.266660988 0
vt 0.899977505 0.266660064 0
vt 0.866644979 0.266660661 0
vt 0.833312392 0.266660511 0
vt 0.799980104 0.266660362 0
vt 0.766647518 0.266660929 0
vt 0.733315229 0.266660035 0
vt 0.699982643 0.266660631 0
vt 0.666650057 0.266660482 0
vt 0.633317709 0.266660303 0
vt 0.599985123 0.266660154 0
vt 0.566652536 0.26666075 0
vt 0.533320189 0.266659826 0
vt 0.499987632 0.266660422 0
vt 0.466655076 0.266661048 0
vt 0.433322728 0.266660094 0
vt 0.399990171 0.26666072 0
vt 0.366657555 0.266660571 0
vt 0.333325267 0.266660392 0
vt 0.299992681 0.266660243 0
vt 0.266660094 0.266660839 0
vt 0.233327776 0.266659945 0
vt 0.19999519 0.266660511 0
vt 0.166662589 0.266660362 0
vt 0.1333303 0.266660213 0
vt 0.0999977216 0.26666078 0
vt 0.066665113 0.266660631 0
vt 0.0333327837 0.266660482 0
vt 2.22480864e-07 0.266660303 0
vt 0.999974966 0.299993247 0
vt 0.966642618 0.299992353 0
vt 0.933309972 0.299992919 0
vt 0.899977446 0.299993515 0
vt 0.866645157 0.299992621 0
vt 0.833312511 0.299993217 0
vt 0.799979985 0.299993038 0
vt 0.766647637 0.299992889 0
vt 0.733315051 0.29999274 0
vt 0.699982464 0.299993306 0
vt 0.666650176 0.299992412 0
vt 0.63331759 0.299993008 0
vt 0.599984944 0.299993604 0
vt 0.566652656 0.299992681 0
vt 0.533320129 0.299993306 0
vt 0.499987483 0.299993157 0
vt 0.466655225 0.299992979 0
vt 0.433322608 0.29999283 0
vt 0.399989992 0.299993426 0
vt 0.366657704 0.299992502 0
vt 0.333325118 0.299993098 0
vt 0.299992532 0.299992949 0
vt 0.266660213 0.29999277 0
vt 0.233327642 0.299993366 0
vt 0.199995354 0.299992472 0
vt 0.166662723 0.299993068 0
vt 0.133330122 0.299992889 0
vt 0.0999978483 0.29999274 0
vt 0.0666652769 0.299992591 0
vt 0.0333326757 0.299993187 0
vt 3.47206083e-07 0.299993038 0
vt 0.999975085 0.333325207 0
vt 0.966642499 0.333325773 0
vt 0.933309853 0.333325624 0
vt 0.899977565 0.333325475 0
vt 0.866644979 0.333325297 0
vt 0.83331269 0.333325148 0
vt 0.799980104 0.333324999 0
vt 0.766647518 0.333325595 0
vt 0.733315229 0.333325446 0
vt 0.699982643 0.333325297 0
vt 0.666649997 0.333325893 0
vt 0.633317709 0.333324969 0
vt 0.599985123 0.333325565 0
vt 0.566652477 0.333325416 0
vt 0.533320248 0.333325237 0
vt 0.499987662 0.333325088 0
vt 0.466655046 0.333325684 0
vt 0.433322757 0.333325505 0
vt 0.399990141 0.333325356 0
vt 0.366657585 0.333325952 0
vt 0.333325237 0.333325058 0
vt 0.299992681 0.333325624 0
vt 0.266660064 0.333325475 0
vt 0.233327791 0.333325326 0
vt 0.19999519 0.333325148 0
vt 0.166662574 0.333325773 0
vt 0.133330017 0.333325624 0
vt 0.0999976844 0.333325446 0
vt 0.0666654035 0.333325297 0
vt 0.0333325155 0.333325893 0
vt 2.36269997e-07 0.333325744 0
vt 0.999974906 0.366657883 0
vt 0.966642618 0.366657734 0
vt 0.933310032 0.366657585 0
vt 0.899977386 0.366658181 0
vt 0.866645098 0.366658032 0
vt 0.833312511 0.366657883 0
vt 0.799979985 0.366658449 0
vt 0.766647637 0.366657555 0
vt 0.733315051 0.366658151 0
vt 0.699982464 0.366657972 0
vt 0.666650176 0.366657823 0
vt 0.63331753 0.366657674 0
vt 0.599985003 0.36665827 0
vt 0.566652715 0.366658092 0
vt 0.533320129 0.366657943 0
vt 0.499987483 0.366658568 0
vt 0.466655195 0.366657615 0
vt 0.433322579 0.366658241 0
vt 0.399990022 0.366658092 0
vt 0.366657704 0.366657913 0
vt 0.333325118 0.366657764 0
vt 0.2999928 0.366657615 0
vt 0.266660213 0.366658181 0
vt 0.233327627 0.366658032 0
vt 0.199995026 0.366658628 0
vt 0.166662723 0.366657734 0
vt 0.133330435 0.366657555 0
vt 0.0999975726 0.366658151 0
vt 0.0666652471 0.366658002 0
vt 0.03333297 0.366657078 0
vt 7.82016514e-08 0.366658419 0
vt 0.999975085 0.399990618 0
vt 0.966642439 0.399990439 0
vt 0.933310151 0.39999029 0
vt 0.899977565 0.399990141 0
vt 0.866644979 0.399990708 0
vt 0.833312631 0.399989814 0
vt 0.799980104 0.39999041 0
vt 0.766647518 0.399990261 0
vt 0.73331517 0.399990082 0
vt 0.699982584 0.399990678 0
vt 0.666649997 0.399990529 0
vt 0.633317709 0.39999035 0
vt 0.599985063 0.399990201 0
vt 0.566652536 0.399990827 0
vt 0.533320248 0.399989873 0
vt 0.499987632 0.399990499 0
vt 0.466655046 0.39999035 0
vt 0.433322728 0.399990201 0
vt 0.399990141 0.399990767 0
vt 0.366657555 0.399990618 0
vt 0.333325267 0.399990469 0
vt 0.299992949 0.399989545 0
vt 0.266660035 0.399990886 0
vt 0.233327791 0.399989992 0
vt 0.199995458 0.399989814 0
vt 0.166662574 0.39999041 0
vt 0.133330286 0.399990261 0
vt 0.0999979824 0.399990112 0
vt 0.0666650906 0.399990708 0
vt 0.0333327651 0.399990559 0
vt 4.85727639e-07 0.399989635 0
vt 0.999974906 0.433323294 0
vt 0.966642618 0.4333224 0
vt 0.933310032 0.433322996 0
vt 0.899977386 0.433322817 0
vt 0.866645098 0.433322668 0
vt 0.833312511 0.433323264 0
vt 0.799979925 0.433323085 0
vt 0.766647637 0.433322936 0
vt 0.733315051 0.433322787 0
vt 0.699982464 0.433323413 0
vt 0.666650116 0.433322459 0
vt 0.63331759 0.433323085 0
vt 0.599985003 0.433322936 0
vt 0.566652656 0.433322757 0
vt 0.533320069 0.433323354 0
vt 0.499987483 0.433323205 0
vt 0.466655165 0.433323026 0
vt 0.433322608 0.433322877 0
vt 0.399990261 0.433322728 0
vt 0.366657406 0.433323294 0
vt 0.333325118 0.433323145 0
vt 0.2999928 0.433322251 0
vt 0.266659886 0.433323622 0
vt 0.233327627 0.433323443 0
vt 0.199995324 0.433322519 0
vt 0.166662425 0.43332389 0
vt 0.133330122 0.433322966 0
vt 0.0999978259 0.433322817 0
vt 0.0666649863 0.433323413 0
vt 0.0333326533 0.433323234 0
vt 3.27659194e-07 0.43332234 0
vt 0.999975026 0.466655254 0
vt 0.966642499 0.466655821 0
vt 0.933310151 0.466654927 0
vt 0.899977624 0.466655523 0
vt 0.866644919 0.466655374 0
vt 0.83331269 0.466655195 0
vt 0.799980104 0.466655046 0
vt 0.766647458 0.466655672 0
vt 0.73331517 0.466655493 0
vt 0.699982584 0.466655344 0
vt 0.666649997 0.46665594 0
vt 0.633317709 0.466655016 0
vt 0.599985123 0.466655612 0
vt 0.566652536 0.466655463 0
vt 0.533320248 0.466655314 0
vt 0.499987632 0.466655135 0
vt 0.466655046 0.466655731 0
vt 0.433322459 0.466655582 0
vt 0.399990141 0.466655403 0
vt 0.366657823 0.466655254 0
vt 0.333324969 0.46665588 0
vt 0.299992651 0.466655701 0
vt 0.266660362 0.466654778 0
vt 0.233327478 0.466656148 0
vt 0.199995175 0.466655225 0
vt 0.166662857 0.466655076 0
vt 0.133329988 0.466655672 0
vt 0.0999976695 0.466655523 0
vt 0.0666653812 0.466655344 0
vt 0.0333324969 0.46665594 0
vt 2.1671957e-07 0.466655791 0
vt 0.999974906 0.49998796 0
vt 0.966642559 0.499987811 0
vt 0.933310032 0.499987662 0
vt 0.899977446 0.499987483 0
vt 0.866645157 0.499987334 0
vt 0.833312511 0.499988675 0
vt 0.799979925 0.499988496 0
vt 0.766647637 0.499988347 0
vt 0.73331511 0.499988198 0
vt 0.699982405 0.499988049 0
vt 0.666650116 0.49998787 0
vt 0.63331759 0.499987721 0
vt 0.599984944 0.499987572 0
vt 0.566652656 0.499987394 0
vt 0.533320367 0.499987245 0
vt 0.499987483 0.499988616 0
vt 0.466655195 0.499988437 0
vt 0.433322877 0.499986768 0
vt 0.399989992 0.499988139 0
vt 0.366657674 0.49998799 0
vt 0.333325386 0.499987811 0
vt 0.299992502 0.499987662 0
vt 0.266660213 0.499987513 0
vt 0.233327895 0.499987334 0
vt 0.199995026 0.499988675 0
vt 0.166662708 0.499988526 0
vt 0.133330435 0.499986857 0
vt 0.0999975055 0.499988198 0
vt 0.0666652247 0.499988049 0
vt 0.0333329514 0.4999879 0
vt 5.86547593e-08 0.499987721 0
vt 0.999975085 0.53331989 0
vt 0.966642439 0.533321261 0
vt 0.933310091 0.533319592 0
vt 0.899977565 0.533320904 0
vt 0.866644979 0.533320785 0
vt 0.83331269 0.533320606 0
vt 0.799980044 0.533320487 0
vt 0.766647458 0.533320308 0
vt 0.73331517 0.533320129 0
vt 0.699982643 0.53332001 0
vt 0.666649997 0.533321321 0
vt 0.633317709 0.533319652 0
vt 0.599984825 0.533321023 0
vt 0.566652536 0.533320844 0
vt 0.533320189 0.533320665 0
vt 0.4999879 0.533319056 0
vt 0.466655016 0.533320367 0
vt 0.433322728 0.533320189 0
vt 0.39999041 0.533320069 0
vt 0.366657555 0.53332144 0
vt 0.333325237 0.533319712 0
vt 0.299992949 0.533319592 0
vt 0.266660064 0.533320963 0
vt 0.233327761 0.533320785 0
vt 0.199995458 0.533319116 0
vt 0.166662559 0.533320487 0
vt 0.133330271 0.533320308 0
vt 0.09999796 0.533320189 0
vt 0.0666650683 0.53332001 0
vt 0.0333327465 0.53331989 0
vt 5.13309487e-07 0.533319712 0
vt 0.999974906 0.566653371 0
vt 0.966642559 0.566653192 0
vt 0.933310032 0.566653013 0
vt 0.899977446 0.566652894 0
vt 0.866645098 0.566652715 0
vt 0.833312511 0.566652536 0
vt 0.799979925 0.566653907 0
vt 0.766647577 0.566652238 0
vt 0.733315051 0.56665355 0
vt 0.699982464 0.56665343 0
vt 0.666649878 0.566653252 0
vt 0.63331753 0.566653132 0
vt 0.599985242 0.566652954 0
vt 0.566652358 0.566652775 0
vt 0.533320069 0.566652656 0
vt 0.499987781 0.566652477 0
vt 0.466654867 0.566653848 0
vt 0.433322579 0.566653728 0
vt 0.39999029 0.566652 0
vt 0.366657406 0.566653371 0
vt 0.333325088 0.566653252 0
vt 0.2999928 0.566653073 0
vt 0.266659915 0.566652894 0
vt 0.233327612 0.566652775 0
vt 0.199995309 0.566652596 0
vt 0.16666241 0.566653907 0
vt 0.133330137 0.566653788 0
vt 0.0999978036 0.566652119 0
vt 0.066664964 0.56665343 0
vt 0.0333326347 0.566653311 0
vt 3.08105342e-07 0.566653132 0
vt 0.999975026 0.599985301 0
vt 0.966642439 0.599985123 0
vt 0.933310151 0.599985003 0
vt 0.899977505 0.599984825 0
vt 0.866644979 0.599986196 0
vt 0.833312631 0.599984527 0
vt 0.799980044 0.599985898 0
vt 0.766647756 0.599984169 0
vt 0.733314931 0.5999856 0
vt 0.699982584 0.599985421 0
vt 0.666650295 0.599985242 0
vt 0.633317411 0.599986613 0
vt 0.599985063 0.599984944 0
vt 0.566652775 0.599984765 0
vt 0.53331989 0.599986136 0
vt 0.499987602 0.599985957 0
vt 0.466655314 0.599984348 0
vt 0.43332243 0.599985659 0
vt 0.399990141 0.59998548 0
vt 0.366657823 0.599985361 0
vt 0.333324939 0.599985182 0
vt 0.299992651 0.599985003 0
vt 0.266660362 0.599984884 0
vt 0.233327463 0.599986196 0
vt 0.199995145 0.599986017 0
vt 0.166662872 0.599984407 0
vt 0.133329973 0.599985719 0
vt 0.0999976471 0.59998554 0
vt 0.0666653737 0.599985421 0
vt 0.0333324783 0.599985242 0
vt 1.97172795e-07 0.599985063 0
vt 0.999974847 0.633318782 0
vt 0.966642559 0.633317113 0
vt 0.933310032 0.633318484 0
vt 0.899977386 0.633318305 0
vt 0.866645098 0.633318186 0
vt 0.833312809 0.633318007 0
vt 0.799979866 0.633317828 0
vt 0.766647577 0.633317709 0
vt 0.733315349 0.63331753 0
vt 0.699982464 0.633318841 0
vt 0.666650116 0.633317232 0
vt 0.633317828 0.633317053 0
vt 0.599984944 0.633318365 0
vt 0.566652656 0.633318245 0
vt 0.533320308 0.633318067 0
vt 0.499987453 0.633317888 0
vt 0.466655165 0.633317769 0
vt 0.433322847 0.63331759 0
vt 0.399989963 0.633318901 0
vt 0.366657674 0.633317292 0
vt 0.333325356 0.633317113 0
vt 0.299992502 0.633318484 0
vt 0.266660184 0.633318305 0
vt 0.23332791 0.633318126 0
vt 0.199994996 0.633318007 0
vt 0.166662708 0.633317828 0
vt 0.133330405 0.633317649 0
vt 0.0999974832 0.63331902 0
vt 0.0666652098 0.633317351 0
vt 0.033332929 0.633317173 0
vt 3.9100911e-08 0.633318543 0
vt 0.999975026 0.666650712 0
vt 0.966642439 0.666650593 0
vt 0.933310091 0.666650414 0
vt 0.899977207 0.666651785 0
vt 0.866644919 0.666650116 0
vt 0.833312631 0.666649938 0
vt 0.799979746 0.666651309 0
vt 0.766647518 0.66665113 0
vt 0.73331517 0.666649461 0
vt 0.699982882 0.666649342 0
vt 0.666649997 0.666650653 0
vt 0.633317649 0.666650474 0
vt 0.599985361 0.666650355 0
vt 0.566652477 0.666650176 0
vt 0.533320248 0.666649997 0
vt 0.4999879 0.666649878 0
vt 0.466655016 0.666651189 0
vt 0.433322728 0.66664952 0
vt 0.39999041 0.666649401 0
vt 0.366657555 0.666650712 0
vt 0.333325237 0.666650534 0
vt 0.299992919 0.666650414 0
vt 0.266660035 0.666650236 0
vt 0.233327746 0.666650116 0
vt 0.199995443 0.666649938 0
vt 0.166662574 0.666651309 0
vt 0.133330256 0.66664964 0
vt 0.0999979451 0.666649461 0
vt 0.0666650534 0.666650832 0
vt 0.0333327726 0.666650712 0
vt 4.46623233e-07 0.666650534 0
vt 0.999975204 0.699982703 0
vt 0.966642261 0.699984014 0
vt 0.933309972 0.699982345 0
vt 0.899977684 0.699982226 0
vt 0.8666448 0.699983537 0
vt 0.833312511 0.699983418 0
vt 0.799980164 0.699983239 0
vt 0.766647339 0.69998306 0
vt 0.733315051 0.699982941 0
vt 0.699982703 0.699982762 0
vt 0.666649818 0.699984074 0
vt 0.63331753 0.699982464 0
vt 0.599985301 0.699982285 0
vt 0.566652358 0.699983597 0
vt 0.533320069 0.699983478 0
vt 0.499987751 0.699983299 0
vt 0.466654867 0.69998312 0
vt 0.433322549 0.699983001 0
vt 0.399990261 0.699982822 0
vt 0.366657376 0.699984193 0
vt 0.333325088 0.699982524 0
vt 0.29999277 0.699982345 0
vt 0.266659886 0.699983716 0
vt 0.233327582 0.699983597 0
vt 0.199995279 0.699981868 0
vt 0.16666241 0.699983239 0
vt 0.133330107 0.69998312 0
vt 0.0999977887 0.699982941 0
vt 0.0666655079 0.699982822 0
vt 0.0333326161 0.699982643 0
vt 2.88558425e-07 0.699982464 0
vt 0.999975026 0.733314633 0
vt 0.966642737 0.733314455 0
vt 0.933309853 0.733315825 0
vt 0.899977565 0.733315647 0
vt 0.866645277 0.733315468 0
vt 0.833312392 0.733315349 0
vt 0.799980044 0.73331517 0
vt 0.766647756 0.733314991 0
vt 0.733314872 0.733316362 0
vt 0.699982584 0.733314693 0
vt 0.666650236 0.733314574 0
vt 0.633317351 0.733315885 0
vt 0.599985123 0.733315706 0
vt 0.566652775 0.733315587 0
vt 0.53331989 0.733315408 0
vt 0.499987602 0.733315229 0
vt 0.466655314 0.73331511 0
vt 0.4333224 0.733316481 0
vt 0.399990141 0.733314753 0
vt 0.366657823 0.733314633 0
vt 0.333324909 0.733316004 0
vt 0.299992621 0.733315825 0
vt 0.266660303 0.733315706 0
vt 0.233327448 0.733315527 0
vt 0.19999516 0.733315349 0
vt 0.166662857 0.733315229 0
vt 0.133329943 0.733316541 0
vt 0.0999976322 0.733314872 0
vt 0.0666653514 0.733314753 0
vt 0.0333324559 0.733316064 0
vt 1.30486541e-07 0.733315885 0
vt 0.999974847 0.766648054 0
vt 0.966642559 0.766647935 0
vt 0.93331027 0.766647756 0
vt 0.899977446 0.766647577 0
vt 0.866645038 0.766647458 0
vt 0.83331275 0.766647279 0
vt 0.799979925 0.766648591 0
vt 0.766647637 0.766648471 0
vt 0.733315289 0.766646802 0
vt 0.699982405 0.766648114 0
vt 0.666650116 0.766647995 0
vt 0.633317769 0.766647816 0
vt 0.599984944 0.766647637 0
vt 0.566652656 0.766647518 0
vt 0.533320367 0.766647339 0
vt 0.499987453 0.766648769 0
vt 0.466655135 0.766648591 0
vt 0.433322847 0.766646862 0
vt 0.399989963 0.766648293 0
vt 0.366657674 0.766648114 0
vt 0.333325356 0.766647935 0
vt 0.299992502 0.766647816 0
vt 0.266660184 0.766647637 0
vt 0.233327881 0.766647458 0
vt 0.199994996 0.766648829 0
vt 0.166662693 0.76664716 0
vt 0.13333039 0.766646981 0
vt 0.0999975204 0.766648352 0
vt 0.0666651875 0.766648173 0
vt 0.0333329141 0.766647995 0
vt 1.95539887e-08 0.766647875 0
vt 0.999974728 0.799981534 0
vt 0.966642439 0.799979866 0
vt 0.933310091 0.799979687 0
vt 0.899977863 0.799979568 0
vt 0.866644979 0.799980879 0
vt 0.833312631 0.7999807 0
vt 0.799980342 0.799979091 0
vt 0.766647458 0.799980402 0
vt 0.73331517 0.799980223 0
vt 0.699982822 0.799980104 0
vt 0.666649938 0.799979925 0
vt 0.633317709 0.799979746 0
vt 0.599985421 0.799979627 0
vt 0.566652477 0.799980998 0
vt 0.533320189 0.799980819 0
vt 0.4999879 0.79997915 0
vt 0.466655016 0.799980521 0
vt 0.433322698 0.799980342 0
vt 0.39999041 0.799980223 0
vt 0.366657525 0.799980044 0
vt 0.333325237 0.799979925 0
vt 0.299992919 0.799979746 0
vt 0.266660035 0.799981058 0
vt 0.233327731 0.799980938 0
vt 0.199995413 0.79997927 0
vt 0.166662544 0.799980581 0
vt 0.133330226 0.799980462 0
vt 0.0999979228 0.799980283 0
vt 0.0666650757 0.799980104 0
vt 0.0333327539 0.799979985 0
vt 4.74208832e-07 0.799979806 0
vt 0.999975145 0.833311975 0
vt 0.96664232 0.833313286 0
vt 0.933309972 0.833313167 0
vt 0.899977684 0.833312988 0
vt 0.8666448 0.833312809 0
vt 0.833312511 0.83331269 0
vt 0.799980223 0.833312511 0
vt 0.766647279 0.833313882 0
vt 0.733314991 0.833313763 0
vt 0.699982762 0.833312035 0
vt 0.666649818 0.833313406 0
vt 0.63331753 0.833313286 0
vt 0.599985242 0.833313107 0
vt 0.566652358 0.833312929 0
vt 0.53332001 0.833312809 0
vt 0.499987721 0.833312631 0
vt 0.466654867 0.833313942 0
vt 0.433322549 0.833313823 0
vt 0.399990261 0.833312154 0
vt 0.366657376 0.833313465 0
vt 0.333325088 0.833313346 0
vt 0.29999277 0.833313167 0
vt 0.266660452 0.833311498 0
vt 0.233327568 0.833312869 0
vt 0.199995294 0.83331269 0
vt 0.166662991 0.833312571 0
vt 0.133330092 0.833312392 0
vt 0.099997811 0.833312213 0
vt 0.0666654855 0.833312094 0
vt 0.0333325975 0.833313406 0
vt 3.16136976e-07 0.833313227 0
vt 0.999975026 0.866645396 0
vt 0.966642678 0.866645217 0
vt 0.933309793 0.866645098 0
vt 0.899977565 0.866644919 0
vt 0.866645217 0.86664474 0
vt 0.833312333 0.866646171 0
vt 0.799980044 0.866645992 0
vt 0.766647756 0.866644323 0
vt 0.733314812 0.866645694 0
vt 0.699982584 0.866645515 0
vt 0.666650236 0.866645396 0
vt 0.633317411 0.866645217 0
vt 0.599985063 0.866645038 0
vt 0.566652775 0.866644919 0
vt 0.53331989 0.86664623 0
vt 0.499987602 0.866646051 0
vt 0.466655284 0.866644442 0
vt 0.4333224 0.866645753 0
vt 0.399990112 0.866645575 0
vt 0.366657823 0.866645455 0
vt 0.333324909 0.866645277 0
vt 0.299992621 0.866645098 0
vt 0.266660303 0.866644979 0
vt 0.233327433 0.86664629 0
vt 0.19999513 0.866646111 0
vt 0.166662827 0.866644502 0
vt 0.133329958 0.866645813 0
vt 0.0999976546 0.866645694 0
vt 0.066665329 0.866645515 0
vt 0.0333324373 0.866645336 0
vt 1.58072154e-07 0.866645217 0
vt 0.999974906 0.899978876 0
vt 0.966642618 0.899977267 0
vt 0.93331027 0.899977088 0
vt 0.899977386 0.899978399 0
vt 0.866645038 0.89997828 0
vt 0.833312809 0.899976611 0
vt 0.799979866 0.899977922 0
vt 0.766647577 0.899977803 0
vt 0.733315289 0.899977624 0
vt 0.699982405 0.899978995 0
vt 0.666650116 0.899977326 0
vt 0.633317828 0.899977148 0
vt 0.599984944 0.899978518 0
vt 0.566652596 0.89997834 0
vt 0.533320308 0.899976671 0
vt 0.499987453 0.899978042 0
vt 0.466655135 0.899977863 0
vt 0.433322847 0.899977684 0
vt 0.399989963 0.899979055 0
vt 0.366657645 0.899977386 0
vt 0.333325356 0.899977207 0
vt 0.299992442 0.899978578 0
vt 0.266660154 0.899978399 0
vt 0.233327866 0.89997673 0
vt 0.199994981 0.899978101 0
vt 0.166662678 0.899977922 0
vt 0.133330375 0.899977744 0
vt 0.0999974981 0.899977624 0
vt 0.0666651726 0.899977446 0
vt 0.0333328918 0.899977267 0
vt 0 0.899978697 0
vt 0.999975264 0.933309376 0
vt 0.96664238 0.933310688 0
vt 0.933310151 0.933310509 0
vt 0.899977803 0.93331039 0
vt 0.866644919 0.933310211 0
vt 0.833312631 0.933310032 0
vt 0.799980342 0.933309913 0
vt 0.766647458 0.933311224 0
vt 0.73331517 0.933309555 0
vt 0.699982882 0.933309436 0
vt 0.666649997 0.933310747 0
vt 0.633317649 0.933310568 0
vt 0.599985361 0.933310449 0
vt 0.566652477 0.93331027 0
vt 0.533320129 0.933310151 0
vt 0.49998787 0.933309972 0
vt 0.466655016 0.933311284 0
vt 0.433322698 0.933309674 0
vt 0.39999041 0.933309495 0
vt 0.366657495 0.933310807 0
vt 0.333325207 0.933310688 0
vt 0.299992889 0.933310509 0
vt 0.266660035 0.93331033 0
vt 0.233327731 0.933310211 0
vt 0.199995428 0.933310032 0
vt 0.166662529 0.933311403 0
vt 0.133330226 0.933309734 0
vt 0.0999979526 0.933309555 0
vt 0.0666650534 0.933310926 0
vt 0.0333327353 0.933310807 0
vt 4.54662427e-07 0.933309078 0
vt 0.999975204 0.966642797 0
vt 0.966642261 0.966644108 0
vt 0.933309972 0.966642499 0
vt 0.899977684 0.96664232 0
vt 0.8666448 0.966643631 0
vt 0.833312511 0.966643512 0
vt 0.799980164 0.966641843 0
vt 0.766647279 0.966643155 0
vt 0.733314931 0.966643035 0
vt 0.699982703 0.966642857 0
vt 0.666649818 0.966644168 0
vt 0.63331753 0.966642559 0
vt 0.599985182 0.96664238 0
vt 0.566652358 0.966643691 0
vt 0.533320069 0.966643572 0
vt 0.499987721 0.966641903 0
vt 0.466655403 0.966641724 0
vt 0.433322549 0.966643095 0
vt 0.399990231 0.966642916 0
vt 0.366657943 0.966642797 0
vt 0.333325058 0.966642618 0
vt 0.29999277 0.966642439 0
vt 0.266660452 0.96664232 0
vt 0.233327568 0.966643691 0
vt 0.199995264 0.966641963 0
vt 0.166662961 0.966641843 0
vt 0.133330062 0.966643214 0
vt 0.0999977887 0.966643035 0
vt 0.0666654631 0.966642916 0
vt 0.0333326235 0.966642737 0
vt 2.96590287e-07 0.966642559 0
g 
f 1/1 2/2 3/3 4/4
f 2/2 5/5 6/6 3/3
f 5/5 7/7 8/8 6/6
f 7/7 9/9 10/10 8/8
f 9/9 11/11 12/12 10/10
f 11/11 13/13 14/14 12/12
f 13/13 15/15 16/16 14/14
f 15/15 17/17 18/18 16/16
f 17/17 19/19 20/20 18/18
f 19/19 21/21 22/22 20/20
f 21/21 23/23 24/24 22/22
f 23/23 25/25 26/26 24/24
f 25/25 27/27 28/28 26/26
f 27/27 29/29 30/30 28/28
f 29/29 31/31 32/32 30/30
f 31/31 33/33 34/34 32/32
f 33/33 35/35 36/36 34/34
f 35/35 37/37 38/38 36/36
f 37/37 39/39 40/40 38/38
f 39/39 41/41 42/42 40/40
f 41/41 43/43 44/44 42/42
f 43/43 45/45 46/46 44/44
f 45/45 47/47 48/48 46/46
f 47/47 49/49 50/50 48/48
f 49/49 51/51 52/52 50/50
f 51/51 53/53 54/54 52/52
f 53/53 55/55 56/56 54/54
f 55/55 57/57 58/58 56/56
f 57/57 59/59 60/60 58/58
f 59/59 61/61 62/62 60/60
f 63/63 64/64 2/2 1/1
f 64/64 65/65 5/5 2/2
f 65/65 66/66 7/7 5/5
f 66/66 67/67 9/9 7/7
f 67/67 68/68 11/11 9/9
f 68/68 69/69 13/13 11/11
f 69/69 70/70 15/15 13/13
f 70/70 71/71 17/17 15/15
f 71/71 72/72 19/19 17/17
f 72/72 73/73 21/21 19/19
f 73/73 74/74 23/23 21/21
f 74/74 75/75 25/25 23/23
f 75/75 76/76 27/27 25/25
f 76/76 77/77 29/29 27/27
f 77/77 78/78 31/31 29/29
f 78/78 79/79 33/33 31/31
f 79/79 80/80 35/35 33/33
f 80/80 81/81 37/37 35/35
f 81/81 82/82 39/39 37/37
f 82/82 83/83 41/41 39/39
f 83/83 84/84 43/43 41/41
f 84/84 85/85 45/45 43/43
f 85/85 86/86 47/47 45/45
f 86/86 87/87 49/49 47/47
f 87/87 88/88 51/51 49/49
f 88/88 89/89 53/53 51/51
f 89/89 90/90 55/55 53/53
f 90/90 91/91 57/57 55/55
f 91/91 92/92 59/59 57/57
f 92/92 93/93 61/61 59/59
f 94/94 95/95 64/64 63/63
f 95/95 96/96 65/65 64/64
f 96/96 97/97 66/66 65/65
f 97/97 98/98 67/67 66/66
f 98/98 99/99 68/68 67/67
f 99/99 100/100 69/69 68/68
f 100/100 101/101 70/70 69/69
f 101/101 102/102 71/71 70/70
f 102/102 103/103 72/72 71/71
f 103/103 104/104 73/73 72/72
f 104/104 105/105 74/74 73/73
f 105/105 106/106 75/75 74/74
f 106/106 107/107 76/76 75/75
f 107/107 108/108 77/77 76/76
f 108/108 109/109 78/78 77/77
f 109/109 110/110 79/79 78/78
f 110/110 111/111 80/80 79/79
f 111/111 112/112 81/81 80/80
f 112/112 113/113 82/82 81/81
f 113/113 114/114 83/83 82/82
f 114/114 115/115 84/84 83/83
f 115/115 116/116 85/85 84/84
f 116/116 117/117 86/86 85/85
f 117/117 118/118 87/87 86/86
f 118/118 119/119 88/88 87/87
f 119/119 120/120 89/89 88/88
f 120/120 121/121 90/90 89/89
f 121/121 122/122 91/91 90/90
f 122/122 123/123 92/92 91/91
f 123/123 124/124 93/93 92/92
f 125/125 126/126 95/95 94/94
f 126/126 127/127 96/96 95/95
f 127/127 128/128 97/97 96/96
f 128/128 129/129 98/98 97/97
f 129/129 130/130 99/99 98/98
f 130/130 131/131 100/100 99/99
f 131/131 132/132 101/101 100/100
f 132/132 133/133 102/102 101/101
f 133/133 134/134 103/103 102/102
f 134/134 135/135 104/104 103/103
f 135/135 136/136 105/105 104/104
f 136/136 137/137 106/106 105/105
f 137/137 138/138 107/107 106/106
f 138/138 139/139 108/108 107/107
f 139/139 140/140 109/109 108/108
f 140/140 141/141 110/110 109/109
f 141/141 142/142 111/111 110/110
f 142/142 143/143 112/112 111/111
f 143/143 144/144 113/113 112/112
f 144/144 145/145 114/114 113/113
f 145/145 146/146 115/115 114/114
f 146/146 147/147 116/116 115/115
f 147/147 148/148 117/117 116/116
f 148/148 149/149 118/118 117/117
f 149/149 150/150 119/119 118/118
f 150/150 151/151 120/120 119/119
f 151/151 152/152 121/121 120/120
f 152/152 153/153 122/122 121/121
f 153/153 154/154 123/123 122/122
f 154/154 155/155 124/124 123/123
f 156/156 157/157 126/126 125/125
f 157/157 158/158 127/127 126/126
f 158/158 159/159 128/128 127/127
f 159/159 160/160 129/129 128/128
f 160/160 161/161 130/130 129/129
f 161/161 162/162 131/131 130/130
f 162/162 163/163 132/132 131/131
f 163/163 164/164 133/133 132/132
f 164/164 165/165 134/134 133/133
f 165/165 166/166 135/135 134/134
f 166/166 167/167 136/136 135/135
f 167/167 168/168 137/137 136/136
f 168/168 169/169 138/138 137/137
f 169/169 170/170 139/139 138/138
f 170/170 171/171 140/140 139/139
f 171/171 172/172 141/141 140/140
f 172/172 173/173 142/142 141/141
f 173/173 174/174 143/143 142/142
f 174/174 175/175 144/144 143/143
f 175/175 176/176 145/145 144/144
f 176/176 177/177 146/146 145/145
f 177/177 178/178 147/147 146/146
f 178/178 179/179 148/148 147/147
f 179/179 180/180 149/149 148/148
f 180/180 181/181 150/150 149/149
f 181/181 182/182 151/151 150/150
f 182/182 183/183 152/152 151/151
f 183/183 184/184 153/153 152/152
f 184/184 185/185 154/154 153/153
f 185/185 186/186 155/155 154/154
f 187/187 188/188 157/157 156/156
f 188/188 189/189 158/158 157/157
f 189/189 190/190 159/159 158/158
f 190/190 191/191 160/160 159/159
f 191/191 192/192 161/161 160/160
f 192/192 193/193 162/162 161/161
f 193/193 194/194 163/163 162/162
f 194/194 195/195 164/164 163/163
f 195/195 196/196 165/165 164/164
f 196/196 197/197 166/166 165/165
f 197/197 198/198 167/167 166/166
f 198/198 199/199 168/168 167/167
f 199/199 200/200 169/169 168/168
f 200/200 201/201 170/170 169/169
f 201/201 202/202 171/171 170/170
f 202/202 203/203 172/172 171/171
f 203/203 204/204 173/173 172/172
f 204/204 205/205 174/174 173/173
f 205/205 206/206 175/175 174/174
f 206/206 207/207 176/176 175/175
f 207/207 208/208 177/177 176/176
f 208/208 209/209 178/178 177/177
f 209/209 210/210 179/179 178/178
f 210/210 211/211 180/180 179/179
f 211/211 212/212 181/181 180/180
f 212/212 213/213 182/182 181/181
f 213/213 214/214 183/183 182/182
f 214/214 215/215 184/184 183/183
f 215/215 216/216 185/185 184/184
f 216/216 217/217 186/186 185/185
f 218/218 219/219 188/188 187/187
f 219/219 220/220 189/189 188/188
f 220/220 221/221 190/190 189/189
f 221/221 222/222 191/191 190/190
f 222/222 223/223 192/192 191/191
f 223/223 224/224 193/193 192/192
f 224/224 225/225 194/194 193/193
f 225/225 226/226 195/195 194/194
f 226/226 227/227 196/196 195/195
f 227/227 228/228 197/197 196/196
f 228/228 229/229 198/198 197/197
f 229/229 230/230 199/199 198/198
f 230/230 231/231 200/200 199/199
f 231/231 232/232 201/201 200/200
f 232/232 233/233 202/202 201/201
f 233/233 234/234 203/203 202/202
f 234/234 235/235 204/204 203/203
f 235/235 236/236 205/205 204/204
f 236/236 237/237 206/206 205/205
f 237/237 238/238 207/207 206/206
f 238/238 239/239 208/208 207/207
f 239/239 240/240 209/209 208/208
f 240/240 241/241 210/210 209/209
f 241/241 242/242 211/211 210/210
f 242/242 243/243 212/212 211/211
f 243/243 244/244 213/213 212/212
f 244/244 245/245 214/214 213/213
f 245/245 246/246 215/215 214/214
f 246/246 247/247 216/216 215/215
f 247/247 248/248 217/217 216/216
f 249/249 250/250 219/219 218/218
f 250/250 251/251 220/220 219/219
f 251/251 252/252 221/221 220/220
f 252/252 253/253 222/222 221/221
f 253/253 254/254 223/223 222/222
f 254/254 255/255 224/224 223/223
f 255/255 256/256 225/225 224/224
f 256/256 257/257 226/226 225/225
f 257/257 258/258 227/227 226/226
f 258/258 259/259 228/228 227/227
f 259/259 260/260 229/229 228/228
f 260/260 261/261 230/230 229/229
f 261/261 262/262 231/231 230/230
f 262/262 263/263 232/232 231/231
f 263/263 264/264 233/233 232/232
f 264/264 265/265 234/234 233/233
f 265/265 266/266 235/235 234/234
f 266/266 267/267 236/236 235/235
f 267/267 268/268 237/237 236/236
f 268/268 269/269 238/238 237/237
f 269/269 270/270 239/239 238/238
f 270/270 271/271 240/240 239/239
f 271/271 272/272 241/241 240/240
f 272/272 273/273 242/242 241/241
f 273/273 274/274 243/243 242/242
f 274/274 275/275 244/244 243/243
f 275/275 276/276 245/245 244/244
f 276/276 277/277 246/246 245/245
f 277/277 278/278 247/247 246/246
f 278/278 279/279 248/248 247/247
f 280/280 281/281 250/250 249/249
f 281/281 282/282 251/251 250/250
f 282/282 283/283 252/252 251/251
f 283/283 284/284 253/253 252/252
f 284/284 285/285 254/254 253/253
f 285/285 286/286 255/255 254/254
f 286/286 287/287 256/256 255/255
f 287/287 288/288 257/257 256/256
f 288/288 289/289 258/258 257/257
f 289/289 290/290 259/259 258/258
f 290/290 291/291 260/260 259/259
f 291/291 292/292 261/261 260/260
f 292/292 293/293 262/262 261/261
f 293/293 294/294 263/263 262/262
f 294/294 295/295 264/264 263/263
f 295/295 296/296 265/265 264/264
f 296/296 297/297 266/266 265/265
f 297/297 298/298 267/267 266/266
f 298/298 299/299 268/268 267/267
f 299/299 300/300 269/269 268/268
f 300/300 301/301 270/270 269/269
f 301/301 302/302 271/271 270/270
f 302/302 303/303 272/272 271/271
f 303/303 304/304 273/273 272/272
f 304/304 305/305 274/274 273/273
f 305/305 306/306 275/275 274/274
f 306/306 307/307 276/276 275/275
f 307/307 308/308 277/277 276/276
f 308/308 309/309 278/278 277/277
f 309/309 310/310 279/279 278/278
f 375/375 376/376 345/345 344/344
f 376/376 377/377 346/346 345/345
f 377/377 378/378 347/347 346/346
f 378/378 379/379 348/348 347/347
f 379/379 380/380 349/349 348/348
f 380/380 381/381 350/350 349/349
f 381/381 382/382 351/351 350/350
f 382/382 383/383 352/352 351/351
f 383/383 384/384 353/353 352/352
f 384/384 385/385 354/354 353/353
f 385/385 386/386 355/355 354/354
f 388/388 389/389 358/358 357/357
f 389/389 390/390 359/359 358/358
f 390/390 391/391 360/360 359/359
f 391/391 392/392 361/361 360/360
f 392/392 393/393 362/362 361/361
f 393/393 394/394 363/363 362/362
f 394/394 395/395 364/364 363/363
f 395/395 396/396 365/365 364/364
f 396/396 397/397 366/366 365/365
f 397/397 398/398 367/367 366/366
f 398/398 399/399 368/368 367/367
f 399/399 400/400 369/369 368/368
f 400/400 401/401 370/370 369/369
f 406/406 407/407 376/376 375/375
f 407/407 408/408 377/377 376/376
f 408/408 409/409 378/378 377/377
f 409/409 410/410 379/379 378/378
f 410/410 411/411 380/380 379/379
f 411/411 412/412 381/381 380/380
f 412/412 413/413 382/382 381/381
f 413/413 414/414 383/383 382/382
f 414/414 415/415 384/384 383/383
f 415/415 416/416 385/385 384/384
f 416/416 417/417 386/386 385/385
f 419/419 420/420 389/389 388/388
f 420/420 421/421 390/390 389/389
f 421/421 422/422 391/391 390/390
f 422/422 423/423 392/392 391/391
f 423/423 424/424 393/393 392/392
f 424/424 425/425 394/394 393/393
f 425/425 426/426 395/395 394/394
f 426/426 427/427 396/396 395/395
f 427/427 428/428 397/397 396/396
f 428/428 429/429 398/398 397/397
f 429/429 430/430 399/399 398/398
f 430/430 431/431 400/400 399/399
f 431/431 432/432 401/401 400/400
f 437/437 438/438 407/407 406/406
f 438/438 439/439 408/408 407/407
f 439/439 440/440 409/409 408/408
f 440/440 441/441 410/410 409/409
f 441/441 442/442 411/411 410/410
f 442/442 443/443 412/412 411/411
f 443/443 444/444 413/413 412/412
f 444/444 445/445 414/414 413/413
f 445/445 446/446 415/415 414/414
f 446/446 447/447 416/416 415/415
f 447/447 448/448 417/417 416/416
f 450/450 451/451 420/420 419/419
f 451/451 452/452 421/421 420/420
f 452/452 453/453 422/422 421/421
f 453/453 454/454 423/423 422/422
f 454/454 455/455 424/424 423/423
f 455/455 456/456 425/425 424/424
f 456/456 457/457 426/426 425/425
f 457/457 458/458 427/427 426/426
f 458/458 459/459 428/428 427/427
f 459/459 460/460 429/429 428/428
f 460/460 461/461 430/430 429/429
f 461/461 462/462 431/431 430/430
f 462/462 463/463 432/432 431/431
f 468/468 469/469 438/438 437/437
f 469/469 470/470 439/439 438/438
f 470/470 471/471 440/440 439/439
f 471/471 472/472 441/441 440/440
f 472/472 473/473 442/442 441/441
f 473/473 474/474 443/443 442/442
f 474/474 475/475 444/444 443/443
f 475/475 476/476 445/445 444/444
f 476/476 477/477 446/446 445/445
f 477/477 478/478 447/447 446/446
f 478/478 479/479 448/448 447/447
f 481/481 482/482 451/451 450/450
f 482/482 483/483 452/452 451/451
f 483/483 484/484 453/453 452/452
f 484/484 485/485 454/454 453/453
f 485/485 486/486 455/455 454/454
f 486/486 487/487 456/456 455/455
f 487/487 488/488 457/457 456/456
f 488/488 489/489 458/458 457/457
f 489/489 490/490 459/459 458/458
f 490/490 491/491 460/460 459/459
f 491/491 492/492 461/461 460/460
f 492/492 493/493 462/462 461/461
f 493/493 494/494 463/463 462/462
f 499/499 500/500 469/469 468/468
f 500/500 501/501 470/470 469/469
f 501/501 502/502 471/471 470/470
f 502/502 503/503 472/472 471/471
f 503/503 504/504 473/473 472/472
f 504/504 505/505 474/474 473/473
f 505/505 506/506 475/475 474/474
f 506/506 507/507 476/476 475/475
f 507/507 508/508 477/477 476/476
f 508/508 509/509 478/478 477/477
f 509/509 510/510 479/479 478/478
f 512/512 513/513 482/482 481/481
f 513/513 514/514 483/483 482/482
f 514/514 515/515 484/484 483/483
f 515/515 516/516 485/485 484/484
f 516/516 517/517 486/486 485/485
f 517/517 518/518 487/487 486/486
f 518/518 519/519 488/488 487/487
f 519/519 520/520 489/489 488/488
f 520/520 521/521 490/490 489/489
f 521/521 522/522 491/491 490/490
f 522/522 523/523 492/492 491/491
f 523/523 524/524 493/493 492/492
f 524/524 525/525 494/494 493/493
f 530/530 531/531 500/500 499/499
f 531/531 532/532 501/501 500/500
f 532/532 533/533 502/502 501/501
f 533/533 534/534 503/503 502/502
f 534/534 535/535 504/504 503/503
f 535/535 536/536 505/505 504/504
f 536/536 537/537 506/506 505/505
f 537/537 538/538 507/507 506/506
f 538/538 539/539 508/508 507/507
f 539/539 540/540 509/509 508/508
f 540/540 541/541 510/510 509/509
f 543/543 544/544 513/513 512/512
f 544/544 545/545 514/514 513/513
f 545/545 546/546 515/515 514/514
f 546/546 547/547 516/516 515/515
f 547/547 548/548 517/517 516/516
f 548/548 549/549 518/518 517/517
f 549/549 550/550 519/519 518/518
f 550/550 551/551 520/520 519/519
f 551/551 552/552 521/521 520/520
f 552/552 553/553 522/522 521/521
f 553/553 554/554 523/523 522/522
f 554/554 555/555 524/524 523/523
f 555/555 556/556 525/525 524/524
f 561/561 562/562 531/531 530/530
f 562/562 563/563 532/532 531/531
f 563/563 564/564 533/533 532/532
f 564/564 565/565 534/534 533/533
f 565/565 566/566 535/535 534/534
f 566/566 567/567 536/536 535/535
f 567/567 568/568 537/537 536/536
f 568/568 569/569 538/538 537/537
f 569/569 570/570 539/539 538/538
f 570/570 571/571 540/540 539/539
f 571/571 572/572 541/541 540/540
f 574/574 575/575 544/544 543/543
f 575/575 576/576 545/545 544/544
f 576/576 577/577 546/546 545/545
f 577/577 578/578 547/547 546/546
f 578/578 579/579 548/548 547/547
f 579/579 580/580 549/549 548/548
f 580/580 581/581 550/550 549/549
f 581/581 582/582 551/551 550/550
f 582/582 583/583 552/552 551/551
f 583/583 584/584 553/553 552/552
f 584/584 585/585 554/554 553/553
f 585/585 586/586 555/555 554/554
f 586/586 587/587 556/556 555/555
f 592/592 593/593 562/562 561/561
f 593/593 594/594 563/563 562/562
f 594/594 595/595 564/564 563/563
f 595/595 596/596 565/565 564/564
f 596/596 597/597 566/566 565/565
f 597/597 598/598 567/567 566/566
f 598/598 599/599 568/568 567/567
f 599/599 600/600 569/569 568/568
f 600/600 601/601 570/570 569/569
f 601/601 602/602 571/571 570/570
f 602/602 603/603 572/572 571/571
f 605/605 606/606 575/575 574/574
f 606/606 607/607 576/576 575/575
f 607/607 608/608 577/577 576/576
f 608/608 609/609 578/578 577/577
f 609/609 610/610 579/579 578/578
f 610/610 611/611 580/580 579/579
f 611/611 612/612 581/581 580/580
f 612/612 613/613 582/582 581/581
f 613/613 614/614 583/583 582/582
f 614/614 615/615 584/584 583/583
f 615/615 616/616 585/585 584/584
f 616/616 617/617 586/586 585/585
f 617/617 618/618 587/587 586/586
f 623/623 624/624 593/593 592/592
f 624/624 625/625 594/594 593/593
f 625/625 626/626 595/595 594/594
f 626/626 627/627 596/596 595/595
f 627/627 628/628 597/597 596/596
f 628/628 629/629 598/598 597/597
f 629/629 630/630 599/599 598/598
f 630/630 631/631 600/600 599/599
f 631/631 632/632 601/601 600/600
f 632/632 633/633 602/602 601/601
f 633/633 634/634 603/603 602/602
f 636/636 637/637 606/606 605/605
f 637/637 638/638 607/607 606/606
f 638/638 639/639 608/608 607/607
f 639/639 640/640 609/609 608/608
f 640/640 641/641 610/610 609/609
f 641/641 642/642 611/611 610/610
f 642/642 643/643 612/612 611/611
f 643/643 644/644 613/613 612/612
f 644/644 645/645 614/614 613/613
f 645/645 646/646 615/615 614/614
f 646/646 647/647 616/616 615/615
f 647/647 648/648 617/617 616/616
f 648/648 649/649 618/618 617/617
f 654/654 655/655 624/624 623/623
f 655/655 656/656 625/625 624/624
f 656/656 657/657 626/626 625/625
f 657/657 658/658 627/627 626/626
f 658/658 659/659 628/628 627/627
f 659/659 660/660 629/629 628/628
f 660/660 661/661 630/630 629/629
f 661/661 662/662 631/631 630/630
f 662/662 663/663 632/632 631/631
f 663/663 664/664 633/633 632/632
f 664/664 665/665 634/634 633/633
f 667/667 668/668 637/637 636/636
f 668/668 669/669 638/638 637/637
f 669/669 670/670 639/639 638/638
f 670/670 671/671 640/640 639/639
f 671/671 672/672 641/641 640/640
f 672/672 673/673 642/642 641/641
f 673/673 674/674 643/643 642/642
f 674/674 675/675 644/644 643/643
f 675/675 676/676 645/645 644/644
f 676/676 677/677 646/646 645/645
f 677/677 678/678 647/647 646/646
f 678/678 679/679 648/648 647/647
f 679/679 680/680 649/649 648/648
f 685/685 686/686 655/655 654/654
f 686/686 687/687 656/656 655/655
f 687/687 688/688 657/657 656/656
f 688/688 689/689 658/658 657/657
f 689/689 690/690 659/659 658/658
f 690/690 691/691 660/660 659/659
f 691/691 692/692 661/661 660/660
f 692/692 693/693 662/662 661/661
f 693/693 694/694 663/663 662/662
f 694/694 695/695 664/664 663/663
f 695/695 696/696 665/665 664/664
f 698/698 699/699 668/668 667/667
f 699/699 700/700 669/669 668/668
f 700/700 701/701 670/670 669/669
f 701/701 702/702 671/671 670/670
f 702/702 703/703 672/672 671/671
f 703/703 704/704 673/673 672/672
f 704/704 705/705 674/674 673/673
f 705/705 706/706 675/675 674/674
f 706/706 707/707 676/676 675/675
f 707/707 708/708 677/677 676/676
f 708/708 709/709 678/678 677/677
f 709/709 710/710 679/679 678/678
f 710/710 711/711 680/680 679/679
f 716/716 717/717 686/686 685/685
f 717/717 718/718 687/687 686/686
f 718/718 719/719 688/688 687/687
f 719/719 720/720 689/689 688/688
f 720/720 721/721 690/690 689/689
f 721/721 722/722 691/691 690/690
f 722/722 723/723 692/692 691/691
f 723/723 724/724 693/693 692/692
f 724/724 725/725 694/694 693/693
f 725/725 726/726 695/695 694/694
f 726/726 727/727 696/696 695/695
f 729/729 730/730 699/699 698/698
f 730/730 731/731 700/700 699/699
f 731/731 732/732 701/701 700/700
f 732/732 733/733 702/702 701/701
f 733/733 734/734 703/703 702/702
f 734/734 735/735 704/704 703/703
f 735/735 736/736 705/705 704/704
f 736/736 737/737 706/706 705/705
f 737/737 738/738 707/707 706/706
f 738/738 739/739 708/708 707/707
f 739/739 740/740 709/709 708/708
f 740/740 741/741 710/710 709/709
f 741/741 742/742 711/711 710/710
f 747/747 748/748 717/717 716/716
f 748/748 749/749 718/718 717/717
f 749/749 750/750 719/719 718/718
f 750/750 751/751 720/720 719/719
f 751/751 752/752 721/721 720/720
f 752/752 753/753 722/722 721/721
f 753/753 754/754 723/723 722/722
f 754/754 755/755 724/724 723/723
f 755/755 756/756 725/725 724/724
f 756/756 757/757 726/726 725/725
f 757/757 758/758 727/727 726/726
f 760/760 761/761 730/730 729/729
f 761/761 762/762 731/731 730/730
f 762/762 763/763 732/732 731/731
f 763/763 764/764 733/733 732/732
f 764/764 765/765 734/734 733/733
f 765/765 766/766 735/735 734/734
f 766/766 767/767 736/736 735/735
f 767/767 768/768 737/737 736/736
f 768/768 769/769 738/738 737/737
f 769/769 770/770 739/739 738/738
f 770/770 771/771 740/740 739/739
f 771/771 772/772 741/741 740/740
f 772/772 773/773 742/742 741/741
f 776/776 777/777 746/746 745/745
f 777/777 778/778 747/747 746/746
f 778/778 779/779 748/748 747/747
f 779/779 780/780 749/749 748/748
f 780/780 781/781 750/750 749/749
f 781/781 782/782 751/751 750/750
f 782/782 783/783 752/752 751/751
f 783/783 784/784 753/753 752/752
f 784/784 785/785 754/754 753/753
f 785/785 786/786 755/755 754/754
f 786/786 787/787 756/756 755/755
f 787/787 788/788 757/757 756/756
f 788/788 789/789 758/758 757/757
f 789/789 790/790 759/759 758/758
f 790/790 791/791 760/760 759/759
f 791/791 792/792 761/761 760/760
f 792/792 793/793 762/762 761/761
f 793/793 794/794 763/763 762/762
f 794/794 795/795 764/764 763/763
f 795/795 796/796 765/765 764/764
f 796/796 797/797 766/766 765/765
f 797/797 798/798 767/767 766/766
f 798/798 799/799 768/768 767/767
f 799/799 800/800 769/769 768/768
f 800/800 801/801 770/770 769/769
f 801/801 802/802 771/771 770/770
f 802/802 803/803 772/772 771/771
f 803/803 804/804 773/773 772/772
f 804/804 805/805 774/774 773/773
f 805/805 806/806 775/775 774/774
f 807/807 808/808 777/777 776/776
f 808/808 809/809 778/778 777/777
f 809/809 810/810 779/779 778/778
f 810/810 811/811 780/780 779/779
f 811/811 812/812 781/781 780/780
f 812/812 813/813 782/782 781/781
f 813/813 814/814 783/783 782/782
f 814/814 815/815 784/784 783/783
f 815/815 816/816 785/785 784/784
f 816/816 817/817 786/786 785/785
f 817/817 818/818 787/787 786/786
f 818/818 819/819 788/788 787/787
f 819/819 820/820 789/789 788/788
f 820/820 821/821 790/790 789/789
f 821/821 822/822 791/791 790/790
f 822/822 823/823 792/792 791/791
f 823/823 824/824 793/793 792/792
f 824/824 825/825 794/794 793/793
f 825/825 826/826 795/795 794/794
f 826/826 827/827 796/796 795/795
f 827/827 828/828 797/797 796/796
f 828/828 829/829 798/798 797/797
f 829/829 830/830 799/799 798/798
f 830/830 831/831 800/800 799/799
f 831/831 832/832 801/801 800/800
f 832/832 833/833 802/802 801/801
f 833/833 834/834 803/803 802/802
f 834/834 835/835 804/804 803/803
f 835/835 836/836 805/805 804/804
f 836/836 837/837 806/806 805/805
f 838/838 839/839 808/808 807/807
f 839/839 840/840 809/809 808/808
f 840/840 841/841 810/810 809/809
f 841/841 842/842 811/811 810/810
f 842/842 843/843 812/812 811/811
f 843/843 844/844 813/813 812/812
f 844/844 845/845 814/814 813/813
f 845/845 846/846 815/815 814/814
f 846/846 847/847 816/816 815/815
f 847/847 848/848 817/817 816/816
f 848/848 849/849 818/818 817/817
f 849/849 850/850 819/819 818/818
f 850/850 851/851 820/820 819/819
f 851/851 852/852 821/821 820/820
f 852/852 853/853 822/822 821/821
f 853/853 854/854 823/823 822/822
f 854/854 855/855 824/824 823/823
f 855/855 856/856 825/825 824/824
f 856/856 857/857 826/826 825/825
f 857/857 858/858 827/827 826/826
f 858/858 859/859 828/828 827/827
f 859/859 860/860 829/829 828/828
f 860/860 861/861 830/830 829/829
f 861/861 862/862 831/831 830/830
f 862/862 863/863 832/832 831/831
f 863/863 864/864 833/833 832/832
f 864/864 865/865 834/834 833/833
f 865/865 866/866 835/835 834/834
f 866/866 867/867 836/836 835/835
f 867/867 868/868 837/837 836/836
f 869/869 870/870 839/839 838/838
f 870/870 871/871 840/840 839/839
f 871/871 872/872 841/841 840/840
f 872/872 873/873 842/842 841/841
f 873/873 874/874 843/843 842/842
f 874/874 875/875 844/844 843/843
f 875/875 876/876 845/845 844/844
f 876/876 877/877 846/846 845/845
f 877/877 878/878 847/847 846/846
f 878/878 879/879 848/848 847/847
f 879/879 880/880 849/849 848/848
f 880/880 881/881 850/850 849/849
f 881/881 882/882 851/851 850/850
f 882/882 883/883 852/852 851/851
f 883/883 884/884 853/853 852/852
f 884/884 885/885 854/854 853/853
f 885/885 886/886 855/855 854/854
f 886/886 887/887 856/856 855/855
f 887/887 888/888 857/857 856/856
f 888/888 889/889 858/858 857/857
f 889/889 890/890 859/859 858/858
f 890/890 891/891 860/860 859/859
f 891/891 892/892 861/861 860/860
f 892/892 893/893 862/862 861/861
f 893/893 894/894 863/863 862/862
f 894/894 895/895 864/864 863/863
f 895/895 896/896 865/865 864/864
f 896/896 897/897 866/866 865/865
f 897/897 898/898 867/867 866/866
f 898/898 899/899 868/868 867/867
f 900/900 901/901 870/870 869/869
f 901/901 902/902 871/871 870/870
f 902/902 903/903 872/872 871/871
f 903/903 904/904 873/873 872/872
f 904/904 905/905 874/874 873/873
f 905/905 906/906 875/875 874/874
f 906/906 907/907 876/876 875/875
f 907/907 908/908 877/877 876/876
f 908/908 909/909 878/878 877/877
f 909/909 910/910 879/879 878/878
f 910/910 911/911 880/880 879/879
f 911/911 912/912 881/881 880/880
f 912/912 913/913 882/882 881/881
f 913/913 914/914 883/883 882/882
f 914/914 915/915 884/884 883/883
f 915/915 916/916 885/885 884/884
f 916/916 917/917 886/886 885/885
f 917/917 918/918 887/887 886/886
f 918/918 919/919 888/888 887/887
f 919/919 920/920 889/889 888/888
f 920/920 921/921 890/890 889/889
f 921/921 922/922 891/891 890/890
f 922/922 923/923 892/892 891/891
f 923/923 924/924 893/893 892/892
f 924/924 925/925 894/894 893/893
f 925/925 926/926 895/895 894/894
f 926/926 927/927 896/896 895/895
f 927/927 928/928 897/897 896/896
f 928/928 929/929 898/898 897/897
f 929/929 930/930 899/899 898/898
g pipe
f 311/311 312/312 281/281 280/280
f 312/312 313/313 282/282 281/281
f 313/313 314/314 283/283 282/282
f 314/314 315/315 284/284 283/283
f 315/315 316/316 285/285 284/284
f 316/316 317/317 286/286 285/285
f 317/317 318/318 287/287 286/286
f 318/318 319/319 288/288 287/287
f 319/319 320/320 289/289 288/288
f 320/320 321/321 290/290 289/289
f 321/321 322/322 291/291 290/290
f 322/322 323/323 292/292 291/291
f 323/323 324/324 293/293 292/292
f 324/324 325/325 294/294 293/293
f 325/325 326/326 295/295 294/294
f 326/326 327/327 296/296 295/295
f 327/327 328/328 297/297 296/296
f 328/328 329/329 298/298 297/297
f 329/329 330/330 299/299 298/298
f 330/330 331/331 300/300 299/299
f 331/331 332/332 301/301 300/300
f 332/332 333/333 302/302 301/301
f 333/333 334/334 303/303 302/302
f 334/334 335/335 304/304 303/303
f 335/335 336/336 305/305 304/304
f 336/336 337/337 306/306 305/305
f 337/337 338/338 307/307 306/306
f 338/338 339/339 308/308 307/307
f 339/339 340/340 309/309 308/308
f 340/340 341/341 310/310 309/309
f 342/342 343/343 312/312 311/311
f 343/343 344/344 313/313 312/312
f 344/344 345/345 314/314 313/313
f 345/345 346/346 315/315 314/314
f 346/346 347/347 316/316 315/315
f 347/347 348/348 317/317 316/316
f 348/348 349/349 318/318 317/317
f 349/349 350/350 319/319 318/318
f 350/350 351/351 320/320 319/319
f 351/351 352/352 321/321 320/320
f 352/352 353/353 322/322 321/321
f 353/353 354/354 323/323 322/322
f 354/354 355/355 324/324 323/323
f 355/355 356/356 325/325 324/324
f 356/356 357/357 326/326 325/325
f 357/357 358/358 327/327 326/326
f 358/358 359/359 328/328 327/327
f 359/359 360/360 329/329 328/328
f 360/360 361/361 330/330 329/329
f 361/361 362/362 331/331 330/330
f 362/362 363/363 332/332 331/331
f 363/363 364/364 333/333 332/332
f 364/364 365/365 334/334 333/333
f 365/365 366/366 335/335 334/334
f 366/366 367/367 336/336 335/335
f 367/367 368/368 337/337 336/336
f 368/368 369/369 338/338 337/337
f 369/369 370/370 339/339 338/338
f 370/370 371/371 340/340 339/339
f 371/371 372/372 341/341 340/340
f 373/373 374/374 343/343 342/342
f 374/374 375/375 344/344 343/343
f 386/386 387/387 356/356 355/355
f 387/387 388/388 357/357 356/356
f 401/401 402/402 371/371 370/370
f 402/402 403/403 372/372 371/371
f 404/404 405/405 374/374 373/373
f 405/405 406/406 375/375 374/374
f 417/417 418/418 387/387 386/386
f 418/418 419/419 388/388 387/387
f 432/432 433/433 402/402 401/401
f 433/433 434/434 403/403 402/402
f 435/435 436/436 405/405 404/404
f 436/436 437/437 406/406 405/405
f 448/448 449/449 418/418 417/417
f 449/449 450/450 419/419 418/418
f 463/463 464/464 433/433 432/432
f 464/464 465/465 434/434 433/433
f 466/466 467/467 436/436 435/435
f 467/467 468/468 437/437 436/436
f 479/479 480/480 449/449 448/448
f 480/480 481/481 450/450 449/449
f 494/494 495/495 464/464 463/463
f 495/495 496/496 465/465 464/464
f 497/497 498/498 467/467 466/466
f 498/498 499/499 468/468 467/467
f 510/510 511/511 480/480 479/479
f 511/511 512/512 481/481 480/480
f 525/525 526/526 495/495 494/494
f 526/526 527/527 496/496 495/495
f 528/528 529/529 498/498 497/497
f 529/529 530/530 499/499 498/498
f 541/541 542/542 511/511 510/510
f 542/542 543/543 512/512 511/511
f 556/556 557/557 526/526 525/525
f 557/557 558/558 527/527 526/526
f 559/559 560/560 529/529 528/528
f 560/560 561/561 530/530 529/529
f 572/572 573/573 542/542 541/541
f 573/573 574/574 543/543 542/542
f 587/587 588/588 557/557 556/556
f 588/588 589/589 558/558 557/557
f 590/590 591/591 560/560 559/559
f 591/591 592/592 561/561 560/560
f 603/603 604/604 573/573 572/572
f 604/604 605/605 574/574 573/573
f 618/618 619/619 588/588 587/587
f 619/619 620/620 589/589 588/588
f 621/621 622/622 591/591 590/590
f 622/622 623/623 592/592 591/591
f 634/634 635/635 604/604 603/603
f 635/635 636/636 605/605 604/604
f 649/649 650/650 619/619 618/618
f 650/650 651/651 620/620 619/619
f 652/652 653/653 622/622 621/621
f 653/653 654/654 623/623 622/622
f 665/665 666/666 635/635 634/634
f 666/666 667/667 636/636 635/635
f 680/680 681/681 650/650 649/649
f 681/681 682/682 651/651 650/650
f 683/683 684/684 653/653 652/652
f 684/684 685/685 654/654 653/653
f 696/696 697/697 666/666 665/665
f 697/697 698/698 667/667 666/666
f 711/711 712/712 681/681 680/680
f 712/712 713/713 682/682 681/681
f 714/714 715/715 684/684 683/683
f 715/715 716/716 685/685 684/684
f 727/727 728/728 697/697 696/696
f 728/728 729/729 698/698 697/697
f 742/742 743/743 712/712 711/711
f 743/743 744/744 713/713 712/712
f 745/745 746/746 715/715 714/714
f 746/746 747/747 716/716 715/715
f 758/758 759/759 728/728 727/727
f 759/759 760/760 729/729 728/728
f 773/773 774/774 743/743 742/742
f 774/774 775/775 744/744 743/743
