# File exported by Houdini 20.5.584 (www.sidefx.com)
# 55 points
# 160 vertices
# 40 primitives
# Bounds: [-10, 3, -6] to [0, 3, -2]
g 
v -10 3 -3
v -9 3 -3
v -9 3 -2
v -10 3 -2
v -8 3 -3
v -8 3 -2
v -7 3 -3
v -7 3 -2
v -6 3 -3
v -6 3 -2
v -5 3 -3
v -5 3 -2
v -4 3 -3
v -4 3 -2
v -3 3 -3
v -3 3 -2
v -2 3 -3
v -2 3 -2
v -1 3 -3
v -1 3 -2
v 0 3 -3
v 0 3 -2
v -10 3 -4
v -9 3 -4
v -8 3 -4
v -7 3 -4
v -6 3 -4
v -5 3 -4
v -4 3 -4
v -3 3 -4
v -2 3 -4
v -1 3 -4
v 0 3 -4
v -10 3 -5
v -9 3 -5
v -8 3 -5
v -7 3 -5
v -6 3 -5
v -5 3 -5
v -4 3 -5
v -3 3 -5
v -2 3 -5
v -1 3 -5
v 0 3 -5
v -10 3 -6
v -9 3 -6
v -8 3 -6
v -7 3 -6
v -6 3 -6
v -5 3 -6
v -4 3 -6
v -3 3 -6
v -2 3 -6
v -1 3 -6
v 0 3 -6
vt 0.999979496 0.0999978855 0
vt 0.899981558 0.0999980494 0
vt 0.899981558 1.45113844e-07 0
vt 0.999979496 1.3710374e-07 0
vt 0.79998368 0.0999979004 0
vt 0.79998368 0 0
vt 0.699985802 0.0999979153 0
vt 0.699985802 8.01010724e-09 0
vt 0.599987566 0.0999979228 0
vt 0.599987864 1.60202145e-08 0
vt 0.499989659 0.0999980867 0
vt 0.499989659 2.40303422e-08 0
vt 0.399991751 0.0999980941 0
vt 0.399991602 3.20404574e-08 0
vt 0.299993873 0.0999979451 0
vt 0.299993724 4.0050562e-08 0
vt 0.19999595 0.0999979526 0
vt 0.199996114 4.80606452e-08 0
vt 0.0999979004 0.0999981165 0
vt 0.0999981984 5.60707498e-08 0
vt 0 0.0999979675 0
vt 1.45113844e-07 6.40808651e-08 0
vt 0.999979496 0.199995786 0
vt 0.899981558 0.19999595 0
vt 0.79998374 0.19999595 0
vt 0.699985504 0.199995816 0
vt 0.599987566 0.199995831 0
vt 0.499989659 0.199995831 0
vt 0.39999193 0.199995995 0
vt 0.299994022 0.199995846 0
vt 0.199995965 0.199996009 0
vt 0.0999980718 0.199996009 0
vt 1.61134054e-07 0.199995875 0
vt 0.999979496 0.299993694 0
vt 0.899981618 0.299994022 0
vt 0.799983442 0.299993724 0
vt 0.699985504 0.299993724 0
vt 0.599987566 0.299994022 0
vt 0.499989688 0.299993753 0
vt 0.399991781 0.299993753 0
vt 0.299993873 0.299993753 0
vt 0.199995831 0.299993753 0
vt 0.0999979228 0.299994081 0
vt 1.60202109e-08 0.299993783 0
vt 0.999979496 0.399991602 0
vt 0.899981618 0.3999919 0
vt 0.79998374 0.399991602 0
vt 0.699985802 0.39999193 0
vt 0.599987566 0.39999193 0
vt 0.499989837 0.399991632 0
vt 0.399991781 0.399991959 0
vt 0.299993902 0.399991661 0
vt 0.19999598 0.399991959 0
vt 0.0999979302 0.399991959 0
vt 2.40303155e-08 0.399991691 0
g extrudeFront
f 1/1 2/2 3/3 4/4
f 2/2 5/5 6/6 3/3
f 5/5 7/7 8/8 6/6
f 7/7 9/9 10/10 8/8
f 9/9 11/11 12/12 10/10
f 11/11 13/13 14/14 12/12
f 13/13 15/15 16/16 14/14
f 15/15 17/17 18/18 16/16
f 17/17 19/19 20/20 18/18
f 19/19 21/21 22/22 20/20
f 23/23 24/24 2/2 1/1
f 24/24 25/25 5/5 2/2
f 25/25 26/26 7/7 5/5
f 26/26 27/27 9/9 7/7
f 27/27 28/28 11/11 9/9
f 28/28 29/29 13/13 11/11
f 29/29 30/30 15/15 13/13
f 30/30 31/31 17/17 15/15
f 31/31 32/32 19/19 17/17
f 32/32 33/33 21/21 19/19
f 34/34 35/35 24/24 23/23
f 35/35 36/36 25/25 24/24
f 36/36 37/37 26/26 25/25
f 37/37 38/38 27/27 26/26
f 38/38 39/39 28/28 27/27
f 39/39 40/40 29/29 28/28
f 40/40 41/41 30/30 29/29
f 41/41 42/42 31/31 30/30
f 42/42 43/43 32/32 31/31
f 43/43 44/44 33/33 32/32
f 45/45 46/46 35/35 34/34
f 46/46 47/47 36/36 35/35
f 47/47 48/48 37/37 36/36
f 48/48 49/49 38/38 37/37
f 49/49 50/50 39/39 38/38
f 50/50 51/51 40/40 39/39
f 51/51 52/52 41/41 40/40
f 52/52 53/53 42/42 41/41
f 53/53 54/54 43/43 42/42
f 54/54 55/55 44/44 43/43
