# File exported by Houdini 20.5.584 (www.sidefx.com)
# 100 points
# 288 vertices
# 72 primitives
# Bounds: [-10, 0, -6.00000095] to [0, 3, -1.99999917]
g 
v -10 0 -3
v -10 0 -2
v -9 0 -2
v -8 0 -2
v -7 0 -2
v -6 0 -2
v -5 0 -2
v -4 0 -2
v -3 0 -2
v -2 0 -2
v -1 0 -2
v 0 0 -2
v -10 0 -4
v -10 0 -5
v -10 0 -6
v -9 0 -6
v -8 0 -6
v -7 0 -6
v -6 0 -6
v -5 0 -6
v -4 0 -6
v -3 0 -6
v -2 0 -6
v -1 0 -6
v 0 0 -6
v -10 3 -3
v -9 3 -2
v -10 3 -2
v -8 3 -2
v -7 3 -2
v -6 3 -2
v -5 3 -2
v -4 3 -2
v -3 3 -2
v -2 3 -2
v -1 3 -2
v 0 3 -2
v -10 3 -4
v -10 3 -5
v -10 3 -6
v -9 3 -6
v -8 3 -6
v -7 3 -6
v -6 3 -6
v -5 3 -6
v -4 3 -6
v -3 3 -6
v -2 3 -6
v -1 3 -6
v 0 3 -6
v -9 1 -2
v -10 1 -2
v -10 1 -3
v -10 1 -4
v -10 1 -5
v -10 1 -6
v -9 1 -6
v -8 1 -6
v -7 1 -6
v -6 1 -6
v -5 1 -6
v -4 1 -6
v -3 1 -6
v -2 1 -6
v -1 1 -6
v 0 1 -6
v 0 1 -2
v -1 1 -2
v -2 1 -2
v -3 1 -2
v -4 1 -2
v -5 1 -2
v -6 1 -2
v -7 1 -2
v -8 1 -2
v -9 2 -2.00000095
v -10 2 -2.00000095
v -10 2 -3.00000095
v -10 2 -4.00000095
v -9.99999905 2 -5.00000095
v -9.99999905 2 -6.00000095
v -8.99999905 2 -6.00000048
v -7.99999952 2 -6.00000048
v -6.99999952 2 -6.00000048
v -5.99999952 2 -6
v -4.99999952 2 -6
v -3.99999976 2 -5.99999952
v -2.99999976 2 -5.99999952
v -1.99999988 2 -5.99999952
v -0.999999881 2 -5.99999905
v -1.02330141e-07 2 -5.99999905
v -8.51344168e-07 2 -1.99999917
v -1.0000006 2 -1.9999994
v -2.00000072 2 -1.99999952
v -3.00000048 2 -1.99999976
v -4.00000048 2 -1.99999988
v -5.00000048 2 -2
v -6.00000048 2 -2.00000024
v -7.00000048 2 -2.00000048
v -8 2 -2.00000072
vt 0.624987245 0.124997437 0
vt 0.583321393 0.124997437 0
vt 0.583321393 0.0833316222 0
vt 0.624987245 0.0833316296 0
vt 0.583321393 0.124997459 0
vt 0.5416556 0.12499743 0
vt 0.5416556 0.0833316445 0
vt 0.583321393 0.0833316371 0
vt 0.499989748 0.124997437 0
vt 0.499989748 0.0833316445 0
vt 0.458323926 0.124997437 0
vt 0.458323956 0.0833316147 0
vt 0.416658163 0.124997444 0
vt 0.416658133 0.0833316222 0
vt 0.416658163 0.124997459 0
vt 0.374992281 0.124997452 0
vt 0.374992341 0.0833316445 0
vt 0.416658103 0.083331652 0
vt 0.333326519 0.124997459 0
vt 0.333326578 0.0833316445 0
vt 0.291660696 0.124997452 0
vt 0.291660696 0.083331652 0
vt 0.249994934 0.124997459 0
vt 0.249994934 0.083331652 0
vt 0.208329111 0.124997459 0
vt 0.208329052 0.0833316445 0
vt 0.166663289 0.124997459 0
vt 0.166663289 0.083331652 0
vt 0.124997467 0.124997452 0
vt 0.124997467 0.083331652 0
vt 0.0833316445 0.124997452 0
vt 0.0833315253 0.0833316445 0
vt 0.0416659489 0.124997467 0
vt 0.041665826 0.083331652 0
vt 1.24497561e-07 0.124997459 0
vt 1.21858591e-07 0.083331652 0
vt 0.999979496 0.12499743 0
vt 0.958313704 0.12499743 0
vt 0.958313704 0.0833316222 0
vt 0.999979496 0.0833316222 0
vt 0.916647851 0.124997422 0
vt 0.916647911 0.0833316222 0
vt 0.874982119 0.12499743 0
vt 0.874982119 0.0833316222 0
vt 0.833316267 0.12499743 0
vt 0.833316267 0.0833316222 0
vt 0.791650474 0.12499743 0
vt 0.791650474 0.0833316222 0
vt 0.749984622 0.124997437 0
vt 0.749984622 0.0833316296 0
vt 0.708318889 0.12499743 0
vt 0.708318889 0.0833316296 0
vt 0.666653037 0.12499743 0
vt 0.666653037 0.0833316222 0
vt 0.583321393 0.0416658185 0
vt 0.624987245 0.0416658223 0
vt 0.5416556 0.0416658483 0
vt 0.583321393 0.0416658148 0
vt 0.499989718 0.0416658521 0
vt 0.458323896 0.0416657962 0
vt 0.416658103 0.041665826 0
vt 0.374992341 0.0416658446 0
vt 0.416658103 0.0416658409 0
vt 0.333326459 0.0416658409 0
vt 0.291660696 0.0416658409 0
vt 0.249994814 0.0416658372 0
vt 0.208328992 0.0416658409 0
vt 0.166663289 0.0416658446 0
vt 0.124997459 0.0416658446 0
vt 0.0833316371 0.0416658409 0
vt 0.0416658223 0.0416658446 0
vt 0 0.0416658446 0
vt 0.958313704 0.0416658111 0
vt 0.999979496 0.0416658111 0
vt 0.916647851 0.0416658148 0
vt 0.874982059 0.0416658111 0
vt 0.833316267 0.0416658148 0
vt 0.791650474 0.0416658148 0
vt 0.749984622 0.0416658185 0
vt 0.70831883 0.0416658185 0
vt 0.666653037 0.0416658223 0
vt 0.583321393 1.1436911e-08 0
vt 0.624987245 1.25235475e-08 0
vt 0.5416556 5.69708298e-08 0
vt 0.583321393 2.45269511e-08 0
vt 0.499989778 0 0
vt 0.458323956 2.63897593e-09 0
vt 0.416658133 3.50828522e-08 0
vt 0.374992281 2.89409012e-08 0
vt 0.416658163 3.37531461e-08 0
vt 0.333326519 3.15798729e-08 0
vt 0.291660637 2.67676281e-08 0
vt 0.249994919 3.68578235e-08 0
vt 0.208329111 3.94968005e-08 0
vt 0.166663289 3.46845503e-08 0
vt 0.124997459 2.98723002e-08 0
vt 0.0833317563 3.99624938e-08 0
vt 0.0416659378 4.26014708e-08 0
vt 1.16580637e-07 3.77892206e-08 0
vt 0.958313704 6.31419894e-09 0
vt 0.999979496 3.67522279e-09 0
vt 0.916647911 5.22755839e-09 0
vt 0.874982119 4.14092138e-09 0
vt 0.833316267 6.77989753e-09 0
vt 0.791650474 9.41887368e-09 0
vt 0.749984622 1.20578489e-08 0
vt 0.708318889 7.24559612e-09 0
vt 0.666653037 6.15895912e-09 0
g extrudeSide
f 3/1 2/2 52/3 51/4
f 2/5 1/6 53/7 52/8
f 1/6 13/9 54/10 53/7
f 13/9 14/11 55/12 54/10
f 14/11 15/13 56/14 55/12
f 15/15 16/16 57/17 56/18
f 16/16 17/19 58/20 57/17
f 17/19 18/21 59/22 58/20
f 18/21 19/23 60/24 59/22
f 19/23 20/25 61/26 60/24
f 20/25 21/27 62/28 61/26
f 21/27 22/29 63/30 62/28
f 22/29 23/31 64/32 63/30
f 23/31 24/33 65/34 64/32
f 24/33 25/35 66/36 65/34
f 12/37 11/38 68/39 67/40
f 11/38 10/41 69/42 68/39
f 10/41 9/43 70/44 69/42
f 9/43 8/45 71/46 70/44
f 8/45 7/47 72/48 71/46
f 7/47 6/49 73/50 72/48
f 6/49 5/51 74/52 73/50
f 5/51 4/53 75/54 74/52
f 4/53 3/1 51/4 75/54
f 51/4 52/3 77/55 76/56
f 52/8 53/7 78/57 77/58
f 53/7 54/10 79/59 78/57
f 54/10 55/12 80/60 79/59
f 55/12 56/14 81/61 80/60
f 56/18 57/17 82/62 81/63
f 57/17 58/20 83/64 82/62
f 58/20 59/22 84/65 83/64
f 59/22 60/24 85/66 84/65
f 60/24 61/26 86/67 85/66
f 61/26 62/28 87/68 86/67
f 62/28 63/30 88/69 87/68
f 63/30 64/32 89/70 88/69
f 64/32 65/34 90/71 89/70
f 65/34 66/36 91/72 90/71
f 67/40 68/39 93/73 92/74
f 68/39 69/42 94/75 93/73
f 69/42 70/44 95/76 94/75
f 70/44 71/46 96/77 95/76
f 71/46 72/48 97/78 96/77
f 72/48 73/50 98/79 97/78
f 73/50 74/52 99/80 98/79
f 74/52 75/54 100/81 99/80
f 75/54 51/4 76/56 100/81
f 76/56 77/55 28/82 27/83
f 77/58 78/57 26/84 28/85
f 78/57 79/59 38/86 26/84
f 79/59 80/60 39/87 38/86
f 80/60 81/61 40/88 39/87
f 81/63 82/62 41/89 40/90
f 82/62 83/64 42/91 41/89
f 83/64 84/65 43/92 42/91
f 84/65 85/66 44/93 43/92
f 85/66 86/67 45/94 44/93
f 86/67 87/68 46/95 45/94
f 87/68 88/69 47/96 46/95
f 88/69 89/70 48/97 47/96
f 89/70 90/71 49/98 48/97
f 90/71 91/72 50/99 49/98
f 92/74 93/73 36/100 37/101
f 93/73 94/75 35/102 36/100
f 94/75 95/76 34/103 35/102
f 95/76 96/77 33/104 34/103
f 96/77 97/78 32/105 33/104
f 97/78 98/79 31/106 32/105
f 98/79 99/80 30/107 31/106
f 99/80 100/81 29/108 30/107
f 100/81 76/56 27/83 29/108
