# File exported by Houdini 20.5.584 (www.sidefx.com)
# 24 points
# 88 vertices
# 22 primitives
# Bounds: [-0.0510472506, -0.0333132111, -1.57405126] to [0.0514795482, 0.0323941857, 0.161907613]
g 
v 0.0244238637 -0.0254000984 0.161907613
v -0.0239915643 -0.0254000984 0.161907613
v 0.0244238637 0.0220785998 0.161907613
v -0.0239915643 0.0220785998 0.161907613
v -0.038792979 -0.00837355852 -1.51585925
v 0.0360770375 -0.00837355852 -1.57405126
v -0.038792979 0.00505205989 -1.51585925
v 0.0360770375 0.00505205989 -1.57405126
v -0.0510472506 0.00505205989 -0.172861516
v 0.0514795482 0.00505205989 -0.172861516
v -0.0510472506 0.0323941857 -0.123132259
v 0.0514795482 0.0323941857 -0.123132259
v 0.0514795482 -0.00837355852 -0.172861576
v -0.0510472506 -0.00837355852 -0.172861576
v 0.0514795482 -0.0308443271 -0.123132288
v -0.0510472506 -0.0308443271 -0.123132288
v -0.0320607983 0.0299917143 -0.0446657427
v 0.0324930996 0.0299917143 -0.0446657427
v 0.0324930996 -0.0333132111 -0.0446657576
v -0.0320607983 -0.0333132111 -0.0446657576
v 0.0324930996 0.0299917143 0.13587442
v -0.0320607983 0.0299917143 0.13587442
v -0.0320607983 -0.0333132111 0.135874406
v 0.0324930996 -0.0333132111 0.135874406
vt 0.999966681 0.0042905258 0
vt 0.999995768 0.0303120576 0
vt 0.973460853 0.0303417537 0
vt 0.973431706 0.00432020798 0
vt 0.0519706979 0.0146827707 0
vt 0.0519789495 0.0220409129 0
vt 8.25106326e-06 0.0220990647 0
vt 0 0.0147408927 0
vt 0.0338403955 0.0419839248 0
vt 0.769893885 0.0351608098 0
vt 0.769901931 0.0913524553 0
vt 0.001953125 0.0830224231 0
vt 0.800996661 0.03515625 0
vt 0.801004946 0.0913479924 0
vt 0.0009765625 0.101331338 0
vt 0.768922627 0.0927777737 0
vt 0.768930972 0.148969486 0
vt 0.0328757167 0.142360508 0
vt 0.798831105 0.0927734375 0
vt 0.798839211 0.14896512 0
vt 0.0458984375 0.162790403 0
vt 0.0459000431 0.155432165 0
vt 0.813893259 0.155604184 0
vt 0.813891411 0.162962347 0
vt 0.841151536 0.140625 0
vt 0.841143727 0.175283834 0
vt 0.815296412 0.00151329872 0
vt 0.815335274 0.0361723006 0
vt 0.788063467 0.0212174486 0
vt 0.788055241 0.0138593009 0
vt 0.844023407 0.0455559045 0
vt 0.844028533 0.0809358284 0
vt 0.885397255 0.141951561 0
vt 0.885389388 0.176646948 0
vt 0.841858804 0.103173018 0
vt 0.84186393 0.138552949 0
vt 0.859540999 0.000110682326 0
vt 0.859579802 0.0348060802 0
vt 0.942976952 0.0809214562 0
vt 0.942971706 0.0455415286 0
vt 0.957884967 0.0499618314 0
vt 0.957888842 0.0764968246 0
vt 0.958528042 0.0346953869 0
vt 0.958489239 0 0
vt 0.940812349 0.138538554 0
vt 0.940807104 0.103158593 0
vt 0.955720365 0.107578941 0
vt 0.95572418 0.134113863 0
vt 0.984337628 0.176668957 0
vt 0.984345376 0.141973749 0
vt 0.999281943 0.14631395 0
vt 0.999276221 0.172335416 0
vn 0.484065711 -0.486380637 0.727402449
vn 0.484065652 0.486380517 0.727402508
vn -0.484065711 0.486380547 0.727402568
vn -0.484065711 -0.486380637 0.727402449
vn -0.702483296 -0.620984674 -0.34769997
vn -0.702483296 0.620984674 -0.34769997
vn 0.362737626 0.550664008 -0.751791537
vn 0.362737626 -0.550664008 -0.751791537
vn -0.702483296 0.620984674 -0.34769997
vn -0.768140018 0.619306803 -0.162542284
vn 0.768247366 0.619004726 -0.163184762
vn 0.362737626 0.550664008 -0.751791537
vn -0.768140018 0.619306803 -0.162542284
vn -0.684562147 0.722825587 -0.0943291709
vn 0.684562147 0.722825587 -0.0943291858
vn 0.768247366 0.619004726 -0.163184762
vn 0.362737626 -0.550664008 -0.751791537
vn 0.758458078 -0.636231244 -0.141248375
vn -0.758335769 -0.636520505 -0.140600562
vn -0.702483296 -0.620984674 -0.34769997
vn 0.758458078 -0.636231244 -0.141248375
vn 0.696848512 -0.712689161 -0.0804757252
vn -0.696848512 -0.712689161 -0.0804757029
vn -0.758335769 -0.636520505 -0.140600562
vn 0.362737626 -0.550664008 -0.751791537
vn 0.362737626 0.550664008 -0.751791537
vn 0.768247366 0.619004726 -0.163184762
vn 0.758458078 -0.636231244 -0.141248375
vn 0.758458078 -0.636231244 -0.141248375
vn 0.768247366 0.619004726 -0.163184762
vn 0.684562147 0.722825587 -0.0943291858
vn 0.696848512 -0.712689161 -0.0804757252
vn -0.696848512 -0.712689161 -0.0804757029
vn -0.684562147 0.722825587 -0.0943291709
vn -0.768140018 0.619306803 -0.162542284
vn -0.758335769 -0.636520505 -0.140600562
vn -0.758335769 -0.636520505 -0.140600562
vn -0.768140018 0.619306803 -0.162542284
vn -0.702483296 0.620984674 -0.34769997
vn -0.702483296 -0.620984674 -0.34769997
vn -0.676279128 0.730701327 0.0933921635
vn 0.676279187 0.730701327 0.0933921635
vn 0.684562147 0.722825587 -0.0943291858
vn -0.684562147 0.722825587 -0.0943291709
vn 0.676279187 0.730701327 0.0933921635
vn 0.670802653 -0.738624036 0.0667717531
vn 0.696848512 -0.712689161 -0.0804757252
vn 0.684562147 0.722825587 -0.0943291858
vn 0.670802653 -0.738624036 0.0667717531
vn -0.670802593 -0.738624036 0.0667717531
vn -0.696848512 -0.712689161 -0.0804757029
vn 0.696848512 -0.712689161 -0.0804757252
vn -0.670802593 -0.738624036 0.0667717531
vn -0.676279128 0.730701327 0.0933921635
vn -0.684562147 0.722825587 -0.0943291709
vn -0.696848512 -0.712689161 -0.0804757029
vn 0.69503355 0.694186568 0.187171578
vn -0.69503355 0.694186687 0.187171564
vn -0.484065711 0.486380547 0.727402568
vn 0.484065652 0.486380517 0.727402508
vn -0.69503355 0.694186687 0.187171564
vn 0.69503355 0.694186568 0.187171578
vn 0.676279187 0.730701327 0.0933921635
vn -0.676279128 0.730701327 0.0933921635
vn -0.69503355 0.694186687 0.187171564
vn -0.69503355 -0.694186687 0.187171459
vn -0.484065711 -0.486380637 0.727402449
vn -0.484065711 0.486380547 0.727402568
vn -0.69503355 -0.694186687 0.187171459
vn -0.69503355 0.694186687 0.187171564
vn -0.676279128 0.730701327 0.0933921635
vn -0.670802593 -0.738624036 0.0667717531
vn -0.69503355 -0.694186687 0.187171459
vn 0.69503355 -0.694186687 0.187171459
vn 0.484065711 -0.486380637 0.727402449
vn -0.484065711 -0.486380637 0.727402449
vn 0.69503355 -0.694186687 0.187171459
vn -0.69503355 -0.694186687 0.187171459
vn -0.670802593 -0.738624036 0.0667717531
vn 0.670802653 -0.738624036 0.0667717531
vn 0.69503355 -0.694186687 0.187171459
vn 0.69503355 0.694186568 0.187171578
vn 0.484065652 0.486380517 0.727402508
vn 0.484065711 -0.486380637 0.727402449
vn 0.69503355 0.694186568 0.187171578
vn 0.69503355 -0.694186687 0.187171459
vn 0.670802653 -0.738624036 0.0667717531
vn 0.676279187 0.730701327 0.0933921635
g 
f 1/1/1 3/2/2 4/3/3 2/4/4
f 5/5/5 7/6/6 8/7/7 6/8/8
f 7/9/9 9/10/10 10/11/11 8/12/12
f 9/10/13 11/13/14 12/14/15 10/11/16
f 6/15/17 13/16/18 14/17/19 5/18/20
f 13/16/21 15/19/22 16/20/23 14/17/24
f 6/21/25 8/22/26 10/23/27 13/24/28
f 13/24/29 10/23/30 12/25/31 15/26/32
f 16/27/33 11/28/34 9/29/35 14/30/36
f 14/30/37 9/29/38 7/6/39 5/5/40
f 17/31/41 18/32/42 12/14/43 11/13/44
f 18/33/45 19/34/46 15/26/47 12/25/48
f 19/35/49 20/36/50 16/20/51 15/19/52
f 20/37/53 17/38/54 11/28/55 16/27/56
f 21/39/57 22/40/58 4/41/59 3/42/60
f 22/40/61 21/39/62 18/32/63 17/31/64
f 22/43/65 23/44/66 2/4/67 4/3/68
f 23/44/69 22/43/70 17/38/71 20/37/72
f 23/45/73 24/46/74 1/47/75 2/48/76
f 24/46/77 23/45/78 20/36/79 19/35/80
f 24/49/81 21/50/82 3/51/83 1/52/84
f 21/50/85 24/49/86 19/34/87 18/33/88
