# File exported by Houdini 20.5.584 (www.sidefx.com)
# 30 points
# 112 vertices
# 28 primitives
# Bounds: [0, -0.200000003, -2] to [4, 0, 0]
g 
v 0 -0.200000003 -1
v 1 -0.200000003 -1
v 0 -0.200000003 0
v 1 -0.200000003 0
v 2 -0.200000003 -1
v 2 -0.200000003 0
v 3 -0.200000003 -1
v 3 -0.200000003 0
v 4 -0.200000003 -1
v 4 -0.200000003 0
v 0 -0.200000003 -2
v 1 -0.200000003 -2
v 2 -0.200000003 -2
v 3 -0.200000003 -2
v 4 -0.200000003 -2
v 0 0 -1
v 1 0 -1
v 1 0 0
v 0 0 0
v 2 0 -1
v 2 0 0
v 3 0 -1
v 3 0 0
v 4 0 -1
v 4 0 0
v 0 0 -2
v 1 0 -2
v 2 0 -2
v 3 0 -2
v 4 0 -2
vt 0.5 0.125 0
vt 0.375 0.125 0
vt 0.375 2.77555756e-17 0
vt 0.5 0 0
vt 0.25 0.125 0
vt 0.25 2.77555756e-17 0
vt 0.125 0.125 0
vt 0.125 5.55111512e-17 0
vt 5.55111512e-17 0.125 0
vt 0 5.55111512e-17 0
vt 0.5 0.25 0
vt 0.375 0.25 0
vt 0.25 0.25 0
vt 0.125 0.25 0
vt 5.55111512e-17 0.25 0
vt 0.783203125 0.375976562 0
vt 0.783203125 0.500976562 0
vt 0.658203125 0.500976562 0
vt 0.658203125 0.375976562 0
vt 0.533203125 0.500976562 0
vt 0.533203125 0.375976562 0
vt 0.408203125 0.500976562 0
vt 0.408203125 0.375976562 0
vt 0.283203125 0.500976562 0
vt 0.283203125 0.375976562 0
vt 0.783203125 0.250976562 0
vt 0.658203125 0.250976562 0
vt 0.533203125 0.250976562 0
vt 0.408203125 0.250976562 0
vt 0.283203125 0.250976562 0
vt 0.65722692 0.526953101 0
vt 0.65722692 0.501953125 0
vt 0.782227039 0.501953125 0
vt 0.782227039 0.526953101 0
vt 0.750976801 0 0
vt 0.750976801 0.0249999762 0
vt 0.625976682 0.0249999762 0
vt 0.625976682 0 0
vt 0.500976562 0.0249999762 0
vt 0.500976562 0 0
vt 0.781250119 0.528320312 0
vt 0.781250119 0.553320348 0
vt 0.656250119 0.553320348 0
vt 0.656250119 0.528320312 0
vt 0.53125006 0.553320348 0
vt 0.53125006 0.528320312 0
vt 0.40625003 0.553320348 0
vt 0.40625003 0.528320312 0
vt 0.28125 0.553320348 0
vt 0.28125 0.528320312 0
vt 0.750976562 0.0263671875 0
vt 0.750976562 0.051367186 0
vt 0.625976562 0.051367186 0
vt 0.625976562 0.0263671875 0
vt 0.500976562 0.051367186 0
vt 0.500976562 0.0263671875 0
vt 0.282226562 0.526953101 0
vt 0.282226562 0.501953125 0
vt 0.407226682 0.501953125 0
vt 0.407226682 0.526953101 0
vt 0.532226801 0.501953125 0
vt 0.532226801 0.526953101 0
vn -0 -1 0
vn 0 -1 0
vn 0 -1 -0
vn -0 -1 -0
vn 0 -1 0
vn 0 -1 0
vn 0 -1 -0
vn 0 -1 -0
vn 0 -1 0
vn 0 -1 0
vn 0 -1 -0
vn 0 -1 -0
vn 0 -1 0
vn 0 -1 -0
vn 0 -1 -0
vn 0 -1 -0
vn -0 -1 0
vn -0 -1 0
vn 0 -1 0
vn -0 -1 0
vn -0 -1 0
vn -0 -1 0
vn 0 -1 0
vn 0 -1 0
vn -0 -1 0
vn -0 -1 0
vn 0 -1 0
vn 0 -1 0
vn -0 -1 0
vn -0 -1 -0
vn 0 -1 -0
vn 0 -1 0
vn 0 1 0
vn 0 1 0
vn 0 1 0
vn 0 1 0
vn 0 1 0
vn 0 1 0
vn 0 1 0
vn 0 1 0
vn 0 1 0
vn 0 1 0
vn 0 1 0
vn 0 1 0
vn 0 1 0
vn 0 1 0
vn -0 1 -0
vn -0 1 -0
vn -0 1 -0
vn 0 1 0
vn 0 1 0
vn -0 1 -0
vn -0 1 -0
vn 0 1 0
vn 0 1 0
vn -0 1 -0
vn -0 1 -0
vn 0 1 0
vn 0 1 0
vn -0 1 -0
vn -0 1 -0
vn 0 1 0
vn -0 1 -0
vn -0 1 -0
vn 0 0 1
vn -0 -0 1
vn -0 -0 1
vn -0 -0 1
vn -1 -0 -0
vn -1 -0 0
vn -1 -0 0
vn -1 0 -0
vn -1 0 -0
vn -1 -0 0
vn -1 -0 -0
vn -1 0 -0
vn 0 -0 -1
vn -0 -0 -1
vn -0 0 -1
vn 0 -0 -1
vn 0 -0 -1
vn -0 0 -1
vn -0 0 -1
vn 0 -0 -1
vn 0 -0 -1
vn -0 0 -1
vn -0 0 -1
vn 0 -0 -1
vn 0 -0 -1
vn -0 0 -1
vn -0 0 -1
vn -0 -0 -1
vn 1 -0 -0
vn 1 0 0
vn 1 0 0
vn 1 -0 -0
vn 1 -0 -0
vn 1 0 0
vn 1 -0 -0
vn 1 -0 -0
vn 0 0 1
vn -0 -0 1
vn -0 -0 1
vn 0 0 1
vn 0 0 1
vn -0 -0 1
vn -0 -0 1
vn 0 0 1
vn 0 0 1
vn -0 -0 1
vn -0 -0 1
vn 0 0 1
g 
usemtl /obj/catwalk_lp/texel_density2/uvquickshade1/shop_definition/texture_material
f 1/1/1 2/2/2 4/3/3 3/4/4
f 2/2/5 5/5/6 6/6/7 4/3/8
f 5/5/9 7/7/10 8/8/11 6/6/12
f 7/7/13 9/9/14 10/10/15 8/8/16
f 11/11/17 12/12/18 2/2/19 1/1/20
f 12/12/21 13/13/22 5/5/23 2/2/24
f 13/13/25 14/14/26 7/7/27 5/5/28
f 14/14/29 15/15/30 9/9/31 7/7/32
f 16/16/33 19/17/34 18/18/35 17/19/36
f 17/19/37 18/18/38 21/20/39 20/21/40
f 20/21/41 21/20/42 23/22/43 22/23/44
f 22/23/45 23/22/46 25/24/47 24/25/48
f 26/26/49 16/16/50 17/19/51 27/27/52
f 27/27/53 17/19/54 20/21/55 28/28/56
f 28/28/57 20/21/58 22/23/59 29/29/60
f 29/29/61 22/23/62 24/25/63 30/30/64
f 4/31/65 18/32/66 19/33/67 3/34/68
f 3/35/69 19/36/70 16/37/71 1/38/72
f 1/38/73 16/37/74 26/39/75 11/40/76
f 11/41/77 26/42/78 27/43/79 12/44/80
f 12/44/81 27/43/82 28/45/83 13/46/84
f 13/46/85 28/45/86 29/47/87 14/48/88
f 14/48/89 29/47/90 30/49/91 15/50/92
f 15/51/93 30/52/94 24/53/95 9/54/96
f 9/54/97 24/53/98 25/55/99 10/56/100
f 10/57/101 25/58/102 23/59/103 8/60/104
f 8/60/105 23/59/106 21/61/107 6/62/108
f 6/62/109 21/61/110 18/32/111 4/31/112
