# File exported by Houdini 20.5.584 (www.sidefx.com)
# 18 points
# 64 vertices
# 16 primitives
# Bounds: [0, -0.200000003, -2] to [2, 0, 0]
g 
v 0 -0.200000003 -1
v 1 -0.200000003 -1
v 0 -0.200000003 0
v 1 -0.200000003 0
v 2 -0.200000003 -1
v 2 -0.200000003 0
v 0 -0.200000003 -2
v 1 -0.200000003 -2
v 2 -0.200000003 -2
v 0 0 -1
v 1 0 -1
v 1 0 0
v 0 0 0
v 2 0 -1
v 2 0 0
v 0 0 -2
v 1 0 -2
v 2 0 -2
vt 0.376953125 0.25 0
vt 0.376953125 0.125 0
vt 0.501953125 0.125 0
vt 0.501953125 0.25 0
vt 0.376953125 0 0
vt 0.501953125 2.77555756e-17 0
vt 0.251953125 0.25 0
vt 0.251953125 0.125 0
vt 0.251953125 0 0
vt 0 0.125 0
vt 0 0 0
vt 0.125 0 0
vt 0.125 0.125 0
vt 0.25 0 0
vt 0.25 0.125 0
vt 0 0.25 0
vt 0.125 0.25 0
vt 0.25 0.25 0
vt 0.62890625 0 0
vt 0.62890625 0.0249999762 0
vt 0.50390625 0.0249999762 0
vt 0.50390625 0 0
vt 0.75390625 0.0263671875 0
vt 0.75390625 0.0513671637 0
vt 0.62890625 0.0513671637 0
vt 0.62890625 0.0263671875 0
vt 0.50390625 0.0513671637 0
vt 0.50390625 0.0263671875 0
vt 0.75390625 0.052734375 0
vt 0.75390625 0.0777343512 0
vt 0.62890625 0.0777343512 0
vt 0.62890625 0.052734375 0
vt 0.50390625 0.0777343512 0
vt 0.50390625 0.052734375 0
vt 0.75390625 0.0791015625 0
vt 0.75390625 0.104101539 0
vt 0.62890625 0.104101539 0
vt 0.62890625 0.0791015625 0
vt 0.50390625 0.104101539 0
vt 0.50390625 0.0791015625 0
vt 0.75390625 0 0
vt 0.75390625 0.0249999762 0
vn -0 -1 0
vn 0 -1 0
vn 0 -1 -0
vn -0 -1 -0
vn 0 -1 0
vn 0 -1 -0
vn 0 -1 -0
vn 0 -1 -0
vn -0 -1 0
vn -0 -1 0
vn 0 -1 0
vn -0 -1 0
vn -0 -1 0
vn -0 -1 -0
vn 0 -1 -0
vn 0 -1 0
vn 0 1 0
vn 0 1 0
vn 0 1 0
vn 0 1 0
vn 0 1 0
vn 0 1 0
vn -0 1 -0
vn -0 1 -0
vn -0 1 -0
vn 0 1 0
vn 0 1 0
vn -0 1 -0
vn -0 1 -0
vn 0 1 0
vn -0 1 -0
vn -0 1 -0
vn 0 0 1
vn -0 -0 1
vn -0 -0 1
vn -0 -0 1
vn -1 -0 -0
vn -1 -0 0
vn -1 -0 0
vn -1 0 -0
vn -1 0 -0
vn -1 -0 0
vn -1 -0 -0
vn -1 0 -0
vn 0 -0 -1
vn -0 -0 -1
vn -0 0 -1
vn 0 -0 -1
vn 0 -0 -1
vn -0 0 -1
vn -0 0 -1
vn -0 -0 -1
vn 1 -0 -0
vn 1 0 0
vn 1 0 0
vn 1 -0 -0
vn 1 -0 -0
vn 1 0 0
vn 1 -0 -0
vn 1 -0 -0
vn 0 0 1
vn -0 -0 1
vn -0 -0 1
vn 0 0 1
g 
usemtl /obj/catwalk_lp/texel_density1/uvquickshade1/shop_definition/texture_material
f 1/1/1 2/2/2 4/3/3 3/4/4
f 2/2/5 5/5/6 6/6/7 4/3/8
f 7/7/9 8/8/10 2/2/11 1/1/12
f 8/8/13 9/9/14 5/5/15 2/2/16
f 10/10/17 13/11/18 12/12/19 11/13/20
f 11/13/21 12/12/22 15/14/23 14/15/24
f 16/16/25 10/10/26 11/13/27 17/17/28
f 17/17/29 11/13/30 14/15/31 18/18/32
f 4/19/33 12/20/34 13/21/35 3/22/36
f 3/23/37 13/24/38 10/25/39 1/26/40
f 1/26/41 10/25/42 16/27/43 7/28/44
f 7/29/45 16/30/46 17/31/47 8/32/48
f 8/32/49 17/31/50 18/33/51 9/34/52
f 9/35/53 18/36/54 14/37/55 5/38/56
f 5/38/57 14/37/58 15/39/59 6/40/60
f 6/41/61 15/42/62 12/20/63 4/19/64
