# File exported by Houdini 20.5.584 (www.sidefx.com)
# 27 points
# 64 vertices
# 16 primitives
# Bounds: [0, 0, 0] to [4, 1.29999995, 0]
g 
v 0 0 0
v 0 1.29999995 0
v 1 0 0
v 1 1.29999995 0
v 2 0 0
v 2 1.29999995 0
v 3 0 0
v 3 1.29999995 0
v 4 0 0
v 4 1.29999995 0
v 0.5 0.649999976 0
v 1.5 0.649999976 0
v 2.5 0.649999976 0
v 3.5 0.649999976 0
v 0 0.649999976 0
v 0.5 1.29999995 0
v 1 0.649999976 0
v 0.5 0 0
v 1.5 1.29999995 0
v 2 0.649999976 0
v 1.5 0 0
v 2.5 1.29999995 0
v 3 0.649999976 0
v 2.5 0 0
v 3.5 1.29999995 0
v 4 0.649999976 0
v 3.5 0 0
vt -1.1920929e-07 -3.7252903e-09 0
vt 0.12499994 -3.7252903e-09 0
vt 0.12499994 0.162500024 0
vt -1.1920929e-07 0.162500024 0
vt 0.12499994 0.325000048 0
vt -1.1920929e-07 0.325000048 0
vt 0.25 0.162500024 0
vt 0.25 0.325000048 0
vt 0.25 -3.7252903e-09 0
vt 0.37500003 -3.7252903e-09 0
vt 0.375 0.162500024 0
vt 0.37500003 0.325000048 0
vt 0.50000006 0.162500024 0
vt 0.50000006 0.325000048 0
vt 0.50000006 -3.7252903e-09 0
vt 0.62500006 -3.7252903e-09 0
vt 0.62500006 0.162500024 0
vt 0.62500006 0.325000048 0
vt 0.75000006 0.162500024 0
vt 0.75000006 0.325000048 0
vt 0.75000006 -3.7252903e-09 0
vt 0.875000119 -3.7252903e-09 0
vt 0.875000119 0.162500024 0
vt 0.875000119 0.325000048 0
vt 1.00000012 0.162500024 0
vt 1.00000012 0.325000048 0
vt 1.00000012 -3.7252903e-09 0
vn 0 0 1
vn 0 0 1
vn 0 0 1
vn 0 0 1
vn 0 0 1
vn 0 0 1
vn 0 0 1
vn 0 0 1
vn 0 0 1
vn 0 0 1
vn 0 0 1
vn 0 0 1
vn 0 0 1
vn 0 0 1
vn 0 0 1
vn 0 0 1
vn 0 0 1
vn 0 0 1
vn 0 0 1
vn 0 0 1
vn 0 0 1
vn 0 0 1
vn 0 0 1
vn 0 0 1
vn 0 0 1
vn 0 0 1
vn 0 0 1
vn 0 0 1
vn 0 0 1
vn 0 0 1
vn 0 0 1
vn 0 0 1
vn 0 0 1
vn 0 0 1
vn 0 0 1
vn 0 0 1
vn 0 0 1
vn 0 0 1
vn 0 0 1
vn 0 0 1
vn 0 0 1
vn 0 0 1
vn 0 0 1
vn 0 0 1
vn 0 0 1
vn 0 0 1
vn 0 0 1
vn 0 0 1
vn 0 0 1
vn 0 0 1
vn 0 0 1
vn 0 0 1
vn 0 0 1
vn 0 0 1
vn 0 0 1
vn 0 0 1
vn 0 0 1
vn 0 0 1
vn 0 0 1
vn 0 0 1
vn 0 0 1
vn 0 0 1
vn 0 0 1
vn 0 0 1
g 
f 1/1/1 18/2/2 11/3/3 15/4/4
f 15/4/5 11/3/6 16/5/7 2/6/8
f 11/3/9 17/7/10 4/8/11 16/5/12
f 18/2/13 3/9/14 17/7/15 11/3/16
f 3/9/17 21/10/18 12/11/19 17/7/20
f 17/7/21 12/11/22 19/12/23 4/8/24
f 12/11/25 20/13/26 6/14/27 19/12/28
f 21/10/29 5/15/30 20/13/31 12/11/32
f 5/15/33 24/16/34 13/17/35 20/13/36
f 20/13/37 13/17/38 22/18/39 6/14/40
f 13/17/41 23/19/42 8/20/43 22/18/44
f 24/16/45 7/21/46 23/19/47 13/17/48
f 7/21/49 27/22/50 14/23/51 23/19/52
f 23/19/53 14/23/54 25/24/55 8/20/56
f 14/23/57 26/25/58 10/26/59 25/24/60
f 27/22/61 9/27/62 26/25/63 14/23/64
