# File exported by Houdini 20.5.584 (www.sidefx.com)
# 208 points
# 728 vertices
# 171 primitives
# Bounds: [-0.361477822, -0.449100375, -0.392826617] to [0.361477822, 0.445231736, 0.392826617]
g 
v -0.357777417 -0.178571165 0.220263094
v -0.224495739 -0.178571165 0.353544772
v -0.224495739 0.33378011 0.353544772
v -0.357777417 0.33378011 0.220263094
v 0.357777417 0.33378011 0.220263094
v 0.224495739 0.33378011 0.353544772
v 0.224495739 -0.178571165 0.353544772
v 0.357777417 -0.178571165 0.220263094
v 0.357777417 -0.178571165 -0.220263094
v 0.224495739 -0.178571165 -0.353544772
v 0.224495739 0.33378011 -0.353544772
v 0.357777417 0.33378011 -0.220263094
v -0.357777417 0.33378011 -0.220263094
v -0.224495739 0.33378011 -0.353544772
v -0.224495739 -0.178571165 -0.353544772
v -0.357777417 -0.178571165 -0.220263094
v 0.237777412 -0.346748084 -0.170557469
v 0.174790114 -0.346748084 -0.233544767
v -0.174790114 -0.346748084 -0.233544767
v -0.237777412 -0.346748084 -0.170557469
v -0.237777412 -0.346748084 0.170557469
v -0.174790114 -0.346748084 0.233544767
v 0.174790114 -0.346748084 0.233544767
v 0.237777412 -0.346748084 0.170557469
v -0.15925926 -0.449100375 0.0771760792
v -0.0771760792 -0.449100375 0.15925926
v -0.104187705 -0.332147956 0.214999989
v -0.214999989 -0.332147956 0.104187705
v 0.214999989 -0.332147956 0.104187705
v 0.104187705 -0.332147956 0.214999989
v 0.0771760792 -0.449100375 0.15925926
v 0.15925926 -0.449100375 0.0771760792
v 0.15925926 -0.449100375 -0.0771760792
v 0.0771760792 -0.449100375 -0.15925926
v 0.104187705 -0.332147956 -0.214999989
v 0.214999989 -0.332147956 -0.104187705
v -0.214999989 -0.332147956 -0.104187705
v -0.104187705 -0.332147956 -0.214999989
v -0.0771760792 -0.449100375 -0.15925926
v -0.15925926 -0.449100375 -0.0771760792
v -0.214999989 -0.390624166 -0.104187705
v -0.214999989 -0.390624166 0.104187705
v -0.104187705 -0.390624166 0.214999989
v 0.104187705 -0.390624166 0.214999989
v 0.214999989 -0.390624166 0.104187705
v 0.214999989 -0.390624166 -0.104187705
v 0.104187705 -0.390624166 -0.214999989
v -0.104187705 -0.390624166 -0.214999989
v 0.154495746 -0.108571164 0.353544772
v -0.154495746 -0.108571164 0.353544772
v -0.154495746 0.263780117 0.353544772
v 0.154495746 0.263780117 0.353544772
v -0.154495746 -0.108571164 -0.353544772
v 0.154495746 -0.108571164 -0.353544772
v 0.154495746 0.263780117 -0.353544772
v -0.154495746 0.263780117 -0.353544772
v 0.154495746 -0.108571164 0.373544782
v -0.154495746 -0.108571164 0.373544782
v -0.154495746 0.263780117 0.373544782
v 0.154495746 0.263780117 0.373544782
v -0.154495746 -0.108571164 -0.373544782
v 0.154495746 -0.108571164 -0.373544782
v 0.154495746 0.263780117 -0.373544782
v -0.154495746 0.263780117 -0.373544782
v 0.357777417 -0.0825022608 -0.110263094
v 0.357777417 -0.0825022608 0.110263094
v 0.357777417 0.182568386 0.110263094
v 0.357777417 0.182568386 -0.110263094
v -0.357777417 -0.0825022608 0.110263094
v -0.357777417 -0.0825022608 -0.110263094
v -0.357777417 0.182568386 -0.110263094
v -0.357777417 0.182568386 0.110263094
v 0.348255455 -0.0825022608 -0.110263094
v 0.348255455 -0.0825022608 0.110263094
v 0.348255455 0.182568386 0.110263094
v 0.348255455 0.182568386 -0.110263094
v -0.348255455 -0.0825022608 0.110263094
v -0.348255455 -0.0825022608 -0.110263094
v -0.348255455 0.182568386 -0.110263094
v -0.348255455 0.182568386 0.110263094
v -0.361477822 0.337379009 -0.136734873
v -0.262513578 0.337379009 -0.0377706178
v -0.262513578 0.445231736 -0.0377706178
v -0.361477822 0.445231736 -0.136734873
v -0.00642256998 0.445231736 -0.136734873
v -0.105386823 0.445231736 -0.0377706178
v -0.105386823 0.337379009 -0.0377706178
v -0.00642256998 0.337379009 -0.136734873
v -0.00642256998 0.337379009 -0.293862373
v -0.105386823 0.337379009 -0.392826617
v -0.105386823 0.445231736 -0.392826617
v -0.00642256998 0.445231736 -0.293862373
v -0.361477822 0.445231736 -0.293862373
v -0.262513578 0.445231736 -0.392826617
v -0.262513578 0.337379009 -0.392826617
v -0.361477822 0.337379009 -0.293862373
v -0.32147783 0.445231736 -0.277293831
v -0.245945036 0.445231736 -0.352826625
v -0.121955365 0.445231736 -0.352826625
v -0.0464225709 0.445231736 -0.277293831
v -0.0464225635 0.445231736 -0.153303415
v -0.121955365 0.445231736 -0.0777706131
v -0.245945036 0.445231736 -0.0777706131
v -0.32147783 0.445231736 -0.153303415
v -0.32147783 0.424414992 -0.277293831
v -0.245945036 0.424414992 -0.352826625
v -0.121955365 0.424414992 -0.352826625
v -0.0464225709 0.424414992 -0.277293831
v -0.0464225635 0.424414992 -0.153303415
v -0.121955365 0.424414992 -0.0777706131
v -0.245945036 0.424414992 -0.0777706131
v -0.32147783 0.424414992 -0.153303415
v 0.361477822 0.337379009 -0.136734873
v 0.262513578 0.337379009 -0.0377706178
v 0.262513578 0.445231736 -0.0377706178
v 0.361477822 0.445231736 -0.136734873
v 0.00642256998 0.445231736 -0.136734873
v 0.105386823 0.445231736 -0.0377706178
v 0.105386823 0.337379009 -0.0377706178
v 0.00642256998 0.337379009 -0.136734873
v 0.00642256998 0.337379009 -0.293862373
v 0.105386823 0.337379009 -0.392826617
v 0.105386823 0.445231736 -0.392826617
v 0.00642256998 0.445231736 -0.293862373
v 0.361477822 0.445231736 -0.293862373
v 0.262513578 0.445231736 -0.392826617
v 0.262513578 0.337379009 -0.392826617
v 0.361477822 0.337379009 -0.293862373
v 0.32147783 0.445231736 -0.277293831
v 0.245945036 0.445231736 -0.352826625
v 0.121955365 0.445231736 -0.352826625
v 0.0464225709 0.445231736 -0.277293831
v 0.0464225635 0.445231736 -0.153303415
v 0.121955365 0.445231736 -0.0777706131
v 0.245945036 0.445231736 -0.0777706131
v 0.32147783 0.445231736 -0.153303415
v 0.32147783 0.424414992 -0.277293831
v 0.245945036 0.424414992 -0.352826625
v 0.121955365 0.424414992 -0.352826625
v 0.0464225709 0.424414992 -0.277293831
v 0.0464225635 0.424414992 -0.153303415
v 0.121955365 0.424414992 -0.0777706131
v 0.245945036 0.424414992 -0.0777706131
v 0.32147783 0.424414992 -0.153303415
v -0.361477822 0.337379009 0.136734873
v -0.262513578 0.337379009 0.0377706178
v -0.262513578 0.445231736 0.0377706178
v -0.361477822 0.445231736 0.136734873
v -0.00642256998 0.445231736 0.136734873
v -0.105386823 0.445231736 0.0377706178
v -0.105386823 0.337379009 0.0377706178
v -0.00642256998 0.337379009 0.136734873
v -0.00642256998 0.337379009 0.293862373
v -0.105386823 0.337379009 0.392826617
v -0.105386823 0.445231736 0.392826617
v -0.00642256998 0.445231736 0.293862373
v -0.361477822 0.445231736 0.293862373
v -0.262513578 0.445231736 0.392826617
v -0.262513578 0.337379009 0.392826617
v -0.361477822 0.337379009 0.293862373
v -0.32147783 0.445231736 0.277293831
v -0.245945036 0.445231736 0.352826625
v -0.121955365 0.445231736 0.352826625
v -0.0464225709 0.445231736 0.277293831
v -0.0464225635 0.445231736 0.153303415
v -0.121955365 0.445231736 0.0777706131
v -0.245945036 0.445231736 0.0777706131
v -0.32147783 0.445231736 0.153303415
v -0.32147783 0.424414992 0.277293831
v -0.245945036 0.424414992 0.352826625
v -0.121955365 0.424414992 0.352826625
v -0.0464225709 0.424414992 0.277293831
v -0.0464225635 0.424414992 0.153303415
v -0.121955365 0.424414992 0.0777706131
v -0.245945036 0.424414992 0.0777706131
v -0.32147783 0.424414992 0.153303415
v 0.361477822 0.337379009 0.136734873
v 0.262513578 0.337379009 0.0377706178
v 0.262513578 0.445231736 0.0377706178
v 0.361477822 0.445231736 0.136734873
v 0.00642256998 0.445231736 0.136734873
v 0.105386823 0.445231736 0.0377706178
v 0.105386823 0.337379009 0.0377706178
v 0.00642256998 0.337379009 0.136734873
v 0.00642256998 0.337379009 0.293862373
v 0.105386823 0.337379009 0.392826617
v 0.105386823 0.445231736 0.392826617
v 0.00642256998 0.445231736 0.293862373
v 0.361477822 0.445231736 0.293862373
v 0.262513578 0.445231736 0.392826617
v 0.262513578 0.337379009 0.392826617
v 0.361477822 0.337379009 0.293862373
v 0.32147783 0.445231736 0.277293831
v 0.245945036 0.445231736 0.352826625
v 0.121955365 0.445231736 0.352826625
v 0.0464225709 0.445231736 0.277293831
v 0.0464225635 0.445231736 0.153303415
v 0.121955365 0.445231736 0.0777706131
v 0.245945036 0.445231736 0.0777706131
v 0.32147783 0.445231736 0.153303415
v 0.32147783 0.424414992 0.277293831
v 0.245945036 0.424414992 0.352826625
v 0.121955365 0.424414992 0.352826625
v 0.0464225709 0.424414992 0.277293831
v 0.0464225635 0.424414992 0.153303415
v 0.121955365 0.424414992 0.0777706131
v 0.245945036 0.424414992 0.0777706131
v 0.32147783 0.424414992 0.153303415
vt 0.639951885 0.30078125 0
vt 0.818481684 0.30078125 0
vt 0.872496068 0.354795665 0
vt 0.872496128 0.536756098 0
vt 0.818481743 0.590770543 0
vt 0.639951944 0.590770543 0
vt 0.58593756 0.536756158 0
vt 0.5859375 0.354795635 0
vt 0.0925458968 0.440497249 0
vt 0.100123622 0.364257812 0
vt 0.307259262 0.385104537 0
vt 0.294915944 0.458156884 0
vt 0.832009614 0.213058129 0
vt 0.757069826 0.205864966 0
vt 0.756738365 0 0
vt 0.834946573 0.000795817177 0
vt 0.993220091 0.763037801 0
vt 0.996471465 0.839583874 0
vt 0.788466275 0.848161578 0
vt 0.790382326 0.774098516 0
vt 0.325574815 0.178617835 0
vt 0.400534719 0.185597569 0
vt 0.401452363 0.391460806 0
vt 0.323242188 0.390887648 0
vt 0.25361222 0.282569438 0
vt 0.115370296 0.282569438 0
vt 0.08984375 0.257042885 0
vt 0.08984375 0.115370303 0
vt 0.115370303 0.08984375 0
vt 0.25361222 0.0898437724 0
vt 0.279138774 0.115370281 0
vt 0.279138774 0.257042885 0
vt 0.701773107 0.8145051 0
vt 0.707004547 0.775868475 0
vt 0.6796875 0.635353625 0
vt 0.758954823 0.59941119 0
vt 0.367854714 0.0922490433 0
vt 0.407209843 0.101066433 0
vt 0.549990177 0.08984375 0
vt 0.577016294 0.175032616 0
vt 0.388338566 0.43065232 0
vt 0.377709836 0.468164831 0
vt 0.384934515 0.611127913 0
vt 0.301390052 0.635530591 0
vt 0.789483964 0.299306184 0
vt 0.750154078 0.290376753 0
vt 0.607342362 0.301192909 0
vt 0.580558896 0.215927407 0
vt 0.993342221 0.877992034 0
vt 0.993342221 0.940545499 0
vt 0.960076749 0.973810911 0
vt 0.897523284 0.973810911 0
vt 0.864257812 0.940545499 0
vt 0.864257872 0.877991974 0
vt 0.897523284 0.844726562 0
vt 0.960076809 0.844726562 0
vt 0.0344868824 0.54884392 0
vt 0.038075041 0.631628931 0
vt 0.0139815407 0.632363617 0
vt 0.01171875 0.54654479 0
vt 0.0675259829 0.554968953 0
vt 0.0708830953 0.618771195 0
vt 0.806952119 0.655699074 0
vt 0.868174434 0.663119376 0
vt 0.869827092 0.685943544 0
vt 0.8046875 0.680005193 0
vt 0.820239007 0.622522354 0
vt 0.868523479 0.629519165 0
vt 0.949107528 0.64534086 0
vt 0.95397675 0.66894865 0
vt 0.930796623 0.615234375 0
vt 0.922967196 0.140921786 0
vt 0.943755567 0.0828607678 0
vt 0.966379285 0.0863014907 0
vt 0.946169078 0.14851059 0
vt 0.893554688 0.120620519 0
vt 0.911066115 0.0750826746 0
vt 0.944333315 0 0
vt 0.968433321 0.000477350346 0
vt 0.910920382 0.0111923097 0
vt 0.26214084 0.564668775 0
vt 0.202439606 0.549209237 0
vt 0.203822985 0.526367188 0
vt 0.267603099 0.540876389 0
vt 0.244578913 0.595794618 0
vt 0.19764562 0.582467556 0
vt 0.119865254 0.556117415 0
vt 0.118164062 0.532072783 0
vt 0.134029552 0.5883829 0
vt 0.0523303412 0.489811331 0
vt 0.0287763197 0.483398438 0
vt 0.0827261657 0.50860846 0
vt 0.272213489 0.606904805 0
vt 0.266741455 0.484740108 0
vt 0.119265929 0.471266925 0
vt 0.1145937 0.602282584 0
vt 0.083984375 0.630989671 0
vt 0.791877329 0.62363553 0
vt 0.814525664 0.743807077 0
vt 0.962427199 0.736344516 0
vt 0.948573291 0.605979681 0
vt 0.974827528 0.573242188 0
vt 0.548654795 0.525906801 0
vt 0.397753865 0.52590692 0
vt 0.397753716 0.400683522 0
vt 0.548654675 0.400683403 0
vt 0.396777213 0.543261588 0
vt 0.547678173 0.543261588 0
vt 0.547678113 0.668485045 0
vt 0.396777183 0.668484986 0
vt 0.556760013 0.525906861 0
vt 0.556759953 0.400683433 0
vt 0.548654616 0.392578125 0
vt 0.397753745 0.392578244 0
vt 0.389648438 0.400683522 0
vt 0.389648497 0.52590692 0
vt 0.397753805 0.534012258 0
vt 0.548654735 0.534012139 0
vt 0.388671935 0.543261528 0
vt 0.388671875 0.668484926 0
vt 0.396777183 0.676590264 0
vt 0.547678113 0.676590264 0
vt 0.555783451 0.668485045 0
vt 0.55578351 0.543261588 0
vt 0.547678173 0.53515631 0
vt 0.396777242 0.53515625 0
vt 0.62383604 0.173692763 0
vt 0.712269664 0.168991074 0
vt 0.711429179 0.0625670552 0
vt 0.620649159 0.0649754182 0
vt 0.573242188 0.00351958908 0
vt 0.533859551 0.217390299 0
vt 0.445439726 0.222343758 0
vt 0.446583182 0.328764975 0
vt 0.537355959 0.326098144 0
vt 0.584937751 0.387418747 0
vt 0.62583524 0.171799049 0
vt 0.622808337 0.0667023212 0
vt 0.709331989 0.0643675029 0
vt 0.710195661 0.167348787 0
vt 0.531865776 0.219289705 0
vt 0.535191894 0.324377388 0
vt 0.448675275 0.326958537 0
vt 0.447518378 0.223980159 0
vt 0.0449219234 0.0567195266 0
vt 0.0886308625 0.056719549 0
vt 0.0886309296 0.120397486 0
vt 0.0449220054 0.120397508 0
vt 0.0449221209 0.297514737 0
vt 0.0886310041 0.297514737 0
vt 0.0886311159 0.361192673 0
vt 0.0449221097 0.361192733 0
vt 0.138671875 0.842066228 0
vt 0.138671875 0.778387964 0
vt 0.178778619 0.73828125 0
vt 0.24245657 0.73828125 0
vt 0.282563299 0.778387964 0
vt 0.282563359 0.842066228 0
vt 0.2424566 0.882173002 0
vt 0.178778619 0.882173002 0
vt 0.0449221805 0.417912155 0
vt 0.0886311084 0.417912155 0
vt 0.0886311978 0.48159045 0
vt 0.0449222736 0.48159048 0
vt 0.0449220724 0.177117035 0
vt 0.0886309594 0.17711693 0
vt 0.0886309817 0.240795195 0
vt 0.0449220873 0.240795299 0
vt 0.044921875 3.67514659e-08 0
vt 0.0886308402 0 0
vt 0.009765625 0.760034978 0
vt 0.025976222 0.753320336 0
vt 0.0565870032 0.783931136 0
vt 0.049872376 0.800141692 0
vt 0.106835678 0.783931136 0
vt 0.113550305 0.800141752 0
vt 0.137446478 0.753320396 0
vt 0.153657094 0.760035038 0
vt 0.137446508 0.703071415 0
vt 0.153657109 0.696356773 0
vt 0.106835723 0.672460616 0
vt 0.113550395 0.65625 0
vt 0.0565870479 0.672460616 0
vt 0.0498724207 0.65625 0
vt 0.0259762481 0.703071356 0
vt 0.0097656399 0.696356714 0
vt 0.884765625 0.435351968 0
vt 0.884765625 0.385102987 0
vt 0.915376365 0.354492188 0
vt 0.965625048 0.354492188 0
vt 0.996235847 0.385102987 0
vt 0.996235847 0.435351938 0
vt 0.965625048 0.465962768 0
vt 0.915376425 0.465962768 0
vt 0.874023616 0.187078163 0
vt 0.882459879 0.187078178 0
vt 0.882459879 0.230368376 0
vt 0.874023557 0.230368376 0
vt 0.882459819 0.280617088 0
vt 0.874023497 0.280617088 0
vt 0.88245976 0.323907316 0
vt 0.874023497 0.323907316 0
vt 0.88245976 0.374156326 0
vt 0.874023438 0.374156326 0
vt 0.874023736 0 0
vt 0.882460058 1.47328683e-08 0
vt 0.882459939 0.0432902575 0
vt 0.874023676 0.0432902239 0
vt 0.882459939 0.0935389623 0
vt 0.874023616 0.0935389474 0
vt 0.882459939 0.136829183 0
vt 0.874023616 0.136829168 0
vt 0.514714718 0.0437090173 0
vt 0.451036692 0.0437090546 0
vt 0.451036721 1.60396013e-07 0
vt 0.514714658 8.61951293e-08 0
vt 0.273919433 0.0437092967 0
vt 0.210241511 0.0437094085 0
vt 0.210241362 4.43841799e-07 0
vt 0.273919463 3.99498305e-07 0
vt 0.0401067436 0.955414891 0
vt 0 0.915308177 0
vt 0 0.851630211 0
vt 0.0401067436 0.811523438 0
vt 0.103785001 0.811523438 0
vt 0.143891737 0.851630211 0
vt 0.143891737 0.915308118 0
vt 0.103785001 0.955414891 0
vt 0.153521985 0.0437094644 0
vt 0.0898438171 0.0437095724 0
vt 0.08984375 6.40270571e-07 0
vt 0.153522015 5.28821431e-07 0
vt 0.39431724 0.0437091365 0
vt 0.330638975 0.0437092483 0
vt 0.330638975 2.95894523e-07 0
vt 0.39431718 2.06813965e-07 0
vt 0.5714342 0 0
vt 0.5714342 0.043708913 0
vt 0.309637934 0.800141454 0
vt 0.26953125 0.76003468 0
vt 0.285741836 0.753320038 0
vt 0.316352606 0.783930838 0
vt 0.26953131 0.696356714 0
vt 0.285741866 0.703071356 0
vt 0.309638083 0.65625 0
vt 0.316352665 0.672460556 0
vt 0.373316318 0.65625006 0
vt 0.366601676 0.672460616 0
vt 0.413423061 0.696356833 0
vt 0.397212446 0.703071475 0
vt 0.413423032 0.76003474 0
vt 0.397212416 0.753320098 0
vt 0.373316258 0.800141513 0
vt 0.366601586 0.783930898 0
vt 0.18490769 0.995259345 0
vt 0.154296875 0.964648545 0
vt 0.154296875 0.914399862 0
vt 0.184907705 0.883789062 0
vt 0.235156626 0.883789062 0
vt 0.265767425 0.914399862 0
vt 0.265767425 0.964648485 0
vt 0.235156655 0.995259345 0
vt 0.197820291 0.654921055 0
vt 0.154530033 0.654920995 0
vt 0.154530048 0.646484673 0
vt 0.197820276 0.646484792 0
vt 0.104281366 0.654920936 0
vt 0.104281373 0.646484613 0
vt 0.0609911345 0.654920816 0
vt 0.0609911457 0.646484494 0
vt 0.0107421875 0.654920697 0
vt 0.0107422145 0.646484375 0
vt 0.384898305 0.654921472 0
vt 0.341608107 0.654921412 0
vt 0.341608137 0.64648509 0
vt 0.384898335 0.646485209 0
vt 0.291359454 0.654921293 0
vt 0.291359425 0.646484971 0
vt 0.248069212 0.654921174 0
vt 0.248069271 0.646484911 0
vt 0.514714599 0.0886308029 0
vt 0.451036632 0.0886308253 0
vt 0.451036662 0.044921875 0
vt 0.514714599 0.0449218825 0
vt 0.273919404 0.0886308402 0
vt 0.210241467 0.0886308923 0
vt 0.210241362 0.0449219309 0
vt 0.273919404 0.0449219309 0
vt 0.320380241 0.951508641 0
vt 0.280273497 0.911401987 0
vt 0.280273438 0.84772402 0
vt 0.320380181 0.807617247 0
vt 0.384058416 0.807617188 0
vt 0.424165189 0.847723901 0
vt 0.424165249 0.911401868 0
vt 0.384058505 0.951508641 0
vt 0.15352194 0.0886308774 0
vt 0.0898437724 0.0886309221 0
vt 0.08984375 0.0449219942 0
vt 0.153522015 0.0449219495 0
vt 0.39431718 0.0886308476 0
vt 0.330638945 0.0886308551 0
vt 0.330638945 0.0449219458 0
vt 0.39431718 0.0449218825 0
vt 0.57143414 0.0449218862 0
vt 0.57143414 0.0886307955 0
vt 0.583075523 0.788422704 0
vt 0.54296875 0.74831593 0
vt 0.559179366 0.741601348 0
vt 0.589790165 0.772212088 0
vt 0.54296875 0.684638023 0
vt 0.559179366 0.691352665 0
vt 0.583075523 0.64453125 0
vt 0.589790165 0.660741866 0
vt 0.646753788 0.64453125 0
vt 0.640039146 0.660741866 0
vt 0.686860502 0.684638023 0
vt 0.670649946 0.691352665 0
vt 0.686860502 0.74831599 0
vt 0.670649946 0.741601288 0
vt 0.646753788 0.788422704 0
vt 0.640039146 0.772212088 0
vt 0.457368672 0.982564092 0
vt 0.426757872 0.951953292 0
vt 0.426757812 0.901704669 0
vt 0.457368553 0.87109381 0
vt 0.507617533 0.87109375 0
vt 0.538228333 0.90170449 0
vt 0.538228393 0.951953173 0
vt 0.507617652 0.982563972 0
vt 0.198796853 0.645155311 0
vt 0.155506611 0.645155251 0
vt 0.155506611 0.636718988 0
vt 0.198796809 0.636719048 0
vt 0.105257921 0.645155191 0
vt 0.105257921 0.636718929 0
vt 0.0619677044 0.645155132 0
vt 0.0619677193 0.63671881 0
vt 0.01171875 0.645155072 0
vt 0.0117187556 0.63671875 0
vt 0.385874927 0.645155668 0
vt 0.34258467 0.645155549 0
vt 0.342584729 0.636719286 0
vt 0.385874838 0.636719346 0
vt 0.292335987 0.645155489 0
vt 0.292335957 0.636719227 0
vt 0.249045759 0.64515543 0
vt 0.249045819 0.636719108 0
vt 2.04550545e-08 0.0567194894 0
vt 0.0437089615 0.0567195378 0
vt 0.0437089875 0.120397486 0
vt 6.35521289e-08 0.120397471 0
vt 5.38658895e-08 0.297514707 0
vt 0.0437089354 0.297514737 0
vt 0.0437090211 0.361192703 0
vt 0 0.361192673 0
vt 0.569335938 0.893824041 0
vt 0.569335938 0.830145836 0
vt 0.609442651 0.790039062 0
vt 0.673120618 0.790039062 0
vt 0.713227391 0.830145776 0
vt 0.713227391 0.893824041 0
vt 0.673120677 0.933930814 0
vt 0.609442711 0.933930814 0
vt 4.94180412e-08 0.417912155 0
vt 0.0437089726 0.417912155 0
vt 0.0437090173 0.48159048 0
vt 9.50445056e-08 0.48159048 0
vt 9.06017235e-08 0.177117005 0
vt 0.0437089801 0.17711693 0
vt 0.0437089503 0.240795195 0
vt 6.16336706e-08 0.240795255 0
vt 1.08141522e-08 0 0
vt 0.0437089317 1.10147358e-08 0
vt 0.411132872 0.829371035 0
vt 0.427343458 0.822656333 0
vt 0.457954288 0.853267133 0
vt 0.451239645 0.869477689 0
vt 0.50820291 0.853267074 0
vt 0.514917612 0.869477689 0
vt 0.53881371 0.822656274 0
vt 0.555024326 0.829370916 0
vt 0.53881371 0.772407293 0
vt 0.555024266 0.765692651 0
vt 0.508202851 0.741796494 0
vt 0.514917552 0.725585938 0
vt 0.457954228 0.741796553 0
vt 0.451239586 0.725585938 0
vt 0.427343428 0.772407353 0
vt 0.411132812 0.765692711 0
vt 0.750976562 0.930469096 0
vt 0.750976622 0.880220115 0
vt 0.781587481 0.849609375 0
vt 0.831836104 0.849609435 0
vt 0.862446904 0.880220234 0
vt 0.862446845 0.930469215 0
vt 0.831835985 0.961079955 0
vt 0.781587303 0.961079895 0
vt 0.883789241 0.187078103 0
vt 0.892225564 0.187078118 0
vt 0.892225504 0.230368316 0
vt 0.883789241 0.230368286 0
vt 0.892225444 0.280617028 0
vt 0.883789182 0.280616999 0
vt 0.892225385 0.323907256 0
vt 0.883789122 0.323907197 0
vt 0.892225325 0.374156207 0
vt 0.883789062 0.374156237 0
vt 0.88378942 6.90352886e-10 0
vt 0.892225742 0 0
vt 0.892225683 0.0432902612 0
vt 0.883789361 0.0432902463 0
vt 0.892225623 0.0935389176 0
vt 0.883789301 0.0935388952 0
vt 0.892225564 0.136829108 0
vt 0.883789301 0.136829123 0
vn -0.717283547 0.630262494 -0.297108561
vn -0.717283547 0.630262494 0.297108561
vn -0.297108561 0.630262494 0.717283547
vn 0.297108561 0.630262494 0.717283547
vn 0.717283547 0.630262494 0.297108561
vn 0.717283547 0.630262494 -0.297108561
vn 0.297108561 0.630262494 -0.717283547
vn -0.297108561 0.630262494 -0.717283547
vn -0.297108561 0.630262494 0.717283547
vn -0.717283547 0.630262494 0.297108561
vn -0.880998313 -0.301121831 0.364921421
vn -0.364921421 -0.301121831 0.880998313
vn 0.364921421 -0.301121831 0.880998313
vn 0.880998313 -0.301121831 0.364921421
vn 0.717283547 0.630262494 0.297108561
vn 0.297108561 0.630262494 0.717283547
vn 0.297108561 0.630262494 -0.717283547
vn 0.717283547 0.630262494 -0.297108561
vn 0.880998313 -0.301121831 -0.364921421
vn 0.364921421 -0.301121831 -0.880998313
vn -0.364921421 -0.301121831 -0.880998313
vn -0.880998313 -0.301121831 -0.364921421
vn -0.717283547 0.630262494 -0.297108561
vn -0.297108561 0.630262494 -0.717283547
vn 0.481133133 -0.853694141 -0.199291855
vn 0.481133133 -0.853694141 0.199291855
vn 0.199291855 -0.853694141 0.481133133
vn -0.199291855 -0.853694141 0.481133133
vn -0.481133133 -0.853694141 0.199291855
vn -0.481133133 -0.853694141 -0.199291855
vn -0.199291855 -0.853694141 -0.481133133
vn 0.199291855 -0.853694141 -0.481133133
vn 0.880998313 -0.301121831 -0.364921421
vn 0.481133133 -0.853694141 -0.199291855
vn 0.199291855 -0.853694141 -0.481133133
vn 0.364921421 -0.301121831 -0.880998313
vn 0.364921421 -0.301121831 -0.880998313
vn 0.199291855 -0.853694141 -0.481133133
vn -0.199291855 -0.853694141 -0.481133133
vn -0.364921421 -0.301121831 -0.880998313
vn -0.364921421 -0.301121831 -0.880998313
vn -0.199291855 -0.853694141 -0.481133133
vn -0.481133133 -0.853694141 -0.199291855
vn -0.880998313 -0.301121831 -0.364921421
vn -0.880998313 -0.301121831 -0.364921421
vn -0.481133133 -0.853694141 -0.199291855
vn -0.481133133 -0.853694141 0.199291855
vn -0.880998313 -0.301121831 0.364921421
vn -0.880998313 -0.301121831 0.364921421
vn -0.481133133 -0.853694141 0.199291855
vn -0.199291855 -0.853694141 0.481133133
vn -0.364921421 -0.301121831 0.880998313
vn -0.364921421 -0.301121831 0.880998313
vn -0.199291855 -0.853694141 0.481133133
vn 0.199291855 -0.853694141 0.481133133
vn 0.364921421 -0.301121831 0.880998313
vn 0.364921421 -0.301121831 0.880998313
vn 0.199291855 -0.853694141 0.481133133
vn 0.481133133 -0.853694141 0.199291855
vn 0.880998313 -0.301121831 0.364921421
vn 0.880998313 -0.301121831 0.364921421
vn 0.481133133 -0.853694141 0.199291855
vn 0.481133133 -0.853694141 -0.199291855
vn 0.880998313 -0.301121831 -0.364921421
vn 0.412507832 -0.896049619 -0.164111003
vn 0.412507832 -0.896049619 0.164111003
vn 0.164111003 -0.896049619 0.412507832
vn -0.164111003 -0.896049619 0.412507832
vn -0.412507832 -0.896049619 0.164111003
vn -0.412507832 -0.896049619 -0.164111003
vn -0.164111003 -0.896049619 -0.412507832
vn 0.164111003 -0.896049619 -0.412507832
vn -0.859284699 -0.364345878 -0.359001338
vn -0.859284699 -0.364345878 0.359001338
vn -0.923879504 -0 0.382683426
vn -0.923879504 -0 -0.382683426
vn -0.859284699 -0.364345878 0.359001338
vn -0.859284699 -0.364345878 -0.359001338
vn -0.412507832 -0.896049619 -0.164111003
vn -0.412507832 -0.896049619 0.164111003
vn -0.859284699 -0.364345878 0.359001338
vn -0.359001309 -0.364345849 0.859284639
vn -0.382683426 -0 0.923879504
vn -0.923879504 -0 0.382683426
vn -0.359001309 -0.364345849 0.859284639
vn -0.859284699 -0.364345878 0.359001338
vn -0.412507832 -0.896049619 0.164111003
vn -0.164111003 -0.896049619 0.412507832
vn -0.359001309 -0.364345849 0.859284639
vn 0.359001309 -0.364345849 0.859284639
vn 0.382683426 -0 0.923879504
vn -0.382683426 -0 0.923879504
vn 0.359001309 -0.364345849 0.859284639
vn -0.359001309 -0.364345849 0.859284639
vn -0.164111003 -0.896049619 0.412507832
vn 0.164111003 -0.896049619 0.412507832
vn 0.359001309 -0.364345849 0.859284639
vn 0.859284699 -0.364345878 0.359001338
vn 0.923879504 0 0.382683426
vn 0.382683426 -0 0.923879504
vn 0.859284699 -0.364345878 0.359001338
vn 0.359001309 -0.364345849 0.859284639
vn 0.164111003 -0.896049619 0.412507832
vn 0.412507832 -0.896049619 0.164111003
vn 0.859284699 -0.364345878 0.359001338
vn 0.859284699 -0.364345878 -0.359001338
vn 0.923879504 0 -0.382683426
vn 0.923879504 0 0.382683426
vn 0.859284699 -0.364345878 -0.359001338
vn 0.859284699 -0.364345878 0.359001338
vn 0.412507832 -0.896049619 0.164111003
vn 0.412507832 -0.896049619 -0.164111003
vn 0.859284699 -0.364345878 -0.359001338
vn 0.359001309 -0.364345849 -0.859284639
vn 0.382683426 0 -0.923879504
vn 0.923879504 0 -0.382683426
vn 0.359001309 -0.364345849 -0.859284639
vn 0.859284699 -0.364345878 -0.359001338
vn 0.412507832 -0.896049619 -0.164111003
vn 0.164111003 -0.896049619 -0.412507832
vn 0.359001309 -0.364345849 -0.859284639
vn -0.359001309 -0.364345849 -0.859284639
vn -0.382683426 0 -0.923879504
vn 0.382683426 0 -0.923879504
vn -0.359001309 -0.364345849 -0.859284639
vn 0.359001309 -0.364345849 -0.859284639
vn 0.164111003 -0.896049619 -0.412507832
vn -0.164111003 -0.896049619 -0.412507832
vn -0.359001309 -0.364345849 -0.859284639
vn -0.859284699 -0.364345878 -0.359001338
vn -0.923879504 -0 -0.382683426
vn -0.382683426 0 -0.923879504
vn -0.859284699 -0.364345878 -0.359001338
vn -0.359001309 -0.364345849 -0.859284639
vn -0.164111003 -0.896049619 -0.412507832
vn -0.412507832 -0.896049619 -0.164111003
vn 0.364921421 -0.301121831 0.880998313
vn 0.301511347 -0.301511347 0.904534042
vn -0.301511347 -0.301511347 0.904534042
vn -0.364921421 -0.301121831 0.880998313
vn -0.364921421 -0.301121831 0.880998313
vn -0.301511347 -0.301511347 0.904534042
vn -0.301511347 0.301511347 0.904534042
vn -0.297108561 0.630262494 0.717283547
vn -0.297108561 0.630262494 0.717283547
vn -0.301511347 0.301511347 0.904534042
vn 0.301511347 0.301511347 0.904534042
vn 0.297108561 0.630262494 0.717283547
vn 0.297108561 0.630262494 0.717283547
vn 0.301511347 0.301511347 0.904534042
vn 0.301511347 -0.301511347 0.904534042
vn 0.364921421 -0.301121831 0.880998313
vn -0.364921421 -0.301121831 -0.880998313
vn -0.301511347 -0.301511347 -0.904534042
vn 0.301511347 -0.301511347 -0.904534042
vn 0.364921421 -0.301121831 -0.880998313
vn 0.364921421 -0.301121831 -0.880998313
vn 0.301511347 -0.301511347 -0.904534042
vn 0.301511347 0.301511347 -0.904534042
vn 0.297108561 0.630262494 -0.717283547
vn 0.297108561 0.630262494 -0.717283547
vn 0.301511347 0.301511347 -0.904534042
vn -0.301511347 0.301511347 -0.904534042
vn -0.297108561 0.630262494 -0.717283547
vn -0.297108561 0.630262494 -0.717283547
vn -0.301511347 0.301511347 -0.904534042
vn -0.301511347 -0.301511347 -0.904534042
vn -0.364921421 -0.301121831 -0.880998313
vn 0.577350318 -0.577350318 0.577350318
vn 0.577350318 0.577350318 0.577350318
vn -0.577350318 0.577350318 0.577350318
vn -0.577350318 -0.577350318 0.577350318
vn -0.577350318 -0.577350318 -0.577350318
vn -0.577350318 0.577350318 -0.577350318
vn 0.577350318 0.577350318 -0.577350318
vn 0.577350318 -0.577350318 -0.577350318
vn 0.301511347 -0.301511347 0.904534042
vn 0.577350318 -0.577350318 0.577350318
vn -0.577350318 -0.577350318 0.577350318
vn -0.301511347 -0.301511347 0.904534042
vn -0.301511347 -0.301511347 0.904534042
vn -0.577350318 -0.577350318 0.577350318
vn -0.577350318 0.577350318 0.577350318
vn -0.301511347 0.301511347 0.904534042
vn -0.301511347 0.301511347 0.904534042
vn -0.577350318 0.577350318 0.577350318
vn 0.577350318 0.577350318 0.577350318
vn 0.301511347 0.301511347 0.904534042
vn 0.301511347 0.301511347 0.904534042
vn 0.577350318 0.577350318 0.577350318
vn 0.577350318 -0.577350318 0.577350318
vn 0.301511347 -0.301511347 0.904534042
vn -0.301511347 -0.301511347 -0.904534042
vn -0.577350318 -0.577350318 -0.577350318
vn 0.577350318 -0.577350318 -0.577350318
vn 0.301511347 -0.301511347 -0.904534042
vn 0.301511347 -0.301511347 -0.904534042
vn 0.577350318 -0.577350318 -0.577350318
vn 0.577350318 0.577350318 -0.577350318
vn 0.301511347 0.301511347 -0.904534042
vn 0.301511347 0.301511347 -0.904534042
vn 0.577350318 0.577350318 -0.577350318
vn -0.577350318 0.577350318 -0.577350318
vn -0.301511347 0.301511347 -0.904534042
vn -0.301511347 0.301511347 -0.904534042
vn -0.577350318 0.577350318 -0.577350318
vn -0.577350318 -0.577350318 -0.577350318
vn -0.301511347 -0.301511347 -0.904534042
vn 0.880998313 -0.301121831 -0.364921421
vn 0.904534042 0.301511347 0.301511347
vn 0.904534042 0.301511347 -0.301511347
vn 0.880998313 -0.301121831 0.364921421
vn 0.880998313 -0.301121831 0.364921421
vn 0.904534042 0.301511347 -0.301511347
vn 0.904534042 -0.301511347 -0.301511347
vn 0.717283547 0.630262494 0.297108561
vn 0.717283547 0.630262494 0.297108561
vn 0.904534042 -0.301511347 -0.301511347
vn 0.904534042 -0.301511347 0.301511347
vn 0.717283547 0.630262494 -0.297108561
vn 0.717283547 0.630262494 -0.297108561
vn 0.904534042 -0.301511347 0.301511347
vn 0.904534042 0.301511347 0.301511347
vn 0.880998313 -0.301121831 -0.364921421
vn -0.880998313 -0.301121831 0.364921421
vn -0.904534042 0.301511347 -0.301511347
vn -0.904534042 0.301511347 0.301511347
vn -0.880998313 -0.301121831 -0.364921421
vn -0.880998313 -0.301121831 -0.364921421
vn -0.904534042 0.301511347 0.301511347
vn -0.904534042 -0.301511347 0.301511347
vn -0.717283547 0.630262494 -0.297108561
vn -0.717283547 0.630262494 -0.297108561
vn -0.904534042 -0.301511347 0.301511347
vn -0.904534042 -0.301511347 -0.301511347
vn -0.717283547 0.630262494 0.297108561
vn -0.717283547 0.630262494 0.297108561
vn -0.904534042 -0.301511347 -0.301511347
vn -0.904534042 0.301511347 -0.301511347
vn -0.880998313 -0.301121831 0.364921421
vn 0.577350318 0.577350318 0.577350318
vn 0.577350318 -0.577350318 0.577350318
vn 0.577350318 -0.577350318 -0.577350318
vn 0.577350318 0.577350318 -0.577350318
vn -0.577350318 0.577350318 -0.577350318
vn -0.577350318 -0.577350318 -0.577350318
vn -0.577350318 -0.577350318 0.577350318
vn -0.577350318 0.577350318 0.577350318
vn 0.904534042 0.301511347 0.301511347
vn 0.577350318 0.577350318 0.577350318
vn 0.577350318 0.577350318 -0.577350318
vn 0.904534042 0.301511347 -0.301511347
vn 0.904534042 0.301511347 -0.301511347
vn 0.577350318 0.577350318 -0.577350318
vn 0.577350318 -0.577350318 -0.577350318
vn 0.904534042 -0.301511347 -0.301511347
vn 0.904534042 -0.301511347 -0.301511347
vn 0.577350318 -0.577350318 -0.577350318
vn 0.577350318 -0.577350318 0.577350318
vn 0.904534042 -0.301511347 0.301511347
vn 0.904534042 -0.301511347 0.301511347
vn 0.577350318 -0.577350318 0.577350318
vn 0.577350318 0.577350318 0.577350318
vn 0.904534042 0.301511347 0.301511347
vn -0.904534042 0.301511347 -0.301511347
vn -0.577350318 0.577350318 -0.577350318
vn -0.577350318 0.577350318 0.577350318
vn -0.904534042 0.301511347 0.301511347
vn -0.904534042 0.301511347 0.301511347
vn -0.577350318 0.577350318 0.577350318
vn -0.577350318 -0.577350318 0.577350318
vn -0.904534042 -0.301511347 0.301511347
vn -0.904534042 -0.301511347 0.301511347
vn -0.577350318 -0.577350318 0.577350318
vn -0.577350318 -0.577350318 -0.577350318
vn -0.904534042 -0.301511347 -0.301511347
vn -0.904534042 -0.301511347 -0.301511347
vn -0.577350318 -0.577350318 -0.577350318
vn -0.577350318 0.577350318 -0.577350318
vn -0.904534042 0.301511347 -0.301511347
vn 0.297108591 -0.630262494 0.717283547
vn 0.297108591 0.630262375 0.717283547
vn -0.29710862 0.630262434 0.717283607
vn -0.297108591 -0.630262494 0.717283487
vn -0.297108591 -0.630262494 -0.717283547
vn -0.297108591 0.630262375 -0.717283547
vn 0.297108561 0.630262375 -0.717283547
vn 0.297108561 -0.630262494 -0.717283547
vn 0.717283487 -0.630262494 -0.297108591
vn 0.717283547 -0.630262494 0.297108591
vn 0.297108591 -0.630262494 0.717283547
vn -0.297108591 -0.630262494 0.717283487
vn -0.717283547 -0.630262494 0.297108561
vn -0.717283547 -0.630262494 -0.297108591
vn -0.297108591 -0.630262494 -0.717283547
vn 0.297108561 -0.630262494 -0.717283547
vn 0.717283487 -0.630262494 -0.297108591
vn 0.717283607 0.630262494 -0.29710862
vn 0.717283547 0.630262375 0.297108591
vn 0.717283547 -0.630262494 0.297108591
vn -0.717283547 -0.630262494 0.297108561
vn -0.717283547 0.630262494 0.297108561
vn -0.717283547 0.630262375 -0.297108591
vn -0.717283547 -0.630262494 -0.297108591
vn -0.29710862 0.630262434 0.717283607
vn -0.717283547 0.630262494 0.297108561
vn -0.717283547 -0.630262494 0.297108561
vn -0.297108591 -0.630262494 0.717283487
vn 0.297108591 -0.630262494 0.717283547
vn 0.717283547 -0.630262494 0.297108591
vn 0.717283547 0.630262375 0.297108591
vn 0.297108591 0.630262375 0.717283547
vn 0.297108561 0.630262375 -0.717283547
vn 0.717283607 0.630262494 -0.29710862
vn 0.717283487 -0.630262494 -0.297108591
vn 0.297108561 -0.630262494 -0.717283547
vn -0.297108591 -0.630262494 -0.717283547
vn -0.717283547 -0.630262494 -0.297108591
vn -0.717283547 0.630262375 -0.297108591
vn -0.297108591 0.630262375 -0.717283547
vn -0.717283547 0.630262375 -0.297108591
vn 0.549132884 0.804186463 0.227458283
vn 0.227458283 0.804186463 0.549132884
vn -0.297108591 0.630262375 -0.717283547
vn -0.297108591 0.630262375 -0.717283547
vn 0.227458283 0.804186463 0.549132884
vn -0.227458283 0.804186463 0.549132884
vn 0.297108561 0.630262375 -0.717283547
vn 0.297108561 0.630262375 -0.717283547
vn -0.227458283 0.804186463 0.549132884
vn -0.549132824 0.804186463 0.227458298
vn 0.717283607 0.630262494 -0.29710862
vn 0.717283607 0.630262494 -0.29710862
vn -0.549132824 0.804186463 0.227458298
vn -0.549132884 0.804186523 -0.227458268
vn 0.717283547 0.630262375 0.297108591
vn 0.717283547 0.630262375 0.297108591
vn -0.549132884 0.804186523 -0.227458268
vn -0.227458298 0.804186463 -0.549132884
vn 0.297108591 0.630262375 0.717283547
vn 0.297108591 0.630262375 0.717283547
vn -0.227458298 0.804186463 -0.549132884
vn 0.227458298 0.804186463 -0.549132824
vn -0.29710862 0.630262434 0.717283607
vn -0.29710862 0.630262434 0.717283607
vn 0.227458298 0.804186463 -0.549132824
vn 0.549132943 0.804186463 -0.227458283
vn -0.717283547 0.630262494 0.297108561
vn -0.717283547 0.630262494 0.297108561
vn 0.549132943 0.804186463 -0.227458283
vn 0.549132884 0.804186463 0.227458283
vn -0.717283547 0.630262375 -0.297108591
vn 0.717283487 0.630262494 0.297108561
vn 0.717283547 0.630262494 -0.297108561
vn 0.297108591 0.630262494 -0.717283487
vn -0.297108591 0.630262494 -0.717283547
vn -0.717283547 0.630262494 -0.297108561
vn -0.717283487 0.630262494 0.297108591
vn -0.297108561 0.630262494 0.717283487
vn 0.297108561 0.630262494 0.717283487
vn 0.549132884 0.804186463 0.227458283
vn 0.717283487 0.630262494 0.297108561
vn 0.297108561 0.630262494 0.717283487
vn 0.227458283 0.804186463 0.549132884
vn 0.227458283 0.804186463 0.549132884
vn 0.297108561 0.630262494 0.717283487
vn -0.297108561 0.630262494 0.717283487
vn -0.227458283 0.804186463 0.549132884
vn -0.227458283 0.804186463 0.549132884
vn -0.297108561 0.630262494 0.717283487
vn -0.717283487 0.630262494 0.297108591
vn -0.549132824 0.804186463 0.227458298
vn -0.549132824 0.804186463 0.227458298
vn -0.717283487 0.630262494 0.297108591
vn -0.717283547 0.630262494 -0.297108561
vn -0.549132884 0.804186523 -0.227458268
vn -0.549132884 0.804186523 -0.227458268
vn -0.717283547 0.630262494 -0.297108561
vn -0.297108591 0.630262494 -0.717283547
vn -0.227458298 0.804186463 -0.549132884
vn -0.227458298 0.804186463 -0.549132884
vn -0.297108591 0.630262494 -0.717283547
vn 0.297108591 0.630262494 -0.717283487
vn 0.227458298 0.804186463 -0.549132824
vn 0.227458298 0.804186463 -0.549132824
vn 0.297108591 0.630262494 -0.717283487
vn 0.717283547 0.630262494 -0.297108561
vn 0.549132943 0.804186463 -0.227458283
vn 0.549132943 0.804186463 -0.227458283
vn 0.717283547 0.630262494 -0.297108561
vn 0.717283487 0.630262494 0.297108561
vn 0.549132884 0.804186463 0.227458283
vn -0.297108591 -0.630262494 0.717283547
vn 0.297108591 -0.630262494 0.717283487
vn 0.29710862 0.630262434 0.717283607
vn -0.297108591 0.630262375 0.717283547
vn 0.297108591 -0.630262494 -0.717283547
vn -0.297108561 -0.630262494 -0.717283547
vn -0.297108561 0.630262375 -0.717283547
vn 0.297108591 0.630262375 -0.717283547
vn -0.717283487 -0.630262494 -0.297108591
vn -0.297108561 -0.630262494 -0.717283547
vn 0.297108591 -0.630262494 -0.717283547
vn 0.717283547 -0.630262494 -0.297108591
vn 0.717283547 -0.630262494 0.297108561
vn 0.297108591 -0.630262494 0.717283487
vn -0.297108591 -0.630262494 0.717283547
vn -0.717283547 -0.630262494 0.297108591
vn -0.717283487 -0.630262494 -0.297108591
vn -0.717283547 -0.630262494 0.297108591
vn -0.717283547 0.630262375 0.297108591
vn -0.717283607 0.630262494 -0.29710862
vn 0.717283547 -0.630262494 0.297108561
vn 0.717283547 -0.630262494 -0.297108591
vn 0.717283547 0.630262375 -0.297108591
vn 0.717283547 0.630262494 0.297108561
vn 0.29710862 0.630262434 0.717283607
vn 0.297108591 -0.630262494 0.717283487
vn 0.717283547 -0.630262494 0.297108561
vn 0.717283547 0.630262494 0.297108561
vn -0.297108591 -0.630262494 0.717283547
vn -0.297108591 0.630262375 0.717283547
vn -0.717283547 0.630262375 0.297108591
vn -0.717283547 -0.630262494 0.297108591
vn -0.297108561 0.630262375 -0.717283547
vn -0.297108561 -0.630262494 -0.717283547
vn -0.717283487 -0.630262494 -0.297108591
vn -0.717283607 0.630262494 -0.29710862
vn 0.297108591 -0.630262494 -0.717283547
vn 0.297108591 0.630262375 -0.717283547
vn 0.717283547 0.630262375 -0.297108591
vn 0.717283547 -0.630262494 -0.297108591
vn 0.717283547 0.630262375 -0.297108591
vn 0.297108591 0.630262375 -0.717283547
vn -0.227458283 0.804186463 0.549132884
vn -0.549132884 0.804186463 0.227458283
vn 0.297108591 0.630262375 -0.717283547
vn -0.297108561 0.630262375 -0.717283547
vn 0.227458283 0.804186463 0.549132884
vn -0.227458283 0.804186463 0.549132884
vn -0.297108561 0.630262375 -0.717283547
vn -0.717283607 0.630262494 -0.29710862
vn 0.549132824 0.804186463 0.227458298
vn 0.227458283 0.804186463 0.549132884
vn -0.717283607 0.630262494 -0.29710862
vn -0.717283547 0.630262375 0.297108591
vn 0.549132884 0.804186523 -0.227458268
vn 0.549132824 0.804186463 0.227458298
vn -0.717283547 0.630262375 0.297108591
vn -0.297108591 0.630262375 0.717283547
vn 0.227458298 0.804186463 -0.549132884
vn 0.549132884 0.804186523 -0.227458268
vn -0.297108591 0.630262375 0.717283547
vn 0.29710862 0.630262434 0.717283607
vn -0.227458298 0.804186463 -0.549132824
vn 0.227458298 0.804186463 -0.549132884
vn 0.29710862 0.630262434 0.717283607
vn 0.717283547 0.630262494 0.297108561
vn -0.549132943 0.804186463 -0.227458283
vn -0.227458298 0.804186463 -0.549132824
vn 0.717283547 0.630262494 0.297108561
vn 0.717283547 0.630262375 -0.297108591
vn -0.549132884 0.804186463 0.227458283
vn -0.549132943 0.804186463 -0.227458283
vn -0.717283487 0.630262494 0.297108561
vn -0.297108561 0.630262494 0.717283487
vn 0.297108561 0.630262494 0.717283487
vn 0.717283487 0.630262494 0.297108591
vn 0.717283547 0.630262494 -0.297108561
vn 0.297108591 0.630262494 -0.717283547
vn -0.297108591 0.630262494 -0.717283487
vn -0.717283547 0.630262494 -0.297108561
vn -0.549132884 0.804186463 0.227458283
vn -0.227458283 0.804186463 0.549132884
vn -0.297108561 0.630262494 0.717283487
vn -0.717283487 0.630262494 0.297108561
vn -0.227458283 0.804186463 0.549132884
vn 0.227458283 0.804186463 0.549132884
vn 0.297108561 0.630262494 0.717283487
vn -0.297108561 0.630262494 0.717283487
vn 0.227458283 0.804186463 0.549132884
vn 0.549132824 0.804186463 0.227458298
vn 0.717283487 0.630262494 0.297108591
vn 0.297108561 0.630262494 0.717283487
vn 0.549132824 0.804186463 0.227458298
vn 0.549132884 0.804186523 -0.227458268
vn 0.717283547 0.630262494 -0.297108561
vn 0.717283487 0.630262494 0.297108591
vn 0.549132884 0.804186523 -0.227458268
vn 0.227458298 0.804186463 -0.549132884
vn 0.297108591 0.630262494 -0.717283547
vn 0.717283547 0.630262494 -0.297108561
vn 0.227458298 0.804186463 -0.549132884
vn -0.227458298 0.804186463 -0.549132824
vn -0.297108591 0.630262494 -0.717283487
vn 0.297108591 0.630262494 -0.717283547
vn -0.227458298 0.804186463 -0.549132824
vn -0.549132943 0.804186463 -0.227458283
vn -0.717283547 0.630262494 -0.297108561
vn -0.297108591 0.630262494 -0.717283487
vn -0.549132943 0.804186463 -0.227458283
vn -0.549132884 0.804186463 0.227458283
vn -0.717283487 0.630262494 0.297108561
vn -0.717283547 0.630262494 -0.297108561
vn 0.297108591 -0.630262494 -0.717283547
vn -0.297108591 -0.630262494 -0.717283487
vn -0.29710862 0.630262434 -0.717283607
vn 0.297108591 0.630262375 -0.717283547
vn -0.297108591 -0.630262494 0.717283547
vn 0.297108561 -0.630262494 0.717283547
vn 0.297108561 0.630262375 0.717283547
vn -0.297108591 0.630262375 0.717283547
vn 0.717283487 -0.630262494 0.297108591
vn 0.297108561 -0.630262494 0.717283547
vn -0.297108591 -0.630262494 0.717283547
vn -0.717283547 -0.630262494 0.297108591
vn -0.717283547 -0.630262494 -0.297108561
vn -0.297108591 -0.630262494 -0.717283487
vn 0.297108591 -0.630262494 -0.717283547
vn 0.717283547 -0.630262494 -0.297108591
vn 0.717283487 -0.630262494 0.297108591
vn 0.717283547 -0.630262494 -0.297108591
vn 0.717283547 0.630262375 -0.297108591
vn 0.717283607 0.630262494 0.29710862
vn -0.717283547 -0.630262494 -0.297108561
vn -0.717283547 -0.630262494 0.297108591
vn -0.717283547 0.630262375 0.297108591
vn -0.717283547 0.630262494 -0.297108561
vn -0.29710862 0.630262434 -0.717283607
vn -0.297108591 -0.630262494 -0.717283487
vn -0.717283547 -0.630262494 -0.297108561
vn -0.717283547 0.630262494 -0.297108561
vn 0.297108591 -0.630262494 -0.717283547
vn 0.297108591 0.630262375 -0.717283547
vn 0.717283547 0.630262375 -0.297108591
vn 0.717283547 -0.630262494 -0.297108591
vn 0.297108561 0.630262375 0.717283547
vn 0.297108561 -0.630262494 0.717283547
vn 0.717283487 -0.630262494 0.297108591
vn 0.717283607 0.630262494 0.29710862
vn -0.297108591 -0.630262494 0.717283547
vn -0.297108591 0.630262375 0.717283547
vn -0.717283547 0.630262375 0.297108591
vn -0.717283547 -0.630262494 0.297108591
vn -0.717283547 0.630262375 0.297108591
vn -0.297108591 0.630262375 0.717283547
vn 0.227458283 0.804186463 -0.549132884
vn 0.549132884 0.804186463 -0.227458283
vn -0.297108591 0.630262375 0.717283547
vn 0.297108561 0.630262375 0.717283547
vn -0.227458283 0.804186463 -0.549132884
vn 0.227458283 0.804186463 -0.549132884
vn 0.297108561 0.630262375 0.717283547
vn 0.717283607 0.630262494 0.29710862
vn -0.549132824 0.804186463 -0.227458298
vn -0.227458283 0.804186463 -0.549132884
vn 0.717283607 0.630262494 0.29710862
vn 0.717283547 0.630262375 -0.297108591
vn -0.549132884 0.804186523 0.227458268
vn -0.549132824 0.804186463 -0.227458298
vn 0.717283547 0.630262375 -0.297108591
vn 0.297108591 0.630262375 -0.717283547
vn -0.227458298 0.804186463 0.549132884
vn -0.549132884 0.804186523 0.227458268
vn 0.297108591 0.630262375 -0.717283547
vn -0.29710862 0.630262434 -0.717283607
vn 0.227458298 0.804186463 0.549132824
vn -0.227458298 0.804186463 0.549132884
vn -0.29710862 0.630262434 -0.717283607
vn -0.717283547 0.630262494 -0.297108561
vn 0.549132943 0.804186463 0.227458283
vn 0.227458298 0.804186463 0.549132824
vn -0.717283547 0.630262494 -0.297108561
vn -0.717283547 0.630262375 0.297108591
vn 0.549132884 0.804186463 -0.227458283
vn 0.549132943 0.804186463 0.227458283
vn 0.717283487 0.630262494 -0.297108561
vn 0.297108561 0.630262494 -0.717283487
vn -0.297108561 0.630262494 -0.717283487
vn -0.717283487 0.630262494 -0.297108591
vn -0.717283547 0.630262494 0.297108561
vn -0.297108591 0.630262494 0.717283547
vn 0.297108591 0.630262494 0.717283487
vn 0.717283547 0.630262494 0.297108561
vn 0.549132884 0.804186463 -0.227458283
vn 0.227458283 0.804186463 -0.549132884
vn 0.297108561 0.630262494 -0.717283487
vn 0.717283487 0.630262494 -0.297108561
vn 0.227458283 0.804186463 -0.549132884
vn -0.227458283 0.804186463 -0.549132884
vn -0.297108561 0.630262494 -0.717283487
vn 0.297108561 0.630262494 -0.717283487
vn -0.227458283 0.804186463 -0.549132884
vn -0.549132824 0.804186463 -0.227458298
vn -0.717283487 0.630262494 -0.297108591
vn -0.297108561 0.630262494 -0.717283487
vn -0.549132824 0.804186463 -0.227458298
vn -0.549132884 0.804186523 0.227458268
vn -0.717283547 0.630262494 0.297108561
vn -0.717283487 0.630262494 -0.297108591
vn -0.549132884 0.804186523 0.227458268
vn -0.227458298 0.804186463 0.549132884
vn -0.297108591 0.630262494 0.717283547
vn -0.717283547 0.630262494 0.297108561
vn -0.227458298 0.804186463 0.549132884
vn 0.227458298 0.804186463 0.549132824
vn 0.297108591 0.630262494 0.717283487
vn -0.297108591 0.630262494 0.717283547
vn 0.227458298 0.804186463 0.549132824
vn 0.549132943 0.804186463 0.227458283
vn 0.717283547 0.630262494 0.297108561
vn 0.297108591 0.630262494 0.717283487
vn 0.549132943 0.804186463 0.227458283
vn 0.549132884 0.804186463 -0.227458283
vn 0.717283487 0.630262494 -0.297108561
vn 0.717283547 0.630262494 0.297108561
vn -0.297108591 -0.630262494 -0.717283547
vn -0.297108591 0.630262375 -0.717283547
vn 0.29710862 0.630262434 -0.717283607
vn 0.297108591 -0.630262494 -0.717283487
vn 0.297108591 -0.630262494 0.717283547
vn 0.297108591 0.630262375 0.717283547
vn -0.297108561 0.630262375 0.717283547
vn -0.297108561 -0.630262494 0.717283547
vn -0.717283487 -0.630262494 0.297108591
vn -0.717283547 -0.630262494 -0.297108591
vn -0.297108591 -0.630262494 -0.717283547
vn 0.297108591 -0.630262494 -0.717283487
vn 0.717283547 -0.630262494 -0.297108561
vn 0.717283547 -0.630262494 0.297108591
vn 0.297108591 -0.630262494 0.717283547
vn -0.297108561 -0.630262494 0.717283547
vn -0.717283487 -0.630262494 0.297108591
vn -0.717283607 0.630262494 0.29710862
vn -0.717283547 0.630262375 -0.297108591
vn -0.717283547 -0.630262494 -0.297108591
vn 0.717283547 -0.630262494 -0.297108561
vn 0.717283547 0.630262494 -0.297108561
vn 0.717283547 0.630262375 0.297108591
vn 0.717283547 -0.630262494 0.297108591
vn 0.29710862 0.630262434 -0.717283607
vn 0.717283547 0.630262494 -0.297108561
vn 0.717283547 -0.630262494 -0.297108561
vn 0.297108591 -0.630262494 -0.717283487
vn -0.297108591 -0.630262494 -0.717283547
vn -0.717283547 -0.630262494 -0.297108591
vn -0.717283547 0.630262375 -0.297108591
vn -0.297108591 0.630262375 -0.717283547
vn -0.297108561 0.630262375 0.717283547
vn -0.717283607 0.630262494 0.29710862
vn -0.717283487 -0.630262494 0.297108591
vn -0.297108561 -0.630262494 0.717283547
vn 0.297108591 -0.630262494 0.717283547
vn 0.717283547 -0.630262494 0.297108591
vn 0.717283547 0.630262375 0.297108591
vn 0.297108591 0.630262375 0.717283547
vn 0.717283547 0.630262375 0.297108591
vn -0.549132884 0.804186463 -0.227458283
vn -0.227458283 0.804186463 -0.549132884
vn 0.297108591 0.630262375 0.717283547
vn 0.297108591 0.630262375 0.717283547
vn -0.227458283 0.804186463 -0.549132884
vn 0.227458283 0.804186463 -0.549132884
vn -0.297108561 0.630262375 0.717283547
vn -0.297108561 0.630262375 0.717283547
vn 0.227458283 0.804186463 -0.549132884
vn 0.549132824 0.804186463 -0.227458298
vn -0.717283607 0.630262494 0.29710862
vn -0.717283607 0.630262494 0.29710862
vn 0.549132824 0.804186463 -0.227458298
vn 0.549132884 0.804186523 0.227458268
vn -0.717283547 0.630262375 -0.297108591
vn -0.717283547 0.630262375 -0.297108591
vn 0.549132884 0.804186523 0.227458268
vn 0.227458298 0.804186463 0.549132884
vn -0.297108591 0.630262375 -0.717283547
vn -0.297108591 0.630262375 -0.717283547
vn 0.227458298 0.804186463 0.549132884
vn -0.227458298 0.804186463 0.549132824
vn 0.29710862 0.630262434 -0.717283607
vn 0.29710862 0.630262434 -0.717283607
vn -0.227458298 0.804186463 0.549132824
vn -0.549132943 0.804186463 0.227458283
vn 0.717283547 0.630262494 -0.297108561
vn 0.717283547 0.630262494 -0.297108561
vn -0.549132943 0.804186463 0.227458283
vn -0.549132884 0.804186463 -0.227458283
vn 0.717283547 0.630262375 0.297108591
vn -0.717283487 0.630262494 -0.297108561
vn -0.717283547 0.630262494 0.297108561
vn -0.297108591 0.630262494 0.717283487
vn 0.297108591 0.630262494 0.717283547
vn 0.717283547 0.630262494 0.297108561
vn 0.717283487 0.630262494 -0.297108591
vn 0.297108561 0.630262494 -0.717283487
vn -0.297108561 0.630262494 -0.717283487
vn -0.549132884 0.804186463 -0.227458283
vn -0.717283487 0.630262494 -0.297108561
vn -0.297108561 0.630262494 -0.717283487
vn -0.227458283 0.804186463 -0.549132884
vn -0.227458283 0.804186463 -0.549132884
vn -0.297108561 0.630262494 -0.717283487
vn 0.297108561 0.630262494 -0.717283487
vn 0.227458283 0.804186463 -0.549132884
vn 0.227458283 0.804186463 -0.549132884
vn 0.297108561 0.630262494 -0.717283487
vn 0.717283487 0.630262494 -0.297108591
vn 0.549132824 0.804186463 -0.227458298
vn 0.549132824 0.804186463 -0.227458298
vn 0.717283487 0.630262494 -0.297108591
vn 0.717283547 0.630262494 0.297108561
vn 0.549132884 0.804186523 0.227458268
vn 0.549132884 0.804186523 0.227458268
vn 0.717283547 0.630262494 0.297108561
vn 0.297108591 0.630262494 0.717283547
vn 0.227458298 0.804186463 0.549132884
vn 0.227458298 0.804186463 0.549132884
vn 0.297108591 0.630262494 0.717283547
vn -0.297108591 0.630262494 0.717283487
vn -0.227458298 0.804186463 0.549132824
vn -0.227458298 0.804186463 0.549132824
vn -0.297108591 0.630262494 0.717283487
vn -0.717283547 0.630262494 0.297108561
vn -0.549132943 0.804186463 0.227458283
vn -0.549132943 0.804186463 0.227458283
vn -0.717283547 0.630262494 0.297108561
vn -0.717283487 0.630262494 -0.297108561
vn -0.549132884 0.804186463 -0.227458283
g 
f 13/1/1 4/2/2 3/3/3 6/4/4 5/5/5 12/6/6 11/7/7 14/8/8
f 3/9/9 4/10/10 1/11/11 2/12/12
f 7/13/13 8/14/14 5/15/15 6/16/16
f 11/17/17 12/18/18 9/19/19 10/20/20
f 15/21/21 16/22/22 13/23/23 14/24/24
f 17/25/25 24/26/26 23/27/27 22/28/28 21/29/29 20/30/30 19/31/31 18/32/32
f 9/19/33 17/33/34 18/34/35 10/20/36
f 10/20/37 18/34/38 19/35/39 15/36/40
f 15/21/41 19/37/42 20/38/43 16/22/44
f 16/22/45 20/38/46 21/39/47 1/40/48
f 1/11/49 21/41/50 22/42/51 2/12/52
f 2/12/53 22/42/54 23/43/55 7/44/56
f 7/13/57 23/45/58 24/46/59 8/14/60
f 8/14/61 24/46/62 17/47/63 9/48/64
f 33/49/65 32/50/66 31/51/67 26/52/68 25/53/69 40/54/70 39/55/71 34/56/72
f 41/57/73 42/58/74 28/59/75 37/60/76
f 42/58/77 41/57/78 40/61/79 25/62/80
f 42/63/81 43/64/82 27/65/83 28/66/84
f 43/64/85 42/63/86 25/67/87 26/68/88
f 43/64/89 44/69/90 30/70/91 27/65/92
f 44/69/93 43/64/94 26/68/95 31/71/96
f 44/72/97 45/73/98 29/74/99 30/75/100
f 45/73/101 44/72/102 31/76/103 32/77/104
f 45/73/105 46/78/106 36/79/107 29/74/108
f 46/78/109 45/73/110 32/77/111 33/80/112
f 46/81/113 47/82/114 35/83/115 36/84/116
f 47/82/117 46/81/118 33/85/119 34/86/120
f 47/82/121 48/87/122 38/88/123 35/83/124
f 48/87/125 47/82/126 34/86/127 39/89/128
f 48/90/129 41/57/130 37/60/131 38/91/132
f 41/57/133 48/90/134 39/92/135 40/61/136
f 7/44/137 49/93/138 50/94/139 2/12/140
f 2/12/141 50/94/142 51/95/143 3/9/144
f 3/9/145 51/95/146 52/96/147 6/97/148
f 6/97/149 52/96/150 49/93/151 7/44/152
f 15/36/153 53/98/154 54/99/155 10/20/156
f 10/20/157 54/99/158 55/100/159 11/17/160
f 11/17/161 55/100/162 56/101/163 14/102/164
f 14/102/165 56/101/166 53/98/167 15/36/168
f 57/103/169 60/104/170 59/105/171 58/106/172
f 61/107/173 64/108/174 63/109/175 62/110/176
f 49/111/177 57/103/178 58/106/179 50/112/180
f 50/113/181 58/106/182 59/105/183 51/114/184
f 51/115/185 59/105/186 60/104/187 52/116/188
f 52/117/189 60/104/190 57/103/191 49/118/192
f 53/119/193 61/107/194 62/110/195 54/120/196
f 54/121/197 62/110/198 63/109/199 55/122/200
f 55/123/201 63/109/202 64/108/203 56/124/204
f 56/125/205 64/108/206 61/107/207 53/126/208
f 9/48/209 65/127/210 66/128/211 8/14/212
f 8/14/213 66/128/214 67/129/215 5/15/216
f 5/15/217 67/129/218 68/130/219 12/131/220
f 12/131/221 68/130/222 65/127/223 9/48/224
f 1/40/225 69/132/226 70/133/227 16/22/228
f 16/22/229 70/133/230 71/134/231 13/23/232
f 13/23/233 71/134/234 72/135/235 4/136/236
f 4/136/237 72/135/238 69/132/239 1/40/240
f 65/127/249 73/137/250 74/140/251 66/128/252
f 66/128/253 74/140/254 75/139/255 67/129/256
f 67/129/257 75/139/258 76/138/259 68/130/260
f 68/130/261 76/138/262 73/137/263 65/127/264
f 69/132/265 77/141/266 78/144/267 70/133/268
f 70/133/269 78/144/270 79/143/271 71/134/272
f 71/134/273 79/143/274 80/142/275 72/135/276
f 72/135/277 80/142/278 77/141/279 69/132/280
f 87/145/281 86/146/282 83/147/283 82/148/284
f 95/149/285 94/150/286 91/151/287 90/152/288
f 89/153/289 88/154/290 87/155/291 82/156/292 81/157/293 96/158/294 95/159/295 90/160/296
f 89/161/297 92/162/298 85/163/299 88/164/300
f 81/165/301 84/166/302 93/167/303 96/168/304
f 83/147/305 84/166/306 81/165/307 82/148/308
f 87/145/309 88/169/310 85/170/311 86/146/312
f 91/151/313 92/162/314 89/161/315 90/152/316
f 95/149/317 96/168/318 93/167/319 94/150/320
f 93/171/321 97/172/322 98/173/323 94/174/324
f 94/174/325 98/173/326 99/175/327 91/176/328
f 91/176/329 99/175/330 100/177/331 92/178/332
f 92/178/333 100/177/334 101/179/335 85/180/336
f 85/180/337 101/179/338 102/181/339 86/182/340
f 86/182/341 102/181/342 103/183/343 83/184/344
f 83/184/345 103/183/346 104/185/347 84/186/348
f 84/186/349 104/185/350 97/172/351 93/171/352
f 105/187/353 112/188/354 111/189/355 110/190/356 109/191/357 108/192/358 107/193/359 106/194/360
f 97/195/361 105/196/362 106/197/363 98/198/364
f 98/198/365 106/197/366 107/199/367 99/200/368
f 99/200/369 107/199/370 108/201/371 100/202/372
f 100/202/373 108/201/374 109/203/375 101/204/376
f 101/205/377 109/206/378 110/207/379 102/208/380
f 102/208/381 110/207/382 111/209/383 103/210/384
f 103/210/385 111/209/386 112/211/387 104/212/388
f 104/212/389 112/211/390 105/196/391 97/195/392
f 119/213/393 114/214/394 115/215/395 118/216/396
f 127/217/397 122/218/398 123/219/399 126/220/400
f 121/221/401 122/222/402 127/223/403 128/224/404 113/225/405 114/226/406 119/227/407 120/228/408
f 121/229/409 120/230/410 117/231/411 124/232/412
f 113/233/413 128/234/414 125/235/415 116/236/416
f 115/215/417 114/214/418 113/233/419 116/236/420
f 119/213/421 118/216/422 117/237/423 120/238/424
f 123/219/425 122/218/426 121/229/427 124/232/428
f 127/217/429 126/220/430 125/235/431 128/234/432
f 125/239/433 126/240/434 130/241/435 129/242/436
f 126/240/437 123/243/438 131/244/439 130/241/440
f 123/243/441 124/245/442 132/246/443 131/244/444
f 124/245/445 117/247/446 133/248/447 132/246/448
f 117/247/449 118/249/450 134/250/451 133/248/452
f 118/249/453 115/251/454 135/252/455 134/250/456
f 115/251/457 116/253/458 136/254/459 135/252/460
f 116/253/461 125/239/462 129/242/463 136/254/464
f 137/255/465 138/256/466 139/257/467 140/258/468 141/259/469 142/260/470 143/261/471 144/262/472
f 129/263/473 130/264/474 138/265/475 137/266/476
f 130/264/477 131/267/478 139/268/479 138/265/480
f 131/267/481 132/269/482 140/270/483 139/268/484
f 132/269/485 133/271/486 141/272/487 140/270/488
f 133/273/489 134/274/490 142/275/491 141/276/492
f 134/274/493 135/277/494 143/278/495 142/275/496
f 135/277/497 136/279/498 144/280/499 143/278/500
f 136/279/501 129/263/502 137/266/503 144/280/504
f 151/281/505 146/282/506 147/283/507 150/284/508
f 159/285/509 154/286/510 155/287/511 158/288/512
f 153/289/513 154/290/514 159/291/515 160/292/516 145/293/517 146/294/518 151/295/519 152/296/520
f 153/297/521 152/298/522 149/299/523 156/300/524
f 145/301/525 160/302/526 157/303/527 148/304/528
f 147/283/529 146/282/530 145/301/531 148/304/532
f 151/281/533 150/284/534 149/305/535 152/306/536
f 155/287/537 154/286/538 153/297/539 156/300/540
f 159/285/541 158/288/542 157/303/543 160/302/544
f 157/307/545 158/308/546 162/309/547 161/310/548
f 158/308/549 155/311/550 163/312/551 162/309/552
f 155/311/553 156/313/554 164/314/555 163/312/556
f 156/313/557 149/315/558 165/316/559 164/314/560
f 149/315/561 150/317/562 166/318/563 165/316/564
f 150/317/565 147/319/566 167/320/567 166/318/568
f 147/319/569 148/321/570 168/322/571 167/320/572
f 148/321/573 157/307/574 161/310/575 168/322/576
f 169/323/577 170/324/578 171/325/579 172/326/580 173/327/581 174/328/582 175/329/583 176/330/584
f 161/331/585 162/332/586 170/333/587 169/334/588
f 162/332/589 163/335/590 171/336/591 170/333/592
f 163/335/593 164/337/594 172/338/595 171/336/596
f 164/337/597 165/339/598 173/340/599 172/338/600
f 165/341/601 166/342/602 174/343/603 173/344/604
f 166/342/605 167/345/606 175/346/607 174/343/608
f 167/345/609 168/347/610 176/348/611 175/346/612
f 168/347/613 161/331/614 169/334/615 176/348/616
f 183/349/617 182/350/618 179/351/619 178/352/620
f 191/353/621 190/354/622 187/355/623 186/356/624
f 185/357/625 184/358/626 183/359/627 178/360/628 177/361/629 192/362/630 191/363/631 186/364/632
f 185/365/633 188/366/634 181/367/635 184/368/636
f 177/369/637 180/370/638 189/371/639 192/372/640
f 179/351/641 180/370/642 177/369/643 178/352/644
f 183/349/645 184/373/646 181/374/647 182/350/648
f 187/355/649 188/366/650 185/365/651 186/356/652
f 191/353/653 192/372/654 189/371/655 190/354/656
f 189/375/657 193/376/658 194/377/659 190/378/660
f 190/378/661 194/377/662 195/379/663 187/380/664
f 187/380/665 195/379/666 196/381/667 188/382/668
f 188/382/669 196/381/670 197/383/671 181/384/672
f 181/384/673 197/383/674 198/385/675 182/386/676
f 182/386/677 198/385/678 199/387/679 179/388/680
f 179/388/681 199/387/682 200/389/683 180/390/684
f 180/390/685 200/389/686 193/376/687 189/375/688
f 201/391/689 208/392/690 207/393/691 206/394/692 205/395/693 204/396/694 203/397/695 202/398/696
f 193/399/697 201/400/698 202/401/699 194/402/700
f 194/402/701 202/401/702 203/403/703 195/404/704
f 195/404/705 203/403/706 204/405/707 196/406/708
f 196/406/709 204/405/710 205/407/711 197/408/712
f 197/409/713 205/410/714 206/411/715 198/412/716
f 198/412/717 206/411/718 207/413/719 199/414/720
f 199/414/721 207/413/722 208/415/723 200/416/724
f 200/416/725 208/415/726 201/400/727 193/399/728
g group2
f 73/137/241 76/138/242 75/139/243 74/140/244
f 77/141/245 80/142/246 79/143/247 78/144/248
